<?xml version="1.0" encoding="UTF-8" standalone="no"?>
<svg
   xmlns:dc="http://purl.org/dc/elements/1.1/"
   xmlns:cc="http://creativecommons.org/ns#"
   xmlns:rdf="http://www.w3.org/1999/02/22-rdf-syntax-ns#"
   xmlns:svg="http://www.w3.org/2000/svg"
   xmlns="http://www.w3.org/2000/svg"
   xmlns:sodipodi="http://sodipodi.sourceforge.net/DTD/sodipodi-0.dtd"
   xmlns:inkscape="http://www.inkscape.org/namespaces/inkscape"
   version="1.1"
   width="128"
   height="128"
   id="svg2876"
   inkscape:version="0.48.4 r9939"
   sodipodi:docname="testdisk.svg">
  <metadata
     id="metadata14">
    <rdf:RDF>
      <cc:Work
         rdf:about="">
        <dc:format>image/svg+xml</dc:format>
        <dc:type
           rdf:resource="http://purl.org/dc/dcmitype/StillImage" />
      </cc:Work>
    </rdf:RDF>
  </metadata>
  <defs
     id="defs12" />
  <sodipodi:namedview
     pagecolor="#ffffff"
     bordercolor="#666666"
     borderopacity="1"
     objecttolerance="10"
     gridtolerance="10"
     guidetolerance="10"
     inkscape:pageopacity="0"
     inkscape:pageshadow="2"
     inkscape:window-width="1855"
     inkscape:window-height="1056"
     id="namedview10"
     showgrid="false"
     inkscape:zoom="2.5376344"
     inkscape:cx="40.154511"
     inkscape:cy="90.939674"
     inkscape:window-x="65"
     inkscape:window-y="24"
     inkscape:window-maximized="1"
     inkscape:current-layer="svg2876" />
  <g
     id="g2991"
     transform="matrix(1.3333333,0,0,1.3333333,1.6e-6,-44.666664)">
    <path
       inkscape:connector-curvature="0"
       style="stroke:#000000;stroke-width:4;stroke-linejoin:round"
       id="border"
       d="m 30,37 0,34.5 C 14.502281,71.76763 2,84.438975 2,100 c 0,5.95501 1.8412846,11.48851 4.96875,16.0625 L 7.25,116.5 l 22.75,0 0,9.5 64,0 0,-89 -64,0 z" />
    <rect
       style="fill:#848484;stroke:#ffffff;stroke-width:4"
       id="case"
       y="39"
       x="32"
       height="85"
       width="60" />
    <path
       inkscape:connector-curvature="0"
       style="fill:#848484;stroke:#ffffff;stroke-width:6"
       id="disk"
       d="m 85.5,70 a 22.5,22.5 0 0 1 -45,0 22.5,22.5 0 1 1 45,0 z" />
    <path
       inkscape:connector-curvature="0"
       style="fill:#ffffff"
       id="axis"
       d="m 68,70 a 5,5 0 0 1 -10,0 5,5 0 1 1 10,0 z" />
    <path
       inkscape:connector-curvature="0"
       style="fill:#4a4a4a;stroke:#ffffff;stroke-width:2;stroke-linejoin:bevel"
       id="arm"
       d="M 88.170431,107.375 66,83.224688 76.695595,114 88.170431,107.375 z" />
    <path
       inkscape:connector-curvature="0"
       style="fill:#009c18;stroke:#ffffff;stroke-width:2"
       id="scale"
       d="M 30.5,72.5 C 15.312169,72.5 3,84.812169 3,100 c 0,5.7506 1.7632823,11.08615 4.78125,15.5 l 45.4375,0 C 56.236718,111.08615 58,105.7506 58,100 58,84.812169 45.687831,72.5 30.5,72.5 z" />
    <path
       inkscape:connector-curvature="0"
       style="fill:#ffffff"
       id="hand"
       d="m 10.9375,86.4375 6.53125,11.125 1.28125,-0.5 7.90625,7.90625 c -0.362162,1.33786 -0.05035,2.82465 1,3.875 1.562097,1.5621 4.125403,1.5621 5.6875,0 1.562097,-1.5621 1.562097,-4.1254 0,-5.6875 -1.050354,-1.05035 -2.537136,-1.36216 -3.875,-1 L 21.5625,94.25 l 0.5,-1.28125 -11.125,-6.53125 z" />
  </g>
</svg>
