<svg xmlns="http://www.w3.org/2000/svg" xmlns:xlink="http://www.w3.org/1999/xlink" width="1035" height="1035"><defs><linearGradient x1="4557.393" y1="2555.5" x2="5873.857" y2="2101.333" id="d" xlink:href="#a" gradientUnits="userSpaceOnUse" gradientTransform="translate(-559.5454,-6194.7538)"/><linearGradient id="a"><stop offset="0" stop-color="#fff" stop-opacity=".183"/><stop offset="1" stop-opacity="0"/></linearGradient><linearGradient x1="4674.06" y1="2559.666" x2="5742.607" y2="2159.666" id="e" xlink:href="#b" gradientUnits="userSpaceOnUse" gradientTransform="translate(-559.54516,-6194.7538)"/><linearGradient id="b"><stop offset="0"/><stop offset="1" stop-opacity="0"/></linearGradient><linearGradient x1="841.349" y1="1927.293" x2="1656.258" y2="1980.418" id="f" xlink:href="#c" gradientUnits="userSpaceOnUse" gradientTransform="translate(-61.21711,-1358.7073)"/><linearGradient id="c"><stop offset="0"/><stop offset="1" stop-opacity="0"/></linearGradient></defs><g transform="translate(0.05685204,-99.862178) matrix(0.6230869,0,0,0.6230869,1203.4946,227.06304)"><g><g><path d="m 4333.1753,-3347.0245 c -132.6931,15.4114 -199.9754,-83.3648 -201.7313,-227.7377 -1.3789,-113.3649 109.6796,-474.0376 346.9537,-465.8051 l 94.5464,3.0381 17.2566,-171.7146 -74.0605,-269.8915 c 87.8904,-33.6127 128.2745,59.4812 159.1444,98.9927 l 8.0776,-4.2966 -31.7946,-90.2277 c 131.4228,-50.7529 100.2354,106.7138 120.3036,202.4537 15.9166,-70.1173 51.1316,-203.3027 -19.6778,-330.65 -24.8802,-44.7457 -36.9738,-86.2658 -11.9449,-113.7857 38.4557,-42.2829 83.6506,6.5732 107.9295,32.9976 99.1151,107.8736 52.6035,288.3045 31.9664,378.0969 -11.2886,49.117 -24.5641,95.6492 -34.0287,151.9262 49.819,-123.9817 87.2975,-299.3973 78.3692,-377.9251 -5.5565,-48.8715 -23.8781,-128.7146 11.2113,-140.8221 30.868,-10.651 59.4913,2.7741 89.0777,95.6401 27.3888,85.968 19.4286,160.3832 -12.6392,245.0578 -17.407,45.9629 -40.9135,92.983 -66.4058,137.1423 -49.2635,85.3365 -96.0188,157.5095 -123.2941,242.5596 l 153.1215,-260.5494 107.3065,-257.3899 c 83.2378,94.7934 67.3249,195.0922 -25.9636,340.3947 -31.3943,48.8984 -61.029,103.1183 -69.0688,122.4938 l 177.0898,-261.4058 c 46.6106,116.9252 9.3297,295.2574 -197.6416,405.0792 l 6.5308,15.4676 182.3458,-101.5705 c 2.4424,91.3889 -35.3581,185.7823 -187.4043,225.9471 -91.6676,27.0814 -198.0898,34.2081 -277.8268,71.2885 109.2344,15.4783 189.699,-17.5666 275.1533,-43.0947 27.2681,-8.1459 54.7698,-17.6701 84.4685,-24.9627 -3.0422,88.0289 -116.2082,147.0929 -217.1922,166.4554 -86.4033,16.5669 -160.8968,15.185 -211.5565,-19.7247 l -13.0032,34.27 294.5157,0 c -118.9598,111.5609 -264.7492,57.9214 -394.1299,54.7083 l 175.8103,73.136 c -84.4584,98.0198 -214.6789,12.4309 -274.3425,-37.1563 l 65.6235,103.0228 c -70.4991,28.9363 -122.7174,-17.9934 -167.3968,-96.2088 l -7.5619,4.2965 z" fill="#180075" fill-opacity=".851" transform="translate(-5453.8944,4661.4831)"/><path d="m 4333.1753,-3347.0245 c -132.6931,15.4114 -199.9754,-83.3648 -201.7313,-227.7377 -1.3789,-113.3649 109.6796,-474.0376 346.9537,-465.8051 l 94.5464,3.0381 17.2566,-171.7147 -74.0605,-269.8914 c 87.8904,-33.6128 128.2745,59.4811 159.1444,98.9926 l 8.0776,-4.2966 -31.7946,-90.2276 c 131.4228,-50.7529 100.2354,106.7137 120.3036,202.4537 15.9166,-70.1173 51.1316,-203.3027 -19.6778,-330.65 -24.8802,-44.7458 -36.9738,-86.2659 -11.9449,-113.7857 38.4557,-42.283 83.6506,6.5732 107.9295,32.9975 99.1151,107.8737 52.6035,288.3045 31.9664,378.0969 -11.2886,49.117 -24.5641,95.6492 -34.0287,151.9262 49.819,-123.9816 87.2975,-299.3973 78.3692,-377.925 -5.5565,-48.8716 -23.8781,-128.7146 11.2113,-140.8222 30.868,-10.651 59.4913,2.7742 89.0777,95.6402 27.3888,85.968 19.4286,160.3831 -12.6392,245.0577 -17.407,45.9629 -40.9135,92.983 -66.4058,137.1423 -49.2635,85.3365 -96.0188,157.5096 -123.2941,242.5596 l 153.1215,-260.5494 107.3065,-257.3898 c 83.2378,94.7933 67.3249,195.0921 -25.9636,340.3946 -31.3943,48.8984 -61.029,103.1184 -69.0688,122.4938 l 177.0898,-261.4058 c 46.6106,116.9252 9.3297,295.2574 -197.6416,405.0792 l 6.5308,15.4676 182.3458,-101.5705 c 2.4424,91.3889 -35.3581,185.7823 -187.4043,225.9472 -91.6676,27.0814 -198.0898,34.2081 -277.8268,71.2885 109.2344,15.4783 189.699,-17.5666 275.1533,-43.0947 27.2681,-8.1459 54.7698,-17.6701 84.4685,-24.9627 -3.0422,88.0289 -116.2082,147.0929 -217.1922,166.4554 -86.4033,16.5669 -160.8968,15.185 -211.5565,-19.7247 l -13.0032,34.27 294.5157,0 c -118.9598,111.5609 -264.7492,57.9214 -394.1299,54.7083 l 175.8103,73.136 c -84.4584,98.0198 -214.6789,12.4309 -274.3425,-37.1563 l 65.6235,103.0228 c -70.4991,28.9363 -122.7174,-17.9934 -167.3968,-96.2088 l -7.5619,4.2965 z" fill="url(#d)" transform="translate(-5453.8944,4661.4831)"/><path d="m 4333.1753,-3347.0246 c -132.6931,15.4114 -199.9754,-83.3648 -201.7313,-227.7377 -1.3789,-113.3649 109.6796,-474.0375 346.9537,-465.805 l 94.5464,3.0381 17.2566,-171.7146 -74.0605,-269.8914 c 87.8904,-33.6128 128.2745,59.4811 159.1444,98.9926 l 8.0776,-4.2966 -31.7946,-90.2276 c 131.4228,-50.7529 100.2354,106.7137 120.3036,202.4537 15.9166,-70.1173 51.1316,-203.3027 -19.6778,-330.65 -24.8802,-44.7458 -36.9738,-86.2659 -11.9449,-113.7857 38.4557,-42.283 83.6506,6.5732 107.9295,32.9975 99.1151,107.8737 52.6035,288.3045 31.9664,378.0969 -11.2886,49.117 -24.5641,95.6492 -34.0287,151.9262 49.819,-123.9816 87.2975,-299.3973 78.3692,-377.925 -5.5565,-48.8716 -23.8781,-128.7146 11.2113,-140.8222 30.868,-10.651 59.4913,2.7742 89.0777,95.6402 27.3888,85.968 19.4286,160.3831 -12.6392,245.0577 -17.407,45.9629 -40.9135,92.983 -66.4058,137.1423 -49.2635,85.3365 -96.0188,157.5095 -123.2941,242.5595 l 153.1215,-260.5493 107.3065,-257.3898 c 83.2378,94.7933 67.3249,195.0921 -25.9636,340.3946 -31.3943,48.8983 -61.029,103.1183 -69.0688,122.4937 l 177.0898,-261.4057 c 46.6106,116.9252 9.3297,295.2573 -197.6416,405.0791 l 6.5308,15.4676 182.3458,-101.5705 c 2.4424,91.3889 -35.3581,185.7823 -187.4043,225.9471 -91.6676,27.0814 -198.0898,34.2081 -277.8268,71.2885 109.2344,15.4783 189.699,-17.5666 275.1533,-43.0947 27.2681,-8.1459 54.7698,-17.6701 84.4685,-24.9627 -3.0422,88.0289 -116.2082,147.0929 -217.1922,166.4554 -86.4033,16.5669 -160.8968,15.185 -211.5565,-19.7247 l -13.0032,34.27 294.5157,0 c -118.9598,111.5609 -264.7492,57.9214 -394.1299,54.7083 l 175.8103,73.136 c -84.4584,98.0198 -214.6789,12.4309 -274.3425,-37.1563 l 65.6235,103.0228 c -70.4991,28.9363 -122.7174,-17.9934 -167.3968,-96.2088 l -7.5619,4.2965 z" fill="url(#e)" transform="translate(-5453.8944,4661.4831)"/></g><g><g><path d="m 774.23923,745.58317 c 61.49499,-5.13211 183.11159,-8.10402 199.05941,-103.8907 23.74776,18.07734 45.56486,26.01284 65.78146,26.01284 23.4954,0 46.6306,-19.20642 82.063,-51.96404 l 26.4168,60.92252 51.6481,-8.50675 c -11.7501,-64.28511 -49.0883,-80.32634 -91.8714,-95.81612 -29.6868,-10.74819 -53.7264,-23.39699 -73.4565,-43.00337 108.4393,-32.90281 96.2565,-134.86927 121.7214,-208.76961 l -155.70719,77.50985 69.26049,-60.49549 0,-17.52995 c -79.40685,-9.6439 -165.98295,32.12947 -138.95061,96.1569 l -164.9617,17.16162 16.64892,60.64095 c -31.8542,-29.68177 -73.76147,-36.05487 -98.83227,-12.68074 -20.16466,18.80002 -36.48396,60.45302 -13.82771,117.48177 l 17.35808,0 c 14.22845,-31.275 49.64606,-40.54695 76.64521,-40.07937 42.04326,0.72812 83.00271,24.05087 97.64789,38.69605 19.13524,19.13524 25.2085,36.02888 25.18006,50.86419 -0.052,27.13898 -21.02189,39.83763 -58.96399,59.48045 -34.23835,17.72537 -45.60203,28.14201 -52.85945,37.809 z" fill="#180075" fill-opacity=".851" transform="translate(-2088.2812,-73.567708)"/><path d="m 774.23924,745.58316 c 61.49499,-5.1321 183.11155,-8.104 199.05945,-103.8907 23.7477,18.0774 45.56481,26.0129 65.78141,26.0129 23.4954,0 46.6306,-19.2064 82.063,-51.9641 l 26.4168,60.9226 51.6481,-8.5068 c -11.7501,-64.2851 -49.0883,-80.3263 -91.8714,-95.8161 -29.6868,-10.7482 -53.7264,-23.397 -73.4565,-43.0034 108.4393,-32.9028 96.2565,-134.8692 121.7214,-208.7696 l -155.70721,77.5099 69.26051,-60.4955 0,-17.53 c -79.40681,-9.6439 -165.98294,32.1295 -138.9506,96.1569 l -164.9617,17.1616 16.64892,60.641 c -31.8542,-29.6818 -73.76147,-36.0549 -98.83227,-12.6807 -20.16466,18.8 -36.48396,60.453 -13.82771,117.4817 l 17.35808,0 c 14.22845,-31.275 49.64606,-40.5469 76.64521,-40.0793 42.04326,0.7281 83.00271,24.0508 97.64789,38.696 19.13524,19.1352 25.2085,36.0289 25.18006,50.8642 -0.052,27.139 -21.02189,39.8376 -58.96399,59.4804 -34.23835,17.7254 -45.60203,28.1421 -52.85945,37.809 z" fill="url(#f)" transform="translate(-2088.2812,-73.567708)"/></g><g fill="#ff0100" stroke="#ff0100" stroke-width=".3"><path d="m -1253.5156,421.38541 0,-8.98437 c 43.979,-24.7127 64.4544,-5.41844 77.4739,8.85417 -25.9569,16.02246 -51.3939,16.04559 -77.4739,0.1302 z"/><path d="m -1461.7188,664.22396 251.3021,-69.66146 0,-42.96875 c -133.3855,18.4901 -214.9576,60.59246 -251.3021,112.63021 z"/></g></g></g><g stroke-width=".3"><path d="m -1387.5129,960.54693 c -5.1035,4.52313 -47.1204,31.47816 -47.9038,139.22387 -0.4492,61.7853 26.2231,90.3115 48.5722,90.3115 22.2721,0 40.951,-42.6683 39.7091,-65.8323 -3.0053,-56.0563 -55.1043,-92.1073 -40.3775,-163.70307 z" fill="#848484" stroke="#848484"/><path d="m -1794.6615,1152.2448 c 34.084,12.7175 53.3743,22.5364 59.5052,60.026 -34.5935,-2.0162 -56.811,-12.7221 -59.5052,-60.026 z" fill="#848484" stroke="#848484"/><path d="m -1925.651,743.45573 17.0572,0 8.3824,77.46524 c -27.5823,-14.11381 -37.8774,-38.82302 -25.4396,-77.46524 z" fill="#848484" stroke="#848484"/><path d="m -1726.4323,560.83854 c -23.6208,53.34542 -67.7994,58.55233 -77.2135,60.15625 6.111,-27.24125 15.6905,-57.79472 77.2135,-60.15625 z" fill="#848484" stroke="#848484"/><path d="m -1577.7344,639.61458 c 4.964,38.66947 18.5091,75.50395 68.8802,85.80729 1.1989,-76.64108 -40.8674,-81.91896 -68.8802,-85.80729 z" fill="#848484" stroke="#848484"/><path d="m -1665.1996,1220.9243 c 32.8411,-79.2593 -4.1848,-137.7672 -8.6547,-208.2651 21.8278,18.3808 54.5225,41.1861 84.2083,67.1933 32.3546,28.3453 56.1701,59.7712 77.6668,74.085 82.2954,54.7974 94.9279,-16.2707 36.3647,-81.6588 -40.386,-45.0926 -128.323,-77.11061 -172.5626,-132.4037 -37.7736,-47.21145 -16.7487,-91.24362 22.3958,-109.11458 41.4803,-18.93737 112.654,-29.90656 110.2894,-69.82384 -2.5346,-42.78742 -76.1416,-42.31928 -97.1351,-43.64174 l -78.1608,78.37443 42.8975,-225.96456 c -126.6539,4.91971 -99.9437,131.88276 -103.6722,234.62341 -22.0601,-21.2994 -31.6563,-59.11023 -51.5625,-85.80729 -50.3059,-61.98511 -87.0332,-1.01877 -84.8958,26.5625 1.9893,25.67103 12.4374,47.12337 58.9843,41.66667 17.396,62.05636 59.392,95.78009 73.0547,152.8047 8.9285,37.26534 23.5198,83.9622 27.8568,114.2526 6.4991,45.3914 -16.4368,51.8605 -14.5833,76.6927 1.6908,22.6516 23.0727,75.7177 77.5087,90.4243 z" fill="#3f1f1f" stroke="#3f1f1f"/></g></g></svg>