<svg xmlns="http://www.w3.org/2000/svg" xmlns:xlink="http://www.w3.org/1999/xlink" version="1" width="128" height="128"><defs><linearGradient id="e"><stop offset="0" stop-opacity=".239"/><stop offset="1" stop-opacity="0"/></linearGradient><linearGradient id="f"><stop offset="0" stop-opacity=".416"/><stop offset="1" stop-opacity="0"/></linearGradient><linearGradient id="c"><stop offset="0" stop-color="#fff"/><stop offset="1" stop-color="#fff" stop-opacity=".176"/></linearGradient><linearGradient id="d"><stop offset="0" stop-color="#3278c6"/><stop offset="1" stop-color="#264980"/></linearGradient><linearGradient id="b"><stop offset="0" stop-color="#72a6db"/><stop offset="1" stop-color="#4974aa"/></linearGradient><linearGradient id="a"><stop offset="0" stop-color="#fff"/><stop offset="1" stop-color="#8f8f8f"/></linearGradient><radialGradient cx="24.218" cy="13.492" r="10.214" fx="24.218" fy="13.492" xlink:href="#a" gradientUnits="userSpaceOnUse" gradientTransform="scale(0.887627,1.1266)" spreadMethod="pad"/><radialGradient cx="31.638" cy="4.291" r="6.114" fx="31.638" fy="4.291" xlink:href="#b" gradientUnits="userSpaceOnUse" gradientTransform="scale(1.061316,0.942226)" spreadMethod="pad"/><linearGradient x1="66.897" y1="9.709" x2="68.417" y2="18.199" xlink:href="#b" gradientUnits="userSpaceOnUse" gradientTransform="scale(0.577912,1.730367)"/><linearGradient x1="42.008" y1="5.456" x2="56.889" y2="14.642" xlink:href="#c" gradientUnits="userSpaceOnUse" gradientTransform="scale(0.653126,1.531098)"/><radialGradient cx="15.486" cy="16.135" r="27.532" fx="15.486" fy="16.135" xlink:href="#d" gradientUnits="userSpaceOnUse" gradientTransform="scale(0.992835,1.007217)" spreadMethod="pad"/><linearGradient x1="40.971" y1="41.885" x2="23.981" y2="21.709" xlink:href="#e" gradientUnits="userSpaceOnUse" gradientTransform="scale(0.992835,1.007217)"/><radialGradient cx="56.925" cy="25.591" r="5.343" fx="56.925" fy="25.591" xlink:href="#b" gradientUnits="userSpaceOnUse" gradientTransform="scale(1.121976,0.891285)" spreadMethod="pad"/><linearGradient x1="25.033" y1="15.336" x2="25.338" y2="24.687" xlink:href="#c" gradientUnits="userSpaceOnUse" gradientTransform="scale(0.959984,1.041684)"/><linearGradient x1="27.607" y1="16.387" x2="28.115" y2="24.093" xlink:href="#a" gradientUnits="userSpaceOnUse" gradientTransform="scale(0.887627,1.1266)"/><radialGradient cx="32.369" cy="3.356" r="6.057" fx="32.369" fy="3.356" xlink:href="#b" gradientUnits="userSpaceOnUse" gradientTransform="scale(1.040398,0.961171)" spreadMethod="pad"/><linearGradient x1="36.83" y1="47.909" x2="37.26" y2="54.864" xlink:href="#b" gradientUnits="userSpaceOnUse" gradientTransform="scale(1.517475,0.658989)"/><linearGradient x1="29.954" y1="68.697" x2="30.472" y2="63.224" xlink:href="#f" gradientUnits="userSpaceOnUse" gradientTransform="scale(1.847157,0.541373)"/><linearGradient x1="29.049" y1="63.282" x2="29.396" y2="68.898" xlink:href="#b" gradientUnits="userSpaceOnUse" gradientTransform="scale(1.925671,0.519299)"/><radialGradient xlink:href="#a" id="g" gradientUnits="userSpaceOnUse" gradientTransform="scale(0.887627,1.1266)" spreadMethod="pad" cx="24.218" cy="13.492" fx="24.218" fy="13.492" r="10.214"/><radialGradient xlink:href="#b" id="h" gradientUnits="userSpaceOnUse" gradientTransform="scale(1.061316,0.942226)" spreadMethod="pad" cx="31.638" cy="4.291" fx="31.638" fy="4.291" r="6.114"/><linearGradient xlink:href="#b" id="i" gradientUnits="userSpaceOnUse" gradientTransform="scale(0.577912,1.730367)" x1="66.897" y1="9.709" x2="68.417" y2="18.199"/><linearGradient xlink:href="#c" id="j" gradientUnits="userSpaceOnUse" gradientTransform="scale(0.653126,1.531098)" x1="42.008" y1="5.456" x2="56.889" y2="14.642"/><radialGradient xlink:href="#d" id="k" gradientUnits="userSpaceOnUse" gradientTransform="scale(0.992835,1.007217)" spreadMethod="pad" cx="15.486" cy="16.135" fx="15.486" fy="16.135" r="27.532"/><linearGradient xlink:href="#e" id="l" gradientUnits="userSpaceOnUse" gradientTransform="scale(0.992835,1.007217)" x1="40.971" y1="41.885" x2="23.981" y2="21.709"/><radialGradient xlink:href="#b" id="m" gradientUnits="userSpaceOnUse" gradientTransform="scale(1.121976,0.891285)" spreadMethod="pad" cx="56.925" cy="25.591" fx="56.925" fy="25.591" r="5.343"/><linearGradient xlink:href="#c" id="n" gradientUnits="userSpaceOnUse" gradientTransform="scale(0.959984,1.041684)" x1="25.033" y1="15.336" x2="25.338" y2="24.687"/><linearGradient xlink:href="#a" id="o" gradientUnits="userSpaceOnUse" gradientTransform="scale(0.887627,1.1266)" x1="27.607" y1="16.387" x2="28.115" y2="24.093"/><radialGradient xlink:href="#b" id="p" gradientUnits="userSpaceOnUse" gradientTransform="scale(1.040398,0.961171)" spreadMethod="pad" cx="32.369" cy="3.356" fx="32.369" fy="3.356" r="6.057"/><linearGradient xlink:href="#b" id="r" gradientUnits="userSpaceOnUse" gradientTransform="scale(1.517475,0.658989)" x1="36.83" y1="47.909" x2="37.26" y2="54.864"/><linearGradient xlink:href="#f" id="s" gradientUnits="userSpaceOnUse" gradientTransform="scale(1.847157,0.541373)" x1="29.954" y1="68.697" x2="30.472" y2="63.224"/><linearGradient xlink:href="#b" id="t" gradientUnits="userSpaceOnUse" gradientTransform="scale(1.925671,0.519299)" x1="29.049" y1="63.282" x2="29.396" y2="68.898"/></defs><g transform="matrix(2.8486658,0,0,2.8486658,-0.0949803,-0.09498125)"><g><path d="M 81,26.46875 C 76.805028,31.132758 72.584986,37.227217 66.1875,39 c -2.748022,0.326943 -7.079493,0.672513 -8.15625,3.5625 3.524074,2.557403 8.834986,0.575969 12.25,-1.625 C 75.13399,37.527964 80.107611,32.335138 81,26.46875 z" opacity=".091" transform="translate(-43.335384,-1.9034775)"/><path d="m 81.15625,26.15625 c -4.282818,4.669628 -8.393599,10.613935 -14.674829,12.694663 -3.034612,0.349323 -7.336323,0.635486 -8.606421,3.680337 1.967746,2.114288 5.782279,1.336152 8.34375,0.5625 6.996141,-2.821891 13.197113,-9.079917 14.9375,-16.40625 -0.365767,0.582889 0.26781,-0.784499 0,-0.53125 z" opacity=".091" transform="translate(-43.335384,-1.9034775)"/><path d="M 81.28125,25.84375 C 77.040411,30.475833 73.030012,36.083975 67,38.65625 c -3.190231,0.261668 -7.319358,0.676744 -9.1875,3.4375 -0.294943,1.777775 2.611478,1.759269 3.827132,1.891941 7.3376,-0.05563 13.309854,-5.678706 17.167162,-11.343609 1.223191,-1.97135 2.670502,-4.579243 2.474456,-6.798332 z" opacity=".091" transform="translate(-43.335384,-1.9034775)"/><path d="m 81.34375,25.6875 c -3.015705,2.816154 -5.451259,6.71662 -8.88795,9.290589 -1.792103,1.416951 -3.703152,3.146753 -5.974379,3.591574 -3.058394,0.261956 -6.701651,0.763664 -8.668921,3.242837 -0.879678,1.582921 1.651578,2.143464 2.75,2.21875 5.823258,0.649766 11.022895,-2.987708 14.867696,-6.898946 2.766478,-3.13119 5.771968,-6.839562 6.038554,-11.257304 -0.0071,-0.02747 -1.74e-4,-0.344205 -0.125,-0.1875 z" opacity=".091" transform="translate(-43.335384,-1.9034775)"/><path d="m 81.28125,25.5625 c -1.075846,0.814992 -1.999819,2.18083 -2.966332,3.245976 -3.186074,3.798275 -6.773968,7.454101 -11.283668,9.597774 -2.720205,0.09165 -5.587825,0.651066 -7.90625,1.96875 -0.83212,0.606329 -1.974363,1.424443 -1.53125,2.5625 1.008181,1.238146 2.955337,1.222328 4.505,1.3125 3.478781,-0.06154 6.770703,-1.595046 9.483252,-3.594822 3.076395,-2.219725 5.676875,-5.095031 7.730498,-8.280178 1.067489,-1.935709 2.310749,-4.180445 2.28125,-6.53125 -0.01127,-0.202632 -0.05442,-0.48486 -0.3125,-0.28125 z" opacity=".091" transform="translate(-43.335384,-1.9034775)"/><path d="M 81.738692,26.156223 C 81.480406,32.450742 71.287915,44.499113 61.974912,44.36997 53.436977,44.240826 57.664444,38.549781 66.97745,38.291367 76.236606,33.988625 81.867941,22.186916 81.738692,26.156223 z" opacity=".091" transform="translate(-43.335384,-1.9034775)"/></g><g><path d="m 93.84375,-11.46875 c -6.153241,3.0926887 -7.082616,11.11573031 -7.40625,17.28125 1.419422,3.9985246 1.215826,9.500494 5.90625,10.96875 3.079609,1.240475 1.534167,-0.349398 0.15625,-1.8125 -2.973351,-4.491239 -1.596304,-10.0933845 0.21875,-14.6875 0.182341,-3.9816839 -0.282512,-8.1742521 1.46875,-11.875 l -0.34375,0.125 z" opacity=".091" transform="translate(-52.665634,16.290668)"/><path d="m 94.34375,-11.8125 c -6.400824,2.5452382 -7.519416,10.5542885 -8.021648,16.7070492 0.300886,3.2697087 1.642403,6.4254678 2.396648,9.6367008 1.806337,1.271773 3.719862,3.040044 6.15625,2.78125 C 89.973001,13.576997 89.986275,6.2356881 92.75,1.15625 93.061085,-3.1563544 92.602805,-8.1188739 94.34375,-11.8125 z" opacity=".091" transform="translate(-52.665634,16.290668)"/><path d="m 94.34375,-11.9375 c -5.44095,1.838479 -6.965233,8.3427424 -7.890217,13.512222 -1.060916,4.4869075 1.183442,8.718676 2.140217,13.019028 1.919445,1.423992 4.057087,3.260277 6.625,2.84375 C 90.265387,13.870425 90.014241,6.5227837 92.77633,1.4571171 93.50912,-2.9921855 92.389452,-7.9536265 94.71875,-12.0625 l -0.369986,0.123329 -0.005,0.0017 z" opacity=".091" transform="translate(-52.665634,16.290668)"/><path d="m 94.28125,-12.0625 c -4.946605,1.645516 -6.600067,7.1449928 -7.64285,11.84907167 -0.526494,2.87846183 -1.073292,5.93226593 0.148761,8.71426693 0.678606,2.0619694 0.935456,4.3865824 1.887323,6.2831374 1.961106,1.52138 4.141365,3.268496 6.794266,2.747274 C 92.705843,15.409988 91.070576,12.166389 91.140982,8.6466987 90.918247,5.8295643 92.283968,3.227251 93.090855,0.63967737 93.318565,-3.6742093 92.825347,-8.3443571 94.875,-12.25 c -0.197917,0.0625 -0.395833,0.125 -0.59375,0.1875 z" opacity=".091" transform="translate(-52.665634,16.290668)"/><path d="m 94.84375,-12.375 c -2.573526,0.6516 -4.669081,2.6128911 -5.914048,4.8281032 -1.263343,2.6653716 -2.184717,5.7141157 -2.679702,8.7031468 -0.157056,1.7341957 -0.569596,3.530709 -0.19916,5.2494934 0.833204,2.7753141 1.505405,5.5982746 2.32416,8.3755066 1.966043,1.421779 3.946515,3.14176 6.535455,2.954394 0.999875,0.05596 0.760154,-0.375022 0.0583,-0.829394 C 93.300941,15.432168 91.964649,13.581165 91.595573,11.340929 91.13014,9.3247961 91.118386,7.2121539 91.671455,5.2102928 91.976513,3.7169442 92.744295,2.3637172 93.184962,0.92909024 93.546735,-3.0161552 92.871793,-7.1536633 94.46875,-10.90625 c -0.04117,-0.340107 1.179324,-1.902938 0.375,-1.46875 z" opacity=".091" transform="translate(-52.665634,16.290668)"/><path d="m 85.79555,5.9035152 c -0.08614,-4.1335358 0.86109,-8.6547138 2.84178,-13.1757848 1.37788,-2.4543467 3.1433,-4.5211044 6.846288,-5.4252764 -2.8419,4.9517154 -1.67929,9.1283694 -2.19597,13.9507414 -0.8612,2.0237018 -1.593148,3.4017938 -1.937678,6.5879978 0.12925,5.9850828 2.066828,7.4491998 4.650328,9.8173198 -3.40159,0.947332 -5.769708,-1.464012 -7.750398,-2.841787 -1.03346,-3.573844 -1.421,-5.3392598 -2.45435,-8.9132108 z" opacity=".091" transform="translate(-52.665634,16.290668)"/><path d="m 95.4375,-12.8125 c -2.641319,0.573276 -4.968799,2.231914 -6.34375,4.5625 -1.179401,1.7201263 -1.750493,4.0440775 -2.407625,6.1258396 -0.680196,2.66498466 -1.109915,5.4379964 -0.994161,8.1866585 0.900293,2.9206953 1.545009,5.9789299 2.495536,8.8437519 1.927234,1.401921 3.871283,3.172979 6.41125,3.09375 0.434105,-0.04995 1.69417,-0.03295 1.495,-0.4375 -1.922513,-1.622254 -3.782631,-3.581856 -4.217838,-6.15766 -0.499799,-2.0121628 -0.50719,-4.1289605 0.04554,-6.1320472 0.292421,-1.453046 1.063045,-2.7613457 1.498172,-4.1521027 0.400309,-4.0663321 -0.34778,-8.3648125 1.408078,-12.2005091 0.08287,-0.523085 1.131734,-1.76904 0.67326,-1.751721 l -0.06346,0.01904 z" opacity=".091" transform="translate(-52.665634,16.290668)"/><path d="m 95.40625,-12.9375 c -4.623762,0.884398 -7.44668,5.1634056 -8.460226,9.498575 -0.929028,3.18313746 -1.67704,6.5997322 -1.271919,9.9076674 0.873824,2.8315139 1.474639,5.7707736 2.419645,8.5625076 2.331583,1.887468 5.299828,3.959318 8.4375,2.75 C 94.093165,15.850417 92.013777,13.398668 91.770211,10.203976 91.12946,7.0098551 92.466458,3.9224171 93.558004,1.0226301 93.907709,-3.3818968 93.163877,-8.1150613 95.46875,-12.125 c 0.120382,-0.397998 0.98419,-1.374761 -0.0625,-0.8125 z" opacity=".091" transform="translate(-52.665634,16.290668)"/><path d="m 95.375,-13.0625 c -5.627707,1.043664 -8.201121,6.8442393 -9.209603,11.9744629 -0.837602,3.6428085 -1.196414,7.4793241 0.338816,10.9993186 0.826522,2.3902885 0.654288,5.5186505 3.406893,6.5966515 1.881152,1.510262 4.50964,2.273586 6.870144,1.335817 C 93.645696,15.576967 91.538627,12.10779 91.731032,8.0966183 91.745886,4.4225997 94.415069,1.4920142 93.8125,-2.25 c -0.113701,-3.8145963 0.276235,-7.828642 2.46875,-11.0625 -0.302083,0.08333 -0.604167,0.166667 -0.90625,0.25 z" opacity=".091" transform="translate(-52.665634,16.290668)"/><path d="m 95.3125,-13.1875 c -7.11336,1.49042 -9.12725,9.62214 -9.90625,15.875 -0.674026,4.317003 1.487482,8.482194 2.53125,12.53125 2.454571,2.110023 5.822164,4.205655 9.09375,2.65625 C 92.57443,14.96855 90.655007,9.2574522 92.625,4.28125 c 2.776683,-5.21989411 -0.08235,-11.6398005 3.28125,-16.71875 0.752534,-1.316838 1.063323,-1.223473 -0.59375,-0.75 z" opacity=".091" transform="translate(-52.665634,16.290668)"/><path d="M 95.28125,-13.3125 C 87.260889,-11.419278 85.582007,-1.9905199 85.125,5.125 c 0.525059,3.4324954 1.63825,6.968164 2.75,10.21875 2.541709,2.208725 6.025564,4.228887 9.40625,2.59375 -5.275772,-3.245681 -6.646882,-10.3440102 -3.772078,-15.5960955 1.367298,-5.1620842 -0.428648,-11.2396666 3.16429,-15.8466975 0.646976,-0.702468 -1.231199,0.291975 -1.392212,0.192793 z" opacity=".091" transform="translate(-52.665634,16.290668)"/></g><g transform="matrix(1.056819,0,0,1.056819,-46.778844,-71.758583)"><path transform="translate(25.68374,64.78223)" d="m 30.266524,20.25193 a 5.6613641,7.185555 0 1 1 -11.322728,0 5.6613641,7.185555 0 1 1 11.322728,0 z" fill="url(#g)"/><path transform="translate(15.85843,74.43562)" d="m 40.9676,10.542 c 0,3.3396 -6.81,-5.8722 -12.1002,-2.76574 0,-3.33961 3.0212,-7.268753 7.344,-7.268753 5.5328,0.172882 4.7562,6.694873 4.7562,10.034493 z" fill="url(#h)"/><path transform="translate(40.00001,64.99997)" d="m 34.7133,23.5539 c -0.0815,-3.9113 0.8148,-8.1894 2.689,-12.4674 1.3038,-2.32239 2.9743,-4.27803 6.4782,-5.13359 -2.6891,4.68549 -1.589,8.63759 -2.0779,13.20069 -0.8149,1.9149 -1.5075,3.2189 -1.8335,6.2338 0.1223,5.6633 1.9557,7.0487 4.4003,9.2895 -3.2187,0.8964 -5.4595,-1.3853 -7.3337,-2.689 -0.9779,-3.3817 -1.3446,-5.0522 -2.3224,-8.434 z" fill="url(#i)"/><g id="q"><path transform="matrix(0.718586,0,0,0.718583,2.167268,69.94656) translate(0,-0.122253)" d="m 64.476341,21.172836 a 2.074306,2.1607211 0 1 1 -4.148612,0 2.074306,2.1607211 0 1 1 4.148612,0 z"/><path d="m 63.957765,20.394981 a 0.777864,1.037178 0 1 1 -1.555728,0 0.777864,1.037178 0 1 1 1.555728,0 z" fill="#808080" transform="matrix(0.718586,0,0,0.718583,2.167268,69.94656)"/></g><path transform="translate(40.00001,64.99997)" d="m 35.6911,19.8871 c 1.263,-5.9486 1.5483,-6.7634 2.3224,-8.6783 0.8555,-1.58905 1.3445,-2.9335 5.1336,-4.76692 -2.0372,1.7112 -3.0965,3.66682 -3.9113,6.23372 -0.4075,2.1186 -1.1816,4.2373 -0.7334,11.2451 -0.6519,-1.0593 -2.1594,-2.9743 -2.8113,-4.0336 z" fill="url(#j)" fill-opacity=".472"/><path transform="translate(40.00001,64.99997)" d="M 39.358,25.7541 C 39.1136,31.7102 29.4691,43.1108 20.6568,42.9886 12.5779,42.8664 5.62257,35.0105 5.62257,25.6319 5.62257,16.2535 11.7223,9.00879 20.5346,8.76427 29.9581,8.88649 39.4803,21.9982 39.358,25.7541 z" fill="url(#k)"/><path transform="translate(40.00001,64.99997)" d="M 39.358,25.7541 C 39.1136,31.7102 29.4691,43.1108 20.6568,42.9886 12.5779,42.8664 5.62257,35.0105 5.62257,25.6319 5.62257,16.2535 11.7223,9.00879 20.5346,8.76427 29.9581,8.88649 39.4803,21.9982 39.358,25.7541 z" fill="url(#l)"/><path transform="translate(40.00001,64.99997)" d="m 30.5574,20.4983 c 2.0779,3.1331 1.3797,5.7609 0.2514,7.5749 -1.1283,1.8142 -4.2791,2.7994 -5.9962,2.6924 -6.0078,-0.3667 -5.1336,-3.0235 -5.1336,-8.5562 0,-5.5326 3.6483,-10.8784 7.0893,-10.8784 2.5854,0.6112 3.7891,3.6347 3.7891,9.1673 z" fill-opacity=".197"/><path transform="matrix(0.952492,0,0,1.146567,1.879499,60.00722)" d="m 72.360035,25.081871 a 6.5392952,5.1947398 0 1 1 -13.07859,0 6.5392952,5.1947398 0 1 1 13.07859,0 z" fill="url(#m)"/><path transform="matrix(1,0,0,0.932637,39.87778,66.19839)" d="m 30.06853,22.20948 a 5.744801,6.2337108 0 1 1 -11.489602,0 5.744801,6.2337108 0 1 1 11.489602,0 z" fill="url(#n)"/><path transform="matrix(1.032385,0,0,1.059539,38.51553,63.14862)" d="m 30.266524,20.25193 a 5.6613641,7.185555 0 1 1 -11.322728,0 5.6613641,7.185555 0 1 1 11.322728,0 z" fill="url(#o)"/><path transform="translate(28.93704,74.68007)" d="M 40.8895,10.542 C 39.9129,9.66286 36.9358,4.78699 29.1018,7.74536 c 0,-3.33961 1.32,-8.093413 5.6428,-8.093413 5.5328,0.172882 6.1449,7.550433 6.1449,10.890053 z" fill="url(#p)"/><use xlink:href="#q" transform="translate(19.311372,0.43991)" width="45" height="45"/><path transform="translate(-1.191483,67.20013)" d="m 47.7918,31.6212 c 0.2038,0.8556 6.2745,3.4224 15.8899,-0.2445 0.387,-0.0408 2.2985,-2.1103 2.2908,-1.7026 -0.0187,1.1104 -0.8848,2.5877 -2.0123,3.8196 -2.404,2.9334 -6.5529,4.7278 -11.2792,4.239 -2.2816,-0.2037 -4.0423,-1.3851 -5.1016,-3.178 -0.9051,-1.6907 -0.3172,-1.9963 0.2124,-2.9335 z" fill="url(#r)"/><path transform="translate(-1.654139,65.38396)" d="m 48.1585,31.6212 c 0.2038,0.8556 5.9078,3.7891 15.5232,0.1222 1.2892,-0.662 2.1738,-0.0872 0.8556,1.9556 -2.4039,2.4446 -9.6969,3.4225 -11.9785,3.0558 -2.2816,-0.2037 -5.0521,-1.0186 -5.5003,-2.4446 -0.3391,-1.2267 0.0815,-1.9963 1.1,-2.689 z" fill="url(#s)"/><path transform="translate(-1.558161,64.99997)" d="m 48.1585,31.6212 c 0.2038,0.8556 5.5953,4.9609 15.8357,0.9816 0.6836,-0.2919 1.9301,-0.8606 2.1868,-0.8178 0.3767,0.0741 -0.4768,0.9707 -1.4874,1.9922 -2.4039,2.4445 -9.8532,3.3443 -12.1348,2.9776 -2.2816,-0.2037 -5.0521,-1.0186 -5.5003,-2.4446 -0.3391,-1.2267 0.0815,-1.9963 1.1,-2.689 z" fill="url(#t)"/></g></g></svg>