<?xml version="1.0" encoding="UTF-8"?>
<svg width="235px" height="256px" viewBox="0 0 235 256" version="1.1" xmlns="http://www.w3.org/2000/svg" xmlns:xlink="http://www.w3.org/1999/xlink">
    <!-- Generator: Sketch 51.3 (57544) - http://www.bohemiancoding.com/sketch -->
    <title>brave-beta</title>
    <desc>Created with Sketch.</desc>
    <defs>
        <linearGradient x1="0%" y1="50.7055163%" x2="100%" y2="50.7055163%" id="linearGradient-1">
            <stop stop-color="#FF5500" offset="0%"/>
            <stop stop-color="#FF5500" offset="40.9877232%"/>
            <stop stop-color="#FF2000" offset="58.1981215%"/>
            <stop stop-color="#FF2000" offset="100%"/>
        </linearGradient>
        <linearGradient x1="2.1484375%" y1="50.7055163%" x2="100%" y2="50.7055163%" id="linearGradient-2">
            <stop stop-color="#FF452A" offset="0%"/>
            <stop stop-color="#FF2000" offset="100%"/>
        </linearGradient>
        <path d="M170.272109,25.3359387 L147.968109,0.00010893617 L108.800109,0.00010893617 L69.6321088,0.00010893617 L47.3281088,25.3359387 C47.3281088,25.3359387 27.7441088,19.8891302 18.4961088,29.1487047 C18.4961088,29.1487047 44.6081088,26.7886026 53.5841088,41.4040238 C53.5841088,41.4040238 77.7921088,46.0338111 81.0561088,46.0338111 C84.3201088,46.0338111 91.3921088,43.3104068 97.9201088,41.1316834 C104.448109,38.95296 108.800109,38.9371643 108.800109,38.9371643 C108.800109,38.9371643 113.152109,38.95296 119.680109,41.1316834 C126.208109,43.3104068 133.280109,46.0338111 136.544109,46.0338111 C139.808109,46.0338111 164.016109,41.4040238 164.016109,41.4040238 C172.992109,26.7886026 199.104109,29.1487047 199.104109,29.1487047 C189.856109,19.8891302 170.272109,25.3359387 170.272109,25.3359387" id="path-3"/>
        <path d="M4.50880626,0 L122.343613,0 C124.833758,8.38933978e-15 126.85242,2.01866132 126.85242,4.50880626 L126.85242,55.8340509 C126.85242,58.3241958 124.833758,60.3428571 122.343613,60.3428571 L23.5103884,60.3428571 L4.50880626,60.3428571 C2.01866132,60.3428571 3.04954803e-16,58.3241958 0,55.8340509 L0,4.50880626 C-3.04954803e-16,2.01866132 2.01866132,3.12196746e-15 4.50880626,2.66453526e-15 Z" id="path-5"/>
        <filter x="-6.7%" y="-10.8%" width="113.4%" height="128.2%" filterUnits="objectBoundingBox" id="filter-6">
            <feOffset dx="0" dy="2" in="SourceAlpha" result="shadowOffsetOuter1"/>
            <feGaussianBlur stdDeviation="2.5" in="shadowOffsetOuter1" result="shadowBlurOuter1"/>
            <feColorMatrix values="0 0 0 0 0   0 0 0 0 0   0 0 0 0 0  0 0 0 0.3 0" type="matrix" in="shadowBlurOuter1"/>
        </filter>
    </defs>
    <g stroke="none" stroke-width="1" fill="none" fill-rule="evenodd">
        <g transform="translate(-794.000000, -350.000000)">
            <g transform="translate(774.000000, 350.000000)">
                <g stroke-width="1" transform="translate(20.114286, 0.000000)">
                    <g>
                        <path d="M209.984109,61.2848749 L215.968109,46.5784919 C215.968109,46.5784919 208.352109,38.4082791 199.104109,29.1487047 C189.856109,19.8891302 170.272109,25.3359387 170.272109,25.3359387 L147.968109,0.00010893617 L108.800109,0.00010893617 L69.6321088,0.00010893617 L47.3281088,25.3359387 C47.3281088,25.3359387 27.7441088,19.8891302 18.4961088,29.1487047 C9.2481088,38.4082791 1.6321088,46.5784919 1.6321088,46.5784919 L7.6161088,61.2848749 L0.0001088,83.0721089 C0.0001088,83.0721089 22.3993088,168.017811 25.0241088,178.391258 C30.1921088,198.81679 33.7281088,206.714662 48.4161088,217.063598 C63.1041088,227.412534 89.7601088,245.387003 94.1121088,248.110407 C98.4641088,250.833811 103.904109,255.472858 108.800109,255.472858 C113.696109,255.472858 119.136109,250.833811 123.488109,248.110407 C127.840109,245.387003 154.496109,227.412534 169.184109,217.063598 C183.872109,206.714662 187.408109,198.81679 192.576109,178.391258 C195.200365,168.017811 217.600109,83.0721089 217.600109,83.0721089 L209.984109,61.2848749 Z" fill="url(#linearGradient-1)"/>
                        <path d="M164.016109,41.4040238 C164.016109,41.4040238 192.704493,76.1274281 192.704493,83.5487047 C192.704493,90.9699813 189.095597,92.9286536 185.467117,96.7866281 C181.838637,100.644603 165.991373,117.49376 163.956269,119.657232 C161.921165,121.821249 157.684493,125.101862 160.176557,131.006747 C162.668621,136.911632 166.344973,144.425505 162.256813,152.046679 C158.168109,159.667854 151.164109,164.754628 146.676109,163.913641 C142.188109,163.072109 131.648109,157.557215 127.772109,155.038066 C123.896109,152.518917 111.611501,142.374781 111.611501,138.493386 C111.611501,134.612534 124.310093,127.643888 126.655821,126.0605 C129.002637,124.477658 139.703117,118.349454 139.922349,115.944143 C140.141037,113.538288 140.057805,112.832926 136.899885,106.889369 C133.741965,100.945266 128.054989,93.0136238 129.001549,87.7362111 C129.948109,82.459343 139.119949,79.7152409 145.665357,77.2402111 C152.209677,74.765726 164.811437,70.0918196 166.385229,69.3652153 C167.960109,68.6380664 167.553197,67.945777 162.783949,67.4931472 C158.015789,67.0405174 144.483245,65.2419813 138.382285,66.9446536 C132.281325,68.647326 121.858285,71.2378281 121.013997,72.6115132 C120.169709,73.9851983 119.424973,74.0314962 120.292109,78.7702196 C121.158701,83.508943 125.622765,106.24719 126.055789,110.285998 C126.489357,114.324807 127.336909,116.994832 122.987629,117.990509 C118.637805,118.986186 111.316109,120.715003 108.800109,120.715003 C106.284109,120.715003 98.9618688,118.986186 94.6125888,117.990509 C90.2627648,116.994832 91.1103168,114.324807 91.5438848,110.285998 C91.9774528,106.24719 96.4409728,83.508943 97.3081088,78.7702196 C98.1747008,74.0314962 97.4299648,73.9851983 96.5862208,72.6115132 C95.7419328,71.2378281 85.3183488,68.647326 79.2173888,66.9446536 C73.1164288,65.2419813 59.5844288,67.0405174 54.8157248,67.4931472 C50.0470208,67.945777 49.6401088,68.6380664 51.2144448,69.3652153 C52.7887808,70.0918196 65.3905408,74.765726 71.9348608,77.2402111 C78.4797248,79.7152409 87.6521088,82.459343 88.5986688,87.7362111 C89.5452288,93.0136238 83.8577088,100.945266 80.7003328,106.889369 C77.5424128,112.832926 77.4586368,113.538288 77.6778688,115.944143 C77.8965568,118.349454 88.5975808,124.477658 90.9438528,126.0605 C93.2901248,127.643888 105.988173,134.612534 105.988173,138.493386 C105.988173,142.374781 93.7041088,152.518917 89.8281088,155.038066 C85.9521088,157.557215 75.4121088,163.072109 70.9241088,163.913641 C66.4361088,164.754628 59.4321088,159.667854 55.3434048,152.046679 C51.2552448,144.425505 54.9315968,136.911632 57.4231168,131.006747 C59.9151808,125.101862 55.6790528,121.821249 53.6434048,119.657232 C51.6088448,117.49376 35.7610368,100.644603 32.1325568,96.7866281 C28.5040768,92.9286536 24.8957248,90.9699813 24.8957248,83.5487047 C24.8957248,76.1274281 53.5841088,41.4040238 53.5841088,41.4040238 C53.5841088,41.4040238 77.7921088,46.0338111 81.0561088,46.0338111 C84.3201088,46.0338111 91.3921088,43.3104068 97.9201088,41.1316834 C104.448109,38.95296 108.800109,38.9371643 108.800109,38.9371643 C108.800109,38.9371643 113.152109,38.95296 119.680109,41.1316834 C126.208109,43.3104068 133.280109,46.0338111 136.544109,46.0338111 C139.808109,46.0338111 164.016109,41.4040238 164.016109,41.4040238 Z M142.509504,174.227935 C144.28512,175.341263 143.202016,177.439918 141.584704,178.584837 C139.966848,179.729757 118.228064,196.584361 116.118432,198.447169 C114.008256,200.310523 110.908,203.387425 108.8,203.387425 C106.692,203.387425 103.5912,200.310523 101.481568,198.447169 C99.371392,196.584361 77.633152,179.729757 76.015296,178.584837 C74.39744,177.439918 73.31488,175.341263 75.090496,174.227935 C76.866656,173.115152 82.422528,170.306233 90.08912,166.333876 C97.754624,162.362063 107.308896,158.985042 108.8,158.985042 C110.291104,158.985042 119.844832,162.362063 127.511424,166.333876 C135.177472,170.306233 140.733344,173.115152 142.509504,174.227935 Z" fill="#FFFFFF"/>
                        <mask id="mask-4" fill="white">
                            <use xlink:href="#path-3"/>
                        </mask>
                        <use fill="url(#linearGradient-2)" xlink:href="#path-3"/>
                    </g>
                    <g transform="translate(102.400000, 182.857143)">
                        <g>
                            <g>
                                <use fill="black" fill-opacity="1" filter="url(#filter-6)" xlink:href="#path-5"/>
                                <use fill="#F2F2F2" fill-rule="evenodd" xlink:href="#path-5"/>
                            </g>
                        </g>
                    </g>
                </g>
                <path d="M155.497143,222.125714 C157.02096,220.540944 157.782857,218.453346 157.782857,215.862857 C157.782857,213.272368 157.028579,211.230484 155.52,209.737143 C154.011421,208.243802 152.213344,207.497143 150.125714,207.497143 C148.038085,207.497143 146.240008,208.25904 144.731429,209.782857 C143.22285,211.306674 142.468571,213.363797 142.468571,215.954286 C142.468571,218.544775 143.22285,220.609516 144.731429,222.148571 C146.240008,223.687627 148.030466,224.457143 150.102857,224.457143 C152.175248,224.457143 153.973326,223.680008 155.497143,222.125714 Z M151.245714,202.971429 C154.628588,202.971429 157.447608,204.167607 159.702857,206.56 C161.958107,208.952393 163.085714,212.060933 163.085714,215.885714 C163.085714,219.710495 161.950488,222.849512 159.68,225.302857 C157.409512,227.756203 154.598112,228.982857 151.245714,228.982857 C149.264752,228.982857 147.527627,228.5181 146.034286,227.588571 C144.540945,226.659043 143.352385,225.417151 142.468571,223.862857 L142.468571,228.571429 L137.257143,228.571429 L137.257143,194.742857 L142.468571,194.742857 L142.468571,207.862857 C143.321909,206.399993 144.50285,205.219052 146.011429,204.32 C147.520008,203.420948 149.264752,202.971429 151.245714,202.971429 Z M178.857143,228.982857 C175.199982,228.982857 172.228583,227.794298 169.942857,225.417143 C167.657131,223.039988 166.514286,219.885734 166.514286,215.954286 C166.514286,212.022837 167.672369,208.876202 169.988571,206.514286 C172.304773,204.152369 175.299029,202.971429 178.971429,202.971429 C182.643828,202.971429 185.622846,204.106655 187.908571,206.377143 C190.194297,208.64763 191.337143,211.61141 191.337143,215.268571 C191.337143,216.152385 191.276191,216.975234 191.154286,217.737143 L171.862857,217.737143 C171.984763,219.840011 172.693327,221.508565 173.988571,222.742857 C175.283816,223.977149 176.906657,224.594286 178.857143,224.594286 C181.691443,224.594286 183.687613,223.420964 184.845714,221.074286 L190.468571,221.074286 C189.706663,223.390488 188.32001,225.287612 186.308571,226.765714 C184.297133,228.243817 181.813348,228.982857 178.857143,228.982857 Z M185.897143,214.171429 C185.866667,212.099037 185.180959,210.44572 183.84,209.211429 C182.499041,207.977137 180.868581,207.36 178.948571,207.36 C177.028562,207.36 175.420959,207.977137 174.125714,209.211429 C172.83047,210.44572 172.091429,212.099037 171.908571,214.171429 L185.897143,214.171429 Z M208.662857,207.634286 L202.537143,207.634286 L202.537143,221.577143 C202.537143,222.521909 202.758093,223.199998 203.2,223.611429 C203.641907,224.022859 204.396185,224.228571 205.462857,224.228571 L208.662857,224.228571 L208.662857,228.571429 L204.548571,228.571429 C199.702833,228.571429 197.28,226.240023 197.28,221.577143 L197.28,207.634286 L194.308571,207.634286 L194.308571,203.382857 L197.28,203.382857 L197.28,197.12 L202.537143,197.12 L202.537143,203.382857 L208.662857,203.382857 L208.662857,207.634286 Z M230.057143,222.171429 C231.58096,220.617135 232.342857,218.544775 232.342857,215.954286 C232.342857,213.363797 231.588579,211.306674 230.08,209.782857 C228.571421,208.25904 226.780963,207.497143 224.708571,207.497143 C222.63618,207.497143 220.845722,208.243802 219.337143,209.737143 C217.828564,211.230484 217.074286,213.272368 217.074286,215.862857 C217.074286,218.453346 217.828564,220.533325 219.337143,222.102857 C220.845722,223.672389 222.63618,224.457143 224.708571,224.457143 C226.780963,224.457143 228.563802,223.695246 230.057143,222.171429 Z M223.611429,228.982857 C220.259031,228.982857 217.440011,227.756203 215.154286,225.302857 C212.86856,222.849512 211.725714,219.710495 211.725714,215.885714 C211.725714,212.060933 212.860941,208.952393 215.131429,206.56 C217.401916,204.167607 220.228555,202.971429 223.611429,202.971429 C225.592391,202.971429 227.337135,203.420948 228.845714,204.32 C230.354293,205.219052 231.519996,206.399993 232.342857,207.862857 L232.342857,203.382857 L237.6,203.382857 L237.6,228.571429 L232.342857,228.571429 L232.342857,223.862857 C231.48952,225.417151 230.316198,226.659043 228.822857,227.588571 C227.329516,228.5181 225.592391,228.982857 223.611429,228.982857 Z" fill="#2F2F2F"/>
            </g>
        </g>
    </g>
</svg>