<svg xmlns="http://www.w3.org/2000/svg" width="256" height="256"><g transform="translate(-86.872868,-722.0575)"><path d="m 231.59645,935.67056 81.72147,-20.60724" stroke="#0ff" stroke-width="8" transform="matrix(0.85683437,0,0,0.85683437,16.437209,88.001328)"/><path d="M 231.59645,935.67056 149.87498,915.06332" stroke="#0ff" stroke-width="8" transform="matrix(0.85683437,0,0,0.85683437,16.437209,88.001328)"/><path d="m 231.59645,935.67056 0,-71.96131" stroke="#0ff" stroke-width="8" transform="matrix(0.85683437,0,0,0.85683437,16.437209,88.001328)"/><path d="m 231.59645,935.67056 81.72147,-20.60724" stroke="#000" stroke-width="8" transform="matrix(0.85683437,0,0,0.85683437,16.437209,88.001328)"/><path d="M 231.59645,935.67056 149.87498,915.06332" stroke="#000" stroke-width="8" transform="matrix(0.85683437,0,0,0.85683437,16.437209,88.001328)"/><path d="m 231.59645,935.67056 0,-71.96131" stroke="#000" stroke-width="8" transform="matrix(0.85683437,0,0,0.85683437,16.437209,88.001328)"/><path transform="matrix(0.85683437,0,0,0.85683437,16.437209,88.001328) matrix(0.96888558,0,0,0.96888558,-255.8072,316.83878)" d="m 526.79455,638.70471 c 0,13.11048 -10.62814,23.73862 -23.73861,23.73862 -13.11048,0 -23.73861,-10.62814 -23.73861,-23.73862 0,-13.11047 10.62813,-23.73861 23.73861,-23.73861 13.11047,0 23.73861,10.62814 23.73861,23.73861 z"/><path d="m 526.79455,638.70471 c 0,13.11048 -10.62814,23.73862 -23.73861,23.73862 -13.11048,0 -23.73861,-10.62814 -23.73861,-23.73862 0,-13.11047 10.62813,-23.73861 23.73861,-23.73861 13.11047,0 23.73861,10.62814 23.73861,23.73861 z" transform="matrix(0.85683437,0,0,0.85683437,16.437209,88.001328) matrix(0.86357193,0,0,0.86357193,-121.10707,363.49586)"/><path transform="matrix(0.85683437,0,0,0.85683437,16.437209,88.001328) matrix(-0.86357193,0,0,0.86357193,584.29996,363.49586)" d="m 526.79455,638.70471 c 0,13.11048 -10.62814,23.73862 -23.73861,23.73862 -13.11048,0 -23.73861,-10.62814 -23.73861,-23.73862 0,-13.11047 10.62813,-23.73861 23.73861,-23.73861 13.11047,0 23.73861,10.62814 23.73861,23.73861 z"/><path transform="matrix(0.85683437,0,0,0.85683437,16.437209,88.001328) matrix(0.86357193,0,0,0.86357193,-202.82854,312.14179)" d="m 526.79455,638.70471 c 0,13.11048 -10.62814,23.73862 -23.73861,23.73862 -13.11048,0 -23.73861,-10.62814 -23.73861,-23.73862 0,-13.11047 10.62813,-23.73861 23.73861,-23.73861 13.11047,0 23.73861,10.62814 23.73861,23.73861 z"/><path d="m 526.79455,638.70471 c 0,13.11048 -10.62814,23.73862 -23.73861,23.73862 -13.11048,0 -23.73861,-10.62814 -23.73861,-23.73862 0,-13.11047 10.62813,-23.73861 23.73861,-23.73861 13.11047,0 23.73861,10.62814 23.73861,23.73861 z" transform="matrix(0.85683437,0,0,0.85683437,16.437209,88.001328) matrix(0.96888558,0,0,0.96888558,-255.8072,316.83878)"/><path transform="matrix(0.85683437,0,0,0.85683437,16.437209,88.001328) matrix(0.86357193,0,0,0.86357193,-121.10707,363.49586)" d="m 526.79455,638.70471 c 0,13.11048 -10.62814,23.73862 -23.73861,23.73862 -13.11048,0 -23.73861,-10.62814 -23.73861,-23.73862 0,-13.11047 10.62813,-23.73861 23.73861,-23.73861 13.11047,0 23.73861,10.62814 23.73861,23.73861 z"/><path d="m 526.79455,638.70471 c 0,13.11048 -10.62814,23.73862 -23.73861,23.73862 -13.11048,0 -23.73861,-10.62814 -23.73861,-23.73862 0,-13.11047 10.62813,-23.73861 23.73861,-23.73861 13.11047,0 23.73861,10.62814 23.73861,23.73861 z" transform="matrix(0.85683437,0,0,0.85683437,16.437209,88.001328) matrix(-0.86357193,0,0,0.86357193,584.29996,363.49586)"/><path d="m 526.79455,638.70471 c 0,13.11048 -10.62814,23.73862 -23.73861,23.73862 -13.11048,0 -23.73861,-10.62814 -23.73861,-23.73862 0,-13.11047 10.62813,-23.73861 23.73861,-23.73861 13.11047,0 23.73861,10.62814 23.73861,23.73861 z" transform="matrix(0.85683437,0,0,0.85683437,16.437209,88.001328) matrix(0.86357193,0,0,0.86357193,-202.82854,312.14179)"/><path d="m 231.59162,800.71375 c -31.87634,0 -58.21181,23.68136 -62.40625,54.40625 -6.0901,-1.96461 -12.56771,-3.0625 -19.3125,-3.0625 -34.79394,0 -63.000002,28.20606 -63.000002,63 0,34.79394 28.206062,63 63.000002,63 l 163.4375,0 c 34.79394,0 63,-28.20606 63,-63 0,-34.79394 -28.20606,-63 -63,-63 -6.7427,0 -13.22402,1.06813 -19.3125,3.03125 -4.20776,-30.71 -30.5405,-54.375 -62.40625,-54.375 z m 0,25 c 20.98862,0 38,17.01138 38,38 0,10.77429 -4.48508,20.49128 -11.6875,27.40625 l 19.25,12.25 c 4.92772,-15.27222 19.24329,-26.3125 36.15625,-26.3125 20.98862,0 38,17.01138 38,38 0,20.98862 -17.01138,38 -38,38 l -54.53125,0 c -5.73841,8.94559 -15.77044,14.90625 -27.1875,14.90625 -11.42309,0 -21.4506,-5.95274 -27.1875,-14.90625 l -54.53125,0 c -20.98862,0 -38,-17.01138 -38,-38 0,-20.98862 17.01138,-38 38,-38 16.91296,0 31.22853,11.04028 36.15625,26.3125 l 19.25,-12.25 c -7.20242,-6.91497 -11.6875,-16.63196 -11.6875,-27.40625 0,-20.98862 17.01138,-38 38,-38 z" transform="matrix(0.85683437,0,0,0.85683437,16.437209,88.001328)"/></g></svg>