<svg xmlns="http://www.w3.org/2000/svg" xmlns:xlink="http://www.w3.org/1999/xlink" version="1.2" width="128" height="128"><title>Clementine Music Player Logo</title><defs><linearGradient id="a"><stop offset="0" stop-color="#fff"/><stop offset="1" stop-color="#fff" stop-opacity="0"/></linearGradient><clipPath id="c"><path d="m 505.71875,535.46875 c -0.0913,0.006 -0.19131,0.0169 -0.28125,0.0312 -0.0955,0.0153 -0.1874,0.0375 -0.28125,0.0625 -0.0844,0.0225 -0.16817,0.0636 -0.25,0.0937 -0.003,0.005 -0.0284,-0.005 -0.0312,0 -0.79083,1.25489 -1.4864,2.70521 -1.71875,4.09375 -0.3364,2.01031 -0.60558,4.59838 -0.21875,7.65625 0.31871,2.60411 1.03448,5.62431 2.46875,8.90625 a 1.0096098,0.99067979 1.5151289 0 1 0,0.0625 c 0.85048,2.26648 2.57266,5.1072 5.8125,7.96875 0.0263,0.0232 0.0673,0.0393 0.0937,0.0625 0.36148,0.26611 0.70356,0.54293 1.0625,0.78125 3.08915,2.05084 5.83226,2.96661 7.9375,3.3125 a 1.0096098,0.99067979 1.5151289 0 1 0.0625,0 c 3.57728,0.79896 6.80296,0.94697 9.53125,0.78125 l -0.0312,0.0312 c 2.7977,-0.24267 5.93557,-0.42426 8.34375,-1.34375 1.4935,-0.57027 2.4005,-1.43904 3.1875,-2.34375 0.0506,-0.11958 0.12205,-0.22132 0.15625,-0.34375 0.0391,-0.28476 0.0785,-0.45542 0.0937,-0.53125 0.015,-0.0749 -7.3e-4,-0.0621 0,-0.0625 -6.8e-4,-4.2e-4 0.005,-0.018 0,-0.0937 -0.005,-0.0773 -8.1e-4,-0.21231 0,-0.5 -0.024,-0.1922 -0.0676,-0.40226 -0.125,-0.59375 -0.1152,-0.3785 -0.28887,-0.75013 -0.53125,-1.125 -0.47139,-0.72912 -1.16519,-1.44809 -2.0625,-2.15625 -1.66351,-1.31336 -3.99576,-2.58272 -6.71875,-3.8125 -2.31867,-1.04924 -4.86763,-2.00675 -7.34375,-3.0625 -1.72915,-0.84294 -3.09392,-1.28622 -3.59375,-1.6875 -0.0621,-0.0499 -0.0901,-0.10636 -0.125,-0.15625 -0.45281,-0.0886 -1.17461,-1.31192 -2.4375,-2.84375 -1.45775,-1.97251 -2.84904,-4.05918 -4.25,-5.96875 -1.6371,-2.2372 -3.21891,-4.12475 -4.71875,-5.40625 -0.80971,-0.69174 -1.59101,-1.19859 -2.34375,-1.5 -0.3873,-0.15511 -0.75608,-0.274 -1.125,-0.3125 -0.1869,-0.0199 -0.3809,-0.0121 -0.5625,0 z" fill="#241c1c"/></clipPath><filter color-interpolation-filters="sRGB" id="d"><feGaussianBlur stdDeviation=".348"/></filter><clipPath id="b"><path d="m 505.7188,535.46875 c -0.0913,0.006 -0.19131,0.0169 -0.28125,0.0312 -0.0854,0.0137 -0.16595,0.0411 -0.25,0.0625 -0.01,0.003 -0.0213,-0.003 -0.0312,0 -0.0938,0.025 -0.19066,0.0593 -0.28125,0.0937 -1.79515,0.60007 -4.41142,2.89744 -5.28125,4.875 -0.37352,0.81205 -0.6923,1.71506 -0.96875,2.8125 -0.51252,2.03105 -0.65384,4.74515 -0.25,7.9375 0.3298,2.69483 1.08634,5.84095 2.5625,9.21875 0.91661,2.44272 2.74644,5.44877 6.15625,8.4375 0.40045,0.29688 0.78917,0.57928 1.1875,0.84375 3.20319,2.12655 6.07314,3.06958 8.3125,3.4375 3.67177,0.81981 6.96924,0.98331 9.78125,0.8125 3.34236,-0.19132 6.12479,-0.83507 8.125,-1.75 0.84192,-0.45733 1.95625,-1.13921 2.5625,-1.6875 1.786,-1.61523 3.19802,-3.02233 3.96875,-4.25 0.031,-0.043 0.065,-0.0816 0.0937,-0.125 0.0859,-0.14409 0.15233,-0.26698 0.21875,-0.40625 0.0327,-0.0654 0.066,-0.1212 0.0937,-0.1875 0.0488,-0.11704 0.0914,-0.23009 0.125,-0.34375 0.009,-0.0679 0.0235,-0.0718 0.0312,-0.125 0.01,-0.0396 0.0234,-0.0858 0.0312,-0.125 0.0139,-0.0884 0.0233,-0.24156 0.0312,-0.28125 0.0149,-0.0743 -7.3e-4,-0.0622 0,-0.0625 -6.8e-4,-4.5e-4 0.004,-0.018 0,-0.0937 -0.005,-0.0773 -8.2e-4,-0.21231 0,-0.5 -0.024,-0.1922 -0.0676,-0.40226 -0.125,-0.59375 -0.1152,-0.3785 -0.28887,-0.75013 -0.53125,-1.125 -0.47138,-0.72912 -1.16539,-1.44783 -2.0625,-2.15625 -1.66351,-1.31335 -3.99576,-2.58272 -6.71875,-3.8125 -2.31868,-1.04924 -4.86763,-2.00674 -7.34375,-3.0625 -1.72915,-0.84294 -3.0941,-1.28598 -3.59375,-1.6875 -0.0621,-0.0499 -0.0901,-0.10636 -0.125,-0.15625 -0.45282,-0.0886 -1.1746,-1.31192 -2.4375,-2.84375 -1.45776,-1.97251 -2.84903,-4.05918 -4.25,-5.96875 -1.6371,-2.2372 -3.21894,-4.12471 -4.71875,-5.40625 -0.8097,-0.69174 -1.59101,-1.19859 -2.34375,-1.5 -0.38731,-0.15511 -0.75607,-0.27401 -1.125,-0.3125 -0.18689,-0.0199 -0.3809,-0.0121 -0.5625,0 z" fill="#fda864"/></clipPath><radialGradient cx="520.734" cy="551.074" r="15.405" fx="520.734" fy="551.074" id="e" xlink:href="#a" gradientUnits="userSpaceOnUse"/></defs><g transform="matrix(2.8491627,0,0,2.8491627,-1417.2848,-1516.6422)"><g clip-path="url(#b)"><path d="m 541.61557,565.02626 c -0.30586,1.51742 -2.1024,3.34028 -4.56491,5.56734 -0.60625,0.54829 -1.70874,1.24285 -2.55066,1.70018 0,0 0,0 0,0 -2.00021,0.91493 -4.77171,1.56087 -8.11407,1.75219 0,0 0,0 0,0 -2.81201,0.17081 -6.11698,0.006 -9.78875,-0.81381 -2.23936,-0.36792 -5.11477,-1.32147 -8.31796,-3.44802 -0.39833,-0.26447 -0.79829,-0.54503 -1.19874,-0.84191 -3.40981,-2.98873 -5.23372,-6.01411 -6.15033,-8.45683 0,0 0,0 0,0 -1.47616,-3.3778 -2.22285,-6.50015 -2.55265,-9.19498 0,0 0,0 0,0 -0.40384,-3.19235 -0.27096,-5.90767 0.24156,-7.93872 0,0 0,0 0,0 0.27645,-1.09744 0.59661,-2.00424 0.97013,-2.81629 0.92068,-2.09316 3.81342,-4.58163 5.6008,-4.99512 12.71422,18.65864 17.57657,21.60293 36.42558,29.48597 z" fill="#fda864"/><path d="m 540.89285,544.77289 a 23.482145,8.6607148 0 1 1 -46.96429,0 23.482145,8.6607148 0 1 1 46.96429,0 z" transform="matrix(0.77733565,0.62010176,-0.60691279,0.79079385,451.84591,-201.52813)" fill="#fd9146"/><path d="m 542.84493,565.48113 c -0.96502,1.15255 -2.09501,2.58 -4.26842,3.40989 -2.62439,1.00203 -5.84851,1.16464 -8.61915,1.40495 0,0 0,0 0,0 -2.81201,0.17081 -6.11698,0.006 -9.78875,-0.81381 -2.23936,-0.36792 -5.11477,-1.32147 -8.31796,-3.44802 -0.39833,-0.26447 -0.79829,-0.54503 -1.19874,-0.84191 -3.40981,-2.98873 -5.23372,-6.01411 -6.15033,-8.45683 0,0 0,0 0,0 -1.47616,-3.3778 -2.22285,-6.50015 -2.55265,-9.19498 0,0 0,0 0,0 -0.40384,-3.19235 -0.10275,-5.88097 0.24156,-7.93872 0.28586,-1.70837 1.13112,-3.41026 2.04883,-4.80092" opacity=".6" stroke="#fff" stroke-width="2" stroke-linecap="round" stroke-linejoin="round" fill="none"/><path d="m 522.14286,552.8979 c -0.2381,-0.11905 -0.90252,-0.54538 -0.71429,-0.35715 0.24543,0.24543 0.62184,0.3189 0.89286,0.53572 0.0465,0.0372 -0.0421,0.13648 0,0.17857 0.0842,0.0842 0.27296,-0.0842 0.35714,0 0.0421,0.0421 -0.0421,0.13648 0,0.17857 0.0365,0.0365 0.46491,-0.0354 0.53572,0 0.0753,0.0376 0.10328,0.14093 0.17857,0.17857 0.0795,0.0397 0.63261,-0.0272 0.71428,0 0.0799,0.0266 0.10328,0.14093 0.17858,0.17857 0.10647,0.0532 0.25066,-0.0532 0.35714,0 0.0753,0.0376 0.10328,0.14093 0.17857,0.17857 0.0532,0.0266 0.12533,-0.0266 0.17857,0 0.0753,0.0376 0.10328,0.14093 0.17857,0.17858 0.10648,0.0532 0.27297,-0.0842 0.35715,0 0.0421,0.0421 -0.0421,0.13648 0,0.17857 0.0553,0.0553 0.83756,-0.0553 0.89285,0 0.0421,0.0421 -0.0421,0.13648 0,0.17857 0.0421,0.0421 0.12533,-0.0266 0.17857,0 0.15059,0.0753 0.20656,0.28185 0.35715,0.35714 0.0532,0.0266 0.13648,-0.0421 0.17857,0 0.0421,0.0421 -0.0421,0.13648 0,0.17857 0.0421,0.0421 0.12533,-0.0266 0.17857,0 0.0753,0.0376 0.10328,0.14093 0.17857,0.17857 0.10648,0.0532 0.27296,-0.0842 0.35714,0 0.0421,0.0421 -0.0421,0.13649 0,0.17858 0.0842,0.0842 0.27297,-0.0842 0.35715,0 0.0421,0.0421 -0.0421,0.13648 0,0.17857 0.0421,0.0421 0.12533,-0.0266 0.17857,0 0.0753,0.0376 0.10328,0.14092 0.17857,0.17857 0.10648,0.0532 0.25066,-0.0532 0.35714,0 0.0753,0.0376 0.10328,0.14092 0.17857,0.17857 0.0795,0.0397 0.63261,-0.0272 0.71429,0 0.0799,0.0266 0.10328,0.14093 0.17857,0.17857 0.11693,0.0585 0.73439,-0.0528 0.89286,0 0.12627,0.0421 0.23087,0.13648 0.35714,0.17857 0.0565,0.0188 0.12533,-0.0266 0.17857,0 0.0753,0.0376 0.10328,0.14093 0.17857,0.17857 0.10648,0.0532 0.27297,-0.0842 0.35715,0 0.0421,0.0421 -0.0421,0.13649 0,0.17858 0.0842,0.0842 0.27296,-0.0842 0.35714,0 0.0421,0.0421 -0.0421,0.13648 0,0.17857 0.0421,0.0421 0.13648,-0.0421 0.17857,0 0.0421,0.0421 -0.033,0.12904 0,0.17857 0.088,0.13207 0.64084,0.56739 0.71429,0.71428 0.0266,0.0532 -0.0421,0.13649 0,0.17858 0.0421,0.0421 0.13648,-0.0421 0.17857,0 0.0421,0.0421 -0.0266,0.12533 0,0.17857 0.0376,0.0753 0.14092,0.10328 0.17857,0.17857 0.0532,0.10648 -0.0842,0.27296 0,0.35714 0.0421,0.0421 0.13648,-0.0421 0.17857,0 0.0421,0.0421 -0.0421,0.13648 0,0.17857 0.0421,0.0421 0.13648,-0.0421 0.17857,0 0.0842,0.0842 -0.0532,0.25067 0,0.35715 0.0376,0.0753 0.14093,0.10327 0.17857,0.17857 0.0532,0.10648 -0.0532,0.25066 0,0.35714 0.0376,0.0753 0.14093,0.10328 0.17858,0.17857 0.0266,0.0532 -0.0266,0.12533 0,0.17857 0.0376,0.0753 0.13187,0.10853 0.17857,0.17857 0.0738,0.11075 0.10474,0.2464 0.17857,0.35715 0.0467,0.07 0.14092,0.10328 0.17857,0.17857 0.0532,0.10648 -0.0532,0.25066 0,0.35714 0.0376,0.0753 0.14092,0.10328 0.17857,0.17857 0.12316,0.24632 -0.21626,0.15973 0.17857,0.35715 0.0532,0.0266 0.13648,-0.0421 0.17857,0 0.0596,0.0596 -0.0596,0.29756 0,0.35714 0.0421,0.0421 0.11905,0 0.17858,0 0,0.0595 -0.0266,0.12533 0,0.17857 0.11896,0.23793 0.23817,0.11921 0.35714,0.35714 0.0266,0.0532 -0.0421,0.13648 0,0.17857 0.0421,0.0421 0.13648,-0.0421 0.17857,0 0.0421,0.0421 -0.0266,0.12534 0,0.17858 0.0753,0.15058 0.28185,0.20655 0.35714,0.35714 0.0266,0.0532 -0.0421,0.13648 0,0.17857 0.0421,0.0421 0.13648,-0.0421 0.17857,0 0.0421,0.0421 -0.0421,0.13648 0,0.17857 0.0421,0.0421 0.13649,-0.0421 0.17858,0 0.0421,0.0421 -0.0421,0.13648 0,0.17857 0.0842,0.0842 0.25066,-0.0532 0.35714,0 0.15058,0.0753 0.20656,0.28185 0.35714,0.35715 0.0532,0.0266 0.13648,-0.0421 0.17857,0 0.0421,0.0421 -0.0421,0.13648 0,0.17857 0.0421,0.0421 0.13648,-0.0421 0.17857,0 0.0842,0.0842 -0.0532,0.25066 0,0.35714 0.0376,0.0753 0.14093,0.10328 0.17858,0.17857 0.0266,0.0532 -0.0421,0.13648 0,0.17857 0.0421,0.0421 0.13648,-0.0421 0.17857,0 0.0893,0.0893 -0.0893,0.44643 0,0.53572 0.0421,0.0421 0.13648,-0.0421 0.17857,0 0.0365,0.0365 -0.0354,0.46491 0,0.53571 0.0376,0.0753 0.14092,0.10328 0.17857,0.17857 0.0714,0.14286 -0.0714,0.39286 0,0.53572 0.0376,0.0753 0.14092,0.10328 0.17857,0.17857 0.0532,0.10648 -0.0532,0.25066 0,0.35714 0.22684,0.45367 0.21343,-0.18288 0.35714,0.53572 0.035,0.1751 -0.035,0.36061 0,0.53571 0.0261,0.13051 0.13649,0.23087 0.17858,0.35714 0.0188,0.0565 0.0595,0.17857 0,0.17857 -0.0595,0 -0.0595,-0.17857 0,-0.17857 0.0595,0 0,0.2381 0,0.17857 0,-0.11904 0,-0.23809 0,-0.35714 M 523.57143,554.1479 c -0.2381,-0.17858 -0.92473,-0.74617 -0.71429,-0.53572 0.29762,0.2381 0.59524,0.47619 0.89286,0.71429 0.0595,0 0.12533,-0.0266 0.17857,0 0.0753,0.0376 0.10328,0.14092 0.17857,0.17857 0.10648,0.0532 0.25067,-0.0532 0.35715,0 0.0753,0.0376 0.10328,0.14092 0.17857,0.17857 0.0532,0.0266 0.12533,-0.0266 0.17857,0 0.0753,0.0376 0.10328,0.14093 0.17857,0.17857 0.0532,0.0266 0.13648,-0.0421 0.17857,0 0.0421,0.0421 -0.0421,0.13648 0,0.17857 0.0421,0.0421 0.12533,-0.0266 0.17857,0 0.0753,0.0376 0.10328,0.14093 0.17858,0.17857 0.0532,0.0266 0.13648,-0.0421 0.17857,0 0.0421,0.0421 -0.0421,0.13649 0,0.17858 0.0842,0.0842 0.27296,-0.0842 0.35714,0 0.0421,0.0421 -0.0421,0.13648 0,0.17857 0.0842,0.0842 0.27296,-0.0842 0.35714,0 0.0421,0.0421 -0.0421,0.13648 0,0.17857 0.0842,0.0842 0.25067,-0.0532 0.35715,0 0.0753,0.0376 0.10327,0.14092 0.17857,0.17857 0.10648,0.0532 0.27296,-0.0842 0.35714,0 0.0421,0.0421 -0.0421,0.13648 0,0.17857 0.0842,0.0842 0.27296,-0.0842 0.35714,0 0.0421,0.0421 -0.0421,0.13648 0,0.17857 0.0421,0.0421 0.12533,-0.0266 0.17857,0 0.15059,0.0753 0.20656,0.28185 0.35715,0.35715 0.0532,0.0266 0.12533,-0.0266 0.17857,0 0.21428,0.10714 0.32143,0.42857 0.53571,0.53571 0.0532,0.0266 0.12533,-0.0266 0.17857,0 0.0753,0.0376 0.10328,0.14093 0.17858,0.17857 0.0532,0.0266 0.13648,-0.0421 0.17857,0 0.0421,0.0421 -0.0421,0.13648 0,0.17857 0.0842,0.0842 0.25066,-0.0532 0.35714,0 0.15058,0.0753 0.20656,0.28185 0.35714,0.35715 0.10648,0.0532 0.27297,-0.0842 0.35715,0 0.0421,0.0421 -0.0421,0.13648 0,0.17857 0.0421,0.0421 0.12533,-0.0266 0.17857,0 0.0753,0.0376 0.10328,0.14092 0.17857,0.17857 0.0532,0.0266 0.13648,-0.0421 0.17857,0 0.0421,0.0421 -0.0421,0.13648 0,0.17857 0.0421,0.0421 0.13648,-0.0421 0.17857,0 0.0421,0.0421 -0.0266,0.12533 0,0.17857 0.40863,0.81725 -0.074,-0.75775 0.35714,0.53572 0.0376,0.11293 -0.0842,0.27296 0,0.35714 0.0421,0.0421 0.13649,-0.0421 0.17858,0 0.0489,0.0489 -0.0484,0.61741 0,0.71428 0.0376,0.0753 0.14092,0.10328 0.17857,0.17858 0.0714,0.14285 -0.0714,0.39285 0,0.53571 0.0376,0.0753 0.14092,0.10328 0.17857,0.17857 0.0532,0.10648 -0.0532,0.25067 0,0.35714 0.0376,0.0753 0.14092,0.10328 0.17857,0.17858 0.0532,0.10648 -0.0842,0.27296 0,0.35714 0.0421,0.0421 0.13648,-0.0421 0.17857,0 0.0893,0.0893 -0.0893,0.44643 0,0.53571 0.0421,0.0421 0.13648,-0.0421 0.17857,0 0.0842,0.0842 -0.0532,0.25067 0,0.35715 0.0376,0.0753 0.14093,0.10327 0.17857,0.17857 0.0532,0.10648 -0.0532,0.25066 0,0.35714 0.0376,0.0753 0.14093,0.10328 0.17858,0.17857 0.0354,0.0708 -0.0365,0.49921 0,0.53572 0.0421,0.0421 0.13648,-0.0421 0.17857,0 0.0421,0.0421 -0.0266,0.12533 0,0.17857 0.0376,0.0753 0.14092,0.10328 0.17857,0.17857 0.0532,0.10648 -0.0532,0.25066 0,0.35714 0.0376,0.0753 0.14092,0.10328 0.17857,0.17857 0.0532,0.10648 -0.0842,0.27297 0,0.35715 0.0421,0.0421 0.13648,-0.0421 0.17857,0 0.0421,0.0421 -0.0266,0.12533 0,0.17857 0.0376,0.0753 0.14093,0.10328 0.17857,0.17857 0.0266,0.0532 -0.0421,0.13648 0,0.17857 0.0421,0.0421 0.13648,-0.0421 0.17857,0 0.0842,0.0842 -0.0842,0.27296 0,0.35714 0.0421,0.0421 0.13649,-0.0421 0.17858,0 0.0421,0.0421 -0.0421,0.13648 0,0.17857 0.36947,0.36948 -0.0145,-0.5646 0.35714,0.17858 0.0266,0.0532 -0.0421,0.13648 0,0.17857 0.0421,0.0421 0.13648,-0.0421 0.17857,0 0.0421,0.0421 0,0.11904 0,0.17857 0,0.0595 0,0.11905 0,0.17857 0,0.65476 0,1.30952 0,1.96429 m -6.42857,0.35714 c 0,-0.41874 0.0421,0.0842 -0.17857,-0.35714 -0.0617,-0.12335 0.0627,-0.83016 0,-0.89286 -0.0421,-0.0421 -0.13647,0.0421 -0.17857,0 -0.0842,-0.0842 0.0532,-0.25066 0,-0.35714 -0.0376,-0.0753 -0.14098,-0.10328 -0.17858,-0.17858 -0.0532,-0.10647 0.0842,-0.27294 0,-0.35714 -0.0421,-0.0421 -0.13647,0.0421 -0.17857,0 -0.0421,-0.0421 0.0421,-0.13647 0,-0.17857 -0.0421,-0.0421 -0.13647,0.0421 -0.17857,0 -0.0421,-0.0421 0.0266,-0.12537 0,-0.17857 -0.0376,-0.0753 -0.14097,-0.10327 -0.17857,-0.17857 -0.0266,-0.0532 0.0421,-0.13647 0,-0.17857 -0.0421,-0.0421 -0.13647,0.0421 -0.17857,0 -0.0421,-0.0421 0.0266,-0.12538 0,-0.17858 -0.0376,-0.0753 -0.11907,-0.11907 -0.17857,-0.17857 0,-0.0595 0.0266,-0.12537 0,-0.17857 -0.0753,-0.15058 -0.28185,-0.20656 -0.35715,-0.35714 -0.0266,-0.0532 0.0266,-0.12537 0,-0.17857 -0.0376,-0.0753 -0.14097,-0.10327 -0.17857,-0.17857 -0.0532,-0.10648 0.0532,-0.25067 0,-0.35715 -0.0376,-0.0753 -0.14097,-0.10327 -0.17857,-0.17857 -0.0714,-0.14286 0.0714,-0.39286 0,-0.53571 -0.0376,-0.0753 -0.14097,-0.10327 -0.17857,-0.17857 -0.0532,-0.10648 0.0532,-0.25067 0,-0.35715 -0.0376,-0.0753 -0.14097,-0.10327 -0.17857,-0.17857 -0.0532,-0.10648 0.0532,-0.25066 0,-0.35714 -0.0376,-0.0753 -0.14097,-0.10327 -0.17857,-0.17857 -0.0561,-0.11224 0.0561,-0.60205 0,-0.71429 -0.0376,-0.0753 -0.14097,-0.10327 -0.17857,-0.17857 -0.0714,-0.14286 0.0714,-0.39286 0,-0.53571 -0.0376,-0.0753 -0.14098,-0.10328 -0.17858,-0.17858 -0.0714,-0.14285 0.0714,-0.39285 0,-0.53571 -0.0376,-0.0753 -0.14097,-0.10327 -0.17857,-0.17857 -0.0561,-0.11224 0.0561,-0.60205 0,-0.71429 -0.0376,-0.0753 -0.14097,-0.10327 -0.17857,-0.17857 -0.0542,-0.10843 0.0542,-0.96299 0,-1.07143 -0.0376,-0.0753 -0.14097,-0.10327 -0.17857,-0.17857 -0.0266,-0.0532 0,-0.11907 0,-0.17857 0,-0.0595 0,-0.11907 0,-0.17857 0,-0.0656 0.007,-0.70729 0,-0.71429 -0.0421,-0.0421 -0.13647,0.0421 -0.17857,0 -0.0421,-0.0421 0,-0.11907 0,-0.17857 0,-0.0595 0,-0.11907 0,-0.17857 0,-0.0842 0.008,-0.88486 0,-0.89286 -0.0421,-0.0421 -0.13647,0.0421 -0.17857,0 -0.0893,-0.0893 0.0893,-0.44641 0,-0.53571 -0.0421,-0.0421 -0.13647,0.0421 -0.17857,0 -0.0421,-0.0421 0.0421,-0.13647 0,-0.17857 -0.0421,-0.0421 -0.13648,0.0421 -0.17858,0 -0.36947,-0.36945 0.5646,0.0144 -0.17857,-0.35715 -0.0532,-0.0266 -0.12537,0.0266 -0.17857,0 -0.15058,-0.0753 -0.20656,-0.28184 -0.35714,-0.35714 -0.0532,-0.0266 -0.12537,0.0266 -0.17857,0 -0.21429,-0.10714 -0.32143,-0.42857 -0.53572,-0.53571 -0.0532,-0.0266 -0.12537,0.0266 -0.17857,0 -0.21428,-0.10715 -0.32143,-0.42857 -0.53571,-0.53572 -0.0532,-0.0266 -0.12537,0.0266 -0.17857,0 -0.37255,-0.18625 0.0228,-0.54299 -0.35715,-0.71428 l 0.71429,-0.17857 c 0.15577,0.36435 0.51908,0.081 0.71428,0.17857 0.0753,0.0376 0.10328,0.14092 0.17858,0.17857 0.10647,0.0532 0.27296,-0.0842 0.35714,0 0.0421,0.0421 -0.0421,0.13648 0,0.17857 0.0421,0.0421 0.13648,-0.0421 0.17857,0 0.0421,0.0421 -0.0421,0.13648 0,0.17857 0.0421,0.0421 0.13648,-0.0421 0.17857,0 0.0421,0.0421 -0.0421,0.13648 0,0.17857 0.0421,0.0421 0.12533,-0.0266 0.17857,0 0.0753,0.0376 0.10328,0.14093 0.17857,0.17857 0.0532,0.0266 0.13649,-0.0421 0.17858,0 0.0421,0.0421 -0.0421,0.13649 0,0.17858 0.0421,0.0421 0.12533,-0.0266 0.17857,0 0.0753,0.0376 0.10328,0.14092 0.17857,0.17857 0.0532,0.0266 0.13648,-0.0421 0.17857,0 0.0421,0.0421 -0.0421,0.13648 0,0.17857 0.0421,0.0421 0.13648,-0.0421 0.17857,0 0.0421,0.0421 -0.0421,0.13648 0,0.17857 0.0421,0.0421 0.12533,-0.0266 0.17857,0 0.15059,0.0753 0.20656,0.28185 0.35715,0.35714 0.0532,0.0266 0.13648,-0.0421 0.17857,0 0.0421,0.0421 -0.0421,0.13648 0,0.17857 0.0421,0.0421 0.12533,-0.0266 0.17857,0 0.0753,0.0376 0.10328,0.14093 0.17857,0.17858 0.0532,0.0266 0.13648,-0.0421 0.17857,0 0.0421,0.0421 -0.0266,0.12533 0,0.17857 0.59225,0.59224 -0.0842,-0.16836 0.17857,0.35714 0.0376,0.0753 0.14093,0.10328 0.17857,0.17857 0.0266,0.0532 -0.0421,0.13648 0,0.17857 0.0421,0.0421 0.13649,-0.0421 0.17858,0 0.0421,0.0421 -0.0421,0.13648 0,0.17857 0.0421,0.0421 0.13648,-0.0421 0.17857,0 0.0842,0.0842 -0.0842,0.27297 0,0.35715 0.0421,0.0421 0.13648,-0.0421 0.17857,0 0.0842,0.0842 -0.0842,0.27296 0,0.35714 0.0421,0.0421 0.13648,-0.0421 0.17857,0 0.0842,0.0842 -0.0532,0.25066 0,0.35714 0.0376,0.0753 0.14092,0.10328 0.17857,0.17857 0.0266,0.0532 -0.0266,0.12534 0,0.17858 0.59225,0.59224 -0.0842,-0.16836 0.17857,0.35714 0.0376,0.0753 0.14093,0.10328 0.17857,0.17857 0.0714,0.14286 -0.0714,0.39286 0,0.53571 0.59225,0.59225 -0.0842,-0.16835 0.17858,0.35715 0.0376,0.0753 0.14092,0.10328 0.17857,0.17857 0.0532,0.10648 -0.0376,0.2442 0,0.35714 0.0421,0.12627 0.13648,0.23088 0.17857,0.35714 0.0376,0.11294 -0.0532,0.25067 0,0.35715 0.59225,0.59224 -0.0842,-0.16836 0.17857,0.35714 0.0376,0.0753 0.14092,0.10328 0.17857,0.17857 0.0714,0.14286 -0.0714,0.39286 0,0.53572 0.0376,0.0753 0.14093,0.10327 0.17857,0.17857 0.0266,0.0532 -0.0266,0.12533 0,0.17857 0.0376,0.0753 0.14093,0.10328 0.17857,0.17857 0.0532,0.10648 -0.0842,0.27296 0,0.35714 0.0421,0.0421 0.13649,-0.0421 0.17858,0 0.043,0.043 -0.043,0.67132 0,0.71429 0.0421,0.0421 0.13648,-0.0421 0.17857,0 0.0893,0.0893 -0.0893,0.44643 0,0.53571 0.0421,0.0421 0.13648,-0.0421 0.17857,0 0.0421,0.0421 -0.0421,0.13648 0,0.17857 0.0421,0.0421 0.13648,-0.0421 0.17857,0 0.0421,0.0421 -0.0266,0.12534 0,0.17858 0.0171,0.0342 0.6801,0.69719 0.71429,0.71428 0.0532,0.0266 0.13648,-0.0421 0.17857,0 0.0421,0.0421 -0.0421,0.13648 0,0.17857 0.0421,0.0421 0.13648,-0.0421 0.17857,0 0.0421,0.0421 -0.0421,0.13648 0,0.17857 0.0421,0.0421 0.13648,-0.0421 0.17857,0 0.0421,0.0421 -0.0421,0.13649 0,0.17858 0.0421,0.0421 0.13648,-0.0421 0.17857,0 0.0421,0.0421 -0.0266,0.12533 0,0.17857 0.0753,0.15058 0.28185,0.20656 0.35714,0.35714 0.0532,0.10648 -0.0532,0.25066 0,0.35714 0.0376,0.0753 0.14093,0.10328 0.17858,0.17857 0.0532,0.10648 -0.0532,0.25067 0,0.35715 0.0376,0.0753 0.14092,0.10328 0.17857,0.17857 0.0231,0.0462 0,0.94486 0,1.07143 0,0.0595 -0.0421,0.13648 0,0.17857 0.0421,0.0421 0.13648,-0.0421 0.17857,0 0.0179,0.0179 0.0179,0.51786 0,0.53571 -0.0421,0.0421 -0.13648,-0.0421 -0.17857,0 -0.006,0.006 0,0.49241 0,0.53572 m -9.64286,-15.89286 c 0,0.40344 -0.0266,-0.0799 0.17857,0.53571 0.0188,0.0565 -0.0266,0.12534 0,0.17858 0.0376,0.0753 0.14093,0.10327 0.17857,0.17857 0.0266,0.0532 -0.0266,0.12533 0,0.17857 0.0376,0.0753 0.14093,0.10328 0.17857,0.17857 0.0266,0.0532 -0.0421,0.13648 0,0.17857 0.0421,0.0421 0.13649,-0.0421 0.17858,0 0.0421,0.0421 -0.0266,0.12533 0,0.17857 0.0376,0.0753 0.14092,0.10328 0.17857,0.17857 0.0266,0.0532 -0.0266,0.12534 0,0.17858 0.0376,0.0753 0.14092,0.10327 0.17857,0.17857 0.0272,0.0543 0,0.45529 0,0.53571 0,0.47619 0,0.95238 0,1.42857 0,0.11905 0,0.2381 0,0.35715 0,0.11904 -0.0289,0.24165 0,0.35714 0.0323,0.12912 0.14629,0.22802 0.17857,0.35714 0.0289,0.11549 0,0.2381 0,0.35714 0,0.29762 0,0.59524 0,0.89286 0,0.0433 0.006,0.52997 0,0.53572 -0.0421,0.0421 -0.13648,-0.0421 -0.17857,0 -0.0421,0.0421 0,0.11904 0,0.17857 0,0.41666 0,0.83333 0,1.25 0,0.0595 0,0.11904 0,0.17857 0,0.0595 0.0421,0.13648 0,0.17857 -0.0421,0.0421 -0.13648,-0.0421 -0.17857,0 -0.0421,0.0421 0,0.11905 0,0.17857 0,0.29762 0,0.59524 0,0.89286 0,0.77381 0,1.54762 0,2.32143 0,0.0595 0,0.11904 0,0.17857 0,0.0595 -0.0421,0.13648 0,0.17857 0.0421,0.0421 0.17857,-0.0595 0.17857,0 0,0.0595 -0.17857,-0.0595 -0.17857,0 0,0.0842 0.14092,0.10328 0.17857,0.17857 0.0714,0.14286 -0.0714,0.39286 0,0.53572 0.0376,0.0753 0.14092,0.10327 0.17857,0.17857 0.0561,0.11223 -0.0561,0.60205 0,0.71428 0.0376,0.0753 0.14092,0.10328 0.17857,0.17857 0.0714,0.14286 -0.0714,0.39286 0,0.53572 0.0376,0.0753 0.14093,0.10328 0.17857,0.17857 0.0532,0.10648 -0.0842,0.27296 0,0.35714 0.0421,0.0421 0.13648,-0.0421 0.17857,0 0.006,0.006 0,0.49241 0,0.53572 m -10,-2.32143 c -0.23809,0.11905 -0.90251,0.54537 -0.71428,0.35714 0.24542,-0.24542 0.62183,-0.31889 0.89286,-0.53571 0.0465,-0.0372 -0.0421,-0.13648 0,-0.17857 0.0421,-0.0421 0.13648,0.0421 0.17857,0 0.0842,-0.0842 -0.0842,-0.27297 0,-0.35715 0.0421,-0.0421 0.13648,0.0421 0.17857,0 0.0421,-0.0421 -0.0421,-0.13648 0,-0.17857 0.0421,-0.0421 0.13648,0.0421 0.17857,0 0.0421,-0.0421 -0.0266,-0.12533 0,-0.17857 0.0376,-0.0753 0.11905,-0.11905 0.17857,-0.17857 0,-0.17857 -0.0565,-0.36631 0,-0.53572 0.0679,-0.2036 0.27744,-0.33644 0.35714,-0.53571 0.0442,-0.11053 -0.0376,-0.2442 0,-0.35714 0.0532,-0.15972 0.28185,-0.20656 0.35715,-0.35715 0.0266,-0.0532 -0.0421,-0.13648 0,-0.17857 0.0421,-0.0421 0.13648,0.0421 0.17857,0 0.0421,-0.0421 -0.0266,-0.12533 0,-0.17857 0.0376,-0.0753 0.14092,-0.10328 0.17857,-0.17857 0.0266,-0.0532 -0.0421,-0.13648 0,-0.17857 0.0421,-0.0421 0.13648,0.0421 0.17857,0 0.0842,-0.0842 -0.0842,-0.27296 0,-0.35714 0.0421,-0.0421 0.13648,0.0421 0.17857,0 0.0421,-0.0421 -0.0421,-0.13649 0,-0.17858 0.0421,-0.0421 0.13648,0.0421 0.17857,0 0.0421,-0.0421 -0.0266,-0.12533 0,-0.17857 0.0376,-0.0753 0.14093,-0.10328 0.17858,-0.17857 0.0266,-0.0532 -0.0421,-0.13648 0,-0.17857 0.0421,-0.0421 0.13648,0.0421 0.17857,0 0.0421,-0.0421 -0.0266,-0.12533 0,-0.17857 0.0376,-0.0753 0.14092,-0.10328 0.17857,-0.17857 0.0266,-0.0532 -0.0266,-0.12533 0,-0.17857 0.10714,-0.21429 0.42857,-0.32143 0.53571,-0.53572 0.0266,-0.0532 -0.0421,-0.13648 0,-0.17857 0.0421,-0.0421 0.13648,0.0421 0.17857,0 0.0421,-0.0421 -0.0421,-0.13648 0,-0.17857 0.0421,-0.0421 0.13649,0.0421 0.17858,0 0.0421,-0.0421 -0.0421,-0.13648 0,-0.17857 0.0421,-0.0421 0.13648,0.0421 0.17857,0 0.0421,-0.0421 -0.0421,-0.13648 0,-0.17857 0.0421,-0.0421 0.13648,0.0421 0.17857,0 0.0421,-0.0421 -0.0266,-0.12534 0,-0.17858 0.0376,-0.0753 0.14092,-0.10327 0.17857,-0.17857 0.0266,-0.0532 -0.0421,-0.13648 0,-0.17857 0.0421,-0.0421 0.13648,0.0421 0.17857,0 0.0421,-0.0421 -0.0421,-0.13648 0,-0.17857 0.0421,-0.0421 0.13648,0.0421 0.17857,0 0.0842,-0.0842 -0.0532,-0.25066 0,-0.35714 0.0376,-0.0753 0.14093,-0.10328 0.17857,-0.17857 0.0266,-0.0532 -0.0266,-0.12534 0,-0.17858 0.0376,-0.0753 0.14093,-0.10327 0.17858,-0.17857 0.0561,-0.11223 -0.0561,-0.60205 0,-0.71428 0.0376,-0.0753 0.14092,-0.10328 0.17857,-0.17857 0.0532,-0.10648 -0.0842,-0.27297 0,-0.35715 0.0421,-0.0421 0.13648,0.0421 0.17857,0 0.0842,-0.0842 -0.0532,-0.25066 0,-0.35714 0.0376,-0.0753 0.14092,-0.10328 0.17857,-0.17857 0.0484,-0.0969 -0.0489,-0.66543 0,-0.71429 0.0421,-0.0421 0.13648,0.0421 0.17857,0 0.0489,-0.0489 -0.0484,-0.61741 0,-0.71428 0.0376,-0.0753 0.14093,-0.10328 0.17857,-0.17857 0.0532,-0.10648 -0.0532,-0.25067 0,-0.35715 0.0376,-0.0753 0.14093,-0.10328 0.17857,-0.17857 0.0484,-0.0969 -0.0489,-0.66542 0,-0.71428 0.0421,-0.0421 0.13649,0.0421 0.17858,0 0.008,-0.008 0,-0.80867 0,-0.89286 0,-0.0595 -0.0421,-0.13648 0,-0.17857 0.0421,-0.0421 0.13648,0.0421 0.17857,0 0.0842,-0.0842 -0.0842,-0.27297 0,-0.35715 0.23809,-0.23809 0.17857,0.29762 0.17857,-0.17857 l 0.17857,1.07143 c 0.079,0.10677 -0.0704,0.57357 0,0.71429 0.0376,0.0753 0.14092,0.10328 0.17857,0.17857 0.0272,0.0543 0,0.45529 0,0.53571 0,0.41667 0,0.83334 0,1.25 0,1.01191 0,2.02381 0,3.03572 0,0.35714 0,0.71428 0,1.07143 0,0.0804 0.0272,0.48136 0,0.53571 -0.0376,0.0753 -0.14092,0.10328 -0.17857,0.17857 -0.0563,0.11266 0.0563,0.7802 0,0.89286 -0.0376,0.0753 -0.14093,0.10328 -0.17857,0.17857 -0.0561,0.11224 0.0561,0.60205 0,0.71429 -0.0376,0.0753 -0.14093,0.10327 -0.17857,0.17857 -0.0513,0.10251 0.038,0.74085 0,0.89285 -0.0323,0.12913 -0.13648,0.23088 -0.17857,0.35715 -0.0188,0.0565 0.0266,0.12533 0,0.17857 -0.0376,0.0753 -0.14093,0.10328 -0.17858,0.17857 -0.0266,0.0532 0,0.11905 0,0.17857 0,0.12657 0.0231,1.02526 0,1.07143 -0.0376,0.0753 -0.15195,0.0987 -0.17857,0.17857 -0.0272,0.0818 0,0.79319 0,0.89286 0,0.65476 0,1.30952 0,1.96428 m 0.53572,-15.89285 c 0,0.41878 0.0421,-0.0842 -0.17857,0.35714 -0.0561,0.11224 0.0561,0.60205 0,0.71429 -0.0376,0.0753 -0.14093,0.10327 -0.17858,0.17857 -0.0532,0.10648 0.0532,0.25066 0,0.35714 -0.0376,0.0753 -0.14092,0.10328 -0.17857,0.17857 -0.0266,0.0532 0.0188,0.1221 0,0.17857 -0.0421,0.12627 -0.13648,0.23088 -0.17857,0.35715 -0.0188,0.0565 0.0266,0.12533 0,0.17857 -0.0376,0.0753 -0.14092,0.10328 -0.17857,0.17857 -0.0266,0.0532 0.0266,0.12533 0,0.17857 -0.0376,0.0753 -0.11905,0.11905 -0.17857,0.17857 -0.0595,0.0595 -0.11905,0.11905 -0.17857,0.17857 -0.10503,0.10503 -0.6316,0.67294 -0.71429,0.71429 -0.10648,0.0532 -0.27296,-0.0842 -0.35714,0 -0.0421,0.0421 0.0421,0.13648 0,0.17857 -0.0842,0.0842 -0.27297,-0.0842 -0.35714,0 -0.0421,0.0421 0.0266,0.12533 0,0.17857 -0.0569,0.11375 -0.75255,0.75254 -0.89286,0.89286 -0.0595,0.0595 -0.10328,0.14092 -0.17857,0.17857 -0.24632,0.12316 -0.15973,-0.21626 -0.35715,0.17857 -0.0266,0.0532 0.0421,0.13648 0,0.17857 -0.0421,0.0421 -0.13648,-0.0421 -0.17857,0 -0.0421,0.0421 0.0266,0.12533 0,0.17857 -0.0753,0.15059 -0.28185,0.20656 -0.35714,0.35715 -0.0266,0.0532 0,0.11904 0,0.17857 -0.0595,0.0595 -0.14093,0.10328 -0.17857,0.17857 -0.0266,0.0532 0.0421,0.13648 0,0.17857 -0.0421,0.0421 -0.13648,-0.0421 -0.17857,0 -0.0421,0.0421 0.0266,0.12533 0,0.17857 -0.0753,0.15059 -0.28185,0.20656 -0.35715,0.35715 -0.0266,0.0532 0.0421,0.13648 0,0.17857 -0.0421,0.0421 -0.12533,-0.0266 -0.17857,0 -0.74317,0.37158 0.1909,-0.0123 -0.17857,0.35714 -0.0421,0.0421 -0.13648,-0.0421 -0.17857,0 -0.36947,0.36947 0.5646,-0.0144 -0.17857,0.35714 -0.0532,0.0266 -0.12533,-0.0266 -0.17857,0 -0.0753,0.0376 -0.11905,0.11905 -0.17857,0.17857 -0.0595,0.0595 -0.11905,0.11905 -0.17858,0.17858 -0.0595,0.0595 -0.14092,0.10327 -0.17857,0.17857 -0.0266,0.0532 0.0595,0.17857 0,0.17857 -0.0595,0 0.0421,-0.13648 0,-0.17857 -0.0421,-0.0421 -0.11905,0 -0.17857,0 -0.11905,0 -0.2442,-0.0376 -0.35714,0 -0.25254,0.0842 -0.46175,0.27296 -0.71429,0.35714 -0.11294,0.0376 -0.25066,-0.0532 -0.35714,0 -0.0753,0.0376 -0.11905,0.11905 -0.17857,0.17857 -0.17857,0.17857 -0.35714,0.35714 -0.53572,0.53572 -0.0595,0.0595 -0.11904,0.11904 -0.17857,0.17857 -0.0595,0 -0.13648,-0.0421 -0.17857,0 -0.0421,0.0421 0.0421,0.13648 0,0.17857 -0.0421,0.0421 -0.13648,-0.0421 -0.17857,0 -0.0421,0.0421 0.0266,0.12533 0,0.17857 -0.0377,0.0753 -0.13188,0.10853 -0.17857,0.17857 -0.39342,0.0899 -0.0944,0.36736 -0.17857,0.53572 -0.0376,0.0753 -0.14093,0.10327 -0.17857,0.17857 -0.0325,0.065 0.0313,0.71428 0,0.71428 -0.0595,0 -0.0595,-0.17857 0,-0.17857 0.15583,0 -0.37508,0.92873 0.17857,-0.17857 m 10,-13.57143 c 0,-0.47619 0.0595,0.0595 -0.17857,-0.17857 -0.0421,-0.0421 0.0421,-0.13648 0,-0.17857 -0.0421,-0.0421 -0.13649,0.0421 -0.17858,0 -0.0421,-0.0421 0.0421,-0.13648 0,-0.17857 -0.0421,-0.0421 -0.13648,0.0421 -0.17857,0 -0.0421,-0.0421 0.0421,-0.13648 0,-0.17857 -0.0421,-0.0421 -0.13648,0.0421 -0.17857,0 -0.0421,-0.0421 0.0266,-0.12534 0,-0.17858 -0.0753,-0.15058 -0.28185,-0.20655 -0.35714,-0.35714 -0.0266,-0.0532 0.0421,-0.13648 0,-0.17857 -0.0421,-0.0421 -0.13648,0.0421 -0.17857,0 -0.0421,-0.0421 0.0421,-0.13648 0,-0.17857 -0.0421,-0.0421 -0.13648,0.0421 -0.17857,0 -0.0842,-0.0842 0.0842,-0.27296 0,-0.35714 -0.36948,-0.36947 0.0144,0.5646 -0.35715,-0.17858 -0.0266,-0.0532 0.0421,-0.13648 0,-0.17857 -0.0842,-0.0842 -0.25066,0.0532 -0.35714,0 -0.21429,-0.10714 -0.32143,-0.42857 -0.53571,-0.53571 -0.0532,-0.0266 -0.12534,0.0266 -0.17858,0 -0.0753,-0.0376 -0.10328,-0.14093 -0.17857,-0.17857 -0.10648,-0.0532 -0.25066,0.0532 -0.35714,0 -0.0753,-0.0376 -0.10328,-0.14093 -0.17857,-0.17857 -0.10648,-0.0532 -0.27297,0.0842 -0.35714,0 -0.0421,-0.0421 0.0421,-0.13649 0,-0.17858 -0.0421,-0.0421 -0.12534,0.0266 -0.17858,0 -0.15058,-0.0753 -0.20655,-0.28185 -0.35714,-0.35714 -0.0532,-0.0266 -0.13648,0.0421 -0.17857,0 -0.36947,-0.36947 0.5646,0.0144 -0.17857,-0.35714 -0.0532,-0.0266 -0.11905,0 -0.17857,0 -0.0595,-0.0595 -0.10328,-0.14093 -0.17857,-0.17857 -0.0532,-0.0266 -0.13649,0.0421 -0.17858,0 -0.0421,-0.0421 0.0421,-0.13648 0,-0.17857 -0.0421,-0.0421 -0.12533,0.0266 -0.17857,0 -0.21428,-0.10715 -0.32143,-0.42858 -0.53571,-0.53572 -0.0532,-0.0266 -0.13648,0.0421 -0.17857,0 -0.0421,-0.0421 0.0421,-0.13648 0,-0.17857 -0.36947,-0.36947 0.0144,0.5646 -0.35715,-0.17857 -0.0266,-0.0532 0.0421,-0.13648 0,-0.17857 -0.0421,-0.0421 -0.13648,0.0421 -0.17857,0 -0.0842,-0.0842 0.0842,-0.27297 0,-0.35715 -0.0421,-0.0421 -0.13648,0.0421 -0.17857,0 -0.0421,-0.0421 0.0266,-0.12533 0,-0.17857 -0.59225,-0.59224 0.0842,0.16836 -0.17857,-0.35714 -0.0753,-0.15058 -0.28185,-0.20656 -0.35714,-0.35714 -0.0266,-0.0532 0,-0.11905 0,-0.17857 -0.0595,-0.0595 -0.14093,-0.10328 -0.17857,-0.17858 -0.0532,-0.10648 0.0532,-0.25066 0,-0.35714 -0.0376,-0.0753 -0.14093,-0.10328 -0.17858,-0.17857 -0.0266,-0.0532 0,-0.11905 0,-0.17857 -0.0595,-0.0595 -0.14092,-0.10328 -0.17857,-0.17857 -0.0266,-0.0532 0.0266,-0.12533 0,-0.17857 -0.10714,-0.21429 -0.42857,-0.32143 -0.53571,-0.53572 -0.0532,-0.10648 0.0842,-0.27296 0,-0.35714 -0.0421,-0.0421 -0.13648,0.0421 -0.17857,0 -0.0421,-0.0421 0.0266,-0.12533 0,-0.17857 -0.0376,-0.0753 -0.14093,-0.10328 -0.17857,-0.17857 -0.0266,-0.0532 0.0421,-0.13649 0,-0.17858 -0.0421,-0.0421 -0.12534,0.0266 -0.17858,0 -0.21428,-0.10714 -0.32142,-0.42857 -0.53571,-0.53571 -0.0532,-0.0266 -0.12533,0.0266 -0.17857,0 -0.0753,-0.0377 -0.10328,-0.14093 -0.17857,-0.17857 -0.0532,-0.0266 -0.12533,0.0266 -0.17857,0 -0.0753,-0.0376 -0.10328,-0.14093 -0.17858,-0.17857 -0.0708,-0.0354 -0.4992,0.0365 -0.53571,0 -0.0421,-0.0421 0.0421,-0.13648 0,-0.17857 -0.0842,-0.0842 -0.25066,0.0532 -0.35714,0 -0.0753,-0.0377 -0.10328,-0.14093 -0.17857,-0.17858 -0.0708,-0.0354 -0.49921,0.0365 -0.53572,0 -0.0421,-0.0421 0.0421,-0.13648 0,-0.17857 -0.0553,-0.0553 -0.83756,0.0553 -0.89286,0 -0.0421,-0.0421 0.0421,-0.13648 0,-0.17857 -0.0489,-0.0489 -0.61741,0.0484 -0.71428,0 -0.0753,-0.0376 -0.10328,-0.14092 -0.17857,-0.17857 -0.10648,-0.0532 -0.25067,0.0532 -0.35715,0 -0.0753,-0.0377 -0.10328,-0.14093 -0.17857,-0.17857 -0.0532,-0.0266 -0.12533,0.0266 -0.17857,0 -0.0753,-0.0376 -0.10328,-0.14093 -0.17857,-0.17857 -0.0708,-0.0354 -0.49921,0.0365 -0.53571,0 -0.0421,-0.0421 0.0421,-0.13648 0,-0.17857 -0.0421,-0.0421 -0.12534,0.0266 -0.17858,0 -0.0753,-0.0377 -0.10328,-0.14093 -0.17857,-0.17858 -0.10648,-0.0532 -0.27296,0.0842 -0.35714,0 -0.0421,-0.0421 0.0421,-0.13648 0,-0.17857 -0.0842,-0.0842 -0.27296,0.0842 -0.35714,0 -0.0421,-0.0421 0.0421,-0.13648 0,-0.17857 -0.0421,-0.0421 -0.13648,0.0421 -0.17857,0 -0.0421,-0.0421 0,-0.11905 0,-0.17857 -0.0595,0 -0.13649,0.0421 -0.17858,0 -0.0421,-0.0421 0.0421,-0.13648 0,-0.17857 -0.0842,-0.0842 -0.27296,0.0842 -0.35714,0 -0.0421,-0.0421 0.0421,-0.13648 0,-0.17857 -0.0842,-0.0842 -0.27296,0.0842 -0.35714,0 -0.0421,-0.0421 0,-0.11905 0,-0.17857 0,-0.0595 0,-0.11905 0,-0.17858 m -1.78572,7.5 c -0.0595,0 -0.17857,-0.0595 -0.17857,0 0,0.0595 0.13647,0.0421 0.17857,0 0.0421,-0.0421 -0.0421,-0.13647 0,-0.17857 0.0421,-0.0421 0.11908,0 0.17858,0 0.1242,0 0.82825,-0.0323 0.89285,0 0.0753,0.0376 0.10327,0.14097 0.17857,0.17857 0.0532,0.0266 0.13648,-0.0421 0.17858,0 0.0842,0.0842 -0.0532,0.25067 0,0.35715 0.0376,0.0753 0.14097,0.10327 0.17857,0.17857 0.12317,0.24631 -0.21626,0.15973 0.17857,0.35714 0.0532,0.0266 0.13647,-0.0421 0.17857,0 0.0421,0.0421 -0.0421,0.13647 0,0.17857 0.0421,0.0421 0.13647,-0.0421 0.17857,0 0.0421,0.0421 -0.0421,0.13647 0,0.17857 0.0421,0.0421 0.11907,0 0.17857,0 0.12657,0 1.02523,-0.0231 1.07143,0 0.0753,0.0376 0.10327,0.14088 0.17857,0.17858 0.0763,0.0381 0.82226,0 0.89286,0 0.53571,0 1.07143,0 1.60714,0 0.90444,0 -0.38068,-0.0289 1.07143,0.17857 0.2357,0.0337 0.47619,0 0.71429,0 0.0595,0 0.13647,-0.0421 0.17857,0 0.0421,0.0421 -0.0421,0.13647 0,0.17857 0.0421,0.0421 0.12537,-0.0266 0.17857,0 0.0753,0.0376 0.10327,0.14087 0.17857,0.17857 0.5255,0.26277 -0.2351,-0.41368 0.35714,0.17857 0.0532,0.0266 0.13648,-0.0421 0.17858,0 0.0842,0.0842 -0.0842,0.27294 0,0.35714 0.0421,0.0421 0.13647,-0.0421 0.17857,0 0.0421,0.0421 -0.0421,0.13648 0,0.17858 0.0421,0.0421 0.13647,-0.0421 0.17857,0 0.23807,0.23807 -0.29762,0.17857 0.17857,0.17857 0.0753,0.0376 0.11907,0.11907 0.17857,0.17857 0.0595,0.0595 0.14097,0.10327 0.17857,0.17857 0.0266,0.0532 -0.0421,0.13647 0,0.17857 0.0596,0.0596 0.29755,-0.0596 0.35715,0 0.0421,0.0421 -0.0421,0.13647 0,0.17857 0.0421,0.0421 0.12537,-0.0266 0.17857,0 0.0753,0.0376 0.10327,0.14097 0.17857,0.17857 0.10648,0.0532 0.27294,-0.0842 0.35714,0 0.0421,0.0421 -0.0421,0.13648 0,0.17858 0.0627,0.0627 0.76951,-0.0617 0.89286,0 0.0753,0.0376 0.10327,0.14097 0.17857,0.17857 0.0532,0.0266 0.11907,0 0.17857,0 0.0595,0 0.11907,0 0.17857,0 0.29762,0 0.59524,0 0.89286,0 0.0595,0 0.12537,-0.0266 0.17857,0 0.0753,0.0376 0.10327,0.14097 0.17857,0.17857 0.11765,0.0588 0.9063,-0.0551 1.07143,0 0.0799,0.0266 0.10327,0.14087 0.17857,0.17857 0.11224,0.0561 0.60205,-0.0561 0.71429,0 0.0753,0.0376 0.10327,0.14097 0.17857,0.17857 0.0708,0.0354 0.49921,-0.0365 0.53571,0 0.0421,0.0421 -0.0421,0.13647 0,0.17857 0.043,0.043 0.67129,-0.043 0.71429,0 0.0421,0.0421 -0.0421,0.13647 0,0.17857 0.0842,0.0842 0.27294,-0.0842 0.35714,0 0.0421,0.0421 -0.0421,0.13648 0,0.17858 0.0421,0.0421 0.13647,-0.0421 0.17857,0 0.0421,0.0421 -0.0421,0.13647 0,0.17857 0.0421,0.0421 0.13648,-0.0421 0.17858,0 0.0421,0.0421 -0.0421,0.13647 0,0.17857 0.0421,0.0421 0.12537,-0.0266 0.17857,0 0.0753,0.0376 0.10327,0.14087 0.17857,0.17857 0.0532,0.0266 0.12537,-0.0266 0.17857,0 0.0753,0.0376 0.10327,0.14097 0.17857,0.17857 0.10648,0.0532 0.27294,-0.0842 0.35714,0 0.0421,0.0421 -0.0421,0.13647 0,0.17857 0.0842,0.0842 0.33375,-0.11673 0.35715,0 0.0584,0.29184 -0.21045,0.68241 0,0.89286 0.17357,0.17354 0.11907,-0.47619 0.17857,-0.71429 l -0.71429,-0.53571 c -0.10648,-0.0532 -0.25066,0.0532 -0.35714,0 -0.0753,-0.0377 -0.10328,-0.14093 -0.17857,-0.17857 -0.0532,-0.0266 -0.13648,0.0421 -0.17857,0 -0.0421,-0.0421 0.0421,-0.13648 0,-0.17857 -0.0421,-0.0421 -0.12533,0.0266 -0.17857,0 -0.0753,-0.0376 -0.10328,-0.14093 -0.17858,-0.17857 -0.0532,-0.0266 -0.13648,0.0421 -0.17857,0 -0.0421,-0.0421 0.0266,-0.12534 0,-0.17858 -0.0376,-0.0753 -0.14092,-0.10327 -0.17857,-0.17857 -0.0266,-0.0532 0.0421,-0.13648 0,-0.17857 -0.0842,-0.0842 -0.27296,0.0842 -0.35714,0 -0.0421,-0.0421 0.0266,-0.12533 0,-0.17857 -0.0376,-0.0753 -0.13188,-0.10853 -0.17857,-0.17857 -0.0738,-0.11075 -0.10474,-0.2464 -0.17857,-0.35714 -0.16378,-0.24567 -0.27549,-0.18366 -0.53572,-0.35715 -0.14008,-0.0934 -0.20656,-0.28185 -0.35714,-0.35714 -0.0532,-0.0266 -0.13648,0.0421 -0.17857,0 -0.0421,-0.0421 0.0421,-0.13648 0,-0.17857 -0.0842,-0.0842 -0.25067,0.0532 -0.35715,0 -0.0753,-0.0376 -0.10328,-0.14093 -0.17857,-0.17857 -0.0532,-0.0266 -0.13648,0.0421 -0.17857,0 -0.0421,-0.0421 0.0421,-0.13648 0,-0.17857 -0.0365,-0.0365 -0.46491,0.0354 -0.53571,0 -0.0753,-0.0377 -0.10328,-0.14093 -0.17857,-0.17858 -0.0532,-0.0266 -0.12211,0.0188 -0.17858,0 -0.11904,-0.0595 -0.23809,-0.11904 -0.35714,-0.17857 -0.0595,0 -0.1221,0.0188 -0.17857,0 -0.25254,-0.0842 -0.45604,-0.29258 -0.71429,-0.35714 -0.006,-0.001 -0.53476,9.5e-4 -0.53571,0 -0.0421,-0.0421 0.0421,-0.13648 0,-0.17857 -0.0421,-0.0421 -0.12533,0.0266 -0.17857,0 -0.0753,-0.0376 -0.10328,-0.14093 -0.17857,-0.17857 -0.0532,-0.0266 -0.12533,0.0266 -0.17857,0 -0.15059,-0.0753 -0.20656,-0.28185 -0.35715,-0.35715 -0.0532,-0.0266 -0.12533,0.0266 -0.17857,0 -0.0474,-0.0237 -0.51201,-0.4883 -0.53571,-0.53571 -0.0266,-0.0532 0.0421,-0.13648 0,-0.17857 -0.0421,-0.0421 -0.13648,0.0421 -0.17857,0 -0.0421,-0.0421 0.0266,-0.12533 0,-0.17857 -0.0377,-0.0753 -0.14093,-0.10328 -0.17858,-0.17857 -0.0266,-0.0532 0.0421,-0.13649 0,-0.17858 -0.0421,-0.0421 -0.13648,0.0421 -0.17857,0 -0.0421,-0.0421 0.0266,-0.12533 0,-0.17857 -0.0376,-0.0753 -0.14092,-0.10328 -0.17857,-0.17857 -0.0266,-0.0532 0.0421,-0.13648 0,-0.17857 -0.0421,-0.0421 -0.13648,0.0421 -0.17857,0 -0.0421,-0.0421 0.0421,-0.13648 0,-0.17857 -0.0421,-0.0421 -0.13648,0.0421 -0.17857,0 -0.0421,-0.0421 0.0421,-0.13648 0,-0.17857 -0.0842,-0.0842 -0.25067,0.0532 -0.35714,0 -0.0753,-0.0376 -0.10328,-0.14093 -0.17858,-0.17857 -0.0969,-0.0484 -0.66542,0.0489 -0.71428,0 -0.0421,-0.0421 0.0421,-0.13649 0,-0.17858 -0.0589,-0.0589 -0.58506,0.0431 -0.71429,0 -0.0799,-0.0266 -0.0987,-0.15195 -0.17857,-0.17857 -8.1e-4,-2.7e-4 -0.53554,1.7e-4 -0.53571,0 -0.0421,-0.0421 0.0421,-0.13648 0,-0.17857 -0.0842,-0.0842 -0.25067,0.0532 -0.35715,0 -0.0753,-0.0376 -0.10328,-0.14092 -0.17857,-0.17857 -0.10648,-0.0532 -0.27296,0.0842 -0.35714,0 -0.0421,-0.0421 -0.0421,-0.13648 0,-0.17857 0.0421,-0.0421 0.17857,0.0595 0.17857,0 0,-0.1331 -0.10474,-0.2464 -0.17857,-0.35714 -0.29612,-0.44419 -0.041,-0.0205 -0.35714,-0.17858 -0.15059,-0.0753 -0.20656,-0.28185 -0.35715,-0.35714 -0.0532,-0.0266 -0.13648,0.0421 -0.17857,0 -0.0421,-0.0421 0.0421,-0.13648 0,-0.17857 -0.0421,-0.0421 -0.12533,0.0266 -0.17857,0 -0.0753,-0.0377 -0.10328,-0.14093 -0.17857,-0.17857 -0.0532,-0.0266 -0.13648,0.0421 -0.17857,0 -0.0421,-0.0421 0.0421,-0.13648 0,-0.17857 -0.0596,-0.0596 -0.29757,0.0596 -0.35714,0 -0.0421,-0.0421 0.0421,-0.13648 0,-0.17857 -0.0252,-0.0252 -0.49909,-0.0183 -0.53572,0 -0.0753,0.0376 -0.10328,0.14092 -0.17857,0.17857 -0.0543,0.0272 -0.45529,0 -0.53571,0 -0.41667,0 -0.83334,0 -1.25,0 -0.0934,0 -0.66734,0.0235 -0.71429,0 -0.0753,-0.0376 -0.10328,-0.14093 -0.17857,-0.17857 -0.10648,-0.0532 -0.35714,0.11904 -0.35714,0 0,-0.0595 0.11904,0 0.17857,0 m 0.89285,11.78571 c 0,-0.0595 0.0595,-0.17857 0,-0.17857 -0.0595,0 -0.0421,0.13647 0,0.17857 0.1396,0.13959 0.31065,-0.15537 0.35715,-0.17857 0.10648,-0.0532 0.25066,0.0532 0.35714,0 0.0753,-0.0376 0.10327,-0.14097 0.17857,-0.17857 0.0543,-0.0272 0.45532,0 0.53572,0 0.41666,0 0.83333,0 1.25,0 0.0595,0 0.11907,0 0.17857,0 0.0595,0 0.13647,-0.0421 0.17857,0 0.0421,0.0421 -0.0421,0.13647 0,0.17857 0.0842,0.0842 0.27294,-0.0842 0.35714,0 0.0421,0.0421 0,0.11907 0,0.17857 0.0595,0 0.13647,-0.0421 0.17857,0 0.0842,0.0842 -0.0842,0.27294 0,0.35714 0.0421,0.0421 0.12537,-0.0266 0.17857,0 0.0753,0.0376 0.10328,0.14097 0.17858,0.17857 0.0469,0.0235 0.62088,0 0.71428,0 0.12657,0 1.02523,0.0231 1.07143,0 0.0753,-0.0376 0.10327,-0.14097 0.17857,-0.17857 0.5255,-0.26277 -0.2351,0.41368 0.35714,-0.17857 0.10648,-0.0532 0.25067,0.0532 0.35715,0 0.0753,-0.0376 0.10327,-0.14097 0.17857,-0.17857 0.10648,-0.0532 0.2442,0.0376 0.35714,0 0.12627,-0.0421 0.22802,-0.14627 0.35714,-0.17857 0.1155,-0.0289 0.24041,0.0233 0.35715,0 0.18457,-0.0369 0.35114,-0.14167 0.53571,-0.17857 0.11674,-0.0233 0.24041,0.0233 0.35714,0 0.18458,-0.0369 0.35114,-0.14167 0.53572,-0.17857 0.19338,-0.0387 1.05911,0 1.25,0 0.11905,0 0.24165,0.0289 0.35714,0 0.12913,-0.0323 0.23087,-0.13648 0.35714,-0.17858 0.10648,-0.0355 0.89842,0 1.07143,0 0.0595,0 0.12537,0.0266 0.17857,0 0.0753,-0.0376 0.10328,-0.14097 0.17858,-0.17857 0.0678,-0.0339 0.95487,0.0167 1.07142,0 0.30047,-0.0429 0.59085,-0.14837 0.89286,-0.17857 0.29614,-0.0296 0.59646,0.027 0.89286,0 2.28721,-0.20797 0.19661,-0.17857 1.60714,-0.17857 l -0.71428,-0.89286 c -0.0474,-0.0237 -0.30974,-0.33343 -0.35715,-0.35714 -0.0532,-0.0266 -0.11905,0 -0.17857,0 -0.11905,-0.0595 -0.2464,-0.10474 -0.35714,-0.17857 -0.07,-0.0467 -0.0987,-0.15195 -0.17857,-0.17857 -0.11294,-0.0376 -0.24421,0.0376 -0.35715,0 -0.0799,-0.0266 -0.10328,-0.14093 -0.17857,-0.17857 -0.10648,-0.0532 -0.25066,0.0532 -0.35714,0 -0.0753,-0.0377 -0.10328,-0.14093 -0.17857,-0.17858 -0.14286,-0.0714 -0.39286,0.0714 -0.53572,0 -0.0753,-0.0376 -0.10328,-0.14092 -0.17857,-0.17857 -0.047,-0.0235 -0.6209,0 -0.71428,0 -0.0656,0 -0.7071,-0.007 -0.71429,0 -0.0421,0.0421 0.0421,0.13648 0,0.17857 -0.0421,0.0421 -0.11905,0 -0.17857,0 -0.47619,0 -0.95238,0 -1.42857,0 -0.65476,0 -1.30953,0 -1.96429,0 -0.29762,0 -0.59524,0 -0.89285,0 -0.0595,0 -0.12211,0.0188 -0.17858,0 -0.12627,-0.0421 -0.23087,-0.13648 -0.35714,-0.17857 -0.12283,-0.0409 -0.43035,0.0527 -0.53571,0 -0.0753,-0.0376 -0.10328,-0.14092 -0.17857,-0.17857 -0.10844,-0.0542 -0.963,0.0542 -1.07143,0 -0.0753,-0.0376 -0.10328,-0.14092 -0.17857,-0.17857 -0.10648,-0.0532 -0.27297,0.0842 -0.35715,0 -0.0421,-0.0421 0.0421,-0.13648 0,-0.17857 -0.007,-0.007 -0.64871,0 -0.71428,0 -0.41667,0 -0.83334,0 -1.25,0 -0.0804,0 -0.48137,0.0272 -0.53572,0 -0.0753,-0.0376 -0.10328,-0.14093 -0.17857,-0.17857 -0.0543,-0.0272 -0.45529,0 -0.53571,0 -0.41667,0 -0.83334,0 -1.25,0 -0.0804,0 -0.48137,0.0272 -0.53572,0 -0.44132,-0.22066 0.0616,-0.17857 -0.35714,-0.17857 -0.11905,0 -0.47619,0 -0.35714,0 0.11904,0 0.23809,0 0.35714,0 m 5,12.32142 c 0,-0.47619 -0.0595,0.0595 0.17857,-0.17857 0.0421,-0.0421 0,-0.11907 0,-0.17857 0,-0.0595 0,-0.11907 0,-0.17857 0,-0.0656 -0.007,-0.70729 0,-0.71429 0.0421,-0.0421 0.13647,0.0421 0.17857,0 0.0421,-0.0421 -0.0421,-0.13647 0,-0.17857 0.0421,-0.0421 0.13647,0.0421 0.17857,0 0.0421,-0.0421 -0.0421,-0.13647 0,-0.17857 0.0842,-0.0842 0.27295,0.0842 0.35715,0 0.0421,-0.0421 -0.0421,-0.13647 0,-0.17857 0.0489,-0.0489 0.76729,0.0418 0.89285,0 0.25254,-0.0842 0.46713,-0.25824 0.71429,-0.35714 0.34954,-0.13982 0.71429,-0.2381 1.07143,-0.35715 0.17857,-0.0595 0.35004,-0.14767 0.53571,-0.17857 0.17614,-0.0294 0.35958,0.0294 0.53572,0 1.56753,-0.26124 -0.27297,-0.0657 0.89285,-0.35714 0.98049,-0.24517 -0.29744,0.32729 0.71429,-0.17857 0.0565,-0.0188 0.12537,0.0266 0.17857,0 0.0753,-0.0376 0.0987,-0.15197 0.17857,-0.17857 0.11294,-0.0376 0.2381,0 0.35715,0 0.0595,0 0.12537,0.0266 0.17857,0 0.52551,-0.26277 -0.2772,-0.17857 0.53571,-0.17857 0.0799,-0.0266 0.10327,-0.14098 0.17857,-0.17858 0.0532,-0.0266 0.13647,0.0421 0.17857,0 0.0421,-0.0421 -0.0421,-0.13647 0,-0.17857 0.0421,-0.0421 0.12538,0.0266 0.17858,0 0.15058,-0.0753 0.20655,-0.28184 0.35714,-0.35714 0.0532,-0.0266 0.13647,0.0421 0.17857,0 0.0421,-0.0421 -0.0421,-0.13647 0,-0.17857 0.0842,-0.0842 0.25066,0.0532 0.35714,0 0.0753,-0.0376 0.11907,-0.11907 0.17857,-0.17857 0.11905,-0.11905 0.2381,-0.2381 0.35715,-0.35715 0.92775,-0.92778 -0.38061,0.41428 0.89285,-1.07142 0.16435,-0.19175 0.35715,-0.35715 0.53572,-0.53572 0.72394,-0.72394 0.42277,-0.30984 0.89286,-1.25 0.29761,-0.35714 0.91137,-0.37022 1.07142,-0.89286 l -0.89285,-0.17857 c -0.0595,0.0595 -0.10328,0.14093 -0.17857,0.17857 -0.0952,0.0476 -0.26198,-0.0476 -0.35715,0 -0.0753,0.0376 -0.11905,0.11905 -0.17857,0.17858 -0.11905,0 -0.2442,-0.0377 -0.35714,0 -0.25254,0.0842 -0.47103,0.24903 -0.71429,0.35714 -1.10822,0.49254 -0.59146,0.24552 -1.60714,0.53571 -0.18099,0.0517 -0.3531,0.13292 -0.53571,0.17857 -0.35715,0.0893 0,-0.17857 -0.53572,0 -0.0799,0.0266 -0.10328,0.14093 -0.17857,0.17858 -0.33672,0.16835 -0.72541,0.20884 -1.07143,0.35714 -0.24467,0.10486 -0.46961,0.25228 -0.71428,0.35714 -0.17302,0.0742 -0.37431,0.0817 -0.53572,0.17857 -0.14437,0.0866 -0.22245,0.25613 -0.35714,0.35715 -0.10648,0.0799 -0.26303,0.0844 -0.35714,0.17857 -0.0421,0.0421 0.0421,0.13648 0,0.17857 -0.0421,0.0421 -0.13649,-0.0421 -0.17858,0 -0.0421,0.0421 0.0421,0.13648 0,0.17857 -0.0842,0.0842 -0.25066,-0.0532 -0.35714,0 -0.0753,0.0376 -0.10328,0.14093 -0.17857,0.17857 -0.10648,0.0532 -0.25066,-0.0532 -0.35714,0 -0.0753,0.0376 -0.10328,0.14093 -0.17857,0.17857 -0.047,0.0235 -0.62091,0 -0.71429,0 -0.47619,0 -0.95238,0 -1.42857,0 -0.0433,0 -0.52997,-0.006 -0.53572,0 -0.0421,0.0421 0.0421,0.13648 0,0.17857 -0.0421,0.0421 -0.12533,-0.0266 -0.17857,0 -0.0753,0.0376 -0.11905,0.11905 -0.17857,0.17858 -0.17857,0 -0.35957,-0.0294 -0.53571,0 -0.37134,0.0619 -0.70228,0.28331 -1.07143,0.35714 -0.11674,0.0233 -0.2381,0 -0.35714,0 -0.11905,0.0595 -0.23088,0.13648 -0.35715,0.17857 -0.0695,0.0232 -0.508,-0.0277 -0.53571,0 -0.0421,0.0421 0.0421,0.13648 0,0.17857 -0.043,0.043 -0.67132,-0.043 -0.71429,0 -0.0421,0.0421 -0.0421,0.13648 0,0.17857 0.007,0.007 0.64871,0 0.71429,0" clip-path="url(#c)" opacity=".15" stroke="#fff" stroke-linecap="round" stroke-linejoin="round" filter="url(#d)" fill="none"/><path d="m 536.13847,551.07397 a 15.404826,15.404826 0 1 1 -30.80965,0 15.404826,15.404826 0 1 1 30.80965,0 z" transform="translate(0.76234285,0.76504839)" opacity=".4" fill="url(#e)"/></g><text x="138.68" y="90.453" transform="translate(407.56824,479.61896)" font-size="8" font-family="Bitstream Vera Sans"/></g></svg>