<svg xmlns="http://www.w3.org/2000/svg" width="128" height="128"><g transform="matrix(1.0666667,0,0,1.0666667,-2e-6,-997.18636)"><rect width="120" height="115" y="937.362" color="#000" overflow="visible" enable-background="accumulate"/><rect width="120" height="60" y="937.362" color="#000" fill="#292929" overflow="visible" enable-background="accumulate"/><rect width="110" height="105" x="5" y="942.362" color="#000" fill="#df5a5a" overflow="visible" enable-background="accumulate"/><rect width="100" height="95" x="10" y="947.362" color="#000" fill="#8e2525" overflow="visible" enable-background="accumulate"/><rect width="90" height="85" x="15" y="952.362" color="#000" fill="#680e0e" overflow="visible" enable-background="accumulate"/><rect width="5" height="15" x="75" y="942.362" color="#000" fill-opacity=".188" overflow="visible" enable-background="accumulate"/><rect width="5" height="15" x="40" y="1032.362" color="#000" fill-opacity=".188" overflow="visible" enable-background="accumulate"/><rect width="10" height="5" x="5" y="997.362" color="#000" fill-opacity=".188" overflow="visible" enable-background="accumulate"/><rect width="10" height="5" x="105" y="982.362" color="#000" fill-opacity=".188" overflow="visible" enable-background="accumulate"/><path d="m 27.5,992.36223 12.5,0 m -10,19.99997 0,-34.99997 17.5,0" stroke="#fff" stroke-width="5" fill="none"/><path d="m 52.5,992.36223 12.5,0 m -10,19.99997 0,-34.99997 17.5,0" stroke="#fff" stroke-width="5" fill="none"/><path d="m 75,999.86223 0,19.99997 7.5,0 c 5,0 7.5,-5 7.5,-10 0,-5 -2.5,-9.99997 -7.5,-9.99997 z" stroke="#fff" stroke-width="5" fill="none"/></g></svg>