<?xml version="1.0" encoding="UTF-8" standalone="no"?>
<!-- Created with Inkscape (http://www.inkscape.org/) -->

<svg
   xmlns:dc="http://purl.org/dc/elements/1.1/"
   xmlns:cc="http://creativecommons.org/ns#"
   xmlns:rdf="http://www.w3.org/1999/02/22-rdf-syntax-ns#"
   xmlns:svg="http://www.w3.org/2000/svg"
   xmlns="http://www.w3.org/2000/svg"
   version="1.1"
   width="379.95499"
   height="380.25101"
   viewBox="0 0 379.955 380.251"
   id="Layer_1"
   xml:space="preserve"
   style="overflow:visible">
         <defs
   id="defs2381" />
<g
   transform="matrix(2.17444,0,0,2.17437,-218.687,-223.172)"
   id="g2305">
		<linearGradient
   x1="187.94679"
   y1="123.8594"
   x2="187.94679"
   y2="258.86539"
   id="XMLID_2_"
   gradientUnits="userSpaceOnUse">
			<stop
   id="stop2308"
   style="stop-color:#bf0000;stop-opacity:1"
   offset="0" />
			<stop
   id="stop2310"
   style="stop-color:#8f0000;stop-opacity:1"
   offset="1" />
		</linearGradient>
		<path
   d="m 100.572,108.605 0,7.715 c 3.226,0 5.851,2.625 5.851,5.85 0,3.227 -2.625,5.852 -5.851,5.852 l 0,7.715 c 3.226,0 5.851,2.625 5.851,5.85 0,3.227 -2.625,5.852 -5.851,5.852 l 0,7.715 c 3.226,0 5.851,2.625 5.851,5.854 0,3.229 -2.625,5.854 -5.851,5.854 l 0,7.715 c 3.226,0 5.851,2.623 5.851,5.85 0,3.227 -2.625,5.852 -5.851,5.852 l 0,7.715 c 3.226,0 5.851,2.623 5.851,5.85 0,3.227 -2.625,5.852 -5.851,5.852 l 0,7.715 c 3.226,0 5.851,2.623 5.851,5.85 0,3.227 -2.625,5.852 -5.851,5.852 l 0,7.715 c 3.226,0 5.851,2.623 5.851,5.85 0,3.227 -2.625,5.852 -5.851,5.852 l 0,7.715 c 3.226,0 5.851,2.623 5.851,5.85 0,3.227 -2.625,5.852 -5.851,5.852 l 0,7.719 c 1.54,0 3.048,0.623 4.138,1.713 1.088,1.088 1.713,2.596 1.713,4.137 l 7.715,0 c 0,-3.227 2.625,-5.85 5.851,-5.85 3.226,0 5.851,2.623 5.851,5.85 l 7.715,0 c 0,-3.227 2.625,-5.85 5.851,-5.85 3.226,0 5.851,2.623 5.851,5.85 l 7.715,0 c 0,-3.227 2.625,-5.85 5.851,-5.85 3.226,0 5.851,2.623 5.851,5.85 l 7.715,0 c 0,-3.227 2.625,-5.85 5.851,-5.85 3.226,0 5.851,2.623 5.851,5.85 l 7.715,0 c 0,-3.227 2.625,-5.85 5.851,-5.85 3.226,0 5.851,2.623 5.851,5.85 l 7.715,0 c 0,-3.227 2.625,-5.85 5.851,-5.85 3.226,0 5.851,2.623 5.851,5.85 l 7.715,0 c 0,-3.227 2.625,-5.85 5.851,-5.85 3.226,0 5.851,2.623 5.851,5.85 l 7.715,0 c 0,-3.227 2.625,-5.85 5.851,-5.85 3.226,0 5.851,2.623 5.851,5.85 l 7.719,0 c 0,-1.541 0.625,-3.049 1.715,-4.137 1.088,-1.09 2.596,-1.713 4.137,-1.713 l 0,-7.715 c -3.227,0 -5.852,-2.625 -5.852,-5.852 0,-3.227 2.625,-5.85 5.852,-5.85 l 0,-7.715 c -3.227,0 -5.852,-2.625 -5.852,-5.852 0,-3.227 2.625,-5.85 5.852,-5.85 l 0,-7.715 c -3.227,0 -5.852,-2.625 -5.852,-5.852 0,-3.227 2.625,-5.85 5.852,-5.85 l 0,-7.715 c -3.227,0 -5.852,-2.625 -5.852,-5.852 0,-3.227 2.625,-5.85 5.852,-5.85 l 0,-7.715 c -3.227,0 -5.852,-2.625 -5.852,-5.852 0,-3.227 2.625,-5.85 5.852,-5.85 l 0,-7.715 c -3.227,0 -5.852,-2.625 -5.852,-5.854 0,-3.229 2.625,-5.854 5.852,-5.854 l 0,-7.715 c -3.227,0 -5.852,-2.625 -5.852,-5.852 0,-3.225 2.625,-5.85 5.852,-5.85 l 0,-7.715 c -3.227,0 -5.852,-2.625 -5.852,-5.852 0,-3.225 2.625,-5.85 5.852,-5.85 l 0,-7.719 c -1.541,0 -3.049,-0.625 -4.137,-1.713 -1.09,-1.09 -1.715,-2.598 -1.715,-4.139 l -7.715,0 c 0,3.227 -2.625,5.852 -5.851,5.852 -3.226,0 -5.851,-2.625 -5.851,-5.852 l -7.715,0 c 0,3.227 -2.625,5.852 -5.851,5.852 -3.226,0 -5.851,-2.625 -5.851,-5.852 l -7.715,0 c 0,3.227 -2.625,5.852 -5.851,5.852 -3.226,0 -5.851,-2.625 -5.851,-5.852 l -7.715,0 c 0,3.227 -2.625,5.852 -5.851,5.852 -3.226,0 -5.851,-2.625 -5.851,-5.852 l -7.715,0 c 0,3.227 -2.625,5.852 -5.851,5.852 -3.226,0 -5.851,-2.625 -5.851,-5.852 l -7.715,0 c 0,3.227 -2.625,5.852 -5.851,5.852 -3.226,0 -5.851,-2.625 -5.851,-5.852 l -7.715,0 c 0,3.227 -2.625,5.852 -5.851,5.852 -3.226,0 -5.851,-2.625 -5.851,-5.852 l -7.715,0 c 0,3.227 -2.625,5.852 -5.851,5.852 -3.226,0 -5.851,-2.625 -5.851,-5.852 l -7.719,0 c 0,1.541 -0.625,3.049 -1.713,4.139 -1.09,1.088 -2.598,1.713 -4.138,1.713 z"
   id="path2312"
   style="fill:url(#XMLID_2_) #000000" />
		<path
   d="m 249.444,172.681 -87.205,0 4.551,-21.293 53.15,0 4.876,-22.918 -76.394,0 -24.056,113.454 23.081,0 10.563,-49.576 55.361,0 -48.105,47.625 8.452,14.953 c 3.9,-2.6 10.239,-2.926 14.628,-2.926 7.803,0 15.442,2.602 23.404,2.602 7.301,0 14.775,-0.488 26.967,-6.34 l 4.26,-19.992 c -8.291,3.412 -20.558,6.664 -31.227,6.664 -4.386,0 -8.45,-0.975 -12.676,-1.625 l 46.631,-45.348 3.739,-15.28 z"
   id="path2314"
   style="fill:#ffffff" />
	</g>
</svg>
