<svg xmlns="http://www.w3.org/2000/svg" xmlns:xlink="http://www.w3.org/1999/xlink" width="128" height="128"><defs><linearGradient id="a"><stop offset="0" stop-color="#71b2f8"/><stop offset="1" stop-color="#002795"/></linearGradient><radialGradient xlink:href="#a" id="d" gradientUnits="userSpaceOnUse" gradientTransform="matrix(0.61866,0.966654,-1.03325,0.661279,-327.276,-255.841)" cx="282.646" cy="29.149" fx="282.646" fy="29.149" r="19.571"/><linearGradient id="b"><stop offset="0" stop-color="#ff6d0f"/><stop offset="1" stop-color="#ff1000"/></linearGradient><radialGradient xlink:href="#b" id="c" gradientUnits="userSpaceOnUse" gradientTransform="matrix(1.11492,0.272231,-0.750717,3.07456,-471.086,-148.329)" cx="270.583" cy="33.9" fx="270.583" fy="33.9" r="19.571"/></defs><g fill-rule="evenodd" stroke-width="1.91" transform="translate(0,64)"><path d="m -216.13659,7.270763 0,55.5 12.375,0 0,-21.71875 8.75,0 0,-8.5625 -8.75,0 0,-9.241879 21.55514,0 0,-15.945621 -33.93014,-0.03125 z" fill="url(#c)" stroke="#370700" overflow="visible" enable-background="accumulate" transform="matrix(1.8669924,0,0,1.8669924,406.80835,-70.264971)"/><path d="m -161.05088,23.811562 -7.19826,4.129889 -3.17869,-1.103092 -3.03274,-7.750723 -4.77066,0.250699 -2.17602,8.014733 -3.04547,1.45841 -7.59591,-3.322815 -3.20831,3.565187 4.1299,7.198257 -1.12858,3.169376 -7.75073,3.032741 0.27618,4.779962 8.01474,2.176021 1.45841,3.045461 -3.34829,7.586615 3.56518,3.208306 7.19825,-4.129891 3.19487,1.137883 3.00726,7.741419 4.80544,-0.266883 2.15054,-8.024034 3.04547,-1.458412 7.61208,3.357607 3.20831,-3.565187 -4.12989,-7.198256 1.11239,-3.204168 7.74142,-3.00726 -0.24138,-4.796137 -8.02404,-2.150536 -1.45842,-3.045461 3.33212,-7.621406 -3.56517,-3.208305 z m -10.7808,11.804259 1.47765,0.857357 1.28022,1.160735 1.02494,1.385223 0.73729,1.540127 0.43349,1.660242 0.0718,1.701463 -0.24575,1.701021 -0.56084,1.61483 -0.89215,1.493834 -1.12594,1.264037 -1.38523,1.024933 -1.54013,0.737291 -1.66023,0.433483 -1.71077,0.09731 -1.70103,-0.245733 -1.61482,-0.560852 -1.49383,-0.892149 -1.25475,-1.151431 -1.03422,-1.359735 -0.73731,-1.540126 -0.42417,-1.685727 -0.0973,-1.710769 0.24573,-1.701025 0.56086,-1.614826 0.88284,-1.468351 1.13526,-1.28952 1.38522,-1.024934 1.54012,-0.737294 1.68572,-0.424174 1.70147,-0.07182 1.70102,0.245731 1.61483,0.560854 z" fill="url(#d)" stroke="#000137" overflow="visible" enable-background="accumulate" transform="matrix(1.8669924,0,0,1.8669924,406.80835,-70.264971)"/></g></svg>