<svg xmlns="http://www.w3.org/2000/svg" version="1" width="128" height="128" enable-background="new 0 0 1529.63 1539.194"><g><path d="m 1187.931,933.924 c 0,0 -52.271,197.17 -476.15,197.17 -423.873,0 -429.589,-162.12 -429.083,-175.55 5.21,-138.074 227.746,-86.119 227.746,-86.119 0,0 -86.897,4.328 -86.897,82.26 0,64.939 101.805,115.539 307.315,121.21 418.228,11.549 457.069,-138.971 457.069,-138.971" transform="matrix(0.10962838,0,0,0.10962838,-16.61024,1.9999986)"/><path d="m 862.289,0 c 0,0 151.551,14.993 129.812,179.203 0,0 96.17,62.461 89.14,149.051 -7.04,86.584 -71.97,188.938 -278.994,223.264 0,0 120.265,-32.923 124.654,-99.879 C 931.601,380.201 808.22,349.897 808.22,282.795 808.22,215.69 961.08,206.199 948.8,93.315 940.67,18.708 862.289,0 862.289,0" transform="matrix(0.10962838,0,0,0.10962838,-16.61024,1.9999986)"/><path d="m 741.092,341.356 c 9.644,-4.981 -8.186,-17.92 -7.162,-40.724 1.17,-25.776 11.869,-41.641 -3.248,-41.241 -11.835,0.313 -29.35,22.546 -26.472,45.182 2.877,22.634 24.53,43.163 36.882,36.783" fill="#1095c2" transform="matrix(0.10962838,0,0,0.10962838,-16.61024,1.9999986)"/><path d="m 725.066,411.359 c -12.104,7.963 18.999,16.162 26.467,40.051 8.438,27.002 -0.923,46.539 20.967,41.717 17.14,-3.767 33.941,-31.865 20.838,-54.442 -13.098,-22.579 -52.76,-37.517 -68.272,-27.326" fill="#1095c2" transform="matrix(0.10962838,0,0,0.10962838,-16.61024,1.9999986)"/><path d="m 674.557,360.845 c 8.395,-6.943 -11.71,-15.757 -15.406,-38.268 -4.182,-25.448 3.003,-43.268 -11.695,-39.622 -11.494,2.863 -24.029,28.36 -16.546,49.869 7.48,21.505 32.884,36.912 43.647,28.021" fill="#1095c2" transform="matrix(0.10962838,0,0,0.10962838,-16.61024,1.9999986)"/><path d="M 1158.13,800.358 C 1097.511,695.523 913.16,666.486 781.019,662.333 666.075,658.722 519.875,650.791 519.875,609.525 c 0,-56.148 163.405,-23.711 161.3,-92.965 C 679.288,454.526 526.708,452.532 547.934,299.125 557.78,227.96 645.527,189.328 722.507,172.302 799.489,155.279 897.39,121.901 899.25,79.684 901.12,37.465 855.906,23.038 855.906,23.038 c 0,0 26.625,15.877 16.136,46.897 -10.49,31.028 -46.526,33.19 -152.84,35.533 -90.071,1.989 -220.768,12.814 -306.788,103.718 -90.131,95.258 -75.76,251.112 124.402,313.541 0,0 -216.017,37.114 -211.958,157.293 4.024,119.415 143.126,148.108 359.372,152.602 219.35,4.556 302.45,26.378 302.45,78.082 0,41.92 -66.49,65.51 -167.515,69.109 -106.139,3.801 -180.855,-11.539 -181.559,-41.129 -0.947,-39.729 101.024,-20.2 101.024,-20.2 0,0 -37.798,-16.594 -87.249,-14.426 -35.291,1.541 -59.682,19.386 -60.404,42.205 -1.055,33.55 28.996,61.851 110.916,75.41 126.46,20.92 290.356,19.48 396.576,-45.46 79.241,-48.439 88.391,-126.167 59.661,-175.855" transform="matrix(0.10962838,0,0,0.10962838,-16.61024,1.9999986)"/></g></svg>