<svg xmlns="http://www.w3.org/2000/svg" xmlns:xlink="http://www.w3.org/1999/xlink" version="1" width="128" height="128"><defs><linearGradient id="i"><stop offset="0" stop-color="#5b676b"/><stop offset="1" stop-color="#141718"/></linearGradient><linearGradient id="j"><stop offset="0"/><stop offset="1" stop-opacity="0"/></linearGradient><linearGradient id="h"><stop offset="0" stop-color="#fff"/><stop offset="1" stop-color="#fff" stop-opacity="0"/></linearGradient><linearGradient id="a"><stop offset="0" stop-color="#fff"/><stop offset="1" stop-color="#fff" stop-opacity="0"/></linearGradient><linearGradient x1="13.236" y1="37.752" x2="7.752" y2="42.282" id="x" xlink:href="#a" gradientUnits="userSpaceOnUse" gradientTransform="matrix(0.755165,0.395143,-0.395143,0.755165,-25.91245,6.532586)"/><linearGradient id="b"><stop offset="0" stop-color="#696969"/><stop offset="1"/></linearGradient><radialGradient cx="15.415" cy="35.357" r="7.579" fx="15.415" fy="35.357" id="w" xlink:href="#b" gradientUnits="userSpaceOnUse" gradientTransform="matrix(1.572694,0,0,1.532639,-55.36682,-21.35823)"/><linearGradient id="c"><stop offset="0" stop-color="#bdbdbd"/><stop offset=".333" stop-color="#e2e2e2"/><stop offset=".667" stop-color="#a3a3a3"/><stop offset="1" stop-color="#ddd"/></linearGradient><linearGradient x1="19.395" y1="30.001" x2="23.109" y2="33.439" id="v" xlink:href="#c" gradientUnits="userSpaceOnUse" gradientTransform="translate(-46.40695,-1.802856)"/><linearGradient id="d"><stop offset="0" stop-color="#6e3d09"/><stop offset=".242" stop-color="#ea8113"/><stop offset=".621" stop-color="#5c3307"/><stop offset="1" stop-color="#e07c12"/></linearGradient><linearGradient x1="37.018" y1="19.24" x2="27.754" y2="11.182" id="u" xlink:href="#d" gradientUnits="userSpaceOnUse" gradientTransform="translate(-49.30496,1.877723)"/><linearGradient id="l"><stop offset="0" stop-color="#857c63"/><stop offset="1" stop-color="#221f19"/></linearGradient><linearGradient id="g"><stop offset="0"/><stop offset="1" stop-opacity="0"/></linearGradient><linearGradient id="k"><stop offset="0"/><stop offset="1" stop-opacity="0"/></linearGradient><linearGradient id="f"><stop offset="0" stop-color="#fff"/><stop offset="1" stop-color="#b9b9b0"/></linearGradient><linearGradient id="e"><stop offset="0" stop-color="#fff"/><stop offset="1" stop-color="#fff" stop-opacity="0"/></linearGradient><linearGradient x1="6.305" y1="23.362" x2="5.985" y2="31.57" id="s" xlink:href="#e" gradientUnits="userSpaceOnUse"/><radialGradient cx="69.473" cy="19.598" r="3.515" fx="69.473" fy="19.598" id="t" xlink:href="#f" gradientUnits="userSpaceOnUse" gradientTransform="matrix(1.318488,0,0,1.318488,-22.1264,-6.241691)"/><radialGradient cx="23" cy="33.938" r="18.25" fx="23" fy="33.938" id="m" xlink:href="#g" gradientUnits="userSpaceOnUse" gradientTransform="matrix(1,0,0,0.284247,0,24.29088)"/><linearGradient x1="14.969" y1="19.111" x2="39.525" y2="46.986" id="p" xlink:href="#h" gradientUnits="userSpaceOnUse"/><radialGradient cx="6.024" cy="25.271" r="4.831" fx="6.024" fy="25.271" id="r" xlink:href="#i" gradientUnits="userSpaceOnUse" gradientTransform="matrix(0.916159,0.09318684,-0.108765,1.069309,3.253668,-3.029272)"/><linearGradient x1="26.163" y1="30.543" x2="24.329" y2="30.985" id="y" xlink:href="#j" gradientUnits="userSpaceOnUse"/><linearGradient x1="32.35" y1="28.083" x2="21.213" y2="30.293" id="o" xlink:href="#k" gradientUnits="userSpaceOnUse" gradientTransform="translate(-3.836549,0.345971)"/><radialGradient cx="18.558" cy="22.3" r="19.229" fx="18.558" fy="22.3" id="n" xlink:href="#l" gradientUnits="userSpaceOnUse" gradientTransform="matrix(1.77275,0,0,1.29668,-16.3404,-6.615959)"/><radialGradient cx="69.473" cy="19.598" r="3.515" fx="69.473" fy="19.598" id="q" xlink:href="#f" gradientUnits="userSpaceOnUse" gradientTransform="matrix(1.318488,0,0,1.318488,-22.1264,-6.241691)"/></defs><g transform="matrix(2.6953525,0,0,2.6953525,0.4046129,-4.3122733)" color="#000"><path d="m 41.25,33.9375 a 18.25,5.1875 0 1 1 -36.5,0 18.25,5.1875 0 1 1 36.5,0 z" transform="matrix(1,0,0,1.53012,0.125,-19.99096)" fill="url(#m)" fill-rule="evenodd" overflow="visible"/><path d="m 10.374369,12.467884 c 0,0 2.874509,5.927634 9.599242,5.760407 C 34.066126,17.874738 36.53732,10.523341 36.890873,9.4626804 37.244427,8.4020202 37.785407,8.5626825 37.91048,9.5429474 42.506674,51.262247 6.0135488,33.362123 4.7175144,26.256467 11.965359,24.135147 10.197592,20.069282 10.197592,20.069282 l 0.176777,-7.601398 z" fill="url(#n)" fill-rule="evenodd" stroke="#2e3436" stroke-miterlimit="10" overflow="visible"/><path d="m 15.73779,30.066049 c 6.7389,1.347837 10.170691,0.09809 12.179175,-1.452776 -0.53033,-0.68501 -1.43631,-1.436311 -1.43631,-1.436311 0,0 2.353317,0.653942 3.18198,1.723573 0.82629,1.066568 0.306808,1.723707 0.09056,3.08837 -0.481411,-1.198599 -1.379981,-1.648092 -1.501634,-2.124332 -1.806268,2.496927 -6.306442,2.3932 -12.513772,0.201476 z" fill="url(#o)" fill-rule="evenodd" overflow="visible"/><path d="m 36.96875,11.84375 c -0.561978,0.926895 -1.406492,2.033166 -2.6875,3.09375 -2.631918,2.179042 -7.050563,4.162347 -14.28125,4.34375 -4.224373,0.105049 -6.952741,-1.934149 -8.625,-3.75 L 11.25,20 c 0.136107,0.418802 0.415455,1.390498 -0.0625,2.71875 -0.514314,1.429296 -2.154514,2.891363 -4.96875,4 0.2503304,0.522033 0.4954845,1.04362 1.25,1.78125 1.0279503,1.004945 2.4570333,2.088049 4.15625,3.0625 3.398433,1.948902 7.801583,3.493212 11.90625,3.5625 4.104667,0.06929 7.857126,-1.23455 10.4375,-5 2.378744,-3.471218 3.682473,-9.347943 3,-18.28125 z" opacity=".185" stroke="url(#p)" stroke-miterlimit="10" overflow="visible" fill="none"/><path d="m 72.655224,21.837049 a 3.1819806,3.1819806 0 1 1 -6.363961,0 3.1819806,3.1819806 0 1 1 6.363961,0 z" transform="matrix(1.277778,0,0,1.277778,-75.12661,-6.507784)" fill="url(#q)" fill-rule="evenodd" stroke="#888a85" stroke-width=".783" stroke-miterlimit="10" overflow="visible"/><path d="m 10.429825,27.228739 a 4.331029,6.098796 0 1 1 -8.662058,0 4.331029,6.098796 0 1 1 8.662058,0 z" transform="matrix(0.810984,-0.585069,0.585069,0.810984,-14.77791,6.947121)" fill="url(#r)" fill-rule="evenodd" stroke="#000" stroke-miterlimit="10" overflow="visible"/><path d="m 24.041631,21.837049 a 2.2980971,2.2980971 0 1 1 -4.596194,0 2.2980971,2.2980971 0 1 1 4.596194,0 z" transform="matrix(0.851852,0,0,0.851852,-3.926759,3.395528)" fill="#2e3436" fill-rule="evenodd" stroke="#000" stroke-width="1.174" stroke-miterlimit="10" overflow="visible"/><path d="m 6.09375,22.15625 c -0.7982492,0 -1.5531304,0.446171 -2.1875,1.34375 -0.6343696,0.897579 -1.09375,2.234204 -1.09375,3.71875 0,1.484546 0.4593804,2.821171 1.09375,3.71875 0.6343696,0.897579 1.3892511,1.34375 2.1875,1.34375 0.7982492,0 1.5772839,-0.476389 2.21875,-1.375 0.6414661,-0.898611 1.09375,-2.206186 1.09375,-3.6875 0,-1.481314 -0.4522838,-2.788889 -1.09375,-3.6875 -0.6414662,-0.898611 -1.4205011,-1.375 -2.21875,-1.375 z" transform="matrix(0.800389,-0.599481,0.599481,0.800389,-15.2744,7.32784)" opacity=".281" stroke="url(#s)" stroke-miterlimit="10" overflow="visible" fill="none"/><path d="m 5.833631,23.251263 a 1.767767,2.1213202 0 1 1 -3.5355339,0 1.767767,2.1213202 0 1 1 3.5355339,0 z" fill="#fff" fill-rule="evenodd" overflow="visible"/><path d="m 23.157747,20.953165 a 1.767767,1.767767 0 1 1 -3.535534,0 1.767767,1.767767 0 1 1 3.535534,0 z" transform="matrix(0.766666,0,0,0.766666,-2.556414,5.029841)" fill="#fff" fill-rule="evenodd" overflow="visible"/><path d="m 72.655224,21.837049 a 3.1819806,3.1819806 0 1 1 -6.363961,0 3.1819806,3.1819806 0 1 1 6.363961,0 z" transform="matrix(1.5,0,0,1.5,-82.16821,-10.91852)" fill="url(#t)" fill-rule="evenodd" stroke="#888a85" stroke-width=".667" stroke-miterlimit="10" overflow="visible"/><path d="m 24.041631,21.837049 a 2.2980971,2.2980971 0 1 1 -4.596194,0 2.2980971,2.2980971 0 1 1 4.596194,0 z" transform="translate(1.414216,0.707108)" fill="#2e3436" fill-rule="evenodd" stroke="#000" stroke-miterlimit="10" overflow="visible"/><path d="m 23.157747,20.953165 a 1.767767,1.767767 0 1 1 -3.535534,0 1.767767,1.767767 0 1 1 3.535534,0 z" transform="matrix(0.9,0,0,0.9,3.022883,2.625648)" fill="#fff" fill-rule="evenodd" overflow="visible"/><g><path d="m -23.364209,23.568336 3.710098,3.469175 C -11.307128,20.656664 -2.5600338,6.9381374 -2.5600338,6.9381374 -0.58371893,4.6957251 -2.6769537,3.1876548 -4.7249404,4.5402186 c 0,0 -12.9703626,10.1148664 -18.6392686,19.0281174 z" fill="url(#u)" stroke="#673907" stroke-width="2.46" stroke-linecap="round" overflow="visible" transform="matrix(-0.114852,-0.389864,0.389864,-0.114852,24.71507,29.68942)"/><path d="m -30.449715,32.813894 2.24632,1.93382 8.492766,-7.367031 0.275061,-0.705828 1.094405,-0.01782 c -0.4375,-1.5625 -2.941514,-4.383455 -4.816514,-4.383455 l 0.08202,1.090075 -0.669991,0.380027 -6.704066,9.070207 z" fill="url(#v)" stroke="#888a85" stroke-width="2.46" stroke-linecap="round" overflow="visible" transform="matrix(-0.114852,-0.389864,0.389864,-0.114852,24.71507,29.68942)"/><path d="m -23.801371,28.376767 -4.364933,5.266471" stroke="#fff" stroke-width="2.46" stroke-linecap="round" stroke-linejoin="round" overflow="visible" fill="none" transform="matrix(-0.114852,-0.389864,0.389864,-0.114852,24.71507,29.68942)"/><path d="m -45.341208,42.769835 c 10.443958,0 18.370039,1.24373 19.870605,-6.354738 1.209249,-6.123314 -7.210534,-9.057368 -11.38287,-3.590861 -4.019277,5.265971 -8.487735,9.945599 -8.487735,9.945599 z" fill="url(#w)" overflow="visible" transform="matrix(-0.114852,-0.389864,0.389864,-0.114852,24.71507,29.68942)"/><path d="m 8.8749989,37.75 a 1.2499999,1.2499999 0 1 1 -2.4999997,0 1.2499999,1.2499999 0 1 1 2.4999997,0 z" transform="matrix(-0.114852,-0.389864,0.389864,-0.114852,24.71507,29.68942) matrix(2.069903,0,0,2.069903,-44.75012,-41.50978)" opacity=".528" fill="#fff" overflow="visible"/><path d="m 8.8749989,37.75 a 1.2499999,1.2499999 0 1 1 -2.4999997,0 1.2499999,1.2499999 0 1 1 2.4999997,0 z" transform="matrix(-0.114852,-0.389864,0.389864,-0.114852,24.71507,29.68942) matrix(1.396669,0,0,1.396669,-32.05526,-25.87664)" fill="#fff" overflow="visible"/><path d="m -38.543723,40.909242 c 0,0 3.72152,0.0943 6.116538,-1.411995 0.847351,-0.532923 1.515774,0.649985 0.493819,1.087367 -2.207394,0.944732 -6.610357,0.324628 -6.610357,0.324628 z" opacity=".428" fill="url(#x)" overflow="visible" transform="matrix(-0.114852,-0.389864,0.389864,-0.114852,24.71507,29.68942)"/></g><path d="m 23.003067,31.736544 c 1.497372,0.143092 2.849629,-0.272213 3.411893,-0.474047 0.09822,-0.555386 0.536552,-1.621257 2.046088,-1.691468 l -0.53033,-0.928077 c 0,0 -1.966641,1.347921 -4.065864,1.745669 l -0.861787,1.347923 z" fill="url(#y)" fill-rule="evenodd" overflow="visible"/></g></svg>