<svg xmlns="http://www.w3.org/2000/svg" xmlns:xlink="http://www.w3.org/1999/xlink" width="128" height="128"><defs><linearGradient id="e"><stop offset="0" stop-color="#eeeeec"/><stop offset="1" stop-color="#eeeeec" stop-opacity="0"/></linearGradient><linearGradient id="d"><stop offset="0" stop-color="#d3d7cf"/><stop offset="1" stop-color="#d3d7cf" stop-opacity="0"/></linearGradient><linearGradient id="c"><stop offset="0" stop-color="#204a87"/><stop offset="1" stop-color="#204a87" stop-opacity="0"/></linearGradient><linearGradient id="b"><stop offset="0" stop-color="#babdb6"/><stop offset="1" stop-color="#babdb6" stop-opacity="0"/></linearGradient><linearGradient id="a"><stop offset="0" stop-color="#555753"/><stop offset="1" stop-color="#555753" stop-opacity="0"/></linearGradient><radialGradient cx="17.984" cy="40.604" r="21.031" fx="17.984" fy="40.604" id="f" xlink:href="#a" gradientUnits="userSpaceOnUse" gradientTransform="matrix(1.113818,0,0,0.539348,-2.124098,18.94132)"/><radialGradient cx="24.5" cy="18.593" r="14.5" fx="24.5" fy="18.593" id="h" xlink:href="#b" gradientUnits="userSpaceOnUse" gradientTransform="matrix(2.94027,0,0,2.433326,-47.53659,-23.36654)"/><linearGradient x1="24.613" y1="20.16" x2="29.182" y2="12.246" id="i" xlink:href="#c" gradientUnits="userSpaceOnUse" gradientTransform="translate(9.536743e-7,1)"/><radialGradient cx="24.013" cy="31.644" r="14.987" fx="24.013" fy="31.644" id="g" xlink:href="#d" gradientUnits="userSpaceOnUse" gradientTransform="matrix(3.323547,0,0,2.772052,-55.79564,-48.86618)"/><linearGradient x1="18" y1="39" x2="18" y2="45.78" id="j" xlink:href="#e" gradientUnits="userSpaceOnUse" gradientTransform="matrix(1,0,0,0.833333,0,7.5)"/></defs><g transform="matrix(2.6666644,0,0,2.6666644,3.5516161e-6,-2.6688007)"><path d="m 39.692827,41.416107 a 21.030567,10.183721 0 1 1 -42.0611341,0 21.030567,10.183721 0 1 1 42.0611341,0 z" transform="matrix(1.141197,0,0,0.834666,2.702704,4.931393)" opacity=".5" fill="url(#f)" fill-rule="evenodd"/><path d="m 32.823063,18.894651 a 6.330162,2.1770399 0 1 1 -12.660324,0 6.330162,2.1770399 0 1 1 12.660324,0 z" transform="matrix(0.790399,0,0,1.147562,20.5856,17.32042)" fill="#edd400" fill-rule="evenodd" stroke="#786100" stroke-width="1.05"/><path d="m 32.823063,18.894651 a 6.330162,2.1770399 0 1 1 -12.660324,0 6.330162,2.1770399 0 1 1 12.660324,0 z" transform="matrix(0.632511,0,0,0.687532,24.76613,26.01254)" opacity=".6" fill="none"/><path d="m 32.823063,18.894651 a 6.330162,2.1770399 0 1 1 -12.660324,0 6.330162,2.1770399 0 1 1 12.660324,0 z" transform="matrix(0.790399,0,0,1.147562,20.59524,15.32685)" fill="#edd400" fill-rule="evenodd" stroke="#8c7200" stroke-width="1.05"/><path d="m 32.823063,18.894651 a 6.330162,2.1770399 0 1 1 -12.660324,0 6.330162,2.1770399 0 1 1 12.660324,0 z" transform="matrix(0.632511,0,0,0.687532,24.77577,24.01897)" opacity=".6" fill="none"/><rect width="35.041" height="34.996" rx="2" ry="2" x="6.473" y="2.502" fill="#eeeeec" fill-rule="evenodd" stroke="#555753"/><path d="m 32.823063,18.894651 a 6.330162,2.1770399 0 1 1 -12.660324,0 6.330162,2.1770399 0 1 1 12.660324,0 z" transform="matrix(0.790399,0,0,1.147562,20.59524,13.32686)" fill="#edd400" fill-rule="evenodd" stroke="#8c7200" stroke-width="1.05"/><rect width="29.974" height="25" rx="1.625" ry="1.625" x="9.026" y="6" fill="url(#g)" fill-rule="evenodd"/><path d="m 32.823063,18.894651 a 6.330162,2.1770399 0 1 1 -12.660324,0 6.330162,2.1770399 0 1 1 12.660324,0 z" transform="matrix(0.632511,0,0,0.687532,24.77577,22.01897)" opacity=".6" fill="none"/><path d="m 14.031251,6 0,4 -4.03125,0 0,1 4.03125,0 0,4 -4.03125,0 0,1 4.03125,0 0,4 -4.03125,0 0,1 4.03125,0 0,4 -4.03125,0 0,1 4.03125,0 0,4 1,0 0,-4 4,0 0,4 1,0 0,-4 4,0 0,4 1,0 0,-4 4,0 0,4 1,0 0,-4 4,0 0,4 1,0 0,-4 3.96875,0 0,-1 -3.96875,0 0,-4 3.96875,0 0,-1 -3.96875,0 0,-4 3.96875,0 0,-1 -3.96875,0 0,-4 3.96875,0 0,-1 -3.96875,0 0,-4 -1,0 0,4 -4,0 0,-4 -1,0 0,4 -4,0 0,-4 -1,0 0,4 -4,0 0,-4 -1,0 0,4 -4,0 0,-4 -1,0 z m 1,5 4,0 0,4 -4,0 0,-4 z m 5,0 4,0 0,4 -4,0 0,-4 z m 5,0 4,0 0,4 -4,0 0,-4 z m 5,0 4,0 0,4 -4,0 0,-4 z m -15,5 4,0 0,4 -4,0 0,-4 z m 5,0 4,0 0,4 -4,0 0,-4 z m 5,0 4,0 0,4 -4,0 0,-4 z m 5,0 4,0 0,4 -4,0 0,-4 z m -15,5 4,0 0,4 -4,0 0,-4 z m 5,0 4,0 0,4 -4,0 0,-4 z m 5,0 4,0 0,4 -4,0 0,-4 z m 5,0 4,0 0,4 -4,0 0,-4 z" fill="url(#h)" fill-rule="evenodd"/><path d="m 32.823063,18.894651 a 6.330162,2.1770399 0 1 1 -12.660324,0 6.330162,2.1770399 0 1 1 12.660324,0 z" transform="matrix(0.790399,0,0,1.147562,20.58267,11.32193)" fill="#edd400" fill-rule="evenodd" stroke="#8c7200" stroke-width="1.05"/><path d="M 28.531251,13 23.648235,21.817147 15.038453,17.019865 9.031251,26.5 l 0.875,0.5 5.412175,-8.726766 8.70144,4.78125 L 29.406251,13.5 28.531251,13 z" fill="url(#i)" fill-rule="evenodd"/><rect width="1" height="30" x="30" y="-39" transform="matrix(0,1,-1,0,0,0)" fill="#888a85" fill-rule="evenodd"/><path d="m 32.823063,18.894651 a 6.330162,2.1770399 0 1 1 -12.660324,0 6.330162,2.1770399 0 1 1 12.660324,0 z" transform="matrix(0.632511,0,0,0.687532,24.77577,20.01253)" opacity=".6" fill="none"/><rect width="1" height="25" x="9.026" y="6" fill="#888a85" fill-rule="evenodd"/><path d="m 1.4998397,34.48908 24.0003253,0 0,6.025232 -24.0003253,0 0,-6.025232 z" fill="#4e9a06" fill-rule="evenodd" stroke="#2e5c02"/><path d="m 4.3258819,28.500695 20.2716901,0 0.902432,6.009461 -24.000006,0 2.8258839,-6.009461 z" fill="#59af05" fill-rule="evenodd" stroke="#2e5c02"/><rect width="23" height="1" x="2" y="38.037" fill="#2e5c02" fill-rule="evenodd"/><rect width="23" height="1" x="2" y="36.037" fill="#2e5c02" fill-rule="evenodd"/><path d="m 8.90625,34.53125 -1.96875,3.9375 21.34375,0 -0.59375,-3.9375 -18.78125,0 z" transform="translate(-3.968652,-4.979101)" opacity=".25" stroke="#fff" fill="none"/><rect width="4.937" height="6.109" x="11.531" y="34.474" fill="#eeeeec" fill-rule="evenodd" stroke="#555753"/><path d="m 19.622213,-0.43681452 a 7.0710678,3.6239223 0 1 1 -14.1421353,0 7.0710678,3.6239223 0 1 1 14.1421353,0 z" transform="matrix(0.707107,0,0,0.413916,5.124996,31.68081)" fill="#2e5c02" fill-rule="evenodd"/><path d="m 12.5,28.495708 -1,5.637161 0,6.37143 5,0 0,-6.425371 -1.09375,-5.58322 -2.90625,0 z" fill="#d3d7cf" fill-rule="evenodd" stroke="#555753"/><path d="m 5.4914627,39.471068 24.0085143,0 0,6.039078 -24.0085143,0 0,-6.039078 z" fill="#4e9a06" fill-rule="evenodd" stroke="#2e5c02"/><path d="m 7.4508179,33.505021 20.2086751,0 1.839885,5.993972 -23.9993941,0 1.950834,-5.993972 z" fill="#57ae06" fill-rule="evenodd" stroke="#2e5c02"/><path d="m 32.823063,18.894651 a 6.330162,2.1770399 0 1 1 -12.660324,0 6.330162,2.1770399 0 1 1 12.660324,0 z" transform="matrix(0.790399,0,0,1.147562,15.57596,20.31399)" fill="#ecd300" fill-rule="evenodd" stroke="#786100" stroke-width="1.05"/><path d="m 32.823063,18.894651 a 6.330162,2.1770399 0 1 1 -12.660324,0 6.330162,2.1770399 0 1 1 12.660324,0 z" transform="matrix(0.790399,0,0,1.147562,20.59524,9.320436)" fill="#edd400" fill-rule="evenodd" stroke="#8c7200" stroke-width="1.05"/><rect width="23" height="1" x="6" y="43" fill="#2e5c02" fill-rule="evenodd"/><path d="m 32.823063,18.894651 a 6.330162,2.1770399 0 1 1 -12.660324,0 6.330162,2.1770399 0 1 1 12.660324,0 z" transform="matrix(0.632511,0,0,0.687532,19.75649,29.00611)" opacity=".6" fill="none"/><rect width="23" height="1" x="6" y="41" fill="#2e5c02" fill-rule="evenodd"/><path d="m 32.823063,18.894651 a 6.330162,2.1770399 0 1 1 -12.660324,0 6.330162,2.1770399 0 1 1 12.660324,0 z" transform="matrix(0.790399,0,0,1.147562,15.5856,18.32042)" fill="#ecd300" fill-rule="evenodd" stroke="#8c7200" stroke-width="1.05"/><path d="m 32.823063,18.894651 a 6.330162,2.1770399 0 1 1 -12.660324,0 6.330162,2.1770399 0 1 1 12.660324,0 z" transform="matrix(0.632511,0,0,0.687532,24.77577,18.01254)" opacity=".6" fill="none"/><path d="m 32.823063,18.894651 a 6.330162,2.1770399 0 1 1 -12.660324,0 6.330162,2.1770399 0 1 1 12.660324,0 z" transform="matrix(0.632511,0,0,0.687532,19.76613,27.01254)" opacity=".6" fill="none"/><path d="m 32.823063,18.894651 a 6.330162,2.1770399 0 1 1 -12.660324,0 6.330162,2.1770399 0 1 1 12.660324,0 z" transform="matrix(0.790399,0,0,1.147562,15.5856,16.32043)" fill="#ecd300" fill-rule="evenodd" stroke="#8c7200" stroke-width="1.05"/><path d="m 32.823063,18.894651 a 6.330162,2.1770399 0 1 1 -12.660324,0 6.330162,2.1770399 0 1 1 12.660324,0 z" transform="matrix(0.790399,0,0,1.147562,20.59524,7.325352)" fill="#edd400" fill-rule="evenodd" stroke="#8c7200" stroke-width="1.05"/><path d="m 8.21875,34.53125 -1.28125,3.9375 21.15625,0 -1.21875,-3.9375 -18.65625,0 z" opacity=".25" stroke="#fff" fill="none"/><path d="m 32.823063,18.894651 a 6.330162,2.1770399 0 1 1 -12.660324,0 6.330162,2.1770399 0 1 1 12.660324,0 z" transform="matrix(0.632511,0,0,0.687532,19.76613,25.01254)" opacity=".6" fill="none"/><path d="m 32.823063,18.894651 a 6.330162,2.1770399 0 1 1 -12.660324,0 6.330162,2.1770399 0 1 1 12.660324,0 z" transform="matrix(0.790399,0,0,1.147562,15.57303,14.3155)" fill="#ecd300" fill-rule="evenodd" stroke="#8c7200" stroke-width="1.05"/><path d="m 32.823063,18.894651 a 6.330162,2.1770399 0 1 1 -12.660324,0 6.330162,2.1770399 0 1 1 12.660324,0 z" transform="matrix(0.632511,0,0,0.687532,19.76613,23.0061)" opacity=".6" fill="none"/><path d="m 32.823063,18.894651 a 6.330162,2.1770399 0 1 1 -12.660324,0 6.330162,2.1770399 0 1 1 12.660324,0 z" transform="matrix(0.790399,0,0,1.147562,20.58267,5.320422)" fill="#edd400" fill-rule="evenodd" stroke="#8c7200" stroke-width="1.05"/><path d="m 32.823063,18.894651 a 6.330162,2.1770399 0 1 1 -12.660324,0 6.330162,2.1770399 0 1 1 12.660324,0 z" transform="matrix(0.790399,0,0,1.147562,15.5856,12.31401)" fill="#ecd300" fill-rule="evenodd" stroke="#8c7200" stroke-width="1.05"/><path d="m 32.823063,18.894651 a 6.330162,2.1770399 0 1 1 -12.660324,0 6.330162,2.1770399 0 1 1 12.660324,0 z" transform="matrix(0.632511,0,0,0.687532,19.76613,21.00611)" opacity=".6" fill="none"/><path d="m 19.622213,-0.43681452 a 7.0710678,3.6239223 0 1 1 -14.1421353,0 7.0710678,3.6239223 0 1 1 14.1421353,0 z" transform="matrix(0.141421,0,0,0.137972,8.193788,33.5448)" fill="#2e5c02" fill-rule="evenodd"/><path d="m 19.622213,-0.43681452 a 7.0710678,3.6239223 0 1 1 -14.1421353,0 7.0710678,3.6239223 0 1 1 14.1421353,0 z" transform="matrix(0.141421,0,0,0.137972,23.19379,33.5448)" fill="#2e5c02" fill-rule="evenodd"/><path d="m 19.622213,-0.43681452 a 7.0710678,3.6239223 0 1 1 -14.1421353,0 7.0710678,3.6239223 0 1 1 14.1421353,0 z" transform="matrix(0.707106,0,0,0.413916,9.125006,36.68081)" fill="#2e5c02" fill-rule="evenodd"/><path d="m 19.622213,-0.43681452 a 7.0710678,3.6239223 0 1 1 -14.1421353,0 7.0710678,3.6239223 0 1 1 14.1421353,0 z" transform="matrix(0.214339,0,0,0.137972,6.794191,37.5448)" fill="#2e5c02" fill-rule="evenodd"/><path d="m 19.622213,-0.43681452 a 7.0710678,3.6239223 0 1 1 -14.1421353,0 7.0710678,3.6239223 0 1 1 14.1421353,0 z" transform="matrix(0.212132,0,0,0.137972,22.8375,37.56027)" fill="#2e5c02" fill-rule="evenodd"/><path d="m 16.5,33.521308 -1,5.625214 0,6.357927 5,0 0,-6.411754 -1.09375,-5.571387 -2.90625,0 z" fill="#d3d7cf" fill-rule="evenodd" stroke="#555753"/><rect width="4" height="5" x="16" y="40" fill="#888a85" fill-rule="evenodd"/><rect width="4" height="5" x="16" y="40" fill="url(#j)" fill-rule="evenodd"/><path d="m 19.622213,-0.43681452 a 7.0710678,3.6239223 0 1 1 -14.1421353,0 7.0710678,3.6239223 0 1 1 14.1421353,0 z" transform="matrix(0.212132,0,0,0.137972,21.8375,35.56027)" fill="#2e5c02" fill-rule="evenodd"/><path d="m 19.622213,-0.43681452 a 7.0710678,3.6239223 0 1 1 -14.1421353,0 7.0710678,3.6239223 0 1 1 14.1421353,0 z" transform="matrix(0.212132,0,0,0.137972,7.8375,35.56027)" fill="#2e5c02" fill-rule="evenodd"/><path d="m 9.000001,6 30,0 c -12.160656,3.9101256 -11.337571,18 -30,18 l 0,-18 z" opacity=".2" fill="#fff" fill-rule="evenodd"/><path d="m 19.622213,-0.43681452 a 7.0710678,3.6239223 0 1 1 -14.1421353,0 7.0710678,3.6239223 0 1 1 14.1421353,0 z" transform="matrix(0.214339,0,0,0.137972,2.79419,32.56027)" fill="#2e5c02" fill-rule="evenodd"/><path d="m 19.622213,-0.43681452 a 7.0710678,3.6239223 0 1 1 -14.1421353,0 7.0710678,3.6239223 0 1 1 14.1421353,0 z" transform="matrix(0.212132,0,0,0.137972,19.8375,32.56027)" fill="#2e5c02" fill-rule="evenodd"/><path d="m 19.622213,-0.43681452 a 7.0710678,3.6239223 0 1 1 -14.1421353,0 7.0710678,3.6239223 0 1 1 14.1421353,0 z" transform="matrix(0.212132,0,0,0.137972,18.8375,30.56027)" fill="#2e5c02" fill-rule="evenodd"/><path d="m 19.622213,-0.43681452 a 7.0710678,3.6239223 0 1 1 -14.1421353,0 7.0710678,3.6239223 0 1 1 14.1421353,0 z" transform="matrix(0.212132,0,0,0.137972,3.837501,30.56027)" fill="#2e5c02" fill-rule="evenodd"/><path d="m 32.823063,18.894651 a 6.330162,2.1770399 0 1 1 -12.660324,0 6.330162,2.1770399 0 1 1 12.660324,0 z" transform="matrix(0.790399,0,0,1.147562,20.59524,3.318928)" fill="#edd400" fill-rule="evenodd" stroke="#8c7200" stroke-width="1.05"/><path d="m 32.823063,18.894651 a 6.330162,2.1770399 0 1 1 -12.660324,0 6.330162,2.1770399 0 1 1 12.660324,0 z" transform="matrix(0.790399,0,0,1.147562,20.59524,1.318928)" fill="#edd400" fill-rule="evenodd" stroke="#8c7200" stroke-width="1.05"/><path d="m 32.823063,18.894651 a 6.330162,2.1770399 0 1 1 -12.660324,0 6.330162,2.1770399 0 1 1 12.660324,0 z" transform="matrix(0.790399,0,0,1.147562,20.57596,-0.684495)" fill="#fce94f" fill-rule="evenodd" stroke="#8c7200" stroke-width="1.05"/><path d="m 32.823063,18.894651 a 6.330162,2.1770399 0 1 1 -12.660324,0 6.330162,2.1770399 0 1 1 12.660324,0 z" transform="matrix(0.790399,0,0,1.147562,15.56632,10.31401)" fill="#fce94f" fill-rule="evenodd" stroke="#8c7200" stroke-width="1.05"/><path d="m 32.823063,18.894651 a 6.330162,2.1770399 0 1 1 -12.660324,0 6.330162,2.1770399 0 1 1 12.660324,0 z" transform="matrix(0.632511,0,0,0.687532,19.74685,19.00611)" opacity=".5" stroke="#fff" stroke-width="1.516" fill="none"/><path d="m 32.823063,18.894651 a 6.330162,2.1770399 0 1 1 -12.660324,0 6.330162,2.1770399 0 1 1 12.660324,0 z" transform="matrix(0.632511,0,0,0.687532,24.74869,8.006107)" opacity=".5" stroke="#fff" stroke-width="1.516" fill="none"/></g></svg>