<svg xmlns="http://www.w3.org/2000/svg" version="1" width="453.543" height="453.543"><g transform="translate(3824.556 776.197)"><path d="M-3655.618-428.445s-17.014 10.356 11.835 13.315c34.767 4.438 53.26 3.699 91.726-3.699 0 0 10.356 6.657 24.411 11.836-86.548 36.986-196.027-2.22-127.972-21.452zm-11.096-48.082s-18.493 14.054 10.356 17.013c37.726 3.699 67.315 4.438 118.356-5.918 0 0 6.658 7.397 17.753 11.096-104.301 31.069-221.178 2.959-146.465-22.192h-.001zm204.164 84.328s12.575 10.356-14.055 18.493c-49.562 14.795-207.863 19.233-252.247 0-15.534-6.657 14.055-16.274 23.671-17.753 9.617-2.219 14.794-2.219 14.794-2.219-17.013-11.836-113.178 24.411-48.822 34.767 176.794 28.849 322.521-12.575 276.657-33.288h.001zm-184.931-134.63s-80.63 19.233-28.849 25.89c22.192 2.959 65.835 2.22 106.52-.74 33.287-2.959 66.575-8.877 66.575-8.877s-11.836 5.178-19.973 10.356c-82.109 21.451-239.671 11.835-194.548-10.356 38.466-18.493 70.273-16.274 70.273-16.274zm144.247 80.63c82.849-42.904 44.384-84.328 17.753-79.15-6.658 1.479-9.617 2.959-9.617 2.959s2.219-4.438 7.397-5.918c52.521-18.493 93.945 55.479-17.013 84.328 0 0 .739-.74 1.479-2.219zm-136.11 116.877c79.891 5.178 201.945-2.959 204.904-40.685 0 0-5.918 14.795-65.835 25.89-68.055 12.576-152.383 11.096-201.945 2.959 0 0 10.356 8.877 62.876 11.836z" fill="#4e7896"/><path d="M-3553.535-770.937s45.863 46.603-43.644 116.877c-71.753 56.958-16.274 89.506 0 126.492-42.164-37.725-72.493-71.013-51.781-102.082 30.329-45.863 113.918-68.054 95.425-141.287zm-23.671 212.301c21.451 24.411-5.918 46.603-5.918 46.603s54.74-28.11 29.589-62.877c-22.932-33.287-40.685-49.561 55.479-105.041 0 0-151.643 37.726-79.15 121.315z" fill="#f58219"/></g></svg>