<svg xmlns="http://www.w3.org/2000/svg" xmlns:xlink="http://www.w3.org/1999/xlink" width="256" height="256"><defs><linearGradient id="b"><stop offset="0" stop-color="#fff"/><stop offset="1" stop-color="#b8caff"/></linearGradient><linearGradient id="a"><stop offset="0" stop-color="#fff"/><stop offset="1" stop-color="#2a53c6"/></linearGradient><linearGradient x1="371.429" y1="580.934" x2="500.714" y2="710.219" id="d" xlink:href="#a" gradientUnits="userSpaceOnUse"/><linearGradient x1="279.991" y1="526.638" x2="548.581" y2="795.229" id="c" xlink:href="#b" gradientUnits="userSpaceOnUse"/></defs><g transform="translate(-140.28573,-560.07648)"><path d="m 542.28574,660.93359 a 128,128 0 1 1 -256,0 128,128 0 1 1 256,0 z" transform="matrix(0.95312501,0,0,0.95312502,-126.58036,58.124135)" fill="url(#c)" stroke="#000" stroke-width="12.59"/><path d="m 500.7143,645.57648 a 64.64286,64.64286 0 1 1 -129.28572,0 64.64286,64.64286 0 1 1 129.28572,0 z" transform="matrix(1.5701657,0,0,1.5701657,-416.41868,-325.58556)" fill="url(#d)"/><g transform="translate(-145.99777,29.127545)"><rect width="125" height="16" x="351.786" y="709.148"/><path d="m 351.78125,689.15625 0,16 53,0 0,-16 -53,0 z m 72,0 0,16 53,0 0,-16 -53,0 z"/><path d="m 351.78125,669.15625 0,16 53,0 0,-16 -53,0 z m 72,0 0,16 53,0 0,-16 -53,0 z"/><rect width="125" height="16" x="351.786" y="649.148"/><path d="m 414.28125,572.75 c -11.70527,0 -21.61153,5.4901 -28.6875,12.6875 -7.07597,7.1974 -11.87157,16.05803 -15.4375,24.625 -7.13185,17.13393 -9.28125,33.84375 -9.28125,33.84375 l -0.15625,1.25 19.15625,0 c 0.46666,-2.98621 2.59068,-15.26733 7.8125,-27.8125 2.97796,-7.1544 6.95263,-14.00013 11.46875,-18.59375 4.51612,-4.59362 9.00579,-7 15.125,-7 6.11921,0 10.64013,2.40638 15.15625,7 4.51612,4.59362 8.45954,11.43935 11.4375,18.59375 5.22182,12.54517 7.34584,24.82629 7.8125,27.8125 l 19.15625,0 -0.15625,-1.25 c 0,0 -2.11815,-16.70982 -9.25,-33.84375 -3.56593,-8.56697 -8.39278,-17.4276 -15.46875,-24.625 -7.07597,-7.1974 -16.98223,-12.6875 -28.6875,-12.6875 z" style="text-indent:0;text-align:start;line-height:normal;text-transform:none;block-progression:tb;-inkscape-font-specification:Sans" color="#000" overflow="visible" enable-background="accumulate" font-family="Sans"/></g></g></svg>