<svg xmlns="http://www.w3.org/2000/svg" xmlns:xlink="http://www.w3.org/1999/xlink" width="128" height="128"><defs><linearGradient x1="110.969" y1="976.3" x2="110.969" y2="992.375" xlink:href="#a" gradientUnits="userSpaceOnUse"/><linearGradient id="a"><stop offset="0" stop-color="#666"/><stop offset="1" stop-color="#333"/></linearGradient><linearGradient x1="121.306" y1="976.378" x2="121.306" y2="992.424" xlink:href="#a" gradientUnits="userSpaceOnUse" gradientTransform="matrix(1,0,0,1.00011,0,-0.10551)"/><linearGradient x1="110.969" y1="976.3" x2="110.969" y2="992.375" id="i" xlink:href="#a" gradientUnits="userSpaceOnUse" gradientTransform="matrix(1.00399,0,0,1.00959,-1.49914,-9.36636)"/><linearGradient x1="294.343" y1="256.581" x2="294.418" y2="243.139" xlink:href="#b" gradientUnits="userSpaceOnUse" gradientTransform="matrix(7.97915,0,0,8.01241,-2383.61,-3106.53)"/><linearGradient id="b"><stop offset="0" stop-color="#b3b3b3"/><stop offset="1" stop-color="#e6e6e6"/></linearGradient><linearGradient x1="209.063" y1="-755.388" x2="209.063" y2="-781.623" xlink:href="#c" gradientUnits="userSpaceOnUse" gradientTransform="matrix(4.00013,0,0,4,-875.027,1971.85)"/><linearGradient id="c"><stop offset="0" stop-color="#fff" stop-opacity=".65"/><stop offset="1" stop-color="#fff" stop-opacity=".949"/></linearGradient><linearGradient x1="78.822" y1="-1194.638" x2="144" y2="-1194.638" xlink:href="#d" gradientUnits="userSpaceOnUse" gradientTransform="matrix(0.370572,0.370572,-0.707107,0.707107,-850.729,-344.471)"/><linearGradient id="d"><stop offset="0" stop-opacity="0"/><stop offset=".493"/><stop offset="1" stop-opacity="0"/></linearGradient><linearGradient x1="30.744" y1="-1194.638" x2="144" y2="-1194.638" xlink:href="#d" gradientUnits="userSpaceOnUse" gradientTransform="matrix(0.370572,0.370572,-0.707107,0.707107,-850.729,-327.471)"/><linearGradient x1="-17" y1="-1194.638" x2="144" y2="-1194.638" xlink:href="#d" gradientUnits="userSpaceOnUse" gradientTransform="matrix(0.677019,0,0,0.999984,-1146.13,1239.62)"/><linearGradient x1="-17" y1="-1194.638" x2="144" y2="-1194.638" xlink:href="#d" gradientUnits="userSpaceOnUse" gradientTransform="matrix(0.571429,0,0,0.999984,-37.2856,2238.26)"/><linearGradient x1="152" y1="-1192.638" x2="113.882" y2="-1230.756" xlink:href="#e" gradientUnits="userSpaceOnUse" gradientTransform="matrix(0.390244,0,0,0.390244,-19.3171,-584.218)"/><linearGradient id="e"><stop offset="0"/><stop offset=".455" stop-opacity=".361"/><stop offset="1" stop-opacity="0"/></linearGradient><linearGradient x1="30.744" y1="-1194.638" x2="144" y2="-1194.638" xlink:href="#f" gradientUnits="userSpaceOnUse" gradientTransform="matrix(0.370572,0.370572,-0.707107,0.707107,-852.729,-322.471)"/><linearGradient id="f"><stop offset="0" stop-opacity="0"/><stop offset=".493"/><stop offset="1" stop-opacity="0"/></linearGradient><linearGradient x1="-17" y1="-1194.638" x2="144" y2="-1194.638" xlink:href="#d" gradientUnits="userSpaceOnUse" gradientTransform="matrix(0.521722,0,0,1,-32.1306,146)"/><linearGradient x1="-17" y1="-1194.638" x2="144" y2="-1194.638" xlink:href="#d" gradientUnits="userSpaceOnUse" gradientTransform="matrix(0.677019,0,0,0.999984,-1146.13,1235.62)"/><linearGradient x1="-17" y1="-1194.638" x2="144" y2="-1194.638" xlink:href="#d" gradientUnits="userSpaceOnUse" gradientTransform="matrix(0.40062,0,0,0.999984,-1106.33,1150.62)"/><linearGradient x1="-17" y1="-1194.638" x2="144" y2="-1194.638" xlink:href="#d" gradientUnits="userSpaceOnUse" gradientTransform="matrix(0.40062,0,0,0.999984,-1106.33,1146.62)"/><linearGradient x1="152" y1="-1192.638" x2="113.882" y2="-1230.756" xlink:href="#e" gradientUnits="userSpaceOnUse" gradientTransform="matrix(0.390244,0,0,0.390244,-19.3171,-584.218)"/><linearGradient x1="121.306" y1="976.378" x2="121.306" y2="992.424" id="h" xlink:href="#a" gradientUnits="userSpaceOnUse" gradientTransform="matrix(1,0,0,1.00011,0,-0.10551)"/><linearGradient x1="110.969" y1="976.3" x2="110.969" y2="992.375" id="g" xlink:href="#a" gradientUnits="userSpaceOnUse"/><linearGradient x1="294.343" y1="256.581" x2="294.418" y2="243.139" id="j" xlink:href="#b" gradientUnits="userSpaceOnUse" gradientTransform="matrix(7.97915,0,0,8.01241,-2383.61,-3106.53)"/><linearGradient x1="209.063" y1="-755.388" x2="209.063" y2="-781.623" id="k" xlink:href="#c" gradientUnits="userSpaceOnUse" gradientTransform="matrix(4.00013,0,0,4,-875.027,1971.85)"/><linearGradient x1="78.822" y1="-1194.638" x2="144" y2="-1194.638" id="l" xlink:href="#d" gradientUnits="userSpaceOnUse" gradientTransform="matrix(0.370572,0.370572,-0.707107,0.707107,-850.729,-344.471)"/><linearGradient x1="30.744" y1="-1194.638" x2="144" y2="-1194.638" id="m" xlink:href="#d" gradientUnits="userSpaceOnUse" gradientTransform="matrix(0.370572,0.370572,-0.707107,0.707107,-850.729,-327.471)"/><linearGradient x1="-17" y1="-1194.638" x2="144" y2="-1194.638" id="n" xlink:href="#d" gradientUnits="userSpaceOnUse" gradientTransform="matrix(0.677019,0,0,0.999984,-1146.13,1239.62)"/><linearGradient x1="-17" y1="-1194.638" x2="144" y2="-1194.638" id="o" xlink:href="#d" gradientUnits="userSpaceOnUse" gradientTransform="matrix(0.571429,0,0,0.999984,-37.2856,2238.26)"/><linearGradient x1="30.744" y1="-1194.638" x2="144" y2="-1194.638" id="q" xlink:href="#f" gradientUnits="userSpaceOnUse" gradientTransform="matrix(0.370572,0.370572,-0.707107,0.707107,-852.729,-322.471)"/><linearGradient x1="-17" y1="-1194.638" x2="144" y2="-1194.638" id="r" xlink:href="#d" gradientUnits="userSpaceOnUse" gradientTransform="matrix(0.521722,0,0,1,-32.1306,146)"/><linearGradient x1="-17" y1="-1194.638" x2="144" y2="-1194.638" id="s" xlink:href="#d" gradientUnits="userSpaceOnUse" gradientTransform="matrix(0.677019,0,0,0.999984,-1146.13,1235.62)"/><linearGradient x1="-17" y1="-1194.638" x2="144" y2="-1194.638" id="t" xlink:href="#d" gradientUnits="userSpaceOnUse" gradientTransform="matrix(0.40062,0,0,0.999984,-1106.33,1150.62)"/><linearGradient x1="-17" y1="-1194.638" x2="144" y2="-1194.638" id="u" xlink:href="#d" gradientUnits="userSpaceOnUse" gradientTransform="matrix(0.40062,0,0,0.999984,-1106.33,1146.62)"/><linearGradient x1="152" y1="-1192.638" x2="113.882" y2="-1230.756" id="p" xlink:href="#e" gradientUnits="userSpaceOnUse" gradientTransform="matrix(0.390244,0,0,0.390244,-19.3171,-584.218)"/></defs><g transform="translate(-285.39097,-458.02534) translate(348.39088,1624.6549)"><g fill="url(#g)" font-family="Andale Mono"><path d="m 111,977.12331 0,14.50168 c 5e-5,0.52364 0.22641,0.74996 0.74999,0.75001 l 11.50001,0 c 0.52358,-5e-5 0.74994,-0.22637 0.74999,-0.75001 l 0,-8.98088 c 0.006,-0.26409 -0.0975,-0.52903 -0.28125,-0.71883 l -5.27042,-5.2707 c -0.18978,-0.18372 -0.45469,-0.2874 -0.71875,-0.28128 l -5.97958,0 c -0.51898,0 -0.75228,0.43576 -0.74999,0.75001 l 0,0 z" style="text-indent:0pt;text-align:start;line-height:normal;text-transform:none" fill="url(#h)" overflow="visible" transform="matrix(7.99984,0,0,7.9969,-938.982,-8974.56)"/><path d="m 120.32938,976.3765 c -0.33282,0.10664 -0.44483,0.61349 -0.18825,0.85184 l 3.01199,3.02879 c 0.27825,0.26531 0.83246,0.0383 0.84712,-0.34705 l 0,-3.02878 c -3e-5,-0.26431 -0.23916,-0.50477 -0.502,-0.5048 l -3.01199,0 c -0.0519,-0.008 -0.105,-0.008 -0.15687,0 l 0,0 z" style="text-indent:0pt;text-align:start;line-height:normal;text-transform:none" fill="url(#i)" overflow="visible" transform="matrix(7.99984,0,0,7.9969,-938.982,-8974.56)"/></g><path d="m -44.99976,-1160.6378 0,2 0,112 0,2 1.999997,0 88.000006,0 1.999997,0 0,-2 0,-70 0,-0.8752 -0.624971,-0.6248 -41.7500028,-42 -0.4999691,-0.5 -0.875016,0 -46.2500441,0 -1.999997,0 0,0 z" style="text-indent:0pt;text-align:start;line-height:normal;text-transform:none" fill="url(#j)" overflow="visible" font-family="Andale Mono"/><path d="m -40.99984,-1156.6378 42.2350277,0 41.7649723,42 0,66 -84,0 0,-108 0,0 z" fill="url(#k)"/><path d="m 23.7072,-1159.5071 23.6621,23.6621 -0.7072,0.7072 L 23,-1158.8 l 0.7072,-0.7071 z" opacity=".25" fill="url(#l)" overflow="visible"/><path d="m 5.7072,-1160.5071 41.6621,41.6621 -0.7072,0.7072 L 5,-1159.8 l 0.7072,-0.7071 z" opacity=".25" fill="url(#m)" overflow="visible"/><rect width="109" height="1" x="-1157.638" y="45" transform="matrix(0,1,-1,0,0,0)" opacity=".5" fill="url(#n)" overflow="visible"/><rect width="92" height="1" x="-47" y="1043.638" transform="scale(-1,-1)" opacity=".5" fill="url(#o)" overflow="visible"/><rect width="32" height="32" x="8" y="-1081.638" transform="scale(-1,1)" id="v" opacity=".15" fill="url(#p)" overflow="visible"/><path d="m 3.7072,-1155.5071 41.6621,41.6621 -0.7072,0.7072 L 3,-1154.8 l 0.7072,-0.7071 z" opacity=".1" fill="url(#q)" overflow="visible"/><rect width="83.997" height="1" x="-41" y="-1048.638" opacity=".2" fill="url(#r)" overflow="visible"/><rect width="109" height="1" x="-1157.638" y="41" transform="matrix(0,1,-1,0,0,0)" opacity=".2" fill="url(#s)" overflow="visible"/><rect width="64.5" height="1" x="-1113.138" y="-44" transform="matrix(0,1,-1,0,0,0)" opacity=".2" fill="url(#t)" overflow="visible"/><rect width="64.5" height="1" x="-1113.138" y="-48" transform="matrix(0,1,-1,0,0,0)" opacity=".5" fill="url(#u)" overflow="visible"/><use transform="matrix(-1,0,0,1,2,0)" width="5033" height="1085" xlink:href="#v"/></g></svg>