<svg xmlns="http://www.w3.org/2000/svg" width="128" height="128"><title id="title3808">LibreCAD Icon</title><defs id="defs4"><style id="style2989" type="text/css">.fil2 {fill:#4D4D4D} .fil1 {fill:#8ED900} .fil0 {fill:white}</style></defs><g id="g2993" transform="translate(-226.69563,-408.90334) matrix(1.24,0,0,1.24,-52.40679,-130.85658)"><rect id="_471971136" class="fil0" x="226.696" y="436.903" width="99.999" height="100" fill="#fff"/><path id="path3001" d="m 276.6955,436.91878 c -27.61368,0 -50,22.3545 -50,49.96875 0,27.61426 22.38632,50 50,50 27.61426,0 50,-22.38574 50,-50 0,-27.61425 -22.38574,-49.96875 -50,-49.96875 z m 0,12 c 20.98704,0 38,16.98228 38,37.96875 0,20.98704 -17.01296,38.03125 -38,38.03125 -20.98646,0 -38,-17.04421 -38,-38.03125 0,-20.98647 17.01354,-37.96875 38,-37.96875 z" fill="#8ed900"/><g transform="translate(-95.35188,-39.277969)" id="g3010"><polygon points="17.5069,9.80372 4.20177,9.80372 4.20177,10.8542 0.000103387,10.8542 0.000103387,6.65257 4.20177,6.65257 4.20177,7.70289 17.5069,7.70289" class="fil2" id="_471970800" transform="matrix(5.7120336,0,0,5.7120336,322.04724,476.18085)" fill="#4d4d4d"/><g id="g3004" fill="#8ed900"><rect id="_471970680" class="fil1" x="409.909" y="476.181" width="12.138" height="12.139"/><rect id="_471970560" class="fil1" x="409.909" y="564.043" width="12.138" height="12.139"/><rect id="_471970440" class="fil1" x="322.048" y="476.181" width="12.138" height="12.139"/><rect id="_471970368" class="fil1" x="322.048" y="564.043" width="12.138" height="12.139"/></g></g></g></svg>