<svg xmlns="http://www.w3.org/2000/svg" xmlns:xlink="http://www.w3.org/1999/xlink" width="128" height="128"><title>Mixxx application icon</title><defs><radialGradient cx="422.823" cy="489.906" r="117.143" fx="422.823" fy="489.906" xlink:href="#a" gradientUnits="userSpaceOnUse" gradientTransform="matrix(-2.7949011,0,0,2.0015961,-839.44782,-893.92913)"/><radialGradient cx="576.933" cy="486.675" r="117.143" fx="576.933" fy="486.675" xlink:href="#a" gradientUnits="userSpaceOnUse" gradientTransform="matrix(2.9485383,-1.3567159e-7,8.3867703e-6,1.9847499,-1724.9422,-879.26196)"/><linearGradient x1="302.857" y1="366.648" x2="302.857" y2="609.505" xlink:href="#b" gradientUnits="userSpaceOnUse" gradientTransform="matrix(5.4517517,0,0,1.984663,-3212.5289,-882.00175)"/><linearGradient id="c"><stop offset="0" stop-color="#f1f1f1"/><stop offset="1" stop-color="#ddd" stop-opacity=".937"/></linearGradient><linearGradient x1="25.125" y1="6" x2="25.125" y2="43.642" xlink:href="#c" gradientUnits="userSpaceOnUse" gradientTransform="matrix(1,0,0,0.8780488,7.0096992e-7,1.4268286)"/><linearGradient id="d"><stop offset="0" stop-color="#fff" stop-opacity="0"/><stop offset=".5" stop-color="#fff"/><stop offset="1" stop-color="#fff" stop-opacity="0"/></linearGradient><linearGradient x1="18.385" y1="3.629" x2="24.66" y2="22.5" xlink:href="#d" gradientUnits="userSpaceOnUse"/><radialGradient cx="422.823" cy="489.906" r="117.143" fx="422.823" fy="489.906" xlink:href="#a" gradientUnits="userSpaceOnUse" gradientTransform="matrix(-1.7847743,0,0,1.986426,-371.34893,-888.32389)"/><linearGradient id="a"><stop offset="0"/><stop offset="1" stop-opacity="0"/></linearGradient><radialGradient cx="576.933" cy="486.675" r="117.143" fx="576.933" fy="486.675" xlink:href="#a" gradientUnits="userSpaceOnUse" gradientTransform="matrix(2.0206614,3.6412947e-4,-2.7703425e-4,1.9847492,-996.45554,-879.47183)"/><linearGradient id="b"><stop offset="0" stop-opacity="0"/><stop offset=".5"/><stop offset="1" stop-opacity="0"/></linearGradient><linearGradient x1="302.857" y1="366.648" x2="302.857" y2="609.505" xlink:href="#b" gradientUnits="userSpaceOnUse" gradientTransform="matrix(3.5306581,0,0,1.969706,-1897.5221,-872.8854)"/><linearGradient id="e"><stop offset="0" stop-color="#797979"/><stop offset="1" stop-color="#babdb6"/></linearGradient><linearGradient x1="24.375" y1="-43.625" x2="27.195" y2="-43.625" xlink:href="#e" gradientUnits="userSpaceOnUse" gradientTransform="matrix(0.7999999,0,0,0.7446809,-2.3000016,-6.1276619)"/><linearGradient id="f"><stop offset="0" stop-color="#6b6d68"/><stop offset=".103" stop-color="#4d4e4b"/><stop offset="1" stop-color="#454643"/></linearGradient><linearGradient x1="12.979" y1="10.432" x2="12.979" y2="42.633" xlink:href="#f" gradientUnits="userSpaceOnUse" gradientTransform="matrix(0.6551725,0,0,0.4594593,1.6206891,12.972982)"/><linearGradient id="g"><stop offset="0" stop-color="#fff"/><stop offset="1" stop-color="#fff" stop-opacity="0"/></linearGradient><linearGradient x1="14" y1="-10.188" x2="45.125" y2="-40.313" xlink:href="#g" gradientUnits="userSpaceOnUse" gradientTransform="matrix(0.7391304,0,0,0.6521746,-1.2173906,-8.3478209)"/><linearGradient id="h"><stop offset="0" stop-color="#2e3436"/><stop offset="1" stop-color="#3e3e3e"/></linearGradient><linearGradient x1="23.156" y1="37.015" x2="23.156" y2="10" xlink:href="#h" gradientUnits="userSpaceOnUse" gradientTransform="matrix(0.6315789,0,0,0.4230768,-0.2894746,14.057692)"/><linearGradient id="i"><stop offset="0" stop-color="#6b6d68"/><stop offset=".586" stop-color="#4d4e4b"/><stop offset="1" stop-color="#454643"/></linearGradient><linearGradient x1="24.986" y1="37.924" x2="24.986" y2="9" xlink:href="#i" gradientUnits="userSpaceOnUse" gradientTransform="matrix(0.5210918,0,0,0.3793103,2.4801441,14.896551)"/><linearGradient xlink:href="#j" gradientUnits="userSpaceOnUse" gradientTransform="matrix(5.4517517,0,0,1.984663,-3212.529,-882.00175)" x1="302.857" y1="366.648" x2="302.857" y2="609.505"/><linearGradient id="j"><stop offset="0" stop-opacity="0"/><stop offset=".5"/><stop offset="1" stop-opacity="0"/></linearGradient><radialGradient xlink:href="#k" gradientUnits="userSpaceOnUse" gradientTransform="matrix(2.9485383,-1.3567159e-7,8.3867703e-6,1.9847499,-1724.9423,-879.26196)" cx="576.933" cy="486.675" fx="576.933" fy="486.675" r="117.143"/><linearGradient id="k"><stop offset="0"/><stop offset="1" stop-opacity="0"/></linearGradient><linearGradient xlink:href="#l" gradientUnits="userSpaceOnUse" gradientTransform="matrix(1,0,0,0.8780488,7.0096991e-7,1.4268286)" x1="25.125" y1="6" x2="25.125" y2="43.642"/><linearGradient id="l"><stop offset="0" stop-color="#f1f1f1"/><stop offset="1" stop-color="#ddd" stop-opacity=".937"/></linearGradient><linearGradient id="r"><stop offset="0" stop-color="#fff" stop-opacity="0"/><stop offset=".5" stop-color="#fff"/><stop offset="1" stop-color="#fff" stop-opacity="0"/></linearGradient><linearGradient xlink:href="#j" gradientUnits="userSpaceOnUse" gradientTransform="matrix(3.5306581,0,0,1.969706,-1897.5222,-872.8854)" x1="302.857" y1="366.648" x2="302.857" y2="609.505"/><radialGradient xlink:href="#k" gradientUnits="userSpaceOnUse" gradientTransform="matrix(2.0206614,3.6412947e-4,-2.7703425e-4,1.9847492,-996.45567,-879.47183)" cx="576.933" cy="486.675" fx="576.933" fy="486.675" r="117.143"/><radialGradient xlink:href="#k" gradientUnits="userSpaceOnUse" gradientTransform="matrix(-1.7847743,0,0,1.986426,-371.34906,-888.32389)" cx="422.823" cy="489.906" fx="422.823" fy="489.906" r="117.143"/><linearGradient xlink:href="#m" gradientUnits="userSpaceOnUse" gradientTransform="matrix(0.7999999,0,0,0.7446809,-2.3000016,-6.1276619)" x1="24.375" y1="-43.625" x2="27.195" y2="-43.625"/><linearGradient id="m"><stop offset="0" stop-color="#797979"/><stop offset="1" stop-color="#babdb6"/></linearGradient><linearGradient xlink:href="#n" gradientUnits="userSpaceOnUse" gradientTransform="matrix(0.6551725,0,0,0.4594593,1.6206891,12.972982)" x1="12.979" y1="10.432" x2="12.979" y2="42.633"/><linearGradient id="n"><stop offset="0" stop-color="#6b6d68"/><stop offset=".103" stop-color="#4d4e4b"/><stop offset="1" stop-color="#454643"/></linearGradient><linearGradient xlink:href="#o" gradientUnits="userSpaceOnUse" gradientTransform="matrix(0.7391304,0,0,0.6521746,-1.2173906,-8.3478209)" x1="14" y1="-10.188" x2="45.125" y2="-40.313"/><linearGradient id="o"><stop offset="0" stop-color="#fff"/><stop offset="1" stop-color="#fff" stop-opacity="0"/></linearGradient><linearGradient xlink:href="#p" gradientUnits="userSpaceOnUse" gradientTransform="matrix(0.5210918,0,0,0.3793103,2.4801441,14.896551)" x1="24.986" y1="37.924" x2="24.986" y2="9"/><linearGradient id="p"><stop offset="0" stop-color="#6b6d68"/><stop offset=".586" stop-color="#4d4e4b"/><stop offset="1" stop-color="#454643"/></linearGradient><linearGradient xlink:href="#q" gradientUnits="userSpaceOnUse" gradientTransform="matrix(0.6315789,0,0,0.4230768,-0.2894747,14.057692)" x1="23.156" y1="37.015" x2="23.156" y2="10"/><linearGradient id="q"><stop offset="0" stop-color="#2e3436"/><stop offset="1" stop-color="#3e3e3e"/></linearGradient><linearGradient xlink:href="#r" gradientUnits="userSpaceOnUse" x1="18.385" y1="3.629" x2="24.66" y2="22.5"/><radialGradient xlink:href="#k" gradientUnits="userSpaceOnUse" gradientTransform="matrix(-2.7949011,0,0,2.0015961,-839.44791,-893.92913)" cx="422.823" cy="489.906" fx="422.823" fy="489.906" r="117.143"/><linearGradient xlink:href="#j" gradientUnits="userSpaceOnUse" gradientTransform="matrix(5.4517517,0,0,1.984663,-3212.529,-882.00175)" x1="302.857" y1="366.648" x2="302.857" y2="609.505"/><radialGradient xlink:href="#k" gradientUnits="userSpaceOnUse" gradientTransform="matrix(2.9485383,-1.3567159e-7,8.3867703e-6,1.9847499,-1724.9423,-879.26196)" cx="576.933" cy="486.675" fx="576.933" fy="486.675" r="117.143"/><radialGradient xlink:href="#k" gradientUnits="userSpaceOnUse" gradientTransform="matrix(-2.7949011,0,0,2.0015961,-839.44791,-893.92913)" cx="422.823" cy="489.906" fx="422.823" fy="489.906" r="117.143"/><linearGradient xlink:href="#l" gradientUnits="userSpaceOnUse" gradientTransform="matrix(1,0,0,0.8780488,7.0096991e-7,1.4268286)" x1="25.125" y1="6" x2="25.125" y2="43.642"/><linearGradient xlink:href="#r" gradientUnits="userSpaceOnUse" x1="18.385" y1="3.629" x2="24.66" y2="22.5"/><linearGradient xlink:href="#j" id="x" gradientUnits="userSpaceOnUse" gradientTransform="matrix(3.5306581,0,0,1.969706,-1897.5222,-872.8854)" x1="302.857" y1="366.648" x2="302.857" y2="609.505"/><radialGradient xlink:href="#k" id="y" gradientUnits="userSpaceOnUse" gradientTransform="matrix(2.0206614,3.6412947e-4,-2.7703425e-4,1.9847492,-996.45567,-879.47183)" cx="576.933" cy="486.675" fx="576.933" fy="486.675" r="117.143"/><radialGradient xlink:href="#k" id="z" gradientUnits="userSpaceOnUse" gradientTransform="matrix(-1.7847743,0,0,1.986426,-371.34906,-888.32389)" cx="422.823" cy="489.906" fx="422.823" fy="489.906" r="117.143"/><linearGradient xlink:href="#m" gradientUnits="userSpaceOnUse" gradientTransform="matrix(0.7999999,0,0,0.7446809,-2.3000016,-6.1276619)" x1="24.375" y1="-43.625" x2="27.195" y2="-43.625"/><linearGradient xlink:href="#n" gradientUnits="userSpaceOnUse" gradientTransform="matrix(0.6551725,0,0,0.4594593,1.6206891,12.972982)" x1="12.979" y1="10.432" x2="12.979" y2="42.633"/><linearGradient xlink:href="#o" gradientUnits="userSpaceOnUse" gradientTransform="matrix(0.7391304,0,0,0.6521746,-1.2173906,-8.3478209)" x1="14" y1="-10.188" x2="45.125" y2="-40.313"/><linearGradient xlink:href="#p" gradientUnits="userSpaceOnUse" gradientTransform="matrix(0.5210918,0,0,0.3793103,2.4801441,14.896551)" x1="24.986" y1="37.924" x2="24.986" y2="9"/><linearGradient xlink:href="#q" gradientUnits="userSpaceOnUse" gradientTransform="matrix(0.6315789,0,0,0.4230768,-0.2894747,14.057692)" x1="23.156" y1="37.015" x2="23.156" y2="10"/><linearGradient xlink:href="#p" id="D" gradientUnits="userSpaceOnUse" gradientTransform="matrix(1.3891834,0,0,1.0112068,-73.351795,39.712851)" x1="24.986" y1="37.924" x2="24.986" y2="9"/><linearGradient xlink:href="#q" id="E" gradientUnits="userSpaceOnUse" gradientTransform="matrix(1.6837319,0,0,1.1278843,-80.735347,37.476529)" x1="23.156" y1="37.015" x2="23.156" y2="10"/><linearGradient xlink:href="#o" id="C" gradientUnits="userSpaceOnUse" gradientTransform="matrix(1.9704545,0,0,1.7386382,-83.209087,-22.254532)" x1="14" y1="-10.188" x2="45.125" y2="-40.313"/><linearGradient xlink:href="#n" id="B" gradientUnits="userSpaceOnUse" gradientTransform="matrix(1.7466303,0,0,1.2248767,-75.643024,34.584791)" x1="12.979" y1="10.432" x2="12.979" y2="42.633"/><linearGradient xlink:href="#m" id="A" gradientUnits="userSpaceOnUse" gradientTransform="matrix(2.132727,0,0,1.9852516,-86.095229,-16.33579)" x1="24.375" y1="-43.625" x2="27.195" y2="-43.625"/><linearGradient xlink:href="#r" id="w" gradientUnits="userSpaceOnUse" x1="18.385" y1="3.629" x2="24.66" y2="22.5" gradientTransform="matrix(2.6659091,0,0,2.6659091,-6.3811956e-8,-79.963634)"/><linearGradient xlink:href="#l" id="v" gradientUnits="userSpaceOnUse" gradientTransform="matrix(2.6659091,0,0,2.3407983,1.8049101e-6,-76.159839)" x1="25.125" y1="6" x2="25.125" y2="43.642"/><linearGradient xlink:href="#j" gradientUnits="userSpaceOnUse" gradientTransform="matrix(5.4517517,0,0,1.984663,-3212.529,-882.00175)" x1="302.857" y1="366.648" x2="302.857" y2="609.505"/><radialGradient xlink:href="#k" gradientUnits="userSpaceOnUse" gradientTransform="matrix(2.9485383,-1.3567159e-7,8.3867703e-6,1.9847499,-1724.9423,-879.26196)" cx="576.933" cy="486.675" fx="576.933" fy="486.675" r="117.143"/><radialGradient xlink:href="#k" gradientUnits="userSpaceOnUse" gradientTransform="matrix(-2.7949011,0,0,2.0015961,-839.44791,-893.92913)" cx="422.823" cy="489.906" fx="422.823" fy="489.906" r="117.143"/><radialGradient xlink:href="#k" id="u" gradientUnits="userSpaceOnUse" gradientTransform="matrix(0.13039659,0,0,0.08856744,54.167523,-6.0533907)" cx="422.823" cy="489.906" fx="422.823" fy="489.906" r="117.143"/><radialGradient xlink:href="#k" id="t" gradientUnits="userSpaceOnUse" gradientTransform="matrix(-0.13654657,0,-3.8839064e-7,0.08782203,94.773851,-5.4043917)" cx="576.933" cy="486.675" fx="576.933" fy="486.675" r="117.143"/><linearGradient xlink:href="#j" id="s" gradientUnits="userSpaceOnUse" gradientTransform="matrix(0.2543524,0,0,0.08781818,-164.88402,-5.5256231)" x1="302.857" y1="366.648" x2="302.857" y2="609.505"/></defs><g transform="translate(0,80)" color="#000"><rect y="26.673" x="-109.302" height="21.327" width="93.307" transform="scale(-1,1)" opacity=".142" fill="url(#s)" overflow="visible"/><path d="m 15.995453,26.67272 c 0,0 0,21.32703 0,21.32703 C 9.378962,48.039898 -3.7130097e-6,43.221444 0,37.334862 0,31.448279 7.3835065,26.672721 15.995453,26.67272 z" opacity=".142" fill="url(#t)" overflow="visible"/><path d="m 109.30225,26.672728 c 0,0 0,21.327014 0,21.327014 6.61648,0.04015 15.99545,-4.778302 15.99545,-10.664879 0,-5.886579 -7.38351,-10.662134 -15.99545,-10.662135 z" opacity=".142" fill="url(#u)" overflow="visible"/><rect width="114.63" height="95.969" x="6.667" y="-59.967" rx="5.538" ry="5.522" fill="#b8b8b8" stroke="#888a85" stroke-width="2.67" stroke-linecap="round" overflow="visible" enable-background="accumulate"/><rect ry="5.522" rx="5.522" y="-67.967" x="6.665" height="95.973" width="114.634" fill="url(#v)" stroke="#888a85" stroke-width="2.666" stroke-linecap="round" overflow="visible" enable-background="accumulate"/><rect width="109.302" height="90.641" x="9.331" y="-65.301" rx="2.695" ry="2.695" opacity=".825" stroke="#fff" stroke-width="2.666" stroke-linecap="round" overflow="visible" enable-background="accumulate" fill="none"/><rect ry="2.695" rx="2.695" y="-66.634" x="7.998" height="93.307" width="111.968" fill="url(#w)" overflow="visible" enable-background="accumulate"/><g transform="matrix(-0.03293307,0,0,0.03281758,48.226682,-10.9171)" opacity=".354"><rect width="1295.189" height="478.357" x="-1125.993" y="-150.697" opacity=".402" fill="url(#x)" overflow="visible"/><path d="m 169.19562,-154.32944 c 0,0 0,481.98393 0,481.98393 133.93815,0.90732 323.79728,-107.98815 323.7972,-241.022987 0,-133.034858 -149.46489,-240.960923 -323.7972,-240.960943 z" opacity=".402" fill="url(#y)" overflow="visible"/><path d="m -1125.9932,-154.32945 c 0,0 0,478.33079 0,478.33079 -133.938,0.90045 -323.7972,-107.16966 -323.7972,-239.196174 0,-132.026541 149.4649,-239.134596 323.7972,-239.134616 z" opacity=".402" fill="url(#z)" overflow="visible"/></g><g transform="matrix(2.6659091,0,0,2.6659091,2.6659125,-85.295456) matrix(0,-1,-1,0,0,0)" fill="#888a85"><rect y="-8" x="-38" height="1" width="6" overflow="visible" enable-background="accumulate"/><rect width="5" height="1" x="-37" y="-12" overflow="visible" enable-background="accumulate"/><rect y="-16" x="-36" height="1" width="4" overflow="visible" enable-background="accumulate"/><rect width="3" height="1" x="-35" y="-20" overflow="visible" enable-background="accumulate"/><rect y="-24" x="-38" height="1" width="6" overflow="visible" enable-background="accumulate"/><rect width="3" height="1" x="-35" y="-28" overflow="visible" enable-background="accumulate"/><rect y="-32" x="-36" height="1" width="4" overflow="visible" enable-background="accumulate"/><rect width="5" height="1" x="-37" y="-35" overflow="visible" enable-background="accumulate"/><rect y="-39" x="-38" height="1" width="6" overflow="visible" enable-background="accumulate"/></g><rect ry="4.999" rx="4.999" y="-110.635" x="-35.976" height="93.307" width="10.664" transform="matrix(0,1,-1,0,0,0)" fill="url(#A)" stroke="#676a65" stroke-width="2.666" stroke-linecap="round" overflow="visible" enable-background="accumulate"/><rect width="5.332" height="87.975" x="-33.31" y="-107.969" rx="2.166" ry="2.166" transform="matrix(0,1,-1,0,0,0)" opacity=".511" stroke="#fff" stroke-width="2.666" stroke-linecap="round" overflow="visible" enable-background="accumulate" fill="none"/><rect ry="4.999" rx="4.999" y="41.322" x="-57.303" height="45.32" width="50.652" transform="matrix(0,1,1,0,0,0)" fill="url(#B)" stroke="#2e3436" stroke-width="2.666" stroke-linecap="round" overflow="visible" enable-background="accumulate"/><rect width="45.32" height="39.989" x="-54.638" y="-83.976" rx="2.407" ry="2.407" transform="matrix(0,1,-1,0,0,0)" opacity=".664" stroke="url(#C)" stroke-width="2.666" stroke-linecap="round" overflow="visible" enable-background="accumulate" fill="none"/><rect width="31.991" height="29.325" x="-54.638" y="49.319" rx="4.999" ry="4.999" transform="matrix(0,1,1,0,0,0)" fill="url(#D)" stroke="url(#E)" stroke-width="2.666" stroke-linecap="round" overflow="visible" enable-background="accumulate"/><rect ry="1.809" rx="1.809" y="-66.648" x="-50.639" height="5.332" width="23.993" transform="matrix(0,1,-1,0,0,0)" fill="#c00" overflow="visible" enable-background="accumulate"/><rect ry="2.452" rx="2.452" y="-75.978" x="-51.972" height="23.993" width="26.659" transform="matrix(0,1,-1,0,0,0)" opacity=".31" stroke="#fff" stroke-width="2.666" stroke-linecap="round" overflow="visible" enable-background="accumulate" fill="none"/><g transform="matrix(2.6659091,0,0,2.6659091,5.3318216,-82.629547) matrix(0,-1,-1,0,0,0)" fill="#fff" fill-opacity=".824"><rect width="6" height="1" x="-38" y="-8" overflow="visible" enable-background="accumulate"/><rect y="-12" x="-37" height="1" width="5" overflow="visible" enable-background="accumulate"/><rect width="4" height="1" x="-36" y="-16" overflow="visible" enable-background="accumulate"/><rect y="-20" x="-35" height="1" width="3" overflow="visible" enable-background="accumulate"/><rect width="6" height="1" x="-38" y="-24" overflow="visible" enable-background="accumulate"/><rect y="-28" x="-35" height="1" width="3" overflow="visible" enable-background="accumulate"/><rect width="4" height="1" x="-36" y="-32" overflow="visible" enable-background="accumulate"/><rect y="-35" x="-37" height="1" width="5" overflow="visible" enable-background="accumulate"/><rect width="6" height="1" x="-38" y="-39" overflow="visible" enable-background="accumulate"/></g></g></svg>