<svg xmlns="http://www.w3.org/2000/svg" xmlns:xlink="http://www.w3.org/1999/xlink" width="400" height="400" version="1"><title>Mumble logo</title><defs><linearGradient id="J"><stop offset="0" stop-opacity="0"/><stop offset=".817" stop-opacity=".02"/><stop offset=".899" stop-opacity=".145"/><stop offset=".912" stop-opacity=".208"/><stop offset=".956" stop-opacity=".251"/><stop offset="1" stop-opacity=".333"/></linearGradient><linearGradient><stop offset="0" stop-opacity=".792"/><stop offset="0" stop-opacity=".498"/><stop offset=".75" stop-opacity=".247"/><stop offset="1" stop-opacity="0"/></linearGradient><linearGradient id="I"><stop offset="0" stop-color="#b3b3b3"/><stop offset="1" stop-color="#b3b3b3" stop-opacity="0"/></linearGradient><linearGradient id="G"><stop offset="0"/><stop offset="1" stop-opacity="0"/></linearGradient><linearGradient><stop offset="0" stop-color="#fff"/><stop offset="1" stop-color="#fff"/></linearGradient><linearGradient><stop offset="0" stop-color="#fff"/><stop offset=".611" stop-color="#7f7f7f"/><stop offset="1"/></linearGradient><linearGradient id="s"><stop offset="0" stop-color="#fff"/><stop offset="1" stop-color="#fff" stop-opacity="0"/></linearGradient><linearGradient id="j"><stop offset="0" stop-color="#b4b4b4"/><stop offset="1" stop-color="#b3b3b3" stop-opacity="0"/></linearGradient><linearGradient id="e"><stop offset="0" stop-color="#afafaf"/><stop offset="1" stop-color="#e6e6e6" stop-opacity="0"/></linearGradient><linearGradient id="d"><stop offset="0" stop-color="#afafaf"/><stop offset="1" stop-color="#e6e6e6" stop-opacity="0"/></linearGradient><linearGradient id="a"><stop offset="0" stop-color="#999"/><stop offset="1" stop-color="#999" stop-opacity="0"/></linearGradient><radialGradient xlink:href="#a" cx="172.614" cy="303.206" fx="172.614" fy="303.206" r="22.63" gradientTransform="matrix(1,0,0,0.63328545,0,119.49923)" gradientUnits="userSpaceOnUse"/><radialGradient xlink:href="#b" cx="382.392" cy="210.484" fx="382.392" fy="210.484" r="29.875" gradientTransform="matrix(0.96367,-0.26709575,0.78568784,2.834728,-208.78184,-339.03429)" gradientUnits="userSpaceOnUse"/><linearGradient id="b"><stop offset="0" stop-color="#b3b3b3"/><stop offset="1" stop-color="#b3b3b3" stop-opacity="0"/></linearGradient><radialGradient xlink:href="#c" cx="-91.229" cy="30.344" fx="-91.229" fy="30.344" r="38.625" gradientTransform="matrix(1.030385,-0.20612748,0.11791959,0.58945355,220.70182,0.74849181)" gradientUnits="userSpaceOnUse"/><linearGradient id="c"><stop offset="0" stop-color="#808080"/><stop offset="1" stop-color="#808080" stop-opacity="0"/></linearGradient><radialGradient xlink:href="#d" cx="260.749" cy="27.422" fx="260.749" fy="27.422" r="38.625" gradientTransform="matrix(1.2025669,0.44564719,-0.20888604,0.56367331,-43.775525,-92.733799)" gradientUnits="userSpaceOnUse"/><radialGradient xlink:href="#e" cx="333.528" cy="217.583" fx="333.528" fy="217.583" r="29.875" gradientTransform="matrix(0.90592799,-0.3616515,0.75242512,1.8848062,-145.07737,-100.14494)" gradientUnits="userSpaceOnUse"/><radialGradient r="29.875" fy="210.484" fx="382.392" cy="210.484" cx="382.392" gradientTransform="matrix(-0.96367,-0.26709575,-0.78568784,2.834728,603.11856,-336.29584)" gradientUnits="userSpaceOnUse" xlink:href="#f"/><linearGradient id="f"><stop offset="0" stop-color="#b3b3b3"/><stop offset="1" stop-color="#b3b3b3" stop-opacity="0"/></linearGradient><radialGradient xlink:href="#g" id="L" cx="333.528" cy="217.583" fx="333.528" fy="217.583" r="29.875" gradientTransform="matrix(-0.95122439,-0.37973408,-0.79004638,1.9790465,561.77552,-104.77634)" gradientUnits="userSpaceOnUse"/><linearGradient id="g"><stop offset="0" stop-color="#e6e6e6"/><stop offset="1" stop-color="#e6e6e6" stop-opacity="0"/></linearGradient><radialGradient xlink:href="#h" cx="260.749" cy="27.422" fx="260.749" fy="27.422" r="38.625" gradientTransform="matrix(1.2025669,0.44564719,-0.20888604,0.56367331,-43.775525,-92.733799)" gradientUnits="userSpaceOnUse"/><linearGradient id="h"><stop offset="0" stop-color="#afafaf"/><stop offset="1" stop-color="#e6e6e6" stop-opacity="0"/></linearGradient><radialGradient r="38.625" fy="27.422" fx="260.749" cy="27.422" cx="260.749" gradientTransform="matrix(-1.2025669,0.44564719,0.20888604,0.56367331,438.82295,-92.861143)" gradientUnits="userSpaceOnUse" xlink:href="#h"/><radialGradient xlink:href="#i" cx="333.528" cy="217.583" fx="333.528" fy="217.583" r="29.875" gradientTransform="matrix(0.90592799,-0.3616515,0.75242512,1.8848062,-145.07737,-100.14494)" gradientUnits="userSpaceOnUse"/><linearGradient id="i"><stop offset="0" stop-color="#afafaf"/><stop offset="1" stop-color="#e6e6e6" stop-opacity="0"/></linearGradient><radialGradient r="29.875" fy="217.583" fx="333.528" cy="217.583" cx="333.528" gradientTransform="matrix(-0.90592799,-0.3616515,-0.75242512,1.8848062,539.501,-98.99361)" gradientUnits="userSpaceOnUse" xlink:href="#i"/><radialGradient xlink:href="#j" cx="458.028" cy="230.123" fx="458.028" fy="230.123" r="103.516" gradientTransform="matrix(0.39746772,-0.01013694,0.00845518,0.33152627,13.513117,52.832542)" gradientUnits="userSpaceOnUse"/><filter width="1.5" height="1.5" x="-.25" y="-.25" color-interpolation-filters="sRGB"><feGaussianBlur in="SourceAlpha" stdDeviation="2,000000" result="blur"/><feColorMatrix result="bluralpha" values="1 0 0 0 0 0 1 0 0 0 0 0 1 0 0 0 0 0 0,650000 0"/><feOffset in="bluralpha" dx="4,000000" dy="4,000000" result="offsetBlur"/><feMerge result="fbSourceGraphic"><feMergeNode in="offsetBlur"/><feMergeNode in="SourceGraphic"/></feMerge><feColorMatrix result="fbSourceGraphicAlpha" in="fbSourceGraphic" values="0 0 0 -1 0 0 0 0 -1 0 0 0 0 -1 0 0 0 0 1 0"/><feGaussianBlur stdDeviation="3" in="fbSourceGraphic"/><feColorMatrix result="fbSourceGraphic" values="1 0 0 0 0 0 1 0 0 0 0 0 1 0 0 0 0 0 6 -2.5"/></filter><filter color-interpolation-filters="sRGB"><feGaussianBlur result="result0" in="SourceGraphic" stdDeviation=".5"/><feComposite in2="result0" in="result0" result="result2" operator="arithmetic" k1=".5" k2=".3" k3=".3"/><feColorMatrix values="1 0 0 -1 0 1 0 1 -1 0 1 0 0 -1 0 -0.8 -1 0 4.4 -2.9" in="result2" result="fbSourceGraphicAlpha"/><feGaussianBlur stdDeviation=".7" in="fbSourceGraphicAlpha" result="result0"/><feSpecularLighting in="result0" result="result1" lighting-color="#fff" surfaceScale="8" specularExponent="15"><feDistantLight elevation="50" azimuth="235"/></feSpecularLighting><feBlend in="result2" in2="result1" result="result5" mode="screen"/><feComposite in2="SourceGraphic" result="result4" operator="in" k2="1.5" k3=".6" in="result5"/></filter><radialGradient xlink:href="#k" id="R" cx="172.614" cy="303.206" fx="172.614" fy="303.206" r="22.63" gradientTransform="matrix(1,0,0,0.63328545,0,119.49923)" gradientUnits="userSpaceOnUse"/><linearGradient id="k"><stop offset="0" stop-color="#999"/><stop offset="1" stop-color="#999" stop-opacity="0"/></linearGradient><radialGradient xlink:href="#l" id="S" cx="335.086" cy="219.037" fx="335.086" fy="219.037" r="29.875" gradientTransform="matrix(0.54659184,-0.27740671,0.6404924,1.2620022,11.607646,18.444794)" gradientUnits="userSpaceOnUse"/><linearGradient id="l"><stop offset="0" stop-color="#969696"/><stop offset="1" stop-color="#e6e6e6" stop-opacity="0"/></linearGradient><radialGradient r="29.875" fy="217.583" fx="333.528" cy="217.583" cx="333.528" gradientTransform="matrix(-0.90592799,-0.3616515,-0.75242512,1.8848062,539.5484,-99.256869)" gradientUnits="userSpaceOnUse" xlink:href="#m"/><linearGradient id="m"><stop offset="0" stop-color="#afafaf"/><stop offset="1" stop-color="#e6e6e6" stop-opacity="0"/></linearGradient><radialGradient r="38.625" fy="25.979" fx="250.46" cy="25.979" cx="250.46" gradientTransform="matrix(-1.1864466,0.79500993,0.21180507,0.31609089,435.38812,-174.97097)" gradientUnits="userSpaceOnUse" id="Q" xlink:href="#n"/><linearGradient id="n"><stop offset="0" stop-color="#afafaf"/><stop offset="1" stop-color="#e6e6e6" stop-opacity="0"/></linearGradient><radialGradient xlink:href="#o" cx="260.749" cy="27.422" fx="260.749" fy="27.422" r="38.625" gradientTransform="matrix(1.2025669,0.44564719,-0.20888604,0.56367331,-42.783663,-93.388266)" gradientUnits="userSpaceOnUse"/><linearGradient id="o"><stop offset="0" stop-color="#afafaf"/><stop offset="1" stop-color="#e6e6e6" stop-opacity="0"/></linearGradient><radialGradient xlink:href="#p" cx="458.028" cy="230.123" fx="458.028" fy="230.123" r="103.516" gradientTransform="matrix(0.39746772,-0.01013694,0.00845518,0.33152627,13.513117,52.832542)" gradientUnits="userSpaceOnUse"/><linearGradient id="p"><stop offset="0" stop-color="#bebebe"/><stop offset="1" stop-color="#b3b3b3" stop-opacity="0"/></linearGradient><radialGradient r="103.516" fy="230.123" fx="458.028" cy="230.123" cx="458.028" gradientTransform="matrix(0.41734111,-0.01064379,0.00887794,0.34810258,9.439031,55.321448)" gradientUnits="userSpaceOnUse" id="P" xlink:href="#p"/><filter color-interpolation-filters="sRGB"><feGaussianBlur stdDeviation="3"/><feColorMatrix result="fbSourceGraphic" values="1 0 0 0 0 0 1 0 0 0 0 0 1 0 0 0 0 0 6 -2.5"/></filter><filter color-interpolation-filters="sRGB"><feGaussianBlur stdDeviation="3"/><feColorMatrix result="fbSourceGraphic" values="1 0 0 0 0 0 1 0 0 0 0 0 1 0 0 0 0 0 6 -2.5"/></filter><filter color-interpolation-filters="sRGB"><feGaussianBlur stdDeviation="3"/><feColorMatrix result="fbSourceGraphic" values="1 0 0 0 0 0 1 0 0 0 0 0 1 0 0 0 0 0 6 -2.5"/></filter><filter color-interpolation-filters="sRGB"><feGaussianBlur stdDeviation="3"/><feColorMatrix result="fbSourceGraphic" values="1 0 0 0 0 0 1 0 0 0 0 0 1 0 0 0 0 0 6 -2.5"/></filter><filter color-interpolation-filters="sRGB"><feGaussianBlur result="result6" stdDeviation="3" in="SourceGraphic"/><feColorMatrix values="1 0 0 0 0 0 1 0 0 0 0 0 1 0 0 0 0 0 1 0" result="result7" in="SourceGraphic"/><feComposite in2="result7" operator="atop" in="result7" result="result8"/><feComposite operator="in" in="result6" in2="result8"/></filter><filter color-interpolation-filters="sRGB"><feGaussianBlur result="result6" stdDeviation="3" in="SourceGraphic"/><feColorMatrix values="1 0 0 0 0 0 1 0 0 0 0 0 1 0 0 0 0 0 1 0" result="result7" in="SourceGraphic"/><feComposite in2="result7" operator="atop" in="result7" result="result8"/><feComposite operator="in" in="result6" in2="result8"/></filter><radialGradient r="38.625" fy="25.979" fx="250.46" cy="25.979" cx="250.46" gradientTransform="matrix(-1.1299491,0.75715231,0.20171911,0.30103894,420.80965,-169.23193)" gradientUnits="userSpaceOnUse" xlink:href="#q"/><linearGradient id="q"><stop offset="0" stop-color="#afafaf"/><stop offset="1" stop-color="#e6e6e6" stop-opacity="0"/></linearGradient><radialGradient r="38.625" fy="25.979" fx="250.46" cy="25.979" cx="250.46" gradientTransform="matrix(1.1864466,0.79500993,-0.21180507,0.31609089,-32.887133,-175.8174)" gradientUnits="userSpaceOnUse" id="T" xlink:href="#q"/><radialGradient xlink:href="#r" cx="335.086" cy="219.037" fx="335.086" fy="219.037" r="29.875" gradientTransform="matrix(0.52056366,-0.26419687,0.60999276,1.2019069,16.15539,17.081182)" gradientUnits="userSpaceOnUse"/><linearGradient id="r"><stop offset="0" stop-color="#969696"/><stop offset="1" stop-color="#e6e6e6" stop-opacity="0"/></linearGradient><radialGradient r="29.875" fy="219.037" fx="335.086" cy="219.037" cx="335.086" gradientTransform="matrix(-0.54659184,-0.27740671,-0.6404924,1.2620022,394.97125,17.340932)" gradientUnits="userSpaceOnUse" id="U" xlink:href="#r"/><filter color-interpolation-filters="sRGB"><feGaussianBlur result="result6" stdDeviation="3" in="SourceGraphic"/><feColorMatrix values="1 0 0 0 0 0 1 0 0 0 0 0 1 0 0 0 0 0 1 0" result="result7" in="SourceGraphic"/><feComposite in2="result7" operator="atop" in="result7" result="result8"/><feComposite operator="in" in="result6" in2="result8"/></filter><filter color-interpolation-filters="sRGB"><feGaussianBlur result="result0" in="SourceGraphic" stdDeviation=".5"/><feComposite in2="result0" in="result0" result="result2" operator="arithmetic" k1=".5" k2=".3" k3=".3"/><feColorMatrix values="1 0 0 -1 0 1 0 1 -1 0 1 0 0 -1 0 -0.8 -1 0 4.4 -2.9" in="result2" result="fbSourceGraphicAlpha"/><feGaussianBlur stdDeviation=".7" in="fbSourceGraphicAlpha" result="result0"/><feSpecularLighting in="result0" result="result1" lighting-color="#fff" surfaceScale="8" specularExponent="15"><feDistantLight elevation="50" azimuth="235"/></feSpecularLighting><feBlend in="result2" in2="result1" result="result5" mode="screen"/><feComposite in2="SourceGraphic" result="result4" operator="in" k2="1.5" k3=".6" in="result5"/></filter><linearGradient xlink:href="#s" x1="233.125" y1="217.677" x2="264.594" y2="217.677" gradientUnits="userSpaceOnUse" gradientTransform="translate(253.44937,21.483607)"/><linearGradient xlink:href="#s" x1="196.5" y1="217.677" x2="227.563" y2="217.677" gradientUnits="userSpaceOnUse" gradientTransform="translate(253.44937,21.483607)"/><linearGradient xlink:href="#s" x1="152.625" y1="217.677" x2="189.844" y2="217.677" gradientUnits="userSpaceOnUse" gradientTransform="translate(253.44937,21.483607)"/><filter color-interpolation-filters="sRGB"><feGaussianBlur stdDeviation="3"/><feColorMatrix result="fbSourceGraphic" values="1 0 0 0 0 0 1 0 0 0 0 0 1 0 0 0 0 0 6 -2.5"/></filter><filter color-interpolation-filters="sRGB"><feGaussianBlur stdDeviation="3"/><feColorMatrix result="fbSourceGraphic" values="1 0 0 0 0 0 1 0 0 0 0 0 1 0 0 0 0 0 6 -2.5"/></filter><filter color-interpolation-filters="sRGB"><feGaussianBlur result="result0" in="SourceGraphic" stdDeviation=".5"/><feComposite in2="result0" in="result0" result="result2" operator="arithmetic" k1=".5" k2=".3" k3=".3"/><feColorMatrix values="1 0 0 -1 0 1 0 1 -1 0 1 0 0 -1 0 -0.8 -1 0 4.4 -2.9" in="result2" result="fbSourceGraphicAlpha"/><feGaussianBlur stdDeviation=".7" in="fbSourceGraphicAlpha" result="result0"/><feSpecularLighting in="result0" result="result1" lighting-color="#fff" surfaceScale="8" specularExponent="15"><feDistantLight elevation="50" azimuth="235"/></feSpecularLighting><feBlend in="result2" in2="result1" result="result5" mode="screen"/><feComposite in2="SourceGraphic" result="result4" operator="in" k2="1.5" k3=".6" in="result5"/></filter><filter color-interpolation-filters="sRGB"><feGaussianBlur result="result6" stdDeviation="3" in="SourceGraphic"/><feColorMatrix values="1 0 0 0 0 0 1 0 0 0 0 0 1 0 0 0 0 0 1 0" result="result7" in="SourceGraphic"/><feComposite in2="result7" operator="atop" in="result7" result="result8"/><feComposite operator="in" in="result6" in2="result8"/></filter><filter width="1.5" height="1.5" x="-.25" y="-.25"><feGaussianBlur in="SourceAlpha" stdDeviation="1,000000" result="blur"/><feColorMatrix result="bluralpha" values="1 0 0 0 0 0 1 0 0 0 0 0 1 0 0 0 0 0 0,500000 0"/><feOffset in="bluralpha" dx="2,000000" dy="2,000000" result="offsetBlur"/><feMerge><feMergeNode in="offsetBlur"/><feMergeNode in="SourceGraphic"/></feMerge></filter><radialGradient xlink:href="#t" cx="206.644" cy="214.435" fx="206.644" fy="214.435" r="179.481" gradientTransform="matrix(1.1773155,-0.62314413,0.6529458,1.1665457,-176.65537,93.055648)" gradientUnits="userSpaceOnUse"/><linearGradient id="t"><stop offset="0" stop-color="#fff"/><stop offset="1" stop-color="#fff" stop-opacity="0"/></linearGradient><radialGradient xlink:href="#u" cx="206.644" cy="214.435" fx="206.644" fy="214.435" r="179.481" gradientTransform="matrix(1.1773155,-0.62314413,0.6529458,1.1665457,-176.65537,93.055648)" gradientUnits="userSpaceOnUse"/><linearGradient id="u"><stop offset="0" stop-color="#fff"/><stop offset="1" stop-color="#fff" stop-opacity="0"/></linearGradient><radialGradient r="179.481" fy="214.435" fx="206.644" cy="214.435" cx="206.644" gradientTransform="matrix(1.1773155,-0.62314413,0.6529458,1.1665457,-176.65537,93.055648)" gradientUnits="userSpaceOnUse" xlink:href="#v"/><linearGradient id="v"><stop offset="0" stop-color="#fff"/><stop offset="1" stop-color="#fff" stop-opacity="0"/></linearGradient><radialGradient r="179.481" fy="214.435" fx="206.644" cy="214.435" cx="206.644" gradientTransform="matrix(1.1773155,-0.62314413,0.6529458,1.1665457,-176.65537,93.055648)" gradientUnits="userSpaceOnUse" xlink:href="#w"/><linearGradient id="w"><stop offset="0" stop-color="#fff"/><stop offset="1" stop-color="#fff" stop-opacity="0"/></linearGradient><radialGradient r="179.481" fy="214.435" fx="206.644" cy="214.435" cx="206.644" gradientTransform="matrix(1.1773155,-0.62314413,0.6529458,1.1665457,-176.65537,93.055648)" gradientUnits="userSpaceOnUse" xlink:href="#x"/><linearGradient id="x"><stop offset="0" stop-color="#fff"/><stop offset="1" stop-color="#fff" stop-opacity="0"/></linearGradient><radialGradient r="179.481" fy="214.435" fx="206.644" cy="214.435" cx="206.644" gradientTransform="matrix(0.724346,-0.38065173,0.33538303,0.60350321,-14.955578,163.68195)" gradientUnits="userSpaceOnUse" xlink:href="#y"/><linearGradient id="y"><stop offset="0" stop-color="#fff"/><stop offset="1" stop-color="#fff" stop-opacity="0"/></linearGradient><radialGradient xlink:href="#z" cx="206.644" cy="214.435" fx="206.644" fy="214.435" r="178.981" gradientTransform="matrix(1.705768,-1.4102775e-8,1.4756808e-8,1.6878279,-145.84255,-147.49416)" gradientUnits="userSpaceOnUse"/><linearGradient id="z"><stop offset="0" stop-color="#fff"/><stop offset="1" stop-color="#fff" stop-opacity="0"/></linearGradient><radialGradient xlink:href="#A" cx="206.644" cy="214.435" fx="206.644" fy="214.435" r="178.981" gradientTransform="matrix(2.0291647,0,0,1.8112503,-212.67045,-173.96022)" gradientUnits="userSpaceOnUse"/><linearGradient id="A"><stop offset="0" stop-color="#fff"/><stop offset="1" stop-color="#fff" stop-opacity="0"/></linearGradient><radialGradient xlink:href="#B" cx="206.644" cy="214.435" fx="206.644" fy="214.435" r="178.981" gradientTransform="matrix(2.2489816,-4.4844011e-8,2.970474e-8,1.4087294,-258.09425,-87.645761)" gradientUnits="userSpaceOnUse"/><linearGradient id="B"><stop offset="0" stop-color="#fff"/><stop offset="1" stop-color="#fff" stop-opacity="0"/></linearGradient><radialGradient xlink:href="#C" cx="206.644" cy="214.435" fx="206.644" fy="214.435" r="178.981" gradientTransform="matrix(2.6714439,-2.2664943e-7,1.7043002e-7,1.899581,-345.39346,-192.90132)" gradientUnits="userSpaceOnUse"/><linearGradient id="C"><stop offset="0" stop-color="#4d4d4d"/><stop offset="1" stop-color="#4d4d4d" stop-opacity="0"/></linearGradient><radialGradient xlink:href="#D" cx="206.644" cy="214.435" fx="206.644" fy="214.435" r="180.897" gradientTransform="matrix(1,0,0,0.97272594,0,5.8485051)" gradientUnits="userSpaceOnUse"/><linearGradient id="D"><stop offset="0" stop-color="#fff"/><stop offset="1" stop-color="#fff" stop-opacity="0"/></linearGradient><radialGradient r="180.897" fy="214.435" fx="206.644" cy="214.435" cx="206.644" gradientTransform="matrix(1,0,0,0.97272594,0,5.8485051)" gradientUnits="userSpaceOnUse" xlink:href="#E"/><linearGradient id="E"><stop offset="0" stop-color="#fff"/><stop offset="1" stop-color="#fff" stop-opacity="0"/></linearGradient><radialGradient xlink:href="#F" cx="206.644" cy="214.435" fx="206.644" fy="214.435" r="194.023" gradientTransform="matrix(2.3430407,3.8828181e-8,-4.2128848e-8,2.4040002,-277.53097,-301.06636)" gradientUnits="userSpaceOnUse"/><linearGradient id="F"><stop offset="0" stop-color="#fff"/><stop offset="1" stop-color="#fff"/></linearGradient><filter width="1.5" height="1.5" x="-.25" y="-.25" color-interpolation-filters="sRGB"><feGaussianBlur in="SourceAlpha" stdDeviation="2,000000" result="blur"/><feColorMatrix result="bluralpha" values="1 0 0 0 0 0 1 0 0 0 0 0 1 0 0 0 0 0 0,650000 0"/><feOffset in="bluralpha" dx="4,000000" dy="4,000000" result="offsetBlur"/><feMerge result="fbSourceGraphic"><feMergeNode in="offsetBlur"/><feMergeNode in="SourceGraphic"/></feMerge><feColorMatrix result="fbSourceGraphicAlpha" in="fbSourceGraphic" values="0 0 0 -1 0 0 0 0 -1 0 0 0 0 -1 0 0 0 0 1 0"/><feGaussianBlur stdDeviation="3" in="fbSourceGraphic"/><feColorMatrix result="fbSourceGraphic" values="1 0 0 0 0 0 1 0 0 0 0 0 1 0 0 0 0 0 6 -2.5"/></filter><radialGradient xlink:href="#G" cx="206.644" cy="214.435" fx="206.644" fy="214.435" r="183.431" gradientTransform="matrix(1,0,0,0.97379026,0,5.6202766)" gradientUnits="userSpaceOnUse"/><radialGradient xlink:href="#H" cx="206.644" cy="214.435" fx="206.644" fy="214.435" r="183.431" gradientTransform="matrix(1,0,0,0.97379026,0,5.6202766)" gradientUnits="userSpaceOnUse"/><linearGradient id="H"><stop offset="0"/><stop offset="1" stop-opacity="0"/></linearGradient><radialGradient xlink:href="#I" id="M" cx="171.234" cy="217.677" fx="171.234" fy="217.677" r="19.572" gradientTransform="matrix(1,0,0,1.278095,0,-60.535026)" gradientUnits="userSpaceOnUse"/><radialGradient xlink:href="#I" id="N" cx="212.031" cy="217.677" fx="212.031" fy="217.677" r="16.494" gradientTransform="matrix(1,0,0,1.5166132,0,-112.45505)" gradientUnits="userSpaceOnUse"/><radialGradient xlink:href="#I" id="O" cx="248.859" cy="217.677" fx="248.859" fy="217.677" r="16.697" gradientTransform="matrix(1,0,0,1.4981632,0,-108.43892)" gradientUnits="userSpaceOnUse"/><radialGradient xlink:href="#J" id="K" cx="206.644" cy="214.435" fx="206.644" fy="214.435" r="190.25" gradientTransform="matrix(0.97267227,0.01617535,-0.01665626,0.97473856,9.2187856,2.0743911)" gradientUnits="userSpaceOnUse"/></defs><g><path d="m 385.62498,214.43469 c 0,96.12374 -80.13262,174.04743 -178.98123,174.04743 c -98.8486,0 -178.981229,-77.92369 -178.981229,-174.04743 c 0,-96.12374 80.132629,-174.047422 178.981229,-174.047422 c 98.84861,0 178.98123,77.923682 178.98123,174.047422 z" transform="translate(0,-652.36218) matrix(1.0811038,0,0,1.1043488,-22.437604,617.97608)" fill="#1a1a1a" stroke="#000" stroke-width="4.576" stroke-linejoin="round"/><path d="m 385.62498,214.43469 c 0,96.12374 -80.13262,174.04743 -178.98123,174.04743 c -98.8486,0 -178.981229,-77.92369 -178.981229,-174.04743 c 0,-96.12374 80.132629,-174.047422 178.981229,-174.047422 c 98.84861,0 178.98123,77.923682 178.98123,174.047422 z" transform="translate(0,-652.36218) matrix(1.0422741,0,0,1.0695007,-13.735541,622.74462)" opacity=".9" fill="#fff"/><path d="m 385.62498,214.43469 c 0,96.12374 -80.13262,174.04743 -178.98123,174.04743 c -98.8486,0 -178.981229,-77.92369 -178.981229,-174.04743 c 0,-96.12374 80.132629,-174.047422 178.981229,-174.047422 c 98.84861,0 178.98123,77.923682 178.98123,174.047422 z" transform="translate(0,-652.36218) matrix(1.0641261,0,0,1.0786838,-20.794262,620.64438)" fill="#fff" stroke="#333" stroke-width="1.413" stroke-linejoin="round"/><path d="m 385.62498,214.43469 c 0,96.12374 -80.13262,174.04743 -178.98123,174.04743 c -98.8486,0 -178.981229,-77.92369 -178.981229,-174.04743 c 0,-96.12374 80.132629,-174.047422 178.981229,-174.047422 c 98.84861,0 178.98123,77.923682 178.98123,174.047422 z" transform="translate(0,-652.36218) matrix(1.0856629,0,0,1.109006,-24.345467,616.20735)" stroke="#000" stroke-width="1.83" stroke-linejoin="round" fill="none"/></g><path d="m 385.62498,214.43469 a 178.98123,174.04742 0 1 1 -357.962459,0 178.98123,174.04742 0 1 1 357.962459,0 z" transform="matrix(1.0764906,0,0,1.1009349,-20.513668,-34.695518)" opacity=".75" fill="url(#K)"/><g fill-rule="evenodd"><path d="m 152.40625,31.610002 c -24.65159,-0.615413 -49.62289,15.704618 -55.852503,40.126444 -1.451111,5.920437 -2.042948,11.533344 -2.147497,17.25104 0,21.207504 0,42.415014 0,63.622514 8.33333,0 16.66667,0 25,0 0.0881,-22.3821 -0.12668,-44.64411 0.1701,-67.071988 0.76858,-14.243077 11.77335,-29.258147 27.0486,-29.08431 0.11203,22.668722 -0.22918,45.351398 0.18004,68.010988 1.30284,18.42605 18.76217,33.67641 37.24339,32.11401 11.54558,-0.2802 23.17762,0.67313 34.64753,-0.72475 17.46577,-3.27442 29.55308,-21.06252 27.92904,-38.4493 0,-20.285732 0,-40.571465 0,-60.857198 15.88808,-1.160259 27.93757,14.263321 28.64235,29.08431 0.29501,22.427208 0.0825,44.692338 0.1701,67.071988 8.33333,0 16.66667,0 25,0 0,-22.5 0,-45 0,-67.499998 -0.81797,-7.276075 -1.9718,-16.180186 -5.9149,-23.198476 -10.22889,-20.751216 -34.15317,-31.947919 -56.71743,-30.261229 -6.591,-0.83713 -13.68143,3.619737 -15.48689,9.866559 0.10876,26.738504 0.18577,53.486212 -0.015,80.219854 -0.75343,11.19988 -11.79041,19.76398 -22.80523,18.34204 -7.79212,0.33854 -16.59364,0.0136 -21.90827,-6.68171 -7.16232,-7.57045 -4.76318,-18.40537 -5.18362,-27.81167 0.0193,-21.718966 -0.0713,-43.418377 0.1249,-65.100368 -3.25934,-6.591257 -10.50309,-9.993605 -17.67905,-8.911927 l -1.18772,-0.01641 -1.25823,-0.04042 2.5e-4,0 z" transform="matrix(1.05,0,0,1.05,-5.3555131,0.50955272)" stroke="#fff"/><path d="m 107.26989,156.26167 0,177.84375 c -35.128105,-3.85349 -62.737498,-42.18816 -62.737498,-88.92187 0,-46.73372 27.609393,-85.06839 62.737498,-88.92188 z" opacity=".967" fill="url(#L)"/></g><g fill-rule="evenodd" stroke="#fff"><path d="m 290.42422,313.15625 c -0.69916,-0.007 -3.31052,-0.57507 -3.94043,-0.16697 0,0 -1.03559,3.01675 -4.60424,5.67254 -3.13272,2.33137 -6.10765,4.56617 -9.29463,6.66254 -2.86157,1.88231 -5.93275,3.91773 -8.80984,5.30245 -2.26396,1.08961 -4.11397,1.24819 -4.11397,1.24819 l -32.21955,0 c -2.01273,0 -3.66178,1.58716 -3.66178,3.5625 l 0,0.875 c 0,1.97534 1.64905,3.59375 3.66178,3.59375 l 33.87945,0 c 0.77968,0 3.59712,-0.82022 5.27249,-1.55528 4.17684,-1.83257 6.89898,-4.16602 11.7099,-7.02744 5.11436,-3.27118 14.57263,-10.88603 14.57263,-10.88603 1.67973,-1.08826 2.12779,-3.28897 1.01893,-4.9375 l -0.47763,-0.75 c -0.69304,-1.03033 -1.82785,-1.58241 -2.99311,-1.59375 z" transform="matrix(1.05,0,0,1.05,-5.3555131,0.50955272)"/><path d="m 288.25,148.4375 0,169.375 C 321.70534,314.14251 348,277.6333 348,233.125 c 0,-44.5083 -26.29466,-81.01751 -59.75,-84.6875 z" transform="matrix(1.05,0,0,1.05,-5.3555131,0.50955272)" opacity=".967"/><path d="m 106.22355,149.3374 0,169.375 c -33.455343,-3.66999 -59.750003,-40.1792 -59.750003,-84.6875 0,-44.5083 26.29466,-81.01751 59.750003,-84.6875 z" transform="matrix(1.05,0,0,1.05,-5.3555131,0.50955272)" opacity=".967"/><path d="m 194.74412,325.86444 a 22.130014,13.831259 0 1 1 -44.26003,0 22.130014,13.831259 0 1 1 44.26003,0 z" transform="matrix(1.304789,0,0,1.21464,-20.460693,-43.799678)" opacity=".967"/><rect width="13.329" height="171.946" x="274.718" y="146.09" rx="3.888" ry="3.54" transform="matrix(1.0433338,0,0,1.0500168,-4.6562937,0.09487302)" opacity=".967" stroke-width="1.054"/><rect width="13.063" height="171.957" x="106.561" y="147.085" rx="3.81" ry="3.54" transform="matrix(1.0433338,0,0,1.0500168,-3.8347589,0.09487302)" opacity=".967" stroke-width="1.043"/></g><g><rect width="140.835" height="111.885" x="131.636" y="188.831" fill-rule="evenodd"/><path style="text-align:center;-inkscape-font-specification:Tahoma Bold" d="m 189.84375,226.6931 c -4e-5,2.31252 -0.43754,4.34376 -1.3125,6.09375 c -0.87504,1.75001 -2.05212,3.19793 -3.53125,4.34375 c -1.75004,1.37501 -3.67191,2.35417 -5.76563,2.9375 c -2.09377,0.58334 -4.75523,0.875 -7.98437,0.875 l -18.625,0 l 0,-46.53125 l 16.4375,0 c 3.41664,5e-5 6.00518,0.13026 7.76562,0.39063 c 1.76039,0.26046 3.41143,0.80734 4.95313,1.64062 c 1.66663,0.89588 2.91142,2.0938 3.73437,3.59375 c 0.82288,1.50004 1.23434,3.22921 1.23438,5.1875 c -4e-5,2.27087 -0.56775,4.2917 -1.70313,6.0625 c -1.13545,1.77087 -2.70315,3.07295 -4.70312,3.90625 l 0,0.25 c 2.87496,0.6042 5.17705,1.83857 6.90625,3.70313 c 1.72913,1.8646 2.59371,4.38023 2.59375,7.54687 z M 174.875,207.5681 c -3e-5,-0.74996 -0.19274,-1.52079 -0.57813,-2.3125 c -0.38544,-0.79163 -0.9844,-1.36454 -1.79687,-1.71875 c -0.77086,-0.33329 -1.68231,-0.51558 -2.73438,-0.54687 c -1.0521,-0.0312 -2.61981,-0.0468 -4.70312,-0.0469 l -0.8125,0 l 0,9.84375 l 1.46875,0 c 1.99998,3e-5 3.40102,-0.0208 4.20312,-0.0625 c 0.80207,-0.0416 1.63019,-0.26038 2.48438,-0.65625 c 0.93747,-0.43747 1.58331,-1.04163 1.9375,-1.8125 c 0.35414,-0.7708 0.53122,-1.66663 0.53125,-2.6875 z m 2.9375,18.90625 c -3e-5,-1.43748 -0.2917,-2.56248 -0.875,-3.375 c -0.58336,-0.81248 -1.45836,-1.42706 -2.625,-1.84375 c -0.70836,-0.27081 -1.68232,-0.42185 -2.92188,-0.45312 c -1.2396,-0.0312 -2.90106,-0.0469 -4.98437,-0.0469 l -2.15625,0 l 0,11.65625 l 0.625,0 c 3.04165,1e-5 5.14581,-0.0208 6.3125,-0.0625 c 1.16664,-0.0416 2.35414,-0.3229 3.5625,-0.84375 c 1.06247,-0.45832 1.83851,-1.13019 2.32812,-2.01562 c 0.48956,-0.88541 0.73435,-1.89061 0.73438,-3.01563 z" transform="matrix(1.100722,0,0,2.0000717,-23.811797,-190.28066)" font-size="64" font-weight="bold" text-anchor="middle" fill="url(#M)" font-family="Tahoma"/><path style="text-align:center;-inkscape-font-specification:Tahoma Bold" d="m 189.84375,226.6931 c -4e-5,2.31252 -0.43754,4.34376 -1.3125,6.09375 c -0.87504,1.75001 -2.05212,3.19793 -3.53125,4.34375 c -1.75004,1.37501 -3.67191,2.35417 -5.76563,2.9375 c -2.09377,0.58334 -4.75523,0.875 -7.98437,0.875 l -18.625,0 l 0,-46.53125 l 16.4375,0 c 3.41664,5e-5 6.00518,0.13026 7.76562,0.39063 c 1.76039,0.26046 3.41143,0.80734 4.95313,1.64062 c 1.66663,0.89588 2.91142,2.0938 3.73437,3.59375 c 0.82288,1.50004 1.23434,3.22921 1.23438,5.1875 c -4e-5,2.27087 -0.56775,4.2917 -1.70313,6.0625 c -1.13545,1.77087 -2.70315,3.07295 -4.70312,3.90625 l 0,0.25 c 2.87496,0.6042 5.17705,1.83857 6.90625,3.70313 c 1.72913,1.8646 2.59371,4.38023 2.59375,7.54687 z M 174.875,207.5681 c -3e-5,-0.74996 -0.19274,-1.52079 -0.57813,-2.3125 c -0.38544,-0.79163 -0.9844,-1.36454 -1.79687,-1.71875 c -0.77086,-0.33329 -1.68231,-0.51558 -2.73438,-0.54687 c -1.0521,-0.0312 -2.61981,-0.0468 -4.70312,-0.0469 l -0.8125,0 l 0,9.84375 l 1.46875,0 c 1.99998,3e-5 3.40102,-0.0208 4.20312,-0.0625 c 0.80207,-0.0416 1.63019,-0.26038 2.48438,-0.65625 c 0.93747,-0.43747 1.58331,-1.04163 1.9375,-1.8125 c 0.35414,-0.7708 0.53122,-1.66663 0.53125,-2.6875 z m 2.9375,18.90625 c -3e-5,-1.43748 -0.2917,-2.56248 -0.875,-3.375 c -0.58336,-0.81248 -1.45836,-1.42706 -2.625,-1.84375 c -0.70836,-0.27081 -1.68232,-0.42185 -2.92188,-0.45312 c -1.2396,-0.0312 -2.90106,-0.0469 -4.98437,-0.0469 l -2.15625,0 l 0,11.65625 l 0.625,0 c 3.04165,1e-5 5.14581,-0.0208 6.3125,-0.0625 c 1.16664,-0.0416 2.35414,-0.3229 3.5625,-0.84375 c 1.06247,-0.45832 1.83851,-1.13019 2.32812,-2.01562 c 0.48956,-0.88541 0.73435,-1.89061 0.73438,-3.01563 z" transform="matrix(1.100722,0,0,2.0000717,-28.290859,-190.59736)" font-size="64" font-weight="bold" text-anchor="middle" fill="#fff" font-family="Tahoma"/><path style="text-align:center;-inkscape-font-specification:Tahoma Bold" d="m 227.5625,240.9431 l -31.0625,0 l 0,-46.53125 l 11.6875,0 l 0,37.65625 l 19.375,0 z" transform="matrix(1.100722,0,0,2.0000717,-23.811797,-190.28066)" font-size="64" font-weight="bold" text-anchor="middle" fill="url(#N)" font-family="Tahoma"/><path d="m 187.3125,197.5625 l 0,94.53125 l 14.125,0 l 0.0625,0 l 21.375,0 l 0,-19.25 l -21.375,0 l 0,-75.28125 l -14.1875,0 z" fill="#fff"/><path style="text-align:center;-inkscape-font-specification:Tahoma Bold" d="m 233.125,240.9431 l 0,-46.53125 l 31.46875,0 l 0,8.875 l -19.84375,0 l 0,8.15625 l 18.28125,0 l 0,8.875 l -18.28125,0 l 0,11.75 l 19.84375,0 l 0,8.875 z" transform="matrix(1.100722,0,0,2.0000717,-23.811797,-190.28066)" font-size="64" font-weight="bold" text-anchor="middle" fill="url(#O)" font-family="Tahoma"/><path d="m 227.8125,197.5 l 0,94.53125 l 14.1875,0 l 21.375,0 l 0,-19.25 l -21.375,0 L 242,250.5 l 19.65625,0 l 0,-18.65625 l -19.65625,0 L 242,216.75 l 21.375,0 l 0,-19.25 l -21.375,0 l -0.0625,0 l -14.125,0 z" fill="#fff"/></g><g fill-rule="evenodd"><path d="m 155.36979,33.010124 c -25.88417,-0.646184 -52.10402,16.489853 -58.645119,42.132764 -1.523665,6.216465 -2.145097,12.11002 -2.254875,18.113595 0,22.267867 0,44.535757 0,66.803627 8.750004,0 17.499994,0 26.249994,0 0.0925,-23.5012 -0.13301,-46.87631 0.17861,-70.425571 0.807,-14.955237 12.36201,-30.72106 28.40103,-30.538528 0.11763,23.802159 -0.24064,47.618949 0.18905,71.411529 1.36798,19.34735 19.70027,35.36023 39.10555,33.71971 12.12286,-0.29421 24.3365,0.70678 36.37991,-0.76099 18.33906,-3.43814 31.03074,-22.11565 29.32549,-40.37177 0,-21.30001 0,-42.600022 0,-63.900042 16.68248,-1.218273 29.33444,14.976486 30.07447,30.538529 0.30976,23.548553 0.0866,46.926943 0.17861,70.425573 8.74998,0 17.5,0 26.25,0 0,-23.625 0,-47.25 0,-70.874984 -0.85887,-7.639884 -2.07039,-16.989202 -6.21065,-24.358407 -10.74033,-21.788774 -35.86083,-33.545313 -59.5533,-31.774288 -6.92055,-0.878987 -14.3655,3.800724 -16.26123,10.359887 0.1142,28.075433 0.19506,56.160521 -0.0157,84.230832 -0.7911,11.75988 -12.37993,20.75218 -23.94549,19.25915 -8.18173,0.35546 -17.42333,0.0143 -23.00369,-7.0158 -7.52043,-7.94897 -5.00134,-19.32564 -5.4428,-29.20225 0.0203,-22.804904 -0.0749,-45.589287 0.13115,-68.355379 -3.42231,-6.92082 -11.02825,-10.493285 -18.56301,-9.357523 l -1.2471,-0.01723 -1.32114,-0.04244 2.6e-4,0 z" fill="url(#P)"/><path d="m 154.53194,34.268657 c -31.65505,0 -56.16894,21.233495 -59.981238,48.759372 l 26.971868,0 c 3.64479,-12.426072 13.11379,-21.517343 24.51094,-22.574997 0.74035,-0.69976 1.77197,-1.148438 2.92031,-1.148438 l 26.61094,0 0.0984,-15.61875 c 0,0 -2.37838,-3.725289 -4.29844,-5.479687 -2.17544,-1.987733 -5.11175,-3.428347 -8.00625,-3.740625 -2.4252,-0.261648 -5.19957,-0.04115 -8.82656,-0.196875 z" fill="url(#Q)"/><path d="m 194.74412,325.86444 a 22.130014,13.831259 0 1 1 -44.26003,0 22.130014,13.831259 0 1 1 44.26003,0 z" transform="matrix(1.304789,0,0,1.21464,-20.43351,-43.907478)" opacity=".967" fill="url(#R)"/><path d="m 298.65695,157.25586 0,177.84375 c 35.12811,-3.85349 62.7375,-42.18816 62.7375,-88.92188 0,-46.73371 -27.60939,-85.06838 -62.7375,-88.92187 z" opacity=".967" fill="url(#S)"/><path d="m 247.96904,33.42223 c 31.65505,0 56.16894,21.233495 59.98124,48.759372 l -26.97187,0 C 277.33362,69.75553 267.86462,60.664259 256.46748,59.606605 c -0.74036,-0.69976 -1.77197,-1.148438 -2.92032,-1.148438 l -26.61093,0 -0.0984,-15.61875 c 0,0 2.37838,-3.725289 4.29844,-5.479687 2.17544,-1.987733 5.11176,-3.428347 8.00625,-3.740625 2.4252,-0.261648 5.19957,-0.04115 8.82656,-0.196875 z" fill="url(#T)"/><path d="m 107.92195,156.152 0,177.84375 c -35.128104,-3.85349 -62.737497,-42.18816 -62.737497,-88.92187 0,-46.73372 27.609393,-85.06839 62.737497,-88.92188 z" opacity=".967" fill="url(#U)"/></g></svg>