<svg xmlns="http://www.w3.org/2000/svg" version="1" width="300" height="300" viewBox="0 0 297.59815 567.18777"><defs id="defs4"><style type="text/css" id="style6"/></defs><g id="g3001" fill="#00546b"><path d="M386.543 435.127c-30.718-.766-54.526 2.308-74.493 10.753-5.76 2.303-14.976 2.305-15.745 9.599 3.074 3.074 3.457 8.065 6.145 12.288 4.611 7.677 12.671 18.048 19.968 23.424 8.063 6.143 16.128 12.285 24.573 17.662 14.976 9.216 31.872 14.591 46.463 23.807 8.45 5.372 16.894 12.288 25.342 18.048 4.225 3.069 6.911 8.063 12.288 9.982v-1.151c-2.688-3.457-3.457-8.448-6.143-12.288-3.837-3.84-7.68-7.297-11.519-11.136-11.136-14.974-24.959-28.03-39.935-38.781-12.285-8.448-39.166-19.967-44.158-34.175l-.768-.766c8.448-.768 18.431-3.84 26.496-6.145 13.056-3.457 24.959-2.688 38.398-6.143 6.143-1.537 12.288-3.457 18.431-5.377v-3.454c-6.909-6.914-11.902-16.128-19.199-22.656-19.582-16.898-41.086-33.407-63.357-47.229-11.905-7.68-27.264-12.673-39.935-19.199-4.606-2.308-12.288-3.457-14.974-7.297-6.914-8.448-10.753-19.582-15.745-29.567-11.132-21.121-21.887-44.541-31.487-66.811-6.909-14.976-11.134-29.952-19.582-43.775-39.549-65.277-82.556-104.826-148.601-143.609-14.208-8.063-31.101-11.519-49.149-15.742-9.597-.385-19.199-1.151-28.799-1.537-6.143-2.688-12.288-9.982-17.665-13.439-21.882-13.825-78.33-43.772-94.458-4.223-10.368 24.959 15.359 49.532 24.19 62.205 6.531 8.831 14.976 18.814 19.584 28.799 2.688 6.523 3.454 13.439 6.143 20.35 6.145 16.891 11.902 35.71 19.967 51.454 4.225 8.063 8.831 16.511 14.208 23.805 3.071 4.223 8.446 6.145 9.599 13.056-5.374 7.68-5.76 19.199-8.833 28.799-13.822 43.389-8.446 97.146 11.136 129.016 6.143 9.597 20.736 30.721 40.318 22.656 17.279-6.911 13.439-28.799 18.431-47.998 1.154-4.611.385-7.68 2.688-10.751v.768c5.377 10.751 10.751 21.119 15.742 31.87 11.905 18.814 32.638 38.398 49.917 51.454 9.219 6.909 16.513 18.814 28.032 23.039v-1.154h-.768c-2.305-3.457-5.76-4.991-8.831-7.68-6.911-6.911-14.593-15.359-19.967-23.039-16.125-21.504-30.335-45.309-43.006-69.885-6.143-11.902-11.519-24.959-16.511-36.861-2.305-4.611-2.305-11.519-6.145-13.822-5.76 8.446-14.205 15.742-18.431 26.11-7.292 16.511-8.063 36.861-10.751 57.98-1.534.385-.768 0-1.537.768-12.285-3.074-16.511-15.742-21.119-26.496-11.519-27.262-13.439-71.036-3.454-102.521 2.688-8.065 14.208-33.407 9.599-41.086-2.303-7.297-9.985-11.519-14.208-17.279-4.991-7.297-10.368-16.511-13.822-24.576-9.216-21.502-13.825-45.309-23.807-66.814-4.608-9.985-12.671-20.35-19.199-29.565-7.294-10.368-15.359-17.665-21.119-29.952-1.917-4.223-4.608-11.134-1.537-15.742.768-3.071 2.303-4.223 5.377-4.991 4.991-4.225 19.199 1.151 24.19 3.454 14.208 5.757 26.11 11.136 38.015 19.199 5.374 3.84 11.134 11.136 18.045 13.056h8.065c12.288 2.686 26.11.768 37.63 4.223 20.353 6.526 38.781 16.128 55.294 26.496 50.303 31.87 91.77 77.181 119.802 131.322 4.608 8.829 6.526 16.896 10.751 26.11 8.065 18.816 18.048 38.015 26.11 56.446 8.063 18.045 15.742 36.478 27.262 51.454 5.762 8.06 28.799 12.285 39.166 16.511 7.68 3.454 19.584 6.528 26.496 10.751 13.054 8.06 26.11 17.279 38.398 26.11 6.145 4.606 25.342 14.208 26.496 21.885z" id="path16"/><path d="M-5.12 101.448c-6.528 0-11.134.771-15.742 1.922v.768h.768c3.074 6.143 8.446 10.368 12.285 15.742 3.074 6.143 5.76 12.288 8.833 18.433l.766-.768c5.379-3.842 8.065-9.985 8.065-19.199-2.305-2.688-2.688-5.377-4.608-8.065-2.303-3.842-7.297-5.76-10.368-8.833z" id="path18"/></g></svg>