<?xml version="1.0" encoding="UTF-8" standalone="no"?>
<svg
   xmlns:dc="http://purl.org/dc/elements/1.1/"
   xmlns:cc="http://creativecommons.org/ns#"
   xmlns:rdf="http://www.w3.org/1999/02/22-rdf-syntax-ns#"
   xmlns:svg="http://www.w3.org/2000/svg"
   xmlns="http://www.w3.org/2000/svg"
   xml:space="preserve"
   enable-background="new 0 0 16 16"
   viewBox="0 0 128 128"
   height="128"
   width="128"
   y="0px"
   x="0px"
   id="Layer_3"
   version="1.1"><metadata
     id="metadata27"><rdf:RDF><cc:Work
         rdf:about=""><dc:format>image/svg+xml</dc:format><dc:type
           rdf:resource="http://purl.org/dc/dcmitype/StillImage" /><dc:title></dc:title></cc:Work></rdf:RDF></metadata><defs
     id="defs25" /><g
     transform="scale(8,8)"
     id="g4155"><rect
       style="opacity:0.6;fill:#ffffff"
       x="1"
       y="1"
       width="14"
       height="14"
       id="rect3" /><polygon
       style="fill:#006699"
       points="7.5,13 7.5,8.5 3.5,4 12.5,4 8.5,8.5 8.5,13 "
       id="polygon5" /><g
       id="g7"><path
         style="fill:#006699"
         d="m 11,13.5 c 0,0.275 -0.225,0.5 -0.5,0.5 l -5,0 C 5.225,14 5,13.775 5,13.5 l 0,0 C 5,13.225 5.225,13 5.5,13 l 5,0 c 0.275,0 0.5,0.225 0.5,0.5 l 0,0 z"
         id="path9" /></g><g
       id="g11"><path
         style="fill:#006699"
         d="M 9.525,5.146 C 9.331,5.34 9.012,5.34 8.818,5.146 8.624,4.952 8.624,4.633 8.818,4.439 l 2.121,-2.121 c 0.194,-0.194 0.513,-0.194 0.707,0 0.194,0.194 0.194,0.513 0,0.707 L 9.525,5.146 Z"
         id="path13" /></g><polygon
       style="fill:#006699"
       points="1,4 0,4 0,0 4,0 4,1 1,1 "
       id="polygon15" /><polygon
       style="fill:#006699"
       points="4,15 4,16 0,16 0,12 1,12 1,15 "
       id="polygon17" /><polygon
       style="fill:#006699"
       points="15,12 16,12 16,16 12,16 12,15 15,15 "
       id="polygon19" /><polygon
       style="fill:#006699"
       points="12,1 12,0 16,0 16,4 15,4 15,1 "
       id="polygon21" /></g></svg>