<?xml version="1.0" encoding="UTF-8" standalone="no"?>
<svg
   xmlns:dc="http://purl.org/dc/elements/1.1/"
   xmlns:cc="http://creativecommons.org/ns#"
   xmlns:rdf="http://www.w3.org/1999/02/22-rdf-syntax-ns#"
   xmlns:svg="http://www.w3.org/2000/svg"
   xmlns="http://www.w3.org/2000/svg"
   id="svg2"
   version="1.1"
   xml:space="preserve"
   width="128"
   height="128"
   viewBox="0 0 128 128"><metadata
     id="metadata28"><rdf:RDF><cc:Work
         rdf:about=""><dc:format>image/svg+xml</dc:format><dc:type
           rdf:resource="http://purl.org/dc/dcmitype/StillImage" /><dc:title></dc:title></cc:Work></rdf:RDF></metadata><defs
     id="defs4"><linearGradient
       x1="0"
       y1="0"
       x2="1"
       y2="0"
       gradientUnits="userSpaceOnUse"
       gradientTransform="matrix(0,97.396584,-97.396584,0,51.620814,11.389501)"
       spreadMethod="pad"
       id="gradiant1"><stop
         id="stop7"
         style="stop-color:#ff1b2d;stop-opacity:1"
         offset="0" /><stop
         id="stop9"
         style="stop-color:#ff1b2d;stop-opacity:1"
         offset="0.3" /><stop
         id="stop11"
         style="stop-color:#ff1b2d;stop-opacity:1"
         offset="0.61" /><stop
         id="stop13"
         style="stop-color:#a70014;stop-opacity:1"
         offset="1" /></linearGradient><linearGradient
       x1="0"
       y1="0"
       x2="1"
       y2="0"
       gradientUnits="userSpaceOnUse"
       gradientTransform="matrix(0,86.142511,-86.142511,0,76.85435,17.130095)"
       spreadMethod="pad"
       id="gradiant2"><stop
         id="stop16"
         style="stop-color:#9c0000;stop-opacity:1"
         offset="0" /><stop
         id="stop18"
         style="stop-color:#ff4b4b;stop-opacity:1"
         offset="0.7" /><stop
         id="stop20"
         style="stop-color:#ff4b4b;stop-opacity:1"
         offset="1" /></linearGradient></defs><g
     transform="scale(1.0666667,1.0666667)"
     id="g4156"><path
       d="M 60,9.75 C 32.25,9.75 9.75,32.25 9.75,60 l 0,0 c 0,26.95 21.22,48.94 47.86,50.19 l 0,0 c 0.8,0.04 1.59,0.06 2.39,0.06 l 0,0 c 12.87,0 24.6,-4.84 33.49,-12.79 l 0,0 c -5.89,3.91 -12.78,6.15 -20.14,6.15 l 0,0 c -11.97,0 -22.68,-5.94 -29.89,-15.3 l 0,0 C 37.9,81.75 34.31,72.06 34.06,61.18 l 0,0 c 0,-0.03 0,-2.34 0,-2.37 l 0,0 c 0.25,-10.88 3.84,-20.58 9.4,-27.13 l 0,0 c 7.21,-9.36 17.93,-15.3 29.89,-15.3 l 0,0 c 7.36,0 14.25,2.25 20.14,6.16 l 0,0 C 84.65,14.63 72.98,9.8 60.19,9.75 l 0,0 c -0.06,0 -0.13,0 -0.19,0 z"
       id="path22"
       style="fill:url(#gradiant1)" /><path
       d="m 43.46,31.68 c 4.61,-5.44 10.57,-8.73 17.07,-8.73 l 0,0 c 14.63,0 26.49,16.59 26.49,37.04 l 0,0 c 0,20.46 -11.86,37.04 -26.49,37.04 l 0,0 c -6.51,0 -12.46,-3.28 -17.07,-8.72 l 0,0 c 7.21,9.36 17.92,15.3 29.89,15.3 l 0,0 c 7.36,0 14.25,-2.25 20.14,-6.15 l 0,0 C 103.78,88.26 110.25,74.89 110.25,60 l 0,0 c 0,-14.88 -6.47,-28.26 -16.76,-37.46 l 0,0 C 87.6,18.63 80.71,16.39 73.35,16.39 l 0,0 c -11.97,0 -22.68,5.94 -29.89,15.3"
       id="path24"
       style="fill:url(#gradiant2)" /></g></svg>