<?xml version="1.0" encoding="UTF-8" standalone="no"?>
<svg
   xmlns:dc="http://purl.org/dc/elements/1.1/"
   xmlns:cc="http://creativecommons.org/ns#"
   xmlns:rdf="http://www.w3.org/1999/02/22-rdf-syntax-ns#"
   xmlns:svg="http://www.w3.org/2000/svg"
   xmlns="http://www.w3.org/2000/svg"
   xmlns:xlink="http://www.w3.org/1999/xlink"
   xmlns:sodipodi="http://sodipodi.sourceforge.net/DTD/sodipodi-0.dtd"
   xmlns:inkscape="http://www.inkscape.org/namespaces/inkscape"
   version="1.1"
   width="300"
   height="300"
   viewBox="0 0 300 301.88679"
   id="svg2943"
   inkscape:version="0.48.4 r9939"
   sodipodi:docname="php.svg">
  <metadata
     id="metadata15">
    <rdf:RDF>
      <cc:Work
         rdf:about="">
        <dc:format>image/svg+xml</dc:format>
        <dc:type
           rdf:resource="http://purl.org/dc/dcmitype/StillImage" />
      </cc:Work>
    </rdf:RDF>
  </metadata>
  <sodipodi:namedview
     pagecolor="#ffffff"
     bordercolor="#666666"
     borderopacity="1"
     objecttolerance="10"
     gridtolerance="10"
     guidetolerance="10"
     inkscape:pageopacity="0"
     inkscape:pageshadow="2"
     inkscape:window-width="1920"
     inkscape:window-height="1017"
     id="namedview13"
     showgrid="false"
     inkscape:zoom="0.8131728"
     inkscape:cx="51.837506"
     inkscape:cy="219.8509"
     inkscape:window-x="-8"
     inkscape:window-y="-8"
     inkscape:window-maximized="1"
     inkscape:current-layer="svg2943" />
  <defs
     id="defs2945">
    <linearGradient
       x1="150"
       y1="84"
       x2="299"
       y2="84"
       id="linearGradient3798"
       gradientUnits="userSpaceOnUse">
      <stop
         id="stop3800"
         style="stop-color:#dddce9;stop-opacity:1"
         offset="0" />
      <stop
         id="stop3802"
         style="stop-color:#5664a3;stop-opacity:1"
         offset="0.37" />
      <stop
         id="stop3804"
         style="stop-color:#000000;stop-opacity:1"
         offset="1" />
    </linearGradient>
    <radialGradient
       cx="77.914261"
       cy="-48.544521"
       r="146"
       fx="77.914261"
       fy="-48.544521"
       id="radialGradient3870"
       xlink:href="#linearGradient3798"
       gradientUnits="userSpaceOnUse"
       gradientTransform="matrix(1.5089497,0,0,1.3582164,-39.028917,76.957747)" />
    <radialGradient
       inkscape:collect="always"
       xlink:href="#linearGradient3798"
       id="radialGradient2998"
       gradientUnits="userSpaceOnUse"
       gradientTransform="matrix(1.5089497,0,0,1.3582164,-39.028917,76.957747)"
       cx="77.914261"
       cy="-48.544521"
       fx="77.914261"
       fy="-48.544521"
       r="146" />
  </defs>
  <g
     id="g2992"
     transform="translate(0,-70.943395)">
    <ellipse
       transform="translate(0,141.88679)"
       sodipodi:ry="76"
       sodipodi:rx="146"
       sodipodi:cy="80"
       sodipodi:cx="150"
       style="fill:#6c7eb7;stroke:url(#radialGradient2998);stroke-width:5.5"
       id="ellipse3860"
       ry="76"
       rx="146"
       cy="80"
       cx="150"
       d="m 296,80 c 0,41.97364 -65.36643,76 -146,76 C 69.366427,156 4,121.97364 4,80 4,38.026359 69.366427,4 150,4 230.63357,4 296,38.026359 296,80 z" />
    <path
       inkscape:connector-curvature="0"
       style="fill-rule:evenodd;stroke:#ffffff;stroke-width:2;stroke-linejoin:round"
       id="p"
       d="m 45,266.88679 16,-81 37,0 c 16,1 24,9 24,23 0,24 -19,38 -36,37 l -18,0 -4,21 -19,0 z m 27,-36 5,-30 13,0 c 7,0 12,3 12,9 -1,17 -9,20 -18,21 l -12,0 z" />
    <path
       inkscape:connector-curvature="0"
       style="stroke:#ffffff;stroke-width:2;stroke-linejoin:round"
       id="h"
       d="m 116,245.88679 16,-81 19,0 -4,21 18,0 c 16,1 22,9 20,19 l -7,41 -20,0 7,-37 c 1,-5 1,-8 -6,-8 l -15,0 -9,45 -19,0 z" />
    <use
       height="160"
       width="300"
       y="0"
       x="0"
       xlink:href="#p"
       id="p2"
       transform="translate(134,2.4528302e-6)" />
  </g>
</svg>
