<svg xmlns="http://www.w3.org/2000/svg" xmlns:xlink="http://www.w3.org/1999/xlink" version="1" width="128" height="128"><defs><linearGradient id="c"><stop offset="0" stop-color="#b8b8b8" stop-opacity=".498"/><stop offset="1" stop-color="#7f7f7f" stop-opacity="0"/></linearGradient><linearGradient id="a"><stop offset="0" stop-color="#ffd43b"/><stop offset="1" stop-color="#ffe873"/></linearGradient><linearGradient id="b"><stop offset="0" stop-color="#5a9fd4"/><stop offset="1" stop-color="#306998"/></linearGradient><linearGradient x1="150.961" y1="192.352" x2="112.031" y2="137.273" xlink:href="#a" gradientUnits="userSpaceOnUse" gradientTransform="matrix(0.562541,0,0,0.567972,-9.399749,304.46299)"/><linearGradient x1="26.649" y1="20.604" x2="135.665" y2="114.398" xlink:href="#b" gradientUnits="userSpaceOnUse" gradientTransform="matrix(0.562541,0,0,0.567972,-9.399749,304.46299)"/><radialGradient cx="61.519" cy="132.286" r="29.037" fx="61.519" fy="132.286" xlink:href="#c" gradientUnits="userSpaceOnUse" gradientTransform="matrix(2.382716e-8,-0.296405,1.43676,4.683673e-7,-128.544,150.5202)"/><linearGradient x1="26.649" y1="20.604" x2="135.665" y2="114.398" id="d" xlink:href="#b" gradientUnits="userSpaceOnUse" gradientTransform="matrix(0.562541,0,0,0.567972,-9.399749,304.46299)"/><linearGradient x1="150.961" y1="192.352" x2="112.031" y2="137.273" id="e" xlink:href="#a" gradientUnits="userSpaceOnUse" gradientTransform="matrix(0.562541,0,0,0.567972,-9.399749,304.46299)"/></defs><g><path d="m 60.510156,316.16628 c -4.583653,0.0213 -8.960939,0.41221 -12.8125,1.09375 -11.346216,2.0045 -13.406249,6.2001 -13.40625,13.9375 l 0,10.21875 26.8125,0 0,3.40625 -26.8125,0 -10.0625,0 c -7.792459,0 -14.6157592,4.68371 -16.7500002,13.59375 -2.46182,10.21296 -2.5710151,16.58602 0,27.25 1.9059283,7.93785 6.4575432,13.59374 14.2500002,13.59375 l 9.21875,0 0,-12.25 c 0,-8.84991 7.657144,-16.65625 16.75,-16.65625 l 26.78125,0 c 7.454951,0 13.406253,-6.13817 13.40625,-13.625 l 0,-25.53125 c 0,-7.26634 -6.12998,-12.72478 -13.40625,-13.9375 -4.605987,-0.76673 -9.385097,-1.11505 -13.96875,-1.09375 z m -14.5,8.21875 c 2.769547,0 5.03125,2.29864 5.03125,5.125 -2e-6,2.81633 -2.261703,5.09375 -5.03125,5.09375 -2.779476,-10e-6 -5.03125,-2.27742 -5.03125,-5.09375 -1e-6,-2.82636 2.251774,-5.125 5.03125,-5.125 z" fill="url(#d)" transform="matrix(1.0677202,0,0,1.0677202,-1.3146305,-333.57614)"/><path d="m 91.228906,344.82253 0,11.90625 c 0,9.23075 -7.825895,16.99999 -16.75,17 l -26.78125,0 c -7.335833,0 -13.406249,6.27848 -13.40625,13.625 l 0,25.53124 c 0,7.26634 6.318588,11.54032 13.40625,13.625 8.487331,2.49561 16.626237,2.94663 26.78125,0 6.750155,-1.95439 13.406253,-5.88761 13.40625,-13.625 l 0,-10.21874 -26.78125,0 0,-3.40625 26.78125,0 13.406254,0 c 7.79246,0 10.69625,-5.43541 13.40624,-13.59375 2.79933,-8.39889 2.68022,-16.47578 0,-27.25 -1.92578,-7.75745 -5.60387,-13.59375 -13.40624,-13.59375 l -10.062504,0 z m -15.0625,64.65625 c 2.779478,0 5.03125,2.27741 5.03125,5.09374 -2e-6,2.82635 -2.251775,5.125 -5.03125,5.125 -2.76955,0 -5.03125,-2.29865 -5.03125,-5.125 2e-6,-2.81633 2.261697,-5.09374 5.03125,-5.09374 z" fill="url(#e)" transform="matrix(1.0677202,0,0,1.0677202,-1.3146305,-333.57614)"/></g></svg>