<svg xmlns="http://www.w3.org/2000/svg" width="256" height="256"><defs><linearGradient id="a" x1="0%" y1="0%" x2="0%" y2="100%"><stop offset="0%" stop-color="#81b4e0"/><stop offset="100%" stop-color="#0c5a94"/></linearGradient><linearGradient id="b" gradientUnits="userSpaceOnUse" x1="128" y1="16" x2="128" y2="107"><stop offset="0%" stop-color="#f06b59"/><stop offset="100%" stop-color="#df2227"/></linearGradient><linearGradient id="c" gradientUnits="userSpaceOnUse" x1="72" y1="225" x2="118" y2="149"><stop offset="0%" stop-color="#388b41"/><stop offset="100%" stop-color="#4cb749"/></linearGradient><linearGradient id="d" gradientUnits="userSpaceOnUse" x1="187" y1="220" x2="138" y2="102"><stop offset="0%" stop-color="#e4b022"/><stop offset="30%" stop-color="#fcd209"/></linearGradient><linearGradient id="e" gradientUnits="userSpaceOnUse" x1="80" y1="140" x2="80" y2="60"><stop offset="0%" stop-opacity=".15"/><stop offset="30%" stop-opacity=".06"/><stop offset="100%" stop-opacity=".03"/></linearGradient><linearGradient id="f" gradientUnits="userSpaceOnUse" x1="164" y1="161" x2="109" y2="217"><stop offset="0%" stop-opacity=".15"/><stop offset="30%" stop-opacity=".06"/><stop offset="100%" stop-opacity=".03"/></linearGradient><linearGradient id="g" gradientUnits="userSpaceOnUse" x1="139" y1="179" x2="147" y2="100"><stop offset="0%" stop-opacity=".15"/><stop offset="30%" stop-opacity=".06"/><stop offset="100%" stop-opacity=".03"/></linearGradient></defs><circle cx="128" cy="128" r="110" fill="#fff"/><path fill-opacity=".1" d="M 198 148 A 70 70 0 0 0 58 148 L 78 148 A 50 50 0 0 1 178 148"/><circle fill-opacity=".1" cx="133" cy="142" r="38"/><circle cx="50%" cy="50%" r="41" fill="url(#a)"/><path fill="url(#b)" d="M 228 78 A 112 112 0 0 0 35 65 L 80 143 A 50 50 0 0 1 127 78"/><path fill="url(#c)" d="M 35 65 A 112 112 0 0 0 119 239 L 166 159 A 50 50 0 0 1 80 143"/><path fill="url(#d)" d="M 119 239 A 112 112 0 0 0 228 78 L 127 78 A 50 50 0 0 1 166 159"/><path fill="url(#e)" d="M 35 65 L 80 143 A 50 50 0 0 1 82 109 L 37 62"/><path fill="url(#f)" d="M 119 239 L 166 159 A 50 50 0 0 1 137 176 L 117 239"/><path fill="url(#g)" d="M 228 78 L 127 78 A 50 50 0 0 1 166 97 L 230 81"/></svg>