<svg xmlns="http://www.w3.org/2000/svg" width="128" height="128" viewBox="0 0 32 32"><radialGradient id="a" cx="143.239" cy="810.703" r="13.301" gradientTransform="matrix(.8738 0 0 -.8738 -112.82 718.943)" gradientUnits="userSpaceOnUse"><stop offset="0" stop-color="#4486f3"/><stop offset=".273" stop-color="#4384ef"/><stop offset=".556" stop-color="#407de2"/><stop offset=".842" stop-color="#3a71ce"/><stop offset="1" stop-color="#3669bf"/></radialGradient><circle fill="url(#a)" cx="16.5" cy="16" r="11.6"/><g fill="#FFF"><path d="M27.2 19.6v.2c-.1.1-.2.3-.3.4-.1.1-.2.1-.3.4v.2l-.1.2-.1.1v.5c.1.2.8-1.4.8-1.5V20c.1-.1.1-.3 0-.4.1 0 .1 0 0 0zm.8-4.8c0-.4-.1-.7-.2-1.1 0 .1 0 .3-.2.2-.1-.1-.2-.2-.1-.4v.1s-.3-.8-.2-.8c.3.1.2.6.5.7-.1-.5-.2-1.1-.5-1.5-.1-.2-.3-.3-.4-.5.1-.3-.5-.6-.3-.9-.4-.8-.9-1.5-1.5-2.2-.5-.5-1.2-1.4-1.9-1.6h.1l-.5-.1h.1c-.3 0-.7-.3-.9-.2h.1-.4c.1 0 .3.1.4.1 0 .1-1 .3-1.1.3h.1c-.1 0-.7 0-.6.1 0 .1.1.2.2.3 0 0-.1 0-.1.1h.1-.1c.3.3.7 0 .9.1l.4.5c.1 0 .6-.1.6-.1s-.1 0-.1-.1c-.1-.3.2-.1.2-.2s-.2-.2-.3-.3l.5-.2c0-.1.5 0 .5.1s-.4.1-.5.1c0 .1 0 .2.1.2 0 0-.1 0 0 0 .1.3.8.2 1 .4-.1 0-.8-.1-.8 0 .1.1.1 0 .3.1.1.1 0 .1 0 .1-.1 0-.1-.1-.2-.1s-.2.3-.5.3c-.2-.1-.5 0-.8-.1-.3-.1-.4 0-.6-.2-.1 0 .1.1 0 .1 0 0 0-.1-.1-.1 0-.1.2-.1.2-.1h-.1v-.1c-.1 0-.4 0-.3.1 0 .1.1.1.2.2s0 .1-.1.1c-.4-.1-.6.2-.8.3-.2.2-.6.2-.9.2v.2c-.1 0-.6-.1-.6 0 .1.1.9.4.8.6 0 .8-1.4-.2-1.6.3 0 .1 0 1.1.2 1.1.6.1 1.2.3 1.7-.3 0 0-.1 0-.1-.1 0-.4.5-.2.6-.4V10c0-.1.5-.1.6-.1.5 0 .3 0 .7.2.2.2.9.4 1 .8 0 0 0 .1-.1.1 0 .1.2-.1.2-.2s0 0-.1-.1c0-.2.2 0 .3 0 0-.2-.5-.3-.5-.4-.1 0-.7-.4-.7-.6 0-.1.8.4.9.5.2.1.5.8.7.8v.1c0 .1.2.3.3.3l-.1-.3c.2.2.1.1.2.1 0 0-.2-.1-.2-.2s0-.1-.1-.2c0 0 .1.1.2.1v-.1c.2 0 .6.2.7.1 0 0-.2-.1-.2-.2s.1-.3.2-.3v-.1c.1 0 .1-.2.2-.1 0 0 .1.1.3.2h-.1c.1.1.3.4.4.2l-.2-.1h.3v.2h-.1c.2.3.5.4.6.7-.1 0-1.4-.5-1.4-.3v.1c-.1 0-.4-.1-.5 0s.2.1 0 .2c.1.1.2.3.3.4.2.2 1 .2 1.1.2.1.1-.1.8-.1.9-.4.1-1-.2-1.4-.4-.2-.1-.1-.2-.4-.2-.2 0-.2.4-.3.4-.5-.1-.8-.5-1.3-.5-.4 0-.3-.6-.3-.8-.4.1-1.1-.1-1.6-.1-.5.1-1 .4-1.5.1-.3.2-.7.6-.9.9-.1.2-.1.3-.3.5-.2.2-.5.3-.7.6-.4.5-.2.8-.2 1.4 0 .2-.1.4-.1.6-.2.1-.2.2-.1.3s.1.3.1.4c.4.4 1 1.2 1.5 1.5.8.4 1.8-.3 2.7-.3.2 0 .1.3.3.4.3.2.6-.1.8.3l-.2.7c0 .6.7.9.7 1.6 0 .6-.4 1.2-.3 1.8 0 .2.2.4.2.5.1.2 0 .5 0 .7.1.4.3.5.3.9 0 0 .4-.1.5-.1.2-.1.5-.2.7-.3.1-.1 1.2-1.1 1-1.2.1-.2.3-.3.4-.5s0-.4.1-.6c.3-.6.8-.7.8-1.5 0-.3-.1-.7 0-1s.3-.5.4-.8c.4-.7.8-1.2.8-2.1-.1.1-.4.2-.5.3-.1 0-.6-1.2-.7-1.3-.3-.7-.5-1.5-.9-2.2.1.1.2.4.3.4V13c0 .2 1.3 3 1.2 3 .1-.1.1-.1.1-.2h.1c1-.3 1.6-1 1.5-1 0-.1 0 0 0 0zm-5.9-8.9c-.1 0-.2-.1-.3-.2h-.1s.3.1.4.2zm-.6-.4s.1 0 .1.1l-.1-.1s-.1 0-.1-.1c-.1.1 0 .1.1.1zm0 0c-.1 0 0 0 0 0zm.1.1c0 .1.1.1.1.1s0-.1-.1-.1z"/><path d="M21.2 5.4c-.1 0 .1.1.2.1-.1 0-.1 0-.2-.1zm-2.9 2.9h.1l.4-.1c.1 0 0-.2 0-.2v-.1h.1c0-.1-.1-.2-.2-.2h-.1s-.3 0-.2.1c0 0-.3 0-.3.1l.1.1c0 .1-.2.1-.2.2.1 0 .2.1.3.1zm.5-1h-.2.2zm-.1 0s.1 0 0 0z"/><path d="M18.9 7.5c-.1.1 0 .1.1.1h.1s-.1.2 0 .2h.3c-.1.1 0 .1.1.1V8s-.2.1-.3 0c0 .1.1.1 0 .2-.1 0-.1 0-.1.1h.1c.1 0 .1.1.2.1h.1c0 .1-.1 0-.2 0l-.2.1h.2c0-.1.2 0 .2 0h.8-.1c0-.1.2-.1.2-.1l-.1-.1h-.2l-.1-.1c0-.1-.4-.4-.5-.4h-.1c0-.1.2-.1.1-.2h-.4c0-.1.1 0 .2-.1 0 0-.4-.1-.4 0 0-.2-.1-.1 0 0 0 0 0-.1 0 0-.1-.1-.1-.1-.2-.1.1 0 .1 0 .2.1zm0 0c-.1-.1 0 0 0 0zm.3.4zm-2-1.4c.1 0 .2-.1.3-.1 0-.1-.2-.1-.3-.1.1-.1-.2.1-.2 0h-.9c-.1 0-.2 0-.3-.1h-.3s.3.1.3 0h-.3.3v.1c.3.1 1 .2 1.4.2zM6.8 14.3c0 .1 0 .1 0 0 0 0 0-.1-.1-.1h-.1c-.1 0-.2 0-.2-.1 0 0 0-.1-.1-.1-.3 0-.4-.2-.6.2l.2-.2H6v.1h.3c0 .1.1.1.1.1.1.2.3.3.4.1zm-.8-.1c-.1 0-.1 0 0 0 0 0-.1 0 0 0-.1 0 0 0 0 0zm.5.5zm-.1 0s0 .1 0 0c.1.1.1 0 .2 0-.1 0-.1-.1-.2 0zm1.3-.1c0 .1.2.1.2 0 0 0-.2-.1-.2 0zm-.8.1h.2s0 .1.1.1c0 0 0-.1.1-.1h.3c0-.1-.1-.1-.1-.1-.2-.1-.2 0-.4-.1 0 0-.2.1-.1.1l-.1.1c.1-.1 0-.1 0 0-.1-.1-.1-.1 0 0-.1-.1-.1 0 0 0zm.2-.1v.1zm1.5 1.5s0-.1 0 0V16c-.1 0-.1.1 0 .1-.1 0 0 0 0 0zm2.1 2.2c0-.1-.1 0-.2-.1 0 0-.1 0-.1-.1-.1 0-.1 0-.1.1s.2.2.2.2c.1.1.2-.1.2-.1zm-.4 7.4c0 .1 0 .1 0 0 .1 0 .2.1.2 0h-.2zm0 0h-.1c-.1-.1-.1-.1.1 0h-.1.1zm-3.5-15s.1 0 0 0zm-1.5 2.4h.2V13s.1 0 .1-.1c.1 0 .1-.1.1-.1s0 .1.1.1c0 0 0-.1.1-.1s.1.8.2.7c.2 0 0-.6.1-.7 0-.4.1-.5.4-.7.1-.1.2-.1.2-.2s.1 0 .1-.1l.1-.1v-.3.2c-.1.1.2-.3.1-.3.1 0 .1-.2.1-.3.1-.1.1 0 .2-.1h-.1c.1-.1.4-.2.5-.3-.1.1-.1 0-.1-.1 0-.2.4-.3.5-.5.1.1.3-.2.4-.2 0 .1 0 .1.1.1-.1 0-.3.2-.3.3-.1.1.6-.3.6-.4 0 0-.5 0-.5-.2h-.1s.2-.1.2-.2c.1-.2-.6.3-.6.3.3-.4.7-.4 1.1-.6.1 0 .9-.3.9-.5 0-.1-.1-.2-.1-.2-.1.1-.3.2-.5.2.1-.1.4-.2.4-.2s-.4.1-.4-.1h-.2c.2 0 0-.3-.1-.3-.1-.1-.5.3-.6.3v-.2c0-.3-.8.4-.8.4 0 .1-.1.2-.2.2 0 .1.1 0 .1 0 .1.2-.3.4-.4.5.1 0 0 .5-.2.4-.1 0 0-.1 0-.2-.1.2-.7.8-.5 1 0 .1.2 0 .3 0 .1 0 .1 0 0 .1v.1h-.1c0 .1-.1.3-.1.3-.1-.1 0-.1 0-.1l-.1.1c0-.1 0-.1.1-.2l-.1-.1c-.2.1-.1.5-.3.7-.1.1.1-.5.1-.5l-.1.1c0-.1.4-.3.4-.4 0 0-.3 0-.3.1-.5.8-.8 1.8-1 2.7v-.2c.1 0 0 0 0 0zm1.5-2.5c.1 0 .3-.2.3-.2 0 .2-.2.2-.3.2-.1.1 0 .1 0 0 .1 0 0 .1 0 0zm-.4.4c.1 0 .2-.1.3-.2 0 .1-.2.2-.3.2 0 .1 0 0 0 0zm6.7 8.2c.1 0 .1 0 0 0z"/><path d="M13.1 19.2h-.3c-.2-.1-.3-.3-.5-.4s-.5-.1-.7-.1c-.1 0-.1.1-.2.1v-.2c0-.1-.5-.3-.6-.3s-.2.1-.2.2c-.1.1-.1 0-.3 0 0-.1-.2-.2-.2-.2 0-.2.2-.4.3-.5 0-.1-.2-.3-.2-.5-.2 0-.2-.2-.4-.2-.5 0-.8-.2-1.1-.5h-.1c-.1-.2-.2-.2-.3-.3h.1c-.2 0-.2.1-.4.1 0 0-.1 0-.1-.1h-.3s-.2-.2-.3-.2h-.1c0 .1.1 0 .1.1h-.1c0-.2-.1-.2-.1-.1s.1.1 0 .2c-.1 0-.1 0-.1-.1s0-.3.1-.4c0-.1-.5.2-.5.3 0 .1-.1.2-.1.3h-.1c-.1-.1-.1-.3-.2-.2-.2.1-.1 0-.3 0 0 0-.1-.1-.1-.2v-.7c-.1 0-.1-.1-.1-.1h-.3v-.4c0-.2.1-.3.1-.5h-.1c-.2 0-.1.4-.3.5-.1 0-.1.1-.1.1l-.1-.3c0 .2 0 .4-.1.6.1 0 0-.1.1-.1 0 .1.1.3.1.3.1.1.2.2.3.1 0 .1.1.5.2.5.1.1.3.5.4.5s0-.2.1-.3c.1 0 .1.2.1.3 0 .1 0 .6.1.6 0 .1-.2.4-.3.4 0 .1-.1.6.1.7h.1c0 .1-.1.1-.1.3 0 .2.2.3.3.5.2.3.2.8.4 1.1.3.5.7.5.8 1.1.2.8 0 1.7.4 2.4 0 .1 0 .2.1.3l.1.1v-.1.2c.3.3.6.6.9.8h.1c0-.1-.2-.1-.3-.2 0 0 0-.1.1 0 .1 0 .1.1.2.1 0-.1 0-.1.1-.2 0 0-.1 0-.1-.1 0 0 .1 0 .1.1v-.1s-.1-.1-.1-.2c.1 0 .1.1.2.1h.1c0-.1-.1-.1 0-.2s.4.2.5.1c0 0 .1 0 .1-.1.1-.1-.3-.3-.3-.5.2 0 .3.2.5.2s.5-.4.6-.6c0-.1.1-.2.2-.2 0-.1-.1-.3-.1-.4s.6-.3.7-.3c.1 0 .5.1.6-.1l.3-.6c.1-.2 0-.8 0-.9.4-.3.8-.7.8-1.2 0-.2-.1-.4-.2-.4 0 0 .1 0 0 0zm-6.6-5.5c0-.1 0-.1 0 0-.1-.1-.1 0 0 0zm0-.4c-.1 0-.1 0 0 0-.1 0 0 0 0 0zm.1 0s0 .1 0 0zm.4.8s-.1.1 0 0c-.1.1-.1.1 0 0-.1.1-.1.1 0 0-.1.1 0 .1 0 0zm1.6-6.3c.1 0 .2-.1.3-.1 0-.1-.2 0-.2 0h.4l.1-.1h-.3.1c.1-.1.4.1.4-.1 0 0 .1 0 .1-.1.1 0 .1 0 .1-.1s-.2 0-.2 0c0-.1 0 0-.2 0h-.1c-.1 0-.2.1-.2 0h-.1s.1 0 .2-.1h-.2s.1 0 .1-.1l-.1.1c-.1.2-.3.4-.6.7h.2c-.1 0 .1 0 .2-.1zm0 0s.1 0 0 0z"/><path d="M8.4 7.8c-.1.1-.1.2 0 0zm7.4-2c0-.1 0-.1 0 0h-.6.1-.1c.2 0 .6.2.6 0 0-.1-.1-.1-.3-.1.1 0 .5-.1.6-.2H16h.3-.2.2s-.3-.2-.3-.1c.1-.1.5 0 .5 0 0-.1-.2 0-.3 0h.1-.4l.5-.1h.6-.1s.7 0 .7-.1c-.1-.3-1.8.1-2 .1l.4-.1c0-.1-.7 0-.8.1 0 0 .4-.1.1-.1.2 0 .6 0 .8-.1-2.1 0-4 .4-5.8 1.6.2 0 .3 0 .4.1h.1l-.1.1h.6c-.1.1-.3 0-.4.1 0 0 .1 0 0 0 0 0-.1 0-.1.1s.4 0 .4-.1h-.1c.1 0 .3-.1.4-.1-.1.1-.5.2-.5.4h.1s-.1 0-.1.1c-.2-.6 0-.4 0-.4.1 0 .1-.1.2 0 0 0-.1 0-.1.1-.1.5 1.6.2 1.7-.3h-.1c0-.1.5-.2.6-.2.5 0 .4-.2.7-.4.5-.3 1.3-.3 1.8-.4 0-.1-.1 0 0 0zm-.2-.4h.2-.2c.1 0 0 0 0 0zm-.2.1c.1 0 .1 0 .2.1-.1-.1-.2-.1-.2-.1zm1.3-.3c-.1 0-.1 0 0 0-.1 0-.1 0 0 0z"/><path d="M16.5 5.2c-.1 0-.1 0 0 0-.1.1 0 .1.1 0h-.1zM9.9 9.1c.1 0 0 0 0 0 .1-.1.1-.1 0 0 .1-.1 0-.1 0 0-.1-.1-.1 0-.1 0 .1-.1.2-.2.2-.3-.1 0-.1.1-.2.1-.1.1-.2.3-.3.4l-.1.1h.7s-.1 0-.1.1c.1 0 .1-.1.2-.1v.1c0 .1.1 0 .1-.1v-.1h-.1v-.1l.1-.1h-.1V9h-.3c.1.1.1.1 0 .1zM7 9.6c0-.1 0-.1 0 0 0-.1 0-.1 0 0zm15.5 1.2s.1 0 0 0zm0 .1c.1 0 .2.1.3.2 0 .1.1 0 .1 0 0-.1-.1-.1 0-.2v-.1c-.1 0 0 0 0 0-.1 0-.4 0-.4.1 0-.1 0-.1 0 0zm-.6-1c0-.1-.1 0-.1 0l.1.2v-.2zm-.1.4c0 .1-.1.2 0 .2l.2-.1c0-.1 0-.1-.1-.2h-.1l-.1.1h.1zm-1.1.1c0 .1.1 0 0 0 0-.1 0 0 0 0zM21.9 8h-.1.1c-.1 0-.1.1 0 0 0 .1 0 .1 0 0 0 .1 0 .1 0 0zm.1 0c-.1.1-.1.1 0 .1 0 0 0-.1.1-.1H22zm0 .1c-.1 0 0 0 0 0zm1-.1c0-.1 0-.1 0 0 0-.1 0-.1 0 0 0-.1 0 0 0 0-.1 0 0 0 0 0zm1.7 3.6c-.1 0-.2-.1-.3-.1.1 0 .2.1.3.1-.1 0-.1 0 0 0zm1 .1h-.2c.1.1.2.1.2 0 0 .1 0 0 0 0zm2.2 4c0 .1 0 0 0 0zM9 9.3c-.1.1 0 0 0 0zm-.2 0s.1.1.2.1h.1c-.1-.1-.2-.1-.3-.1zm.1.4h-.3c0 .1.3.2.3 0zm.2.1c.1 0 .1-.1.1-.1-.1 0 0 0 0-.1-.1.1-.2.2-.1.2-.1 0-.1 0 0 0z"/></g><radialGradient id="b" cx="-40.88" cy="100.078" r="15.526" gradientTransform="matrix(.883 -.4696 -.271 -.5095 77.748 48.167)" gradientUnits="userSpaceOnUse"><stop offset="0" stop-color="#f16023"/><stop offset=".033" stop-color="#f16422"/><stop offset=".067" stop-color="#f37120"/><stop offset=".101" stop-color="#f5851d"/><stop offset=".12" stop-color="#f7941b"/><stop offset=".138" stop-color="#f8a119"/><stop offset=".176" stop-color="#fbb715"/><stop offset=".222" stop-color="#fdc812"/><stop offset=".279" stop-color="#fed310"/><stop offset=".358" stop-color="#ffda0f"/><stop offset=".577" stop-color="#ffdc0f"/><stop offset="1" stop-color="#e21e35"/></radialGradient><path fill="url(#b)" d="M30.3 5.5c-1.1-.7-2.6-.6-3.8-.4-.8.1-1.6.3-2.4.6.3 0 .4 0 .6-.1.2 0 .5-.1.7-.1 1.2-.2 2.4-.2 3.5.4.4.2.8.5 1.1.9.3.5.3 1 .2 1.6-.1.6-.4 1.2-.7 1.7-.4.7-.9 1.3-1.4 2-1.1 1.3-2.4 2.4-3.7 3.5-1.3 1.1-2.7 2-4.1 2.9-1.5.9-3 1.8-4.5 2.6s-3.1 1.5-4.8 2-3.3 1-5.1 1.2c-.8 0-1.5 0-2.3-.2-.4-.1-.7-.3-1-.6-.3-.3-.5-.7-.6-1-.5-1.2-.2-2.6.4-3.8.1-.2.2-.3.3-.5 0-.1.3-.4.3-.5-1 1.1-2 2.4-2.4 3.9-.4 1.3-.2 2.6.6 3.7.8 1 2.1 1.4 3.4 1.6 1.7.2 3.5 0 5.2-.4s3.4-1 5-1.7 3.1-1.5 4.6-2.3c1.5-.9 2.8-1.8 4.2-2.9 1.3-1 2.6-2.2 3.7-3.5 1.2-1.3 2.2-2.6 3.1-4.1.7-1.2 1.3-2.6 1.3-4.1 0-.3 0-.4-.1-.7-.2-.7-.7-1.3-1.3-1.7z"/><path fill="#B3B3B3" d="M28.5 9.5c.1-.3.1-.7.1-1 0-.2-.1-.5-.2-.6-.2-.5-.7-.7-1.1-.9-.7-.3-1.5-.4-2.3-.5-.3 0-.7 0-1-.1 1.2-.3 2.6-.3 3.8.2.5.2.9.6 1.2 1 .3.5.3 1 .2 1.5-.1.7-.5 1.4-1 1.9-.1-.5.2-1 .3-1.5zM3.6 19.6c-.1.4-.1.9-.1 1.3 0 .2 0 .4.1.6 0 .1.1.3.1.3.5.9 1.6 1.2 2.5 1.4-1 .1-2.3-.1-2.9-1.1s-.4-2.2.1-3.1c.2-.6.6-1.1 1-1.5-.2.5-.7 1.4-.8 2.1z"/></svg>
