<svg xmlns="http://www.w3.org/2000/svg" viewBox="0 0 128 128" enable-background="new 0 0 128 128"><defs><linearGradient id="0" gradientUnits="userSpaceOnUse" x1="129.02" y1="30.671" x2="108.03" y2="51.66"><stop stop-color="#da5936"/><stop offset="1" stop-color="#a03c00"/></linearGradient></defs><g fill="#4d82b8"><circle cx="68" cy="66" r="45.8"/><path d="M29.1,67.4C26.9,48.9,33.7,32.6,47,25.7C24.1,38.5,21.4,61.5,23.5,73"/></g><g fill="#fefefe"><path d="m 70.6 110.2 c 0 0 0 0 -0.3 0 c 0.3 0.5 1.3 0.3 1.9 0.3 m -2.2 -0.3 h -0.3 c 0 0 0 0 -0.3 0 c 0.4 0 0.4 0 0.6 0 h -0.3 c 0.1 0 0.1 0 0.3 0 h 0.3 c 0 0 0 0 0.3 0 m 1.6 0.2 c 0.3 0 0.8 0 1.3 0 c -0.3 0 -0.8 0 -0.8 0 c -0.3 0 -0.5 0 -0.5 0 c -0.3 0 -0.3 0 -0.8 -0.3 c 0 0 0.3 -0.3 0 -0.3 c 0 0 0 0 -0.3 0 c -0.3 0 -0.5 0.3 -0.8 0.3 m 10.7 -1.3 c 0.3 0 0.3 0 0 0 c -0.5 0 -1.1 0.3 -1.6 0.5 c 0.5 -0.2 1.1 -0.5 1.6 -0.5"/><path d="m 70.8 24.6 c 0.3 0 0.3 0 0 0 m -9.1 -2.9 c -0.2 0 -0.2 0 0 0 m 30 5.3 c 0.3 0 0.3 0 0 0 c 0.3 0.3 0.3 0.3 0.3 0.3 s 0 0 -0.3 -0.3 c 0 0 0 -0.2 0 0 m -7.2 -2.9 c 0.5 0.3 1.1 0.5 1.1 0.5 s 0 0 -1.9 -0.5 c -0.3 0 -0.3 -0.3 -0.5 -0.3 c 0.5 0 0.7 0 1.3 0.3 m -2.4 -1.6 c 0.8 0.3 1.6 0.5 2.4 0.8 c -0.8 -0.3 -1.6 -0.3 -2.4 -0.8 c -0.3 0 -0.3 0 0 0 m 9 4.8 c 0.3 0 0 0.3 0.3 0.5 c 0.3 0.3 0.3 0.3 0.5 0.3 c 0 0 0 0 -0.3 0 s -0.5 0 -0.8 -0.3 c -0.3 0 -0.5 -0.3 -1.1 -0.3 c 0 0 0 0 0 -0.3 c 0 0 -0.3 -0.8 -2.4 -1.3 c -3.7 -1.1 -4.3 -2.1 -4.3 -2.1 s 0.3 0 1.1 0.3 c 0.3 0 0.5 0.3 0.5 0.3 s 0 0 -0.3 0 c 0.3 0.3 1.3 0.8 1.9 0.8 c 0.3 0 0.5 0.3 0.8 0.3 c 0.3 0 0.8 0.3 1.1 0.5 c 0.3 0 0.3 0.3 0.3 0.3 c 0.5 0.3 2.7 1.3 2.7 1.3 v -0.3 m -20.8 -4.5 h 0.3 c -0.3 0 -0.8 0 -1.1 -0.3 c 0.3 0 0.5 0 0.8 0.3 m -0.5 -0.3 c 0 0 -0.3 0 -0.5 0 c 0 0 0 0 -0.3 0 s -0.3 0 -0.5 0 c 0 0 0 0 0.3 0 c 0.4 -0.3 0.7 -0.3 1 0 m -4.3 -1.4 c 0.3 0 0.3 0 0 0 h -0.3 c 0 0 0 0 -0.3 0 c 0.3 0.3 0.3 0.3 0.6 0 m -6.2 0.3 c 0.3 0 0.5 0 0.5 0 c 1.3 0 1.3 0 1.3 0 h 0.3 l -0.3 0.3 l -0.2 0.3 h -0.3 c 0.3 0 0.5 -0.3 0.8 -0.3 h -0.3 h 0.3 c -0.3 0 -0.5 0.3 -0.5 0.3 c -0.3 0 -0.5 0.3 -0.8 0.3 h 0.3 h 0.3 h -0.3 h 0.3 h -0.3 h 0.3 c 0 0 -0.3 0 -0.5 0 h 0.3 c 0.3 0 0.8 -0.3 1.1 -0.3 h -0.3 h -0.3 c 0.3 0 0.5 0 0.5 0 c 0.3 0 0.5 0 0.5 0 c -0.5 0 -1.1 0.3 -1.6 0.3 c 0.5 0 0.8 0 1.3 -0.3 c 0.5 0 0.8 0 1.3 -0.3 h 0.3 h -0.3 c 0.8 0 1.6 -0.3 2.4 -0.3 c -0.3 0 -0.3 0 -0.5 0 c -0.3 0 -0.5 0 -0.8 0 c -1.1 0 -2.7 0.3 -2.7 0.3 c -0.5 0 -0.8 0 -1.3 0.3 c 0.8 0 1.3 -0.3 2.1 -0.3 c 0.5 0 1.1 -0.3 1.6 -0.3 c -0.5 0 -1.1 0.3 -1.9 0.3 h 0.3 c 0.3 0 0.5 0 0.8 0 h 0.3 h 0.3 c 0 0 -0.3 0 -0.5 0 c 0.5 0 0.8 0 1.3 0 c 0 0 -0.3 0 -0.5 0 s -0.5 0 -0.8 0 h 0.3 c 0.5 0 1.1 0 1.6 0 h -0.3 c 0.5 0 0.8 0 1.3 0.3 c -0.3 0 -0.5 0 -0.5 0 c 0.3 0 0.5 0 0.8 0 c -0.8 0 -1.6 0 -2.1 0 h -0.3 h 0.3 c 0.3 0 0.5 0 0.8 0 c -0.8 -0.3 -2.4 0 -2.4 0 c -0.3 0 -0.3 0 -0.5 0 s -0.5 0 -0.8 0 c 1.6 0.3 1.6 0.3 5.1 2.1 c 0.8 0.3 0.8 0.3 1.1 0.3 v -0.3 v -0.3 c 0.5 0 1.3 0.5 1.9 0.5 c 0.3 0 0.3 0.3 0.5 0.3 c -0.3 -1.1 -4.3 -2.1 -5.6 -2.4 c 1.3 0 2.7 1.3 4.3 0.8 v -0.3 c 0.3 0 0.3 0 0.5 0 l 0.3 0.3 h -0.4 c 0.5 0.3 1.1 0.3 1.6 0.5 h -0.3 h -0.3 c 0.3 0 0.3 0 1.1 0.5 c 0.3 0.3 0.3 0.3 0.5 0.5 h -0.3 h -0.3 c 0 0.3 0 0.3 0 0.5 c -0.5 0 -0.5 0 -0.8 0 v 0.3 c -0.3 0 -0.3 0 -2.4 -1.1 c 0.5 0.5 1.3 0.8 1.9 1.1 c 0 0.3 -0.3 0.3 -0.3 0.5 c 0.6 1 0.6 1.2 0.6 2.3 c -0.3 0 -0.5 0 -0.8 -0.3 c 0 0 0.3 0.3 0.3 0.5 h -0.3 v 0.3 c 2.7 1.9 2.7 1.9 2.7 2.1 h -0.3 h -0.3 c -0.5 0 -1.1 0.3 -1.6 0.3 h -0.3 c 0 0 -0.3 0 -0.3 0.3 c 0 0.8 1.9 4 2.4 4 h 0.3 h 0.3 h 0.3 c 2.4 0.5 2.7 0.5 2.9 0.5 c 0 0 0.3 -0.3 0.3 -0.5 h 0.3 c 0.5 -0.3 0.5 -0.3 0.8 -1.6 c -1.1 -0.8 -0.3 -2.1 -1.1 -2.9 v -0.3 c 0.5 0 0.5 0 0.8 0 c 0.3 -0.3 0.3 -0.8 0.5 -1.1 c 0.3 0 0.3 0 1.1 0.5 c 1.6 0.8 3.5 0.5 4.8 2.1 v -0.3 c 0 -0.3 0 -0.3 -1.1 -0.8 c 0 0 0 0 0 -0.3 c 0.3 0 0.3 0 0.8 0.3 c -0.3 -0.3 -0.3 -0.3 -2.1 -0.8 c 0 0 -3.5 -0.8 -3.2 -1.6 c 0.3 0 0.3 0 0.5 0.3 c 0 0 0.3 0 0.3 0.3 v -0.3 c 2.7 0.8 5.1 2.7 7.8 3.2 c -0.3 -0.3 -0.3 -0.3 -1.3 -0.8 c 0.3 0 0.5 0 0.8 0 c 0 0 -0.3 0 -0.3 -0.3 c -1.9 -0.9 -1.9 -0.9 -1.9 -0.9 s 0.3 0 0.5 0 c -0.3 -0.5 -0.3 -0.5 -0.3 -0.5 c 0.3 0 0.3 0 0.5 0 h 0.3 v -0.3 v -0.3 c -1.6 -0.5 -3.5 -2.1 -3.7 -2.7 c 0.5 0.3 0.5 0.3 0.8 0 c 0 -0.3 -0.3 -0.5 -0.5 -1.1 c 1.1 0.3 1.1 0.5 1.3 0.8 h -0.3 v 0.3 c 0.3 0.3 0.3 0.3 0.8 0.5 c 0 -0.3 0 -0.3 -0.3 -0.5 v -0.2 c 0.5 0 3.2 0.5 3.2 0.5 h 0.3 c 0.3 0.3 0.5 0.5 0.8 1.1 h -0.3 c -0.5 0 -1.3 -0.3 -1.9 0 c 0 0 0 0 0 0.3 c 0 0 0 0.3 0 0.5 h -0.3 c 0 0.3 0.3 0.3 0.3 0.5 h -0.3 v 0.3 c 0.3 0.5 1.1 0.3 1.3 1.1 c 0.8 0.3 1.6 0.8 2.4 0.8 c 0 -0.3 0 -0.3 -0.3 -0.5 h 0.3 c 0.3 0 0.5 0.3 0.8 0 c 0 -0.3 0 -0.3 0 -0.5 c 1.9 0.3 2.4 2.1 3.7 2.9 c 0 0 0.3 0 0.3 0.3 c -0.3 0.5 0 0.5 0.5 1.1 c 0 0.3 0 0.3 0 0.3 c 0.3 0.3 0.5 0.5 1.1 0.5 c -0.3 -0.3 -0.3 -0.5 -0.5 -0.5 c 2.1 1.3 4.8 3.2 5.1 2.9 c 0 0 0 0.3 -0.3 0.3 l 0.3 0.3 c 1.9 2.1 4 4 5.9 5.9 c 0 0 0 0 0.3 -0.3 c 0 -1.9 -1.3 -3.7 -1.6 -4.3 v -0.3 c 0 0 -1.1 -2.7 -5.3 -6.4 c 1.3 1.3 1.3 1.6 1.3 1.9 c -0.3 0 -0.3 0 -1.1 -0.8 l 0.3 0.3 c -3.2 -2.4 -3.5 -2.4 -3.5 -2.9 c 1.1 0.3 1.3 1.6 2.7 1.3 l -0.3 -0.3 c 0.3 0.3 0.3 0.3 0.5 0.5 l -0.3 -0.3 c 0.3 0.3 0.3 0.3 0.5 0.3 l -0.3 -0.3 l -0.3 -0.3 c -3.5 -2.9 -3.5 -2.9 -5.3 -4.3 c -3.5 -2.1 -3.7 -2.4 -6.4 -3.7 c -3.5 -1.3 -4 -1.6 -6.9 -2.7 c -3.2 -0.8 -4.3 -1.1 -8 -1.6 c -2.4 -0.3 -3.7 -0.3 -6.1 0 c -0.5 0 -1.1 0 -1.9 0 c -0.5 0 -1.1 0 -1.6 0.3 c -0.5 0 -1.1 0 -1.3 0.3 c -0.5 0 -0.8 0.3 -1.3 0.3 l 0.6 0.6 c 0.8 -0.3 0.8 -0.3 1.1 -0.3 h -0.3 c 0 0 -0.5 0 -0.8 0.3"/><path d="m 49.5 73 l -0.3 0.3 c -0.3 0 -0.3 0 -0.5 -0.3 c 0.2 0 0.5 0 0.8 0 m -2.7 -0.3 c 0 0 0 0 -0.3 0.3 c 0 -0.3 -0.3 -0.3 0.3 -0.3 m 0.8 -0.8 l -0.3 0.3 v -0.3 c -0.3 0 -0.3 0 0.3 0 m -7.8 -8.5 c 0 0.3 0 0.3 0 0 m 4 -28.6 c -0.5 0.8 -2.1 1.3 -2.1 1.3 s 0 0 0 -0.3 c 0.3 -0.3 0.3 -0.3 0.5 -0.5 c 0.3 0 0.5 0 0.8 -0.3 c 0.6 0 0.8 0 0.8 -0.2 m -0.5 -0.6 c -0.3 0 -0.3 0 0 0 m 0.5 0.6 m 1.1 -0.3 c 0 0 0 0.3 0 0 c -0.5 0.5 -0.5 0.5 -0.8 0.5 c 0 0 -0.3 0 -0.3 -0.3 c 0.3 -0.2 0.8 -0.5 1.1 -0.2 m -0.3 -0.8 c -0.3 0.3 -0.5 0.5 -0.5 0.5 v -0.2 c 0 0 0 0 -0.3 0.3 s -0.5 0.5 -0.8 0.5 c 0 0 0 0 0.3 -0.3 c 0.3 -0.3 0.3 -0.5 0.5 -0.8 l 0.3 -0.3 c 0 0 -0.8 0 -2.1 1.3 c -0.8 0.8 -1.1 1.1 -1.3 1.1 c -0.3 -0.3 0.5 -0.8 1.3 -1.3 c 0.8 -0.5 1.3 -1.1 1.9 -1.3 h 0.8 c -0.1 -0.3 0.5 0 -0.1 0.5 m -3.7 -3.5 c 0 0 0 0.3 0 0 m 3.7 2.7 c -0.2 -0.3 -0.2 -0.3 0 0 c -0.3 -0.3 -0.3 -0.3 -0.5 -0.3 c 0.3 -0.3 0.3 -0.5 0 -0.3 c 0 0 -0.3 0 -0.3 0.3 c -0.3 0.3 -0.3 0.3 -0.3 0.3 h -0.3 c 0 0 0.3 0 0.3 -0.3 c 1.3 -1.1 2.4 -1.1 2.4 -1.1 c -0.2 0.1 -0.5 0.3 -1.3 1.4 m 1.1 -3.2 c -0.3 0.3 -0.5 0.5 -0.5 0.5 l 0.3 -0.3 c 0.5 -0.3 0.8 -0.8 1.3 -1.1 c 0 0 0 0 0.3 0 c -0.3 0.1 -0.3 0.1 -1.4 0.9 m 5.1 -3.7 h -0.3 c -0.3 0 -0.3 0 -0.3 0 c 0.3 0 0.6 0 0.6 0 m 3.2 -1.6 c 0 0 -0.3 0 -0.8 0.3 c -0.3 0 -0.5 0.3 -0.8 0.3 c 0.3 0 0.8 -0.3 1.1 -0.3 c 0.2 -0.3 0.2 -0.3 0.5 -0.3 h -0.3 c 0 0 0 0 0.3 0 m 2.1 -0.8 c -0.5 0.3 -0.8 0.3 -1.1 0.3 c 0.3 -0.3 0.6 -0.3 1.1 -0.3 c 0 0 0.3 -0.3 0.5 -0.3 c -0.2 0 -0.2 0 -0.5 0.3 m -14.4 6.1 m 20.6 47.6 c -0.3 -2.4 -2.9 -1.9 -4.3 -2.9 c -0.8 -0.8 -1.1 -0.8 -1.6 -0.8 h -0.3 c -0.8 0 -1.3 -0.3 -2.1 0 c -0.3 0 -0.8 0.3 -1.1 0.5 l -0.3 -0.3 c -0.5 -0.8 -0.8 -1.3 -1.9 -1.3 c -0.3 0 -0.3 0 -2.1 -0.8 c -0.3 0 -0.5 0 -0.8 0.3 c -0.3 0 -0.3 0 -0.5 0.3 v -0.3 c 1.3 -2.4 -1.9 -5.3 -3.2 -5.3 h -0.3 c -0.3 0 -0.5 0 -0.5 0 c -2.1 -0.3 -4.8 -4 -4.8 -4.3 l 0.3 -0.3 c -0.3 0 -0.3 0 -0.3 0 c -0.3 0.3 -0.8 0.3 -1.1 0.5 c -0.5 -0.5 -0.8 -0.5 -1.1 -0.8 c -0.3 0 -0.5 0.3 -0.5 0.3 c -0.3 -0.5 -0.8 -1.1 -1.1 -1.6 c 0 0.5 0 0.5 -0.8 1.1 c -0.3 1.9 -0.3 1.9 -0.3 1.9 c -0.3 -0.8 -0.3 -0.8 0.3 -2.9 h -0.3 c -1.3 0.8 -1.6 2.4 -2.9 3.2 c -0.3 -0.3 -0.5 -0.8 -0.8 -1.1 c -0.3 0 -0.5 0.3 -0.8 0.3 c -0.8 -0.5 -0.8 -1.3 -0.5 -2.9 c 0.8 -3.5 0.8 -3.5 0.3 -4 c -0.3 0 -0.3 0.3 -0.5 0.3 l -0.3 -0.3 c 0 -1.9 1.9 -2.7 1.9 -4.5 l -0.3 -0.3 c -0.8 0.3 -0.8 0.3 -2.1 2.7 c 0 0 0 -0.3 0 -0.5 h -0.3 v -0.5 c 0 0 -0.3 0.3 -0.3 0.5 c 0.3 -1.6 1.3 -6.4 4.5 -9.1 c 0.5 -0.5 0.8 -0.5 1.1 -0.5 c 0 0.3 0 0.5 0.3 0.8 c 0 0 0.3 -0.3 0.5 -0.3 c 0.3 -0.3 0.5 -0.5 0.8 -0.5 l 0.3 0.3 c 0 0.3 0.3 0.5 0.3 0.5 h 0.2 c 0 1.3 -0.8 2.4 -1.1 3.7 c 0 0 0 0 0 0.3 c 0.5 -0.8 0.8 -1.1 1.1 -2.1 c 0.5 -1.3 0.5 -1.3 6.7 -7.8 c -0.3 0.3 -0.3 0.5 -0.5 0.8 c 0.3 -0.3 0.5 -0.5 0.8 -1.1 v 0.3 c 0.8 -0.5 0.8 -0.8 1.3 -1.3 h 0.3 c 0.3 0 0.5 0 0.5 -0.3 v -0.3 c 0.3 0 0.5 -0.3 0.8 -0.3 c 1.3 -1.6 2.1 -2.1 4.3 -2.7 v 0.3 c -1.1 0.3 -1.3 1.1 -1.3 1.1 v 0.3 c 0.5 -0.3 3.2 -2.1 3.2 -2.1 c -0.8 0.8 -0.8 0.8 -1.1 0.8 l 0.3 -1.1 c 0 -0.3 0 -0.3 0.5 -1.3 h 0.3 c 0.3 0 0.5 -0.3 0.5 -0.5 h -0.3 h -0.3 c -0.5 0.3 -1.1 0.5 -1.6 0.8 v -0.3 c 0.8 -0.8 2.4 -1.3 2.9 -1.3 h 0.3 h 0.3 c 0.8 -0.3 2.7 -0.8 2.9 -1.9 c 0 0 0 -0.3 -0.3 -0.3 s -0.5 0.3 -0.5 0.3 v -0.3 c 0.3 0 0.5 -0.3 0.8 -0.5 c 0 -0.5 0 -0.5 0.8 -2.1 c -0.5 0.3 -0.8 0.5 -1.1 0.5 c 0.3 -0.5 0.8 -0.8 1.1 -1.6 v -0.3 c -1.6 0.5 -2.7 1.9 -4 2.9 c -1.1 0.8 -1.9 2.1 -3.5 2.4 c 0.3 -0.5 0.3 -0.8 1.9 -1.9 c 0 -1.1 0.3 -1.9 5.1 -4 c 0.3 0 0.5 -0.3 0.8 -0.3 c 0.3 -0.3 0.5 -0.3 0.5 -0.5 l -0.3 0.3 c 0.3 0 0.5 -0.3 0.8 -0.3 c 0.5 -0.3 0.5 -0.3 1.1 -0.5 c 0.3 0 0.3 -0.3 0.5 -0.3 c -0.5 0.3 -0.8 0.5 -1.3 0.5 c 0.3 -0.3 0.5 -0.3 0.8 -0.5 h 0.3 c 0.3 -0.3 0.8 -0.3 1.1 -0.5 c -0.3 0 -0.5 0.3 -0.8 0.3 c -0.5 0.3 -1.1 0.5 -1.9 0.8 l 0.3 -0.3 h -0.3 l 0.3 -0.3 c -0.5 0.3 -0.5 0.3 -1.6 0.5 c 0.3 -0.3 0.8 -0.3 1.1 -0.5 h -0.3 c 0.3 0 0.5 -0.3 0.8 -0.3 s 0.3 -0.3 0.5 -0.3 h -0.3 c 0.3 0 0.3 0 0.5 -0.3 c -0.3 0 -0.5 0 -0.8 0.3 h -0.3 c 0.5 -0.3 1.1 -0.3 1.3 -0.5 c -1.9 0.3 -1.9 0.3 -3.2 0.5 c -0.3 0 -0.3 0 -0.5 0 c -0.3 0 -0.5 0 -0.8 0.3 c -0.3 0 -0.3 0 -0.5 0.3 h 0.3 c -1.1 0.3 -2.1 0.3 -3.2 0.8 h -0.3 c -0.3 0 -0.5 0 -0.5 0.3 c -0.3 0 -0.3 0 -0.5 0.3 h -0.3 c -0.3 0 -0.8 0.3 -1.1 0.3 s -0.5 0.3 -0.5 0.3 c 0.8 -0.3 1.6 -0.5 2.1 -0.5 c -0.8 0.3 -1.1 0.3 -1.3 0.5 c 1.6 -0.5 1.6 -0.5 1.9 -0.5 c -3.2 1.6 -3.2 1.6 -10.2 5.9 l 0.3 -0.3 c -8.8 4.8 -13.9 16 -13.9 16.6 c 2.7 -5.3 3.5 -6.1 3.5 -6.1 c -0.3 0.3 -0.3 0.3 -0.8 1.6 c -5.1 8.3 -4.5 11.5 -4.3 12.8 v 0.3 l 0.3 -0.3 c 2.7 2.7 -0.3 6.7 2.7 9.1 c 0 -0.3 0.3 -0.5 0.3 -0.8 c 0 0 0.3 -0.3 0.5 -0.3 c 0 0 0.3 0.3 0.5 0.3 c 0.5 4.3 -1.9 8.3 -1.1 12.6 c 0 0 2.9 7.2 5.1 8.3 h -0.3 v 0.5 c 2.1 2.9 5.3 5.1 7.2 8.3 c 0.8 1.6 5.9 8.3 5.9 8.3 c 1.9 2.1 4.5 2.9 6.4 4.8 c 1.9 0.8 3.7 2.1 5.9 2.1 c -0.8 -1.9 -3.2 -2.1 -4.3 -4 c -0.5 -0.3 -0.8 -0.3 -1.3 -0.5 v -0.3 c 0.3 0 0.5 0.3 1.1 0.3 c 0 -0.3 0 -0.3 -0.8 -1.1 h 0.3 h 0.3 h 0.2 c 0.3 0 0.5 -0.3 0.8 -0.5 c 0.5 -1.1 -1.3 -1.3 -1.3 -1.6 c 0 0 0 -0.3 -0.3 -0.3 c 0 0 0 0 0.3 0 l 0.5 0.3 c 0.3 0 0.3 0 0.5 0 c 0.5 0.3 0.8 0.3 1.1 0.3 s 0.3 0 0.5 -0.3 c 0 -0.3 0.3 -0.5 0.3 -0.8 c 0.5 -1.9 -0.8 -3.7 -0.3 -5.6 c 0 -0.3 1.9 -1.9 2.4 -1.9 c 0.3 0 0.5 0 0.8 0 c 0.3 -0.3 0.8 -0.3 1.1 -1.3 c 0.3 -1.1 0.5 -3.5 -0.5 -6.1 c -0.8 -3.2 2.6 -4.3 2.4 -6.7"/><path d="m 94.6 34.8 m 16.1 33.1 c 0 0.5 0 1.3 0 1.9 c 0 -0.5 0 -0.5 -0.3 -2.9 c 0 -0.3 0 -0.5 0 -0.5 c 0.3 -0.1 0.3 0.5 0.3 1.5 m -1.6 -2.9 c 0 0.3 0 0.3 0 0.3 s -0.3 0 0 -0.3 c -0.3 0 -0.3 0 -0.3 -0.3 c -0.3 -0.5 -0.5 -0.8 -0.8 -1.1 c -0.3 -0.5 -0.3 -1.1 -0.3 -1.6 v -0.3 c 0.3 0.5 0.3 0.5 0.3 0.5 c 0.3 1.2 1.1 2.5 1.1 2.8 m 0 -7.8 c 0 0.5 0 1.9 0 2.1 c -0.3 0 -0.8 -0.8 -0.8 -1.3 c 0 -0.5 0 -1.3 0 -1.6 c 0.5 0 0.8 0.8 0.8 0.8 m -26.2 -21.3 c -0.3 0 -0.3 0.3 -0.5 0.3 s -0.5 0 -0.8 0 c 0.3 0 0.3 0 0.8 -0.3 c 0.2 0 0.2 0 0.5 0 m 24.8 8.5 c -0.3 -0.3 -0.3 -0.5 -0.5 -0.8 c 0.3 0.5 0.3 1.3 0.3 2.1 c -1.3 -0.5 -1.6 -1.9 -2.7 -2.7 c -1.1 -0.8 -1.9 -1.6 -2.7 -2.4 l -7.5 -5.9 c -0.5 -0.3 -1.1 -1.6 -1.9 -1.1 c 0 0.3 -0.3 0.3 -0.5 0.5 c -1.3 0.3 -2.4 0 -3.7 0 c 0 0.5 0 0.5 0.5 1.1 c 0.3 0.5 0.3 0.8 0 0.8 c -4.5 -0.5 -4.5 -0.5 -6.9 -2.9 c -0.3 0 -0.5 0 -0.5 0 c -0.3 0.3 -0.3 0.5 -0.5 0.5 h -0.3 c 0 0.3 0 0.3 0.3 0.8 c -0.3 -0.3 -0.5 -0.5 -0.8 -0.5 l -0.3 0.3 c 0 0 -0.3 0 -0.5 0 c 0 0 -0.3 0 -0.5 0 c -0.8 0.5 -1.1 1.6 -2.1 2.1 c -0.5 0 -1.1 -0.3 -1.6 -0.3 l -0.3 4 c 0.5 1.6 -1.1 2.4 -1.3 3.5 l -0.8 4 c 0 1.6 1.6 2.7 1.3 4.3 c -0.3 2.4 -0.3 2.4 0.3 3.7 l 5.9 4.8 c 1.9 1.1 2.7 0.8 3.2 0.8 c 0.5 -0.3 0.8 -0.3 1.3 -0.8 c 0.3 -0.3 0.8 -0.5 1.1 -0.5 c 0.3 0 0.5 0 1.1 0 h 0.3 c 1.3 -0.8 2.1 -1.9 3.5 -2.7 h 0.3 c 1.1 -0.3 1.6 0 1.9 0.8 c 0.3 0.3 0.3 0.5 0.5 0.5 c 0.5 -0.3 0.5 -0.3 0.8 -0.5 c 0.5 0 1.3 -0.3 1.9 1.1 c 0.8 1.6 -0.3 3.7 1.3 5.1 c 1.9 1.6 2.1 1.9 3.2 5.6 c 0.5 2.1 -0.5 4 -0.5 6.1 c -0.3 2.1 1.1 3.7 1.3 5.6 l 0.3 6.7 c -0.3 0.5 -0.3 0.5 0 1.1 h 0.3 l 0.3 -0.3 c 0.3 -0.3 0.5 -0.5 1.1 -0.8 h 0.3 c 4.8 -3.2 8.6 -17.9 8.8 -19.5 c -0.4 0.7 -0.2 -15.9 -5 -24.2"/><path d="m 61.5 22.2 c 0 0 0 0.3 0 0 c 0.3 0.3 0.3 0.5 0 0.5 c 0 0 0 0 0 0.3 s 0 0.3 -0.3 0.5 c 0 0 -0.3 0 -0.3 0.3 c -0.3 0.3 -0.3 0.8 -0.5 1.1 c 0 0.3 -0.3 0.3 -0.3 0.3 s 0 0 -0.3 0 c -0.3 -0.3 -0.3 -0.3 -0.3 -0.8 v -0.3 c 0 0 0 -0.3 0.3 -0.3 c 0 -0.3 0 -0.3 0.3 -0.5 l 0.3 -0.5 l 0.3 -0.3 l 0.3 -0.5 c 0 0 0 0 0 0.3 c 0 -0.3 0.3 -0.3 0.3 -0.5 c -0.1 0.2 0.2 0.4 0.2 0.4"/><path d="m 58.8 23.6 c 0 0 -0.3 0 -0.3 0.3 c 0 -0.3 0 -0.3 0.3 -0.3 c 0 -0.3 0 0 0 0 m 1.9 -1.4 c -0.3 0 -0.3 0 0 0 m -1.4 1.4 c 0.3 -0.3 0.3 -0.5 0.5 -0.5 c 0.8 -0.8 0.8 -0.8 1.3 -1.1 c -0.3 0 -0.5 0.3 -0.8 0.3 c 0.3 -0.3 0.5 -0.3 0.8 -0.3 c -1.1 0.5 -1.3 0.5 -1.6 0.8 h 0.3 l -0.2 0.2 c 0 0 -0.3 0 -0.3 0.3 c 0 0.3 -1.3 1.1 -1.9 1.1 l -0.3 0.3 c 0 0 0 0 0.3 0 h 0.3 c 0 0 0 0 -0.3 0.5 c -0.3 0.3 -0.3 0.5 0 0.5 h 0.3 c 0 -0.3 0 -0.3 0.3 -0.3 c 0 0 0 0 0.3 0 c 0 0 0 0 0 0.3 c 0.5 -0.3 0.5 -0.8 1.1 -1.1 c 0 0 0 0 0 0.3 c -0.6 -1.1 -0.1 -1.3 -0.1 -1.3"/><path d="m 58.8 22.8 c -0.3 0 -0.5 0.3 -0.8 0.3 h 0.3 c -0.3 0 -0.3 0 -0.5 0.3 h -0.3 l 0.8 -0.3 c 0.5 -0.6 0.5 -0.6 0.5 -0.3 c 0.3 -0.3 0.5 -0.3 0.5 -0.3 c 0.3 0 0.5 -0.3 0.8 -0.3 c -0.3 0 -0.5 0.3 -0.8 0.3 c 0.3 0 0.3 0 0.5 -0.3 c 0.3 0 0.8 -0.3 1.1 -0.3 h -0.3 c 0 0 0 0 -0.3 0 h 0.3 c -0.3 0 -0.5 0.3 -0.8 0.3 c 0.3 0 0.5 -0.3 0.8 -0.3 c -1 0.3 -1 0.3 -1.8 0.9"/><path d="m 70.8 26.5 l 0.3 0.3 c 0 0 0.3 0 0.3 0.3 c -0.3 0 -0.3 0 -0.3 0 c -0.3 0 -0.5 0.5 -1.1 0.5 c 0 -0.3 0 -0.5 0.3 -0.5 c -0.3 0 -0.5 0 -0.8 -0.3 c 0 0 0 -0.3 -0.3 -0.3 c -0.2 -0.3 -0.2 -0.3 -0.2 -0.3 c 0.3 0 0 -0.3 -0.3 -0.3 c -0.5 -0.3 -0.5 -0.3 -0.5 -0.3 s 0 0 -0.3 0 c -0.3 -0.3 -0.5 -0.3 -0.8 -0.5 c 0 0 0 0 -0.3 -0.3 c -0.3 -0.3 -0.3 -0.3 -0.3 -0.5 c 0 0 0 0 0.3 0.3 c 0 0 0 0 0.3 0 c 0 0 0 0 0.5 0.3 s 0.5 0.5 1.3 0.5 c 0.3 0 0.3 0.3 0.5 0.3 c 0.9 0.8 1.2 0.8 1.4 0.8"/><path d="m 63.4 23.3 c 0.3 0.3 0 0.5 0 0.5 h -0.3 h -0.3 c 0 0 0 0 -0.3 -0.3 l -0.3 -0.3 c 0 0 0 0 0.3 0.3 c 0.6 -0.5 0.9 -0.2 0.9 -0.2"/><path d="m 54 32.1 c 0 0 0 0.3 0 0 c 0 0 0.3 0 0 0 m 0.5 0 c 0 -0.3 0.3 -0.8 0 -1.1 c -0.3 0 -0.3 -0.3 0 -0.5 c 0 0 0 0 -0.3 0 c 0 0 0 0 0.3 -0.3 c 0.3 -0.3 0.3 -0.3 0.5 -0.8 c -0.8 0.8 -1.6 1.6 -2.4 2.1 c 0.3 0 0.5 0 0.8 0 c 0.3 0 0.3 0.3 0.3 0.3 c 0 0 0 0 0.3 0 c 0 0 0 0 0 0.3 c 0 0 0 0.3 0.3 0.3 c 0 0.2 0.2 0.2 0.2 -0.3"/><path d="m 34.2 52.7 c -0.3 0.3 -0.3 0.3 -0.5 0.3 c -0.3 0 -0.5 -0.3 -0.8 -0.3 s -0.3 0 -0.5 0.3 c 0 -0.3 0.3 -0.5 0.3 -0.8 c -0.3 0 -0.3 0 -0.5 -1.1 c 0 0 0 -0.3 -0.3 -0.3 l -0.3 -0.3 c -0.5 0 -0.8 0.3 -1.1 0.5 c 0.3 -0.8 0.5 -1.1 1.3 -1.1 c 0.5 0 0.8 0.5 0.8 0.5 c 0.3 0.3 0.3 0.8 0.5 1.1 c 0.3 0.3 0.5 0.3 0.5 0.5 c 0.9 0.4 0.9 0.4 0.6 0.7"/><path d="M68.4,26.2c0,0,0,0.3,0.3,0.3l0.3,0.3l0,0l0,0V27v0.3l0,0c0,0,0,0.3-0.3,0.3c0,0,0,0,0,0.3l-0.3-0.3
								c-0.3-0.3-0.3-0.3-0.3-0.5l-0.3-0.3l0,0c0.3-0.3,0-0.5,0.3-0.5l0,0C67.9,26,68.2,26,68.4,26.2"/><path d="m 36.6 54.6 c -0.5 0.3 -0.8 0.5 -1.3 0.5 c 0 -0.3 -0.3 -0.3 -0.3 -0.3 h -0.3 h -0.3 c -0.3 0 -0.3 0 -0.3 -0.3 c 0 0 0 0 0.3 0 c 0 0 0 0 0.3 0 c 0 0 0 0 0.3 0 s 0.5 -0.5 0.5 -0.5 v -0.3 c 0 -0.3 0 -0.3 0 -0.5 c 0.5 0.3 1.1 0.3 1.6 0.5 c -0.5 0.1 -0.5 0.3 -0.5 0.9"/><path d="m 62.5 108.3 c -0.3 0 -0.5 0 -0.8 0 c -1.1 0 -2.1 -0.5 -1.9 -0.5 c 0.3 0 0.3 0 0.5 0 c 2 0.5 2 0.5 2.2 0.5"/><path d="m 56.4 24.4 c 0 0.2 0 0.2 0 0 c -0.3 0.3 -0.3 0.3 -0.3 0.3 c 0 -0.1 0.3 -0.1 0.3 -0.3 c -0.3 0 -0.5 0.3 -0.5 0.3 c 0 0 0 0 0.3 -0.3 c 0.3 0 0.3 0 0.5 -0.3 h 0.3 c -0.1 0 -0.3 0.3 -0.6 0.3"/><path d="m 60.4 22 c 0.3 0 0.3 0 0 0 m 0.5 0 c -0.3 0 -0.3 0 -0.5 0.3 c -0.3 0 -0.5 0.3 -0.5 0.3 c 0 0 0 0 0.3 0 c 0.2 -0.4 0.5 -0.6 0.7 -0.6"/><path d="m 41.7 29.7 m 0.3 0 c 0.5 -0.5 1.1 -0.8 1.1 -0.8 s 0 0 0.3 -0.3 c 0 0 0 0 -0.3 0 c -0.3 0.3 -0.9 0.8 -1.1 1.1 c -0.3 0 -0.3 0.3 -0.3 0.3 l 0.3 -0.3"/><path d="m 60.9 22 c -0.3 0.3 -0.5 0.3 -1.1 0.5 c 0.3 -0.3 0.9 -0.5 1.1 -0.5"/><path d="m 63.1 107.2 c 0 0.3 0 0.3 -0.3 0.3 s -0.5 0 -0.8 0 v -0.3 c 0.3 0 0.3 0 0.5 0 c 0 0 0.3 0 0.6 0"/><path d="m 79.9 31.8 c 0.3 0.3 0.3 0.5 0 0.5 c 0 -0.3 -0.3 -0.3 -0.5 -0.5 s -0.5 -0.3 -0.5 -0.5 c 0.5 0 0.8 0.3 1 0.5"/><path d="m 83.1 32.1 c 0.3 0.3 0.3 0.5 0.5 0.8 c -0.5 0 -0.8 -0.3 -1.3 -0.3 v -0.3 h 0.3 c 0 0.1 0.3 0.1 0.5 -0.2"/><path d="m 88.7 32.1 c 0 0.3 -0.3 0.3 -0.3 0.3 c -0.3 0 -0.5 0 -1.1 0 c 0 -0.3 0.3 -0.3 0.3 -0.3 c 0.3 0 0.6 0 1.1 0"/><path d="m 58.5 23 c -0.3 0 -0.3 0.3 -0.5 0.3 c 0.3 -0.3 0.3 -0.3 0.5 -0.3"/><path d="m 52.4 31.6 c 0 0 -0.3 0 0 0 c -0.5 0.3 -0.5 -0.3 -0.3 -0.5 c 0.3 0 0.3 0.3 0.3 0.3 s 0 -0.1 0 0.2"/><path d="m 58.8 23.3 l -0.5 0.3 c 0.2 -0.3 0.8 -0.6 0.5 -0.3"/><path d="m 60.7 22.5 m -0.3 0.3 c 0.3 0 0.3 0 0 0"/><path d="m 51.1 32.6 c -0.3 0.5 -0.5 0.5 -0.5 0.5 s -0.5 -0.3 0 -0.5 h 0.3 c 0 0 0 0 0 0.3 c -0.4 -0.3 -0.1 -0.3 0.2 -0.3"/><path d="m 55.6 24.9 c -0.3 0.3 -0.3 0.3 -0.3 0.3 c 0.3 -0.3 0.3 -0.3 0.3 -0.3"/><path d="m 90.3 31 c 0.3 0.3 0.3 0.5 0.3 0.5 c -0.3 0 -0.5 -0.3 -0.5 -0.5 c 0 0 0 0 0.2 0"/><path d="m 71.4 24.6 c -0.3 0 -0.3 0 -0.3 0 c -0.3 0 -0.3 0 0.3 0 c 0 0.3 0.3 0.3 0.3 0.3 c -0.1 0 -0.1 0 -0.3 -0.3 m -0.3 0"/><path d="m 45.7 27 c -0.3 0.3 -0.8 0.3 -1.1 0.5 c 0.3 -0.2 1.1 -0.5 1.1 -0.5"/><path d="m 32.6 54.6 c -0.3 0 -0.3 0.3 -0.3 0 c 0 0 -0.3 -0.3 -0.3 -0.5 c 0.3 0 0.3 0 0.3 0 s 0.3 0.2 0.3 0.5"/><path d="m 38.2 54.8 c 0 0 -0.3 0.3 -0.5 0.3 c -0.3 0 -0.5 -0.3 -0.3 -0.5 c 0 0 0.3 -0.3 0.5 -0.3 c 0.1 0.3 0.3 0.3 0.3 0.5"/><path d="m 60.7 22.5 m 0 0.3 c 0 -0.3 0 -0.3 0 0"/><path d="m 27.3 46.8 v -0.3 c 0.2 -0.2 0 0 0 0.3"/><path d="m 53.7 32.4 c 0 0.2 -0.2 0.2 0 0 c -0.3 0.3 -0.3 0.3 -0.3 0.3 s 0.1 -0.3 0.3 -0.3"/><path d="m 51.9 32.6 c 0 0 -0.3 0 0 0"/><path d="m 82.3 33.4 c 0 0 -0.2 0 0 0"/><path d="m 41.2 39.1 c 0 0 0 0.2 0 0"/><path d="m 90.3 30.8 c 0 0 0 0.2 0 0"/></g><g fill="#4d81b7"><path d="m 64.7 21.4 c 0 0 -0.3 0 0 0 c 0 0 0.3 0 0.5 0 c 0.8 0 1.9 0 1.9 0 c -0.3 0 -0.3 0 -0.5 0 c 0 0 0 0 0.3 0 c -0.3 0 -0.5 0 -0.8 0 c -0.8 0 -1.9 0.3 -2.7 0.3 c 0 0 0 0 -0.3 0 c 0.5 0 0.8 0 1.3 -0.3 c 0 0 0 0 0.3 0"/><path d="m 69.8 22.5 c 0 0 0 0 -0.8 0 c 0.2 -0.3 0.5 -0.3 0.8 0"/><path d="m 65.5 21.1 c 0.3 0 0.3 0 0 0 c 0 0 -0.3 0 -0.5 0 c 0 0.3 0.2 0.3 0.5 0"/><path d="m 65.8 22 c -0.3 0 -0.3 0 0 0"/><path d="m 44.6 33.7 c -0.3 0.3 -0.5 0.5 -0.5 0.5 v -0.2 c 0 0 0 0 -0.3 0.3 s -0.5 0.5 -0.8 0.5 c 0 0 0 0 0.3 -0.3 c 0.3 -0.3 0.3 -0.5 0.5 -0.8 l 0.3 -0.3 c -0.3 0 -0.8 0.3 -1.6 1.1 c -0.3 0.3 -0.5 0.5 -1.1 1.1 c -0.3 0.3 -0.3 0.3 -0.5 0.3 c 0 0 0 0 -0.3 0 c -0.3 -0.3 0.5 -0.8 1.3 -1.3 c 0.8 -0.5 1.3 -1.1 1.9 -1.3 h 0.8 c 0 -0.4 0.6 -0.1 0 0.4"/><path d="m 44.6 32.1 c -0.2 0 -0.2 0 0 0 m 0.3 0.5 c 0.3 -0.3 1.1 -1.1 0.8 -1.1 c -0.3 0 -2.1 0.5 -2.4 1.1 c 0 0 0 0 0 0.3 c 0 0 0 0 0.5 -0.3 c 0.3 0 0.3 0 0.3 0 s 0 0 0 0.3 c 0 0 0 0 0 0.3 h 0.3 c 0 0 0 0.3 0.3 0.3 c -0.1 -0.9 -0.1 -0.9 0.2 -0.9"/></g><path fill="#4d82b8" d="M68,20.8c25,0,45.2,20.2,45.2,45.2S93,111.2,68,111.2S22.8,91,22.8,66S43,20.8,68,20.8 M68,20.3
			c-25.3,0-45.8,20.5-45.8,45.8s20.5,45.8,45.8,45.8s45.8-20.5,45.8-45.8S93.3,20.3,68,20.3L68,20.3z"/><path fill="#d65532" d="M112.8,56.5C128.3,44.2,131,31,125.4,22.8c-5.6-8.3-26.2-10.7-60.1,13.6S1.1,96,0,101.1
		c4.5-6.1,22.5-22.2,53.2-45.2c21.9-16.3,57.5-36.6,64.7-26.5c2.9,4,0.5,10.4-7.2,19C111.7,51.4,112.5,53.6,112.8,56.5"/><path fill="url(#0)" d="M118.7,31c1.3,3.7-1.3,10.4-8.3,17.6c1.1,3.2,1.6,4.5,2.4,7.8c9.6-7.8,13.4-13.7,15-20.9
		c0.5-3.2,0-6.1-0.8-6.9C125.4,26.8,121.4,27,118.7,31z"/></svg>