<svg xmlns="http://www.w3.org/2000/svg" version="1" width="191.383" height="138.682" viewBox="-1.9191 -1.9191 88.185409 63.971198"><path d="m -1.9670214,-1.91785 88.2812504,-0.00125 0,63.97 -88.2812504,0.0012 z" fill="#fff" fill-rule="evenodd" overflow="visible" enable-background="accumulate"/><path d="m -1.9670214,-1.91785 0,23.15625 c 11.93181,-4.9684 27.8745304,-9.96149 47.9375004,-15 12.85569,-3.22361 25.28035,-5.93420003 37.28125,-8.15625 l -85.2187504,0 z m 88.2812504,4.9375 c -11.63412,1.72905 -22.06768,3.76374 -31.25,6.0625 -10.51202,2.64035 -18.97461,5.30966 -25.375,8.03125 -6.40858,2.67285 -9.38564,4.83455 -8.96875,6.5 0.37601,1.47048 3.05989,2.13811 8.0625,2 2.57488,-0.04874 6.74393,-0.33193 12.53125,-0.84375 5.78734,-0.51182 13.25932,-1.25197 22.40625,-2.21875 9.06651,-0.93609 16.576,-1.5692 22.59375,-1.9375 l 0,-17.59375 z m -25.84375,29.375 c -2.57486,0.0325 -6.11957,0.22941 -10.65625,0.5625 -4.55302,0.34122 -10.18563,0.83258 -16.9375,1.53125 -10.47932,1.12113 -19.20145,1.99381 -26.1250004,2.5625 -3.32113,0.28026 -6.20644996,0.4545 -8.71875,0.59375 l 0,18.78125 C 11.783839,54.41586 24.223129,52.01931 35.314229,49.2384 c 10.8962,-2.72971 19.27082,-5.39339 25.15625,-7.96875 5.8936,-2.57535 8.64526,-4.76018 8.1875,-6.53125 -0.3842,-1.52734 -3.14402,-2.30313 -8.1875,-2.34375 z m 25.84375,6.59375 c -12.08341,4.73354 -27.08103,9.37597 -45,13.875 -16.68307,4.18301 -31.09397,7.17596 -43.2812504,9.03125 l 0,0.15625 88.2812504,0 0,-23.0625 z M 1.7204786,42.9259 c 0.04502,-0.0066 0.0795,-3.9e-4 0.125,0 0.22822,0.0077 0.47155,0.07919 0.625,0.25 0.23437,0.24127 0.29522,0.62807 0.15625,0.9375 -0.15113,0.35611 -0.55223,0.57087 -0.9375,0.5 -0.42528,-0.06174 -0.75502996,-0.47978 -0.71874996,-0.90625 0.01232,-0.4015 0.35312996,-0.73153 0.74999996,-0.78125 z m 3.125,0 c 0.19929,0.008 0.38466,0.0484 0.53125,0.1875 0.27691,0.22753 0.38606,0.63671 0.25,0.96875 -0.12739,0.34118 -0.47644,0.59464 -0.84375,0.5625 -0.31548,-0.01294 -0.62583,-0.20951 -0.75,-0.5 -0.1717,-0.37758 -0.03183,-0.88826 0.34375,-1.09375 0.14003,-0.08573 0.30416,-0.12666 0.46875,-0.125 z m -3,5.53125 c 0.3723,-0.01194 0.70493,0.25016 0.8125,0.59375 0.11394,0.38215 -0.06733,0.86299 -0.4375,1.03125 -0.37182,0.18657 -0.86018,0.06831 -1.09375,-0.28125 -0.23773996,-0.34132 -0.20487996,-0.85622 0.125,-1.125 0.16167,-0.14432 0.37659,-0.22333 0.59375,-0.21875 z m 3,0 c 0.2961,-0.01619 0.55926,0.1712 0.71875,0.40625 0.22977,0.35843 0.13364,0.87536 -0.21875,1.125 -0.35348,0.26883 -0.90603,0.22376 -1.1875,-0.125 -0.29097,-0.3465 -0.27177,-0.93652 0.09375,-1.21875 0.15861,-0.13104 0.38669,-0.19407 0.59375,-0.1875 z" fill="#809cc8"/></svg>