<svg xmlns="http://www.w3.org/2000/svg" width="128" height="128"><g transform="matrix(1.3333333,0,0,1.3333333,1.6e-6,-44.666664)"><path d="m 30,37 0,34.5 C 14.502281,71.76763 2,84.438975 2,100 c 0,5.95501 1.8412846,11.48851 4.96875,16.0625 L 7.25,116.5 l 22.75,0 0,9.5 64,0 0,-89 -64,0 z" stroke="#000" stroke-width="4" stroke-linejoin="round"/><rect width="60" height="85" x="32" y="39" fill="#848484" stroke="#fff" stroke-width="4"/><path d="m 85.5,70 a 22.5,22.5 0 0 1 -45,0 22.5,22.5 0 1 1 45,0 z" fill="#848484" stroke="#fff" stroke-width="6"/><path d="m 68,70 a 5,5 0 0 1 -10,0 5,5 0 1 1 10,0 z" fill="#fff"/><path d="M 88.170431,107.375 66,83.224688 76.695595,114 88.170431,107.375 z" fill="#4a4a4a" stroke="#fff" stroke-width="2" stroke-linejoin="bevel"/><path d="M 30.5,72.5 C 15.312169,72.5 3,84.812169 3,100 c 0,5.7506 1.7632823,11.08615 4.78125,15.5 l 45.4375,0 C 56.236718,111.08615 58,105.7506 58,100 58,84.812169 45.687831,72.5 30.5,72.5 z" fill="#009c18" stroke="#fff" stroke-width="2"/><path d="m 10.9375,86.4375 6.53125,11.125 1.28125,-0.5 7.90625,7.90625 c -0.362162,1.33786 -0.05035,2.82465 1,3.875 1.562097,1.5621 4.125403,1.5621 5.6875,0 1.562097,-1.5621 1.562097,-4.1254 0,-5.6875 -1.050354,-1.05035 -2.537136,-1.36216 -3.875,-1 L 21.5625,94.25 l 0.5,-1.28125 -11.125,-6.53125 z" fill="#fff"/></g></svg>