<svg xmlns="http://www.w3.org/2000/svg" xmlns:xlink="http://www.w3.org/1999/xlink" width="128" height="128"><defs><linearGradient xlink:href="#a" gradientUnits="userSpaceOnUse" gradientTransform="matrix(-0.5946362,0,0,-0.58454464,-145.49012,-73.409627)" x1="14.656" y1="-38.27" x2="17.175" y2="-54.18"/><linearGradient id="a"><stop offset="0" stop-color="#fff" stop-opacity="0"/><stop offset="1"/></linearGradient><linearGradient y2="-54.18" x2="17.175" y1="-38.27" x1="14.656" gradientTransform="matrix(-4.2740627,0,0,-4.3686195,87.312016,-145.23669)" gradientUnits="userSpaceOnUse" xlink:href="#a"/><filter color-interpolation-filters="sRGB" id="p"><feGaussianBlur stdDeviation="1.601"/></filter><linearGradient xlink:href="#b" gradientUnits="userSpaceOnUse" gradientTransform="matrix(0.801653,0,0,0.801653,97.867647,-84.976828)" x1="113.62" y1="87.807" x2="113.62" y2="82.264"/><linearGradient gradientUnits="userSpaceOnUse" id="b" y2="82.264" x2="113.62" y1="87.807" x1="113.62" gradientTransform="matrix(0.801653,0,0,0.801653,-7.566342e-7,-1.603306)"><stop offset="0" stop-color="#eeeeec"/><stop offset=".241" stop-color="#ececea"/><stop offset=".379" stop-color="#e3e3e3"/><stop offset=".438" stop-color="#ddd"/><stop offset="1" stop-color="#888"/></linearGradient><radialGradient xlink:href="#c" gradientUnits="userSpaceOnUse" cx="113.926" cy="88.516" r="5.781"/><radialGradient gradientUnits="userSpaceOnUse" id="c" r="5.781" cy="88.516" cx="113.926"><stop offset="0" stop-color="#888"/><stop offset=".105" stop-color="#828282"/><stop offset="1" stop-color="#555"/></radialGradient><radialGradient xlink:href="#d" gradientUnits="userSpaceOnUse" cx="112.791" cy="83.794" fx="113.269" fy="84.335" r="4.042"/><radialGradient gradientUnits="userSpaceOnUse" id="d" fy="84.335" fx="113.269" r="4.042" cy="83.794" cx="112.791"><stop offset="0" stop-color="#fff"/><stop offset=".104" stop-color="#fdfdfd"/><stop offset=".163" stop-color="#f6f6f4"/><stop offset=".195" stop-color="#eeeeec"/><stop offset=".329" stop-color="#ececea"/><stop offset=".405" stop-color="#e3e3e3"/><stop offset=".438" stop-color="#ddd"/><stop offset=".864" stop-color="#888"/></radialGradient><linearGradient xlink:href="#e" gradientUnits="userSpaceOnUse" gradientTransform="matrix(0.801653,0,0,0.801653,97.867647,-84.976828)" x1="113.795" y1="80.803" x2="113.795" y2="75.262"/><linearGradient gradientUnits="userSpaceOnUse" id="e" y2="75.262" x2="113.795" y1="80.803" x1="113.795" gradientTransform="matrix(0.801653,0,0,0.801653,97.867647,-84.976828)"><stop offset="0" stop-color="#eeeeec"/><stop offset=".241" stop-color="#ececea"/><stop offset=".379" stop-color="#e3e3e3"/><stop offset=".438" stop-color="#ddd"/><stop offset="1" stop-color="#888"/></linearGradient><radialGradient xlink:href="#f" gradientUnits="userSpaceOnUse" cx="114.188" cy="82.801" r="8.468"/><radialGradient gradientUnits="userSpaceOnUse" id="f" r="8.468" cy="82.801" cx="114.188"><stop offset="0" stop-color="#888"/><stop offset=".105" stop-color="#828282"/><stop offset="1" stop-color="#555"/></radialGradient><radialGradient xlink:href="#g" gradientUnits="userSpaceOnUse" gradientTransform="matrix(0.801653,0,0,0.801653,97.867647,-84.976828)" cx="112.966" cy="76.789" fx="113.444" fy="77.33" r="4.043"/><radialGradient gradientUnits="userSpaceOnUse" id="g" fy="77.33" fx="113.444" r="4.043" cy="76.789" cx="112.966" gradientTransform="matrix(0.801653,0,0,0.801653,97.867647,-84.976828)"><stop offset="0" stop-color="#fff"/><stop offset=".104" stop-color="#fdfdfd"/><stop offset=".163" stop-color="#f6f6f4"/><stop offset=".195" stop-color="#eeeeec"/><stop offset=".329" stop-color="#ececea"/><stop offset=".405" stop-color="#e3e3e3"/><stop offset=".438" stop-color="#ddd"/><stop offset=".864" stop-color="#888"/></radialGradient><radialGradient xlink:href="#h" gradientUnits="userSpaceOnUse" cx="95.796" cy="56.932" fx="95.991" fy="39.603" r="47.119"/><linearGradient id="h"><stop offset="0" stop-opacity="0"/><stop offset=".438" stop-opacity="0"/><stop offset=".582" stop-opacity="0"/><stop offset=".764" stop-opacity=".498"/><stop offset=".875"/><stop offset=".918" stop-opacity=".498"/><stop offset=".96" stop-opacity="0"/><stop offset="1" stop-opacity="0"/></linearGradient><radialGradient xlink:href="#i" gradientUnits="userSpaceOnUse" gradientTransform="matrix(1,0,0,0.197802,0,92.82166)" cx="63.912" cy="115.709" fx="63.912" fy="115.709" r="63.912"/><linearGradient id="i"><stop offset="0"/><stop offset="1" stop-opacity="0"/></linearGradient><linearGradient xlink:href="#j" gradientUnits="userSpaceOnUse" x1="-42.789" y1="82.914" x2="229.177" y2="81.155"/><linearGradient id="j"><stop offset="0" stop-color="#c3c3c3"/><stop offset="1" stop-color="#fff"/></linearGradient><radialGradient xlink:href="#k" gradientUnits="userSpaceOnUse" gradientTransform="matrix(1.165294,0,0,1.180294,-9.816118,-9.597466)" cx="59.386" cy="52.047" fx="59.386" fy="52.047" r="43.225"/><linearGradient id="k"><stop offset="0" stop-opacity="0"/><stop offset=".438" stop-opacity="0"/><stop offset=".566" stop-opacity="0"/><stop offset=".762" stop-opacity=".247"/><stop offset=".779" stop-opacity=".498"/><stop offset=".875"/><stop offset=".875" stop-opacity=".498"/><stop offset="1" stop-opacity="0"/></linearGradient><linearGradient xlink:href="#l" gradientUnits="userSpaceOnUse" gradientTransform="matrix(0.759578,0,0,0.74706,137.77148,-43.388422)" x1="74.515" y1="17.232" x2="52.588" y2="99.065"/><linearGradient id="l"><stop offset="0" stop-color="#fff"/><stop offset="1" stop-color="#fff" stop-opacity="0"/></linearGradient><radialGradient xlink:href="#m" gradientUnits="userSpaceOnUse" gradientTransform="matrix(0.856383,0,0,0.8415585,113.79247,-6.0093335)" cx="99.081" cy="109.334" fx="99.081" fy="109.334" r="139.559"/><radialGradient id="m" cx="102" cy="112.305" r="139.559" gradientUnits="userSpaceOnUse"><stop offset="0" stop-color="#7a7d80"/><stop offset=".126" stop-color="#c2c2c2"/><stop offset=".233" stop-color="#FAFAFA"/><stop offset=".272" stop-color="#fff"/><stop offset=".531" stop-color="#FAFAFA"/><stop offset=".845" stop-color="#EBECEC"/><stop offset="1" stop-color="#E1E2E3"/></radialGradient><radialGradient r="139.559" fy="109.334" fx="99.081" cy="109.334" cx="99.081" gradientTransform="matrix(0.63965342,0,0,0.55891388,-8.9786626,-3.7704871)" gradientUnits="userSpaceOnUse" xlink:href="#m"/><radialGradient xlink:href="#m" id="n" gradientUnits="userSpaceOnUse" gradientTransform="matrix(0.63965342,0,0,0.55891388,-8.9786626,-3.7704871)" cx="99.081" cy="109.334" fx="99.081" fy="109.334" r="139.559"/><linearGradient xlink:href="#a" id="o" gradientUnits="userSpaceOnUse" gradientTransform="matrix(-4.2740627,0,0,-4.3686195,87.312016,-145.23669)" x1="14.656" y1="-38.27" x2="17.175" y2="-54.18"/><linearGradient xlink:href="#b" id="q" gradientUnits="userSpaceOnUse" gradientTransform="matrix(0.801653,0,0,0.801653,97.867647,-84.976828)" x1="113.62" y1="87.807" x2="113.62" y2="82.264"/><radialGradient xlink:href="#c" id="r" gradientUnits="userSpaceOnUse" cx="113.926" cy="88.516" r="5.781"/><radialGradient xlink:href="#d" id="s" gradientUnits="userSpaceOnUse" cx="112.791" cy="83.794" fx="113.269" fy="84.335" r="4.042"/><linearGradient xlink:href="#e" id="t" gradientUnits="userSpaceOnUse" gradientTransform="matrix(0.801653,0,0,0.801653,97.867647,-84.976828)" x1="113.795" y1="80.803" x2="113.795" y2="75.262"/><radialGradient xlink:href="#f" id="u" gradientUnits="userSpaceOnUse" cx="114.188" cy="82.801" r="8.468"/><radialGradient xlink:href="#g" id="v" gradientUnits="userSpaceOnUse" gradientTransform="matrix(0.801653,0,0,0.801653,97.867647,-84.976828)" cx="112.966" cy="76.789" fx="113.444" fy="77.33" r="4.043"/><radialGradient xlink:href="#h" id="w" gradientUnits="userSpaceOnUse" cx="95.796" cy="56.932" fx="95.991" fy="39.603" r="47.119"/><radialGradient xlink:href="#i" id="x" gradientUnits="userSpaceOnUse" gradientTransform="matrix(1,0,0,0.197802,0,92.82166)" cx="63.912" cy="115.709" fx="63.912" fy="115.709" r="63.912"/><linearGradient xlink:href="#j" id="y" gradientUnits="userSpaceOnUse" x1="-42.789" y1="82.914" x2="229.177" y2="81.155"/><radialGradient xlink:href="#k" id="z" gradientUnits="userSpaceOnUse" gradientTransform="matrix(1.165294,0,0,1.180294,-9.816118,-9.597466)" cx="59.386" cy="52.047" fx="59.386" fy="52.047" r="43.225"/><linearGradient xlink:href="#l" id="A" gradientUnits="userSpaceOnUse" gradientTransform="matrix(0.759578,0,0,0.74706,137.77148,-43.388422)" x1="74.515" y1="17.232" x2="52.588" y2="99.065"/></defs><g transform="translate(0,64) matrix(2.0139114,0,0,2.0139114,-0.85463718,-64.353331)"><path d="m 2.5350961,1.2597368 c -0.3524512,0 -0.6396515,0.2509528 -0.6396515,0.5589143 l 0,60.3626909 c 0,0.308526 0.2872003,0.558921 0.6396515,0.558921 l 37.8495679,0 c 0.16823,0 21.333754,-0.05924 21.452731,-0.163764 l -0.0022,-18.348025 c 0.275167,17.876857 0.342981,18.009851 0.187419,-0.395153 l 0,-42.0146699 c 0,-0.3079615 -0.286566,-0.5589143 -0.639659,-0.5589143 l -58.8481101,0 z" fill="url(#n)"/><path d="m 61.899777,62.660924 -59.9813737,0 L 2.3010334,1.1685373 61.899777,62.660924 z" fill="url(#o)" fill-rule="evenodd"/><g overflow="visible"><path d="m 326.27987,238.13476 -31.82536,0 0,-1.72861 0,-1.7286 3.01793,-0.002 c 1.65985,-10e-4 3.64838,-0.18598 4.41892,-0.41067 1.07967,-0.31482 1.52016,-0.70798 1.9205,-1.71412 0.43645,-1.09677 0.51949,-7.16154 0.51949,-37.94533 0,-26.34738 -0.11666,-36.99132 -0.41531,-37.89093 -0.28152,-0.84802 -0.80805,-1.42337 -1.63439,-1.78594 -0.73643,-0.32311 -2.52718,-0.53487 -4.52311,-0.53487 l -3.30403,0 0,-1.92068 0,-1.92068 3.29229,0 3.29227,0 -0.007,-1.63256 c -0.004,-0.89792 -0.24559,-3.51401 -0.53702,-5.81354 -0.29143,-2.29955 -0.79658,-5.14436 -1.12255,-6.32183 -0.32597,-1.17745 -0.98159,-2.9468 -1.45694,-3.93184 -0.47536,-0.98506 -1.40736,-2.27302 -2.07114,-2.86215 -0.66377,-0.58912 -1.93855,-1.4125 -2.83285,-1.82973 -0.89429,-0.41724 -3.11658,-0.99369 -4.93842,-1.281 -1.82183,-0.28732 -6.12056,-0.52361 -9.55272,-0.52511 -4.81487,-0.002 -6.40248,0.12182 -6.95037,0.54246 -0.69342,0.5324 -0.71234,1.4323 -0.80679,38.37395 -0.0609,23.80504 0.0351,38.19261 0.25865,38.81023 0.19544,0.53981 0.89741,1.28943 1.55994,1.66584 0.96037,0.54561 2.29851,0.71224 6.60028,0.82189 l 5.39568,0.13754 0,1.69338 0,1.69337 -18.10754,0 -18.10754,0 0,-1.72861 0,-1.7286 4.66406,-0.009 c 2.56523,-0.005 5.30729,-0.16583 6.09346,-0.35732 0.78616,-0.1915 1.85615,-0.79629 2.37775,-1.34401 l 0.94837,-0.99586 0,-37.98028 c 0,-36.80977 -0.0214,-38.00519 -0.69687,-38.7889 -0.65676,-0.76208 -1.05723,-0.80861 -6.95996,-0.80861 -3.44471,0 -7.6282,0.17974 -9.29663,0.39943 -1.66845,0.21968 -3.94911,0.75915 -5.06814,1.1988 -1.11903,0.43966 -2.68345,1.41494 -3.47647,2.16729 -0.79302,0.75234 -1.76931,2.0419 -2.16953,2.86569 -0.40022,0.82378 -1.02844,2.73704 -1.39605,4.25168 -0.36761,1.51465 -0.84356,4.30963 -1.05766,6.21111 -0.2141,1.90146 -0.49119,4.45116 -0.61573,5.66598 l -0.22646,2.20878 -1.28833,0 -1.28834,0 0.21123,-1.82465 c 0.11617,-1.00354 0.54746,-6.75116 0.95841,-12.77247 0.41093,-6.02132 0.83526,-11.6825 0.94293,-12.58042 l 0.19577,-1.63257 35.27813,0 c 19.40298,0 35.28072,0.12964 35.28389,0.28811 0.003,0.15845 0.41337,5.90607 0.91158,12.77248 0.4982,6.8664 0.90716,13.04617 0.90877,13.73281 l 0.003,1.24843 26.32165,0 26.32166,0 0.19231,1.24845 c 0.10582,0.68664 0.77186,6.95284 1.48021,13.92487 0.70835,6.97205 1.28773,12.8061 1.28751,12.96455 -2.2e-4,0.15847 -0.54798,0.28811 -1.21724,0.28811 l -1.21684,0 -0.60577,-4.51358 c -0.33318,-2.48247 -0.86334,-5.55075 -1.17816,-6.8184 -0.31481,-1.26764 -0.96141,-3.19939 -1.4369,-4.29276 -0.47548,-1.09338 -1.56129,-2.78176 -2.41294,-3.75197 -0.8977,-1.02268 -2.49713,-2.23947 -3.80588,-2.89536 -1.2416,-0.62224 -3.70879,-1.39712 -5.48262,-1.72196 -2.46639,-0.45164 -6.08751,-0.5906 -15.39133,-0.5906 -11.43173,0 -12.21828,0.0444 -13.02975,0.73402 l -0.8636,0.73402 -0.11493,17.51238 -0.11493,17.51239 5.78497,-0.003 c 3.18173,-0.002 7.23824,-0.17799 9.01447,-0.39169 1.77622,-0.21369 3.8339,-0.71403 4.57261,-1.11187 0.73871,-0.39783 1.70563,-1.13145 2.14872,-1.63026 0.44308,-0.49881 1.08489,-1.59601 1.42622,-2.43823 0.38839,-0.95829 0.68662,-3.00464 0.79703,-5.46867 l 0.17641,-3.93739 1.23239,0 1.23237,0 0,16.70987 0,16.70986 -1.28032,0 -1.28034,0 -0.006,-2.97704 c -0.003,-1.63738 -0.22754,-3.96689 -0.49867,-5.1767 -0.27113,-1.20981 -0.91852,-2.78554 -1.43864,-3.50162 -0.52013,-0.71609 -1.7361,-1.7116 -2.70215,-2.21225 -1.67218,-0.86659 -2.17449,-0.91663 -10.46608,-1.04267 l -8.70959,-0.1324 0.11309,19.46375 0.11308,19.46374 0.89624,0.7618 c 0.86558,0.73574 1.3723,0.75686 14.81526,0.61759 13.68007,-0.14174 13.97069,-0.16096 16.92866,-1.12 1.65531,-0.53669 3.89759,-1.59489 4.98287,-2.35158 1.08527,-0.75668 2.56908,-2.13937 3.29734,-3.07263 0.72826,-0.93327 1.8067,-2.8145 2.39653,-4.18052 0.58984,-1.36602 1.32992,-3.52716 1.64463,-4.80253 0.31471,-1.27537 0.82123,-3.68541 1.12559,-5.35566 0.30436,-1.67024 0.55342,-3.16645 0.55345,-3.3249 4e-5,-0.15847 -1.65554,-0.28811 -3.67906,-0.28811 l -3.67913,0 0.11249,-1.63257 c 0.11096,-1.61122 0.13163,-1.63377 1.57572,-1.72403 0.80478,-0.0503 2.36862,-0.28718 3.47519,-0.52642 1.10657,-0.23925 2.93874,-0.92478 4.07148,-1.52341 1.13273,-0.59861 2.89916,-1.91746 3.92539,-2.93077 1.19282,-1.1778 5.76109,-7.848 12.66428,-18.49133 5.93912,-9.157 10.79841,-16.80528 10.79841,-16.99626 0,-0.19098 -5.27385,-8.5157 -11.71967,-18.49938 -6.4458,-9.98367 -12.35107,-18.78621 -13.12281,-19.56116 -0.77173,-0.77496 -2.0413,-1.59509 -2.82125,-1.8225 -0.77995,-0.22741 -2.69384,-0.41444 -4.2531,-0.41562 l -2.83502,-0.002 0,-1.7286 0,-1.72861 13.16912,0 13.16912,0 0,1.72861 c 0,1.5936 -0.0724,1.7286 -0.92627,1.7286 -0.50945,0 -1.48433,0.24485 -2.16641,0.54412 -0.68206,0.29926 -1.51154,0.97911 -1.84329,1.51078 -0.49571,0.79444 -0.52419,1.12523 -0.15992,1.85672 0.24379,0.48953 4.49286,7.15159 9.4424,14.80456 6.99793,10.8202 9.09536,13.81003 9.43173,13.44472 0.23792,-0.25839 4.14892,-6.15709 8.69113,-13.10823 7.29721,-11.16725 8.25857,-12.81278 8.25857,-14.13603 0,-0.82367 -0.2497,-2.00465 -0.5549,-2.6244 -0.3052,-0.61976 -1.03779,-1.38905 -1.62798,-1.70953 -0.59018,-0.3205 -1.41047,-0.58271 -1.82285,-0.58271 -0.64476,0 -0.74978,-0.24213 -0.74978,-1.7286 l 0,-1.72861 11.34007,0 11.34007,0 0,1.72861 0,1.7286 -1.56928,0 c -0.86311,0 -2.51201,0.25785 -3.66423,0.573 -1.15223,0.31515 -2.94265,1.02407 -3.97871,1.57539 -1.03607,0.55133 -2.72059,1.89743 -3.7434,2.99137 -1.0228,1.09393 -5.97498,8.27594 -11.00486,15.96002 -5.02987,7.68407 -9.19352,14.09746 -9.25257,14.25197 -0.059,0.15451 5.9275,9.59285 13.30344,20.9741 7.37594,11.38124 13.97891,21.31758 14.67328,22.08074 0.69436,0.76317 1.88762,1.58425 2.65168,1.82463 0.76406,0.24039 2.35779,0.43943 3.54162,0.44232 1.18383,0.003 2.52279,0.10948 2.97548,0.23688 0.68522,0.19283 0.82307,0.49753 0.82307,1.81939 l 0,1.58776 -13.18542,0 -13.18543,0 0.10772,-1.68801 c 0.10626,-1.66411 0.13208,-1.69448 1.82493,-2.14396 0.94445,-0.25076 1.9917,-0.69517 2.32723,-0.98758 0.33552,-0.29242 0.73679,-0.88338 0.89171,-1.31327 0.15491,-0.42988 0.11018,-1.12733 -0.0996,-1.54987 -0.20964,-0.42255 -5.06782,-8.02841 -10.79595,-16.90192 -5.72811,-8.87352 -10.53045,-16.26909 -10.67183,-16.4346 -0.14138,-0.16551 -4.66416,6.46904 -10.05061,14.74347 -5.38647,8.27442 -10.03919,15.66167 -10.33938,16.41612 -0.43044,1.08182 -0.46159,1.66685 -0.14737,2.76816 0.21913,0.76803 0.71818,1.70031 1.10898,2.0717 0.39081,0.3714 1.33876,0.90104 2.10656,1.17698 1.27946,0.45984 1.40539,0.63317 1.50848,2.07622 l 0.11249,1.57449 -6.60559,0 c -3.63308,0 -6.60684,0.12965 -6.60838,0.2881 -10e-4,0.15847 -0.82451,6.33823 -1.82884,13.73282 -1.00433,7.3946 -1.82615,13.57437 -1.82626,13.73282 -1.1e-4,0.15846 -14.32162,0.2881 -31.82557,0.2881 z" fill-opacity=".853" filter="url(#p)" transform="matrix(0.27450987,0,0,0.27450987,-58.929677,-29.571424)"/><path d="m 322.05257,235.40058 -31.82536,0 0,-1.72861 0,-1.7286 3.01793,-0.002 c 1.65985,-0.001 3.64838,-0.18598 4.41892,-0.41067 1.07967,-0.31482 1.52016,-0.70798 1.9205,-1.71412 0.43645,-1.09677 0.51949,-7.16154 0.51949,-37.94533 0,-26.34738 -0.11666,-36.99132 -0.41531,-37.89093 -0.28152,-0.84802 -0.80805,-1.42337 -1.63439,-1.78594 -0.73643,-0.32311 -2.52718,-0.53487 -4.52311,-0.53487 l -3.30403,0 0,-1.92068 0,-1.92068 3.29229,0 3.29227,0 -0.007,-1.63256 c -0.004,-0.89792 -0.24559,-3.51401 -0.53702,-5.81354 -0.29143,-2.29955 -0.79658,-5.14436 -1.12255,-6.32183 -0.32597,-1.17745 -0.98159,-2.9468 -1.45694,-3.93184 -0.47536,-0.98506 -1.40736,-2.27302 -2.07114,-2.86215 -0.66377,-0.58912 -1.93855,-1.4125 -2.83285,-1.82973 -0.89429,-0.41724 -3.11658,-0.99369 -4.93842,-1.281 -1.82183,-0.28732 -6.12056,-0.52361 -9.55272,-0.52511 -4.81487,-0.002 -6.40248,0.12182 -6.95037,0.54246 -0.69342,0.5324 -0.71234,1.4323 -0.80679,38.37395 -0.0609,23.80504 0.0351,38.19261 0.25865,38.81023 0.19544,0.53981 0.89741,1.28943 1.55994,1.66584 0.96037,0.54561 2.29851,0.71224 6.60028,0.82189 l 5.39568,0.13754 0,1.69338 0,1.69337 -18.10754,0 -18.10754,0 0,-1.72861 0,-1.7286 4.66406,-0.009 c 2.56523,-0.005 5.30729,-0.16583 6.09346,-0.35732 0.78616,-0.1915 1.85615,-0.79629 2.37775,-1.34401 l 0.94837,-0.99586 0,-37.98028 c 0,-36.80977 -0.0214,-38.00519 -0.69687,-38.7889 -0.65676,-0.76208 -1.05723,-0.80861 -6.95996,-0.80861 -3.44471,0 -7.6282,0.17974 -9.29663,0.39943 -1.66845,0.21968 -3.94911,0.75915 -5.06814,1.1988 -1.11903,0.43966 -2.68345,1.41494 -3.47647,2.16729 -0.79302,0.75234 -1.76931,2.0419 -2.16953,2.86569 -0.40022,0.82378 -1.02844,2.73704 -1.39605,4.25168 -0.36761,1.51465 -0.84356,4.30963 -1.05766,6.21111 -0.2141,1.90146 -0.49119,4.45116 -0.61573,5.66598 l -0.22646,2.20878 -1.28833,0 -1.28834,0 0.21123,-1.82465 c 0.11617,-1.00354 0.54746,-6.75116 0.95841,-12.77247 0.41093,-6.02132 0.83526,-11.6825 0.94293,-12.58042 l 0.19577,-1.63257 35.27813,0 c 19.40298,0 35.28072,0.12964 35.28389,0.28811 0.003,0.15845 0.41337,5.90607 0.91158,12.77248 0.4982,6.8664 0.90716,13.04617 0.90877,13.73281 l 0.003,1.24843 26.32165,0 26.32166,0 0.19231,1.24845 c 0.10582,0.68664 0.77186,6.95284 1.48021,13.92487 0.70835,6.97205 1.28773,12.8061 1.28751,12.96455 -2.2e-4,0.15847 -0.54798,0.28811 -1.21724,0.28811 l -1.21684,0 -0.60577,-4.51358 c -0.33318,-2.48247 -0.86334,-5.55075 -1.17816,-6.8184 -0.31481,-1.26764 -0.96141,-3.19939 -1.4369,-4.29276 -0.47548,-1.09338 -1.56129,-2.78176 -2.41294,-3.75197 -0.8977,-1.02268 -2.49713,-2.23947 -3.80588,-2.89536 -1.2416,-0.62224 -3.70879,-1.39712 -5.48262,-1.72196 -2.46639,-0.45164 -6.08751,-0.5906 -15.39133,-0.5906 -11.43173,0 -12.21828,0.0444 -13.02975,0.73402 l -0.8636,0.73402 -0.11492,17.51238 -0.11493,17.51239 5.78496,-0.003 c 3.18173,-0.002 7.23824,-0.17799 9.01447,-0.39169 1.77622,-0.21369 3.8339,-0.71403 4.57261,-1.11187 0.73871,-0.39783 1.70563,-1.13145 2.14872,-1.63026 0.44308,-0.49881 1.08489,-1.59601 1.42622,-2.43823 0.38839,-0.95829 0.68662,-3.00464 0.79703,-5.46867 l 0.17641,-3.93739 1.23239,0 1.23237,0 0,16.70987 0,16.70986 -1.28032,0 -1.28034,0 -0.006,-2.97704 c -0.003,-1.63738 -0.22754,-3.96689 -0.49867,-5.1767 -0.27113,-1.20981 -0.91852,-2.78554 -1.43864,-3.50162 -0.52013,-0.71609 -1.7361,-1.7116 -2.70215,-2.21225 -1.67218,-0.86659 -2.17449,-0.91663 -10.46608,-1.04267 l -8.70958,-0.1324 0.11309,19.46375 0.11307,19.46374 0.89624,0.7618 c 0.86558,0.73574 1.3723,0.75686 14.81526,0.61759 13.68007,-0.14174 13.97069,-0.16096 16.92866,-1.12 1.65531,-0.53669 3.89759,-1.59489 4.98287,-2.35158 1.08527,-0.75668 2.56908,-2.13937 3.29734,-3.07263 0.72826,-0.93327 1.8067,-2.8145 2.39653,-4.18052 0.58984,-1.36602 1.32992,-3.52716 1.64463,-4.80253 0.31471,-1.27537 0.82123,-3.68541 1.12559,-5.35566 0.30436,-1.67024 0.55342,-3.16645 0.55345,-3.3249 4e-5,-0.15847 -1.65554,-0.28811 -3.67906,-0.28811 l -3.67913,0 0.11249,-1.63257 c 0.11096,-1.61122 0.13163,-1.63377 1.57572,-1.72403 0.80478,-0.0503 2.36862,-0.28718 3.47519,-0.52642 1.10657,-0.23925 2.93874,-0.92478 4.07148,-1.52341 1.13273,-0.59861 2.89916,-1.91746 3.92539,-2.93077 1.19282,-1.1778 5.76109,-7.848 12.66428,-18.49133 5.93912,-9.157 10.79841,-16.80528 10.79841,-16.99626 0,-0.19098 -5.27385,-8.5157 -11.71967,-18.49938 -6.4458,-9.98367 -12.35107,-18.78621 -13.12281,-19.56116 -0.77173,-0.77496 -2.0413,-1.59509 -2.82125,-1.8225 -0.77995,-0.22741 -2.69384,-0.41444 -4.2531,-0.41562 l -2.83502,-0.002 0,-1.7286 0,-1.72861 13.16912,0 13.16912,0 0,1.72861 c 0,1.5936 -0.0724,1.7286 -0.92627,1.7286 -0.50945,0 -1.48433,0.24485 -2.16641,0.54412 -0.68206,0.29926 -1.51154,0.97911 -1.84329,1.51078 -0.49571,0.79444 -0.52419,1.12523 -0.15992,1.85672 0.24379,0.48953 4.49286,7.15159 9.4424,14.80456 6.99793,10.8202 9.09536,13.81003 9.43173,13.44472 0.23792,-0.25839 4.14892,-6.15709 8.69113,-13.10823 7.29721,-11.16725 8.25857,-12.81278 8.25857,-14.13603 0,-0.82367 -0.2497,-2.00465 -0.5549,-2.6244 -0.3052,-0.61976 -1.03779,-1.38905 -1.62798,-1.70953 -0.59018,-0.3205 -1.41047,-0.58271 -1.82285,-0.58271 -0.64476,0 -0.74978,-0.24213 -0.74978,-1.7286 l 0,-1.72861 11.34007,0 11.34007,0 0,1.72861 0,1.7286 -1.56928,0 c -0.86311,0 -2.51201,0.25785 -3.66423,0.573 -1.15223,0.31515 -2.94265,1.02407 -3.97871,1.57539 -1.03607,0.55133 -2.72059,1.89743 -3.7434,2.99137 -1.0228,1.09393 -5.97498,8.27594 -11.00486,15.96002 -5.02987,7.68407 -9.19352,14.09746 -9.25257,14.25197 -0.059,0.15451 5.9275,9.59285 13.30344,20.9741 7.37594,11.38124 13.97891,21.31758 14.67328,22.08074 0.69436,0.76317 1.88762,1.58425 2.65168,1.82463 0.76406,0.24039 2.35779,0.43943 3.54162,0.44232 1.18383,0.003 2.52279,0.10948 2.97548,0.23688 0.68522,0.19283 0.82307,0.49753 0.82307,1.81939 l 0,1.58776 -13.18542,0 -13.18543,0 0.10772,-1.68801 c 0.10626,-1.66411 0.13208,-1.69448 1.82493,-2.14396 0.94445,-0.25076 1.9917,-0.69517 2.32723,-0.98758 0.33552,-0.29242 0.73679,-0.88338 0.89171,-1.31327 0.15491,-0.42988 0.11018,-1.12733 -0.0996,-1.54987 -0.20964,-0.42255 -5.06782,-8.02841 -10.79595,-16.90192 -5.72811,-8.87352 -10.53045,-16.26909 -10.67183,-16.4346 -0.14138,-0.16551 -4.66416,6.46904 -10.05061,14.74347 -5.38647,8.27442 -10.03919,15.66167 -10.33938,16.41612 -0.43044,1.08182 -0.46159,1.66685 -0.14737,2.76816 0.21913,0.76803 0.71818,1.70031 1.10898,2.0717 0.39081,0.3714 1.33876,0.90104 2.10656,1.17698 1.27946,0.45984 1.40539,0.63317 1.50848,2.07622 l 0.11249,1.57449 -6.60559,0 c -3.63308,0 -6.60684,0.12965 -6.60838,0.2881 -0.001,0.15847 -0.82451,6.33823 -1.82884,13.73282 -1.00433,7.3946 -1.82615,13.57437 -1.82626,13.73282 -1.1e-4,0.15846 -14.32162,0.2881 -31.82557,0.2881 z" transform="matrix(0.27450987,0,0,0.27450987,-58.929677,-29.571424)"/></g><g transform="matrix(0.36168604,0,0,0.36168604,-18.567126,47.91131)"><path d="m 186.73087,-16.807472 c 0,1.225727 0.99646,2.22138 2.22138,2.22138 1.22493,0 2.22138,-0.995653 2.22138,-2.22138 0,-1.224124 -0.99645,-2.22138 -2.22138,-2.22138 -1.22492,-8.02e-4 -2.22138,0.996454 -2.22138,2.22138 z m 0.51226,0 c 0,-0.941141 0.76638,-1.708322 1.70832,-1.708322 0.94274,0 1.70912,0.767181 1.70912,1.708322 0,0.942744 -0.76638,1.708322 -1.70912,1.708322 -0.94194,0 -1.70832,-0.76638 -1.70832,-1.708322 z" fill="url(#q)"/><circle r="2.32" cy="85.036" cx="113.621" transform="matrix(0.80165298,0,0,0.80165298,97.867647,-84.976828)" fill="url(#r)"/><circle r="2.11" cy="85.036" cx="113.621" transform="matrix(0.80165298,0,0,0.80165298,97.867647,-84.976828)" fill="url(#s)"/><path d="m 186.86956,-22.422249 c 0,1.225727 0.99645,2.22138 2.22138,2.22138 1.22573,0 2.22218,-0.995653 2.22218,-2.22138 0,-1.224124 -0.99645,-2.220578 -2.22218,-2.220578 -1.22412,0 -2.22138,0.995652 -2.22138,2.220578 z m 0.51386,0 c 0,-0.94114 0.76638,-1.708322 1.70752,-1.708322 0.94274,0 1.70912,0.767182 1.70912,1.708322 0,0.942744 -0.76638,1.709926 -1.70912,1.709926 -0.94114,0 -1.70752,-0.767182 -1.70752,-1.709926 z" fill="url(#t)"/><circle r="2.32" cy="78.032" cx="113.794" transform="matrix(0.80165298,0,0,0.80165298,97.867647,-84.976828)" fill="url(#u)"/><path d="m 187.40106,-22.422249 c 0,0.933124 0.75756,1.692289 1.68988,1.692289 0.93312,0 1.69149,-0.759165 1.69149,-1.692289 0,-0.931521 -0.75837,-1.690686 -1.69149,-1.690686 -0.93232,-8.02e-4 -1.68988,0.759165 -1.68988,1.690686 z" fill="url(#v)"/><path d="m 142.91537,56.931728 c 0,26.023238 -21.096,47.119242 -47.119235,47.119242 -26.023238,0 -47.11924,-21.096004 -47.11924,-47.119242 0,-26.023237 21.096002,-47.1192394 47.11924,-47.1192394 26.023235,0 47.119235,21.0960024 47.119235,47.1192394 z" transform="matrix(0.81764498,0,0,0.80416898,107.28841,-44.530693)" opacity=".389" fill="url(#w)"/><path d="m 127.82442,115.70919 c 0,6.98197 -28.614473,12.64198 -63.912211,12.64198 C 28.61447,128.35117 0,122.69116 0,115.70919 c 0,-6.98197 28.61447,-12.64198 63.912209,-12.64198 35.297738,0 63.912211,5.66001 63.912211,12.64198 z" transform="matrix(0.60366599,0,0,0.24738299,147.00444,8.7717264)" opacity=".381" fill="url(#x)"/><path d="m 102.6109,53.232281 c 0,24.195157 -19.352526,43.809208 -43.225082,43.809208 -23.872555,0 -43.225086,-19.614051 -43.225086,-43.809208 0,-24.195158 19.352531,-43.8092082 43.225086,-43.8092082 23.872556,0 43.225082,19.6140502 43.225082,43.8092082 z" transform="matrix(0.78658498,0,0,0.78690498,138.97766,-42.163903)" fill="url(#y)"/><path transform="matrix(0.78658498,0,0,0.78999398,138.97766,-42.091453)" d="m 102.6109,53.232281 c 0,24.195157 -19.352526,43.809208 -43.225082,43.809208 -23.872555,0 -43.225086,-19.614051 -43.225086,-43.809208 0,-24.195158 19.352531,-43.8092082 43.225086,-43.8092082 23.872556,0 43.225082,19.6140502 43.225082,43.8092082 z" opacity=".381" fill="url(#z)"/><path d="m 185.7182,-26.596386 c -1.2278,0.01127 -2.46956,0.128567 -3.67616,0.32437 l -1.11728,8.649827 c -1.13244,0.36573 -2.24854,0.847314 -3.31577,1.477677 -1.06721,0.630363 -2.01634,1.383282 -2.88327,2.1985 l -8.14525,-3.207642 c -0.7461,0.956141 -1.44048,1.975435 -2.05433,3.063478 -0.61774,1.094883 -1.11561,2.211422 -1.54976,3.351807 l 6.9559,5.3340604 c -0.49559,2.324564 -0.47965,4.76509701 0.0721,7.136108 l -6.84777,5.442173 c 0.91282,2.269694 2.17986,4.4147906 3.74826,6.3432076 l 8.10921,-3.31576 c 1.78213,1.598133 3.85735,2.770135 6.09091,3.459913 l 1.4056,8.685872 c 2.4616,0.34528 4.93765,0.32026 7.35235,-0.0721 l 1.11727,-8.649822 c 1.13991,-0.366411 2.24176,-0.879346 3.31577,-1.513724 1.07401,-0.634366 2.04817,-1.377017 2.91932,-2.1984886 l 8.10921,3.2436776 c 0.75161,-0.961316 1.43661,-1.968577 2.05434,-3.063472 0.61384,-1.0880186 1.11716,-2.2187936 1.54974,-3.3518066 l -6.91984,-5.33406 c 0.49557,-2.32456399 0.47964,-4.765109 -0.0721,-7.136109 l 6.81174,-5.4782254 c -0.91268,-2.268068 -2.14483,-4.379973 -3.71222,-6.307161 l -8.03713,3.387848 c -1.8508,-1.685505 -4.03744,-2.910709 -6.37924,-3.604075 l -1.22539,-8.613785 c -1.23003,-0.172511 -2.44839,-0.263548 -3.67618,-0.252288 z m 0.25229,16.470717 c 4.47614,0 8.10921,3.6330534 8.10921,8.1092084 0,4.476156 -3.63305,8.109209 -8.10921,8.109209 -4.47617,0 -8.10921,-3.633053 -8.10921,-8.109209 -1e-5,-4.476155 3.63306,-8.1092084 8.10921,-8.1092084 z" fill="#8eb700"/><path d="m 184.86532,-34.026869 c -17.17365,0.422376 -30.97657,14.059361 -30.97657,28.8785524 0,2.293449 0.32692,4.52488701 0.94948,6.653498 20.72059,-3.946106 41.32344,-3.897144 61.85817,-0.56028899 0.52059,-1.95684901 0.78333,-4.00170201 0.78333,-6.09320901 0,-15.0544164 -14.23137,-28.8785524 -31.78363,-28.8785524 -0.27426,0 -0.55819,-0.0067 -0.83078,0 z" opacity=".844" fill="url(#A)"/><path d="m 185.7182,-26.596386 c -1.2278,0.01127 -2.46956,0.128567 -3.67616,0.32437 l -1.11728,8.649827 c -1.13244,0.36573 -2.24854,0.847314 -3.31577,1.477677 -1.06721,0.630363 -2.01634,1.383282 -2.88327,2.1985 l -8.14525,-3.207642 c -0.7461,0.956141 -1.44048,1.975435 -2.05433,3.063478 -0.61774,1.094883 -1.11561,2.211422 -1.54976,3.351807 l 6.9559,5.3340604 c -0.49559,2.324564 -0.47965,4.76509701 0.0721,7.136108 l -6.84777,5.442173 c 0.91282,2.269694 2.17986,4.4147906 3.74826,6.3432076 l 8.10921,-3.31576 c 1.78213,1.598133 3.85735,2.770135 6.09091,3.459913 l 1.4056,8.685872 c 2.4616,0.34528 4.93765,0.32026 7.35235,-0.0721 l 1.11727,-8.649822 c 1.13991,-0.366411 2.24176,-0.879346 3.31577,-1.513724 1.07401,-0.634366 2.04817,-1.377017 2.91932,-2.1984886 l 8.10921,3.2436776 c 0.75161,-0.961316 1.43661,-1.968577 2.05434,-3.063472 0.61384,-1.0880186 1.11716,-2.2187936 1.54974,-3.3518066 l -6.91984,-5.33406 c 0.49557,-2.32456399 0.47964,-4.765109 -0.0721,-7.136109 l 6.81174,-5.4782254 c -0.91268,-2.268068 -2.14483,-4.379973 -3.71222,-6.307161 l -8.03713,3.387848 c -1.8508,-1.685505 -4.03744,-2.910709 -6.37924,-3.604075 l -1.22539,-8.613785 c -1.23003,-0.172511 -2.44839,-0.263548 -3.67618,-0.252288 z m 0.25229,16.470717 c 4.47614,0 8.10921,3.6330534 8.10921,8.1092084 0,4.476156 -3.63305,8.109209 -8.10921,8.109209 -4.47617,0 -8.10921,-3.633053 -8.10921,-8.109209 -1e-5,-4.476155 3.63306,-8.1092084 8.10921,-8.1092084 z" opacity=".48" fill="#71b619"/><path d="m 186.37219,-26.586072 c 0.30659,0.0067 0.60263,0.01393 0.91023,0.0317 -0.30249,-0.01779 -0.60717,-0.02576 -0.91023,-0.0317 z m 0.91023,0.0317 c 0.30759,0.01778 0.62171,0.04033 0.93094,0.06856 -0.30924,-0.0299 -0.62178,-0.05038 -0.93094,-0.06856 z m 0.93094,0.06856 1.64421,8.553043 c 0.29657,0.07244 0.59033,0.152148 0.88251,0.241294 -0.008,-0.0024 -0.012,-0.0156 -0.0198,-0.01797 l -1.17386,-8.613667 c -0.44784,-0.06577 -0.88714,-0.11958 -1.33305,-0.162693 z m -21.53399,9.200838 c -0.27665,0.349845 -0.53833,0.71261 -0.79967,1.079898 l 8.27668,2.817961 c 0.20662,-0.214032 0.41393,-0.43051 0.6318,-0.636351 l -8.10881,-3.261508 z m -1.82203,2.643836 c -0.0833,0.138512 -0.18345,0.26949 -0.26412,0.410332 -0.0702,0.122487 -0.12318,0.245839 -0.1904,0.368891 0.14754,-0.266363 0.29817,-0.520497 0.45452,-0.779223 z m 43.00911,1.51666 c 0.13741,0.272259 0.2723,0.554889 0.39996,0.832558 -0.12831,-0.27978 -0.26133,-0.5579 -0.39996,-0.832558 z m 0.39996,0.832558 -6.53529,5.7871834 c 0.0815,0.286853 0.1662,0.589188 0.23181,0.878556 l 6.83594,-5.4420464 c -0.16514,-0.418189 -0.34554,-0.816095 -0.53246,-1.223693 z m -22.23359,2.173385 c 0.2034,0.0018 0.40759,0.01094 0.60712,0.02743 -0.20104,-0.01649 -0.4025,-0.026 -0.60712,-0.02743 z m -1.28339,0.08101 c -0.10731,0.01618 -0.21252,0.05188 -0.31834,0.07219 0.16996,-0.03283 0.33368,-0.05931 0.50721,-0.08132 -0.0619,0.0079 -0.12745,-1.27e-4 -0.18887,0.0091 z m -1.27244,0.3076424 c -0.17059,0.05488 -0.33735,0.110166 -0.50264,0.175764 0.16518,-0.06578 0.33236,-0.120745 0.50264,-0.175764 z m 4.32693,-0.171415 c 0.14041,0.03264 0.2844,0.07228 0.4219,0.112104 -0.1388,-0.04044 -0.28025,-0.07903 -0.4219,-0.112104 z m -6.3247,1.138874 c -0.18075,0.120399 -0.36126,0.232422 -0.53127,0.366457 0.17177,-0.135673 0.3487,-0.244789 0.53127,-0.366457 z m 10.27476,1.074313 c 0.16309,0.166293 0.31251,0.34696 0.4609,0.526716 -0.14996,-0.181832 -0.29605,-0.358808 -0.4609,-0.526716 z m 1.00738,1.257531 c 0.12182,0.187036 0.22415,0.373633 0.33052,0.570879 -0.10441,-0.193197 -0.21138,-0.387708 -0.33052,-0.570879 z m 0.35123,0.607739 c 0.11371,0.213617 0.22156,0.441828 0.31619,0.66622 -0.0961,-0.228384 -0.20042,-0.449315 -0.31619,-0.66622 z m -14.90302,1.478069 c -0.0553,0.184048 -0.10126,0.366861 -0.14349,0.555939 0.0416,-0.185178 0.0895,-0.375814 0.14349,-0.555939 z m -0.31715,1.662336 c -0.0152,0.187002 -0.027,0.37924 -0.0292,0.569345 0.002,-0.195077 0.0135,-0.377821 0.0292,-0.569345 z m 16.148,-0.0049 c 0.0152,0.186621 0.0251,0.376668 0.0274,0.566611 -0.001,-0.09463 0.01,-0.188974 0.005,-0.284223 -0.005,-0.09525 -0.0247,-0.188085 -0.0326,-0.282388 z m -16.12336,1.68853701 c 0.0216,0.172811 0.068,0.337211 0.10022,0.506284 -0.0319,-0.166893 -0.0788,-0.335965 -0.10022,-0.506284 z m 16.09043,-0.02101 c -0.0167,0.13557039 -0.0331,0.26687139 -0.0564,0.40028339 0.0233,-0.133412 0.0397,-0.264852 0.0564,-0.40028339 z m -24.02846,2.638817 -6.89444,5.407008 c 0.16431,0.416308 0.34564,0.835016 0.53339,1.242579 l 6.57397,-5.77012 c -0.0832,-0.292702 -0.14631,-0.584146 -0.21292,-0.879467 z m 12.19235,3.537274 c 0.19294,0.102216 0.39855,0.187208 0.6001,0.273873 -0.20056,-0.08642 -0.40831,-0.17213 -0.6001,-0.273873 z m 8.12502,-0.317264 c -0.16575,0.104847 -0.34249,0.19713 -0.51604,0.289991 0.17592,-0.09411 0.34831,-0.183656 0.51604,-0.289991 z m -0.51604,0.289991 c -0.20565,0.110038 -0.41367,0.203141 -0.62937,0.295482 0.21444,-0.09185 0.42514,-0.18624 0.62937,-0.295482 z m -5.24113,0.840368 c 0.1495,0.0265 0.30487,0.03549 0.45694,0.05362 -0.15093,-0.01814 -0.30871,-0.02732 -0.45694,-0.05362 z m 1.53897,0.114873 c 0.0946,-0.0013 0.18896,0.0098 0.28422,0.0052 0.0953,-0.0046 0.18809,-0.02476 0.28239,-0.03259 -0.18651,0.01557 -0.37678,0.0247 -0.56661,0.0274 z m 11.68758,3.277717 c -0.20761,0.215647 -0.4118,0.411497 -0.63272,0.617465 l 8.09174,3.3001846 c 0.2787,-0.351719 0.53894,-0.713538 0.79968,-1.07988 l -8.2587,-2.8377696 z m -17.42934,4.0423636 c 0.2165,0.07874 0.43517,0.163916 0.65495,0.233356 l 1.34749,8.681008 c 0.44531,0.0654 0.90597,0.12063 1.35194,0.16178 L 181.855,13.879933 c -0.51947,-0.133308 -1.01494,-0.291329 -1.51856,-0.475549 z m 3.35438,9.076144 c 0.31067,0.0287 0.62031,0.0516 0.93094,0.0686 -0.30916,-0.0167 -0.62151,-0.0403 -0.93094,-0.0686 z m 0.93094,0.0686 c 0.30499,0.0166 0.60557,0.0264 0.91023,0.0317 -0.30863,-0.005 -0.60106,-0.015 -0.91023,-0.0317 z m 5.07966,-0.26462 c -0.16068,0.0249 -0.32708,0.0587 -0.48831,0.0804 0.16409,-0.0221 0.32565,-0.036 0.48922,-0.0615 l -9.1e-4,-0.0189 z" opacity=".75" fill="#84aa00"/></g></g></svg>