<svg xmlns="http://www.w3.org/2000/svg" xmlns:xlink="http://www.w3.org/1999/xlink" width="605.324" height="552.452"><g transform="translate(-67.974636,-158.69664) matrix(1.532388,0,0,1.3939671,-54.912136,-41.792396)" stroke="#000"><path d="M 279.31096,170.90238 107.88239,342.33095 278.59668,513.04524 450.02525,341.61667 279.31096,170.90238 z" fill="#019833"/><path d="m 278.59668,171.61667 0,-15 -186.428567,186.42857 15.714277,0 170.71429,-171.42857 z" fill="#66fe98"/><path d="m 278.16811,171.61667 0,-15 186.42857,186.42857 -15.71428,0 -170.71429,-171.42857 z" fill="#45fe02"/><path d="m 278.59668,514.04524 0,15 -186.428567,-186.42857 15.714277,0 170.71429,171.42857 z" fill="#017d17"/><path d="m 126.75373,175.54978 120.20816,0 7.3236,7.3236 0,22.4759 -5.80837,7.07106 -13.13199,0 0,111.62186 113.13709,-111.62186 -18.68782,0 -6.566,-7.07106 0,-23.73859 6.06092,-5.55584 121.72338,0 6.06092,6.06092 0,22.22335 -275.26657,282.33764 -31.31473,0 -9.06418,-5.2332 0,-270.03337 -15.17948,0 -5.55584,-5.55584 0,-23.73858 6.06091,-6.56599 z" stroke-width="20" fill="none"/><path d="m 278.16811,514.04524 0,15 186.42857,-186.42857 -15.71428,0 -170.71429,171.42857 z" fill="#005d04"/><path d="M 278.09366,155.23389 90.963893,342.36366 277.31396,528.71373 464.44373,341.58396 278.09366,155.23389 z" stroke-width="6" fill="none"/><path d="m 248.23953,186.97381 6.78571,-3.57143 -6.96428,-6.96429 -121.25,0 -6.16072,6.16072 0,23.30357 6.83036,6.83035 3.25893,-6.83035 -4.28571,-4.28572 0,-16.42857 3.21428,-2.85714 115.71429,0 2.85714,4.64286 z" fill="#fefefe"/><path transform="translate(-494.97475,-187.88837)" d="m 828.9375,369.5 -4.28125,4.28125 0,15.71875 3.75,3.75 19.8125,0 0,15.1875 -131.0625,132.84375 0,-147.84375 21.78125,0 4.46875,-4.46875 0,-15.90625 -4.125,-3.1875 -114.625,0 -3.75,3.75 0,16.25 3.8125,3.8125 19.9375,0 0,272.25 3.75,3.75 22.65625,0 274.65625,-283.40625 0,-12.5 -4.28125,-4.28125 -112.5,0 z" xlink:href="#path3630" fill="none"/><path d="m 149.48217,205.34928 0,272.74118 3.53553,4.04061 -2.77258,5.28409 -7.83402,-7.80947 0,-267.18535 z" fill="#fefefe"/><path d="m 129.89337,205.34928 -2.02031,6.56599 14.64722,0 8.08122,-6.56599 -20.70813,0 z" fill="#808080"/><path d="m 331.09668,212.72381 3.21428,-6.60714 -4.64286,-4.28572 0,-14.64285 5.35715,-5.35715 111.78571,0 4.28572,5.71429 6.07143,-4.28572 -6.25,-6.25 -120.17858,0 -5.98214,5.98215 0,23.48214 6.20536,5.84822 m -97.12053,112.75446 -11.67411,28.32589 131.78571,-132.14285 0,-15.71429 -120.1116,119.53125 z" fill="#fefefe"/><path d="m 247.97203,186.15638 5.80838,-3.78807 0,22.98097 -6.69226,6.69226 -13.00571,0 0,113.26335 -11.8693,28.03174 0,-147.98735 21.71828,0 4.04061,-3.283 0,-15.9099 z" fill="#808080"/><path transform="translate(-494.97475,-187.88837)" d="m 828.9375,369.5 -4.28125,4.28125 0,15.71875 3.75,3.75 19.8125,0 0,15.1875 -131.0625,132.84375 0,-147.84375 21.78125,0 4.46875,-4.46875 0,-15.90625 -4.125,-3.1875 -114.625,0 -3.75,3.75 0,16.25 3.8125,3.8125 19.9375,0 0,272.25 3.75,3.75 22.65625,0 274.65625,-283.40625 0,-12.5 -4.28125,-4.28125 -112.5,0 z" xlink:href="#path3620" fill="#ccc"/><path d="m 451.09668,186.25953 6.10004,-3.52187 0,22.09329 -276.67515,282.71932 -29.37417,0 2.80642,-5.57646 22.5,0 274.28572,-283.21428 z" fill="#808080"/><path d="m 353.40671,205.72808 -6.18718,6.43972 -16.16244,0 3.78807,-6.43972 c 0.12627,0 18.56155,0 18.56155,0 z" fill="#808080"/><g fill="#ccc" stroke-miterlimit="10"><path d="m 399.78125,560 a 1.2330102,1.2330102 0 0 0 -0.5625,0.28125 l -5.3125,4.5625 A 1.2330102,1.2330102 0 0 0 393.5625,565.375 L 388.25,580.25 a 1.2330102,1.2330102 0 0 0 0.28125,1.28125 l 4.0625,4.0625 a 1.2330102,1.2330102 0 0 0 0.875,0.34375 l 16.40625,0 a 1.2330102,1.2330102 0 0 0 0.875,-0.34375 l 4.28125,-4.3125 a 1.2330102,1.2330102 0 0 0 0.3125,-0.53125 l 4.5625,-15.65625 a 1.2330102,1.2330102 0 0 0 -0.3125,-1.21875 l -3.53125,-3.53125 A 1.2330102,1.2330102 0 0 0 415.1875,560 l -15.15625,0 a 1.2330102,1.2330102 0 0 0 -0.25,0 z m -30.0625,41.9375 a 1.2330102,1.2330102 0 0 0 -0.9375,0.90625 l -2.03125,8.0625 a 1.2330102,1.2330102 0 0 0 1.1875,1.53125 l 9.65625,0 -23.9375,68.34375 a 1.2330102,1.2330102 0 0 0 1.15625,1.625 l 34.84375,0 a 1.2330102,1.2330102 0 0 0 1.1875,-0.84375 l 2.28125,-7.34375 a 1.2330102,1.2330102 0 0 0 -1.1875,-1.59375 l -7.875,0 23.6875,-69.0625 a 1.2330102,1.2330102 0 0 0 -1.15625,-1.625 l -36.625,0 a 1.2330102,1.2330102 0 0 0 -0.25,0 z m 110.875,0.25 a 1.2330102,1.2330102 0 0 0 -0.6875,0.40625 l -7.25,8.1875 -11.53125,0 -7.6875,-7.96875 a 1.2330102,1.2330102 0 0 0 -0.875,-0.375 l -27.53125,0 A 1.2330102,1.2330102 0 0 0 423.875,603.25 l -2.53125,7.5625 a 1.2330102,1.2330102 0 0 0 1.15625,1.625 l 7.375,0 -22.9375,67.59375 a 1.2330102,1.2330102 0 0 0 1.15625,1.625 l 29.3125,0 a 1.2330102,1.2330102 0 0 0 1.15625,-0.8125 l 2.25,-6.59375 a 1.2330102,1.2330102 0 0 0 -1.15625,-1.625 l -5.125,0 14.625,-46.03125 26.46875,0 -16.6875,53.46875 a 1.2330102,1.2330102 0 0 0 1.1875,1.59375 l 28.28125,0 a 1.2330102,1.2330102 0 0 0 1.125,-0.75 l 2.53125,-6.0625 a 1.2330102,1.2330102 0 0 0 -1.125,-1.6875 l -5.125,0 14.875,-46.8125 25.1875,0 -16.9375,53.71875 a 1.2330102,1.2330102 0 0 0 1.1875,1.59375 l 31.0625,0 a 1.2330102,1.2330102 0 0 0 1.15625,-0.78125 l 2.53125,-6.59375 a 1.2330102,1.2330102 0 0 0 -1.15625,-1.65625 l -6.15625,0 18.71875,-60.78125 a 1.2330102,1.2330102 0 0 0 -0.1875,-1.125 l -5.8125,-7.8125 a 1.2330102,1.2330102 0 0 0 -1,-0.46875 l -22.21875,0 a 1.2330102,1.2330102 0 0 0 -0.90625,0.375 l -7,7.6875 -12.25,0 -7.25,-7.9375 a 1.2330102,1.2330102 0 0 0 -0.90625,-0.375 l -17.90625,0 a 1.2330102,1.2330102 0 0 0 -0.25,0 z" stroke-width="8" transform="translate(-94.974747,-207.88837)"/><path d="m 400.03125,561.21875 -5.3125,4.5625 -5.3125,14.875 4.0625,4.0625 16.40625,0 4.28125,-4.3125 4.5625,-15.65625 -3.53125,-3.53125 -15.15625,0 z m -30.0625,41.9375 -2.03125,8.0625 11.375,0 -24.5,69.96875 34.84375,0 2.28125,-7.34375 -9.59375,0 24.25,-70.6875 -36.625,0 z m 110.875,0.25 L 473.25,612 l -12.625,0 -8.0625,-8.34375 -27.53125,0 -2.53125,7.5625 9.09375,0 -23.5,69.21875 29.3125,0 2.25,-6.59375 -6.8125,0 15.40625,-48.46875 29.0625,0 -17.1875,55.0625 28.28125,0 2.53125,-6.0625 -6.8125,0 15.65625,-49.25 27.78125,0 -17.4375,55.3125 31.0625,0 2.53125,-6.59375 -7.84375,0 19.21875,-62.375 -5.8125,-7.8125 -22.21875,0 -7.34375,8.0625 -13.375,0 -7.59375,-8.3125 -17.90625,0 z" transform="translate(-94.974747,-207.88837)"/></g></g></svg>