<svg xmlns="http://www.w3.org/2000/svg" width="400" height="400"><defs><filter color-interpolation-filters="sRGB" id="b"><feGaussianBlur stdDeviation="5.666"/></filter><filter x="-.09" y="-.154" width="1.181" height="1.307" color-interpolation-filters="sRGB" id="a"><feGaussianBlur stdDeviation="3.064"/></filter></defs><path d="m 237.41701,753.77755 -16.92005,21.46574 c 10.80372,11.74476 22.69305,22.22336 44.69925,22.22336 15.83741,0 27.48419,-10.94053 36.61803,-38.63834 0.78765,-2.3885 -2.56552,-7.99282 -6.06092,-8.33375 -19.84671,-1.93584 -39.193,-0.53047 -58.33631,3.28299 z" transform="matrix(1.2779629,0,0,1.2779629,-15.700556,-843.98339)" opacity=".72" stroke="#000" stroke-width="10" filter="url(#a)"/><path d="m 345.47217,16.642006 a 132.32999,132.32999 0 1 1 -264.659975,0 132.32999,132.32999 0 1 1 264.659975,0 z" transform="matrix(1.2779629,0,0,1.2779629,-72.387802,178.73213)" opacity=".721" stroke="#000" stroke-width="14" stroke-linecap="square" filter="url(#b)"/><path d="m 361.36719,193.5453 a 169.11282,169.11282 0 1 1 -338.22563,0 169.11282,169.11282 0 1 1 338.22563,0 z" fill="#fff" stroke="#faa932" stroke-width="17.891" stroke-linecap="square"/><path d="m 104.14791,111.57077 21.6232,27.43242 c -13.80676,15.00937 -29.000883,28.40063 -57.123991,28.40063 -20.239623,0 -35.12377,-13.98159 -46.79648,-49.37835 -1.00659,-3.05243 3.278641,-10.21455 7.745625,-10.65024 25.363361,-2.47393 50.087203,-0.67792 74.551646,4.19554 z" fill="#f39404" stroke="#000" stroke-width="12.78"/><path d="m 279.96397,111.57077 -21.6232,27.43242 c 13.80676,15.00937 29.00088,28.40063 57.12399,28.40063 20.23962,0 35.12378,-13.98159 46.79649,-49.37837 1.00658,-3.05241 -3.27864,-10.21453 -7.74564,-10.65022 -25.36336,-2.47393 -50.0872,-0.67792 -74.55164,4.19554 z" fill="#f39404" stroke="#000" stroke-width="12.78"/><path d="m 118.67095,149.00796 c 1.10108,16.21968 0.0219,31.5645 -7.42288,43.89187 -10.35388,17.14441 -19.686803,35.02429 -19.686803,56.80125 0,50.61052 55.675913,82.62001 106.825073,82.62001 51.66345,0 99.72494,-49.32194 99.72494,-87.46102 0,-13.3016 -3.8755,-23.00983 -10.00477,-32.27344 -12.82549,-19.3841 -20.88191,-46.7511 -20.655,-62.28773 C 209.45769,67.965708 163.0578,98.673214 118.67095,149.00796 z" fill="#faa932" stroke="#000" stroke-width="12.78"/><path d="m 198.70908,144.16694 c -12.88446,7.92217 -24.95648,12.45522 -36.14625,-4.19554 -9.9003,6.48391 -20.44587,13.52133 -30.33702,0.64546 -14.39468,-7.24935 -30.38135,-13.558 -26.46423,-31.62796 -4.08925,-15.199302 -8.489223,-30.560172 8.3911,-34.855302 0.0138,-14.83738 4.21859,-24.92483 17.10492,-25.17329 6.87585,-12.05128 19.21937,-12.26351 32.27343,-5.48649 17.92936,-17.24221 33.49042,-15.52145 49.7011,-0.9682 25.01546,-4.54746 37.26708,2.72346 39.05086,19.6868 14.32406,5.64891 19.17115,16.98399 20.655,30.33703 9.66123,15.491242 5.79976,30.982492 -27.43242,46.473742 -19.65617,8.58753 -38.1609,15.22644 -46.79649,5.16375 z" fill="#fff" stroke="#000" stroke-width="11.502"/><path d="m 271.96979,243.89187 c -1.86939,13.77114 -28.61625,65.79407 -68.74242,66.80601 -41.53835,1.04755 -94.48964,-16.93338 -95.20666,-58.73765 -0.15591,-9.09033 1.11224,-33.6845 15.49127,-34.20985 9.9822,-0.3647 17.70032,12.57917 25.81875,20.655 30.85701,30.6951 71.31645,42.97662 122.63906,5.48649 z" fill="#fff" stroke="#000" stroke-width="10.224"/><path d="m 108.98892,248.08741 c 25.80601,21.22532 52.13174,34.62832 85.84735,39.05087" stroke="#000" stroke-width="10.224" stroke-linecap="round" fill="none"/><path d="m 175.79494,226.46421 c 20.15423,15.98766 38.79741,17.24253 55.51031,-0.32273" stroke="#000" stroke-width="8.946" stroke-linecap="round" fill="none"/><path d="m 154.17174,179.34499 -5.48649,8.39109 3.87282,7.74563 8.06835,1.29094 6.13196,-3.55008 0.64546,-7.74562 -4.84101,-7.42289 z" fill="#fff"/><path d="m 143.5215,146.74882 c 6.17069,19.73069 18.36241,34.91618 37.4372,47.76468" stroke="#000" stroke-width="8.946" stroke-linecap="round" fill="none"/><path d="m 224.85057,181.92687 1.29093,10.00476 -0.9682,6.13195 -8.06835,0.32274 -7.74563,-5.48649 -1.93641,-7.42288 4.19555,-5.80922 5.80921,-3.22734 z" fill="#fff"/><path d="m 195.80448,193.22257 c 17.57707,-9.35711 29.97048,-26.25411 38.08265,-49.37836" stroke="#000" stroke-width="8.946" stroke-linecap="round" fill="none"/><path d="m 159.65821,177.40858 c -6.15562,3.37949 -11.22004,5.04815 -10.97296,12.58665 0.19639,5.99156 5.03543,7.80618 10.65024,7.74562 5.81393,-0.0628 7.70103,-7.79544 7.10014,-13.55485" stroke="#000" stroke-width="8.946" fill="none"/><path d="m 209.35932,183.54054 c -2.58188,4.85672 1.74912,14.84578 6.77743,14.84578 6.75043,0 11.61842,-2.48476 11.61842,-7.10016 0,-5.07618 -3.38682,-12.33256 -10.65023,-14.52304" stroke="#000" stroke-width="8.946" fill="none"/></svg>