<svg xmlns="http://www.w3.org/2000/svg" width="800" height="800"><g><path d="m 48.78,0.871 c 13.18,-1.047 41.91,3.168 68.82,8.488 26.2,5.151 50.9,11.441 59.4,15.231 4.8,2.16 8.9,10.62 11.3,22 2.5,11.76 3.5,26.97 1.6,41.78 -1.3,9.88 -41.1,13.23 -84.5,13.53 C 58.86,102.2 8.723,98.93 3.746,96.36 -3.527,92.61 3.625,66.49 14.75,42.91 24.99,21.18 38.61,1.676 48.78,0.871" fill="#aeb5c2" fill-rule="evenodd" transform="matrix(3.931,0,0,-3.931,6.8795511,612.29228)"/><path d="m 48.83,7.465 c 12.99,-1.652 42.06,1.226 69.47,5.295 26.6,3.94 51.9,9.08 60.8,12.48 5,1.94 10,10.2 13.8,21.47 3.8,11.64 6.5,26.81 6.3,41.7 -0.1,9.95 -39.4,15.09 -82.5,17.39 -46.23,2.5 -96.48,1.6 -101.72,-0.7 C 7.316,101.6 11.44,75.19 19.8,51.09 27.5,28.88 38.81,8.742 48.83,7.465" fill="#424f73" fill-rule="evenodd" transform="matrix(3.931,0,0,-3.931,6.8795511,612.29228)"/><path d="m 52.52,10.54 c 12.06,-1.536 39.05,1.14 64.48,4.92 24.7,3.66 48.2,8.43 56.4,11.59 4.7,1.8 9.4,9.47 12.9,19.94 3.6,10.81 6,24.89 5.9,38.73 -0.2,9.23 -36.6,14.04 -76.6,16.18 -42.99,2.3 -89.65,1.4 -94.51,-0.7 -7.12,-3.21 -3.3,-27.77 4.46,-50.14 7.16,-20.63 17.67,-39.33 26.97,-40.52" fill="#334266" fill-rule="evenodd" transform="matrix(3.931,0,0,-3.931,6.8795511,612.29228)"/><path d="m 179.5,25.45 c 2.1,0.95 4.1,2.94 6.1,5.73 -40.8,-0.64 -102.71,-0.64 -157.3,-0.54 0.15,-0.32 0.32,-0.63 0.48,-0.95 3.76,0 7.49,0 11.13,0 57.08,0.1 108.89,0.1 139.59,-4.25" fill="#d9822b" fill-rule="evenodd" transform="matrix(3.931,0,0,-3.931,6.8795511,612.29228)"/><path d="m 36.29,39.95 0,6.51 0.84,0 2.68,-3.82 2.67,3.82 0.84,0 0,-6.51 -1.02,0 0,4.68 -2.5,-3.63 -2.49,3.63 0,-4.68 -1.02,0 z" fill="#fff" fill-rule="evenodd" transform="matrix(3.931,0,0,-3.931,6.8795511,612.29228)"/><path d="m 51.26,39.95 0,6.51 6.11,0 0,-0.95 -5.09,0 0,-1.63 3.35,0 0,-0.93 -3.35,0 0,-2.07 5.38,0 0,-0.93 -6.4,0 z" fill="#fff" fill-rule="evenodd" transform="matrix(3.931,0,0,-3.931,6.8795511,612.29228)"/><path d="m 64.82,46.45 0,-6.5 2.91,0 c 1.08,0 1.93,0.29 2.57,0.87 0.64,0.59 0.97,1.38 0.97,2.36 0,0.97 -0.32,1.76 -0.97,2.37 -0.66,0.61 -1.51,0.9 -2.57,0.9 l -2.91,0 z m 1.03,-0.93 1.88,0 c 0.73,0 1.34,-0.21 1.79,-0.65 0.46,-0.43 0.71,-0.98 0.71,-1.67 0,-0.71 -0.23,-1.29 -0.68,-1.7 -0.44,-0.42 -1.05,-0.63 -1.82,-0.63 l -1.88,0 0,4.65 z" fill="#fff" fill-rule="evenodd" transform="matrix(3.931,0,0,-3.931,6.8795511,612.29228)"/><path d="m 78.59,39.95 0,6.53 1.04,0 0,-6.53 -1.04,0 z" fill="#fff" fill-rule="evenodd" transform="matrix(3.931,0,0,-3.931,6.8795511,612.29228)"/><path d="m 89.65,46.45 -3.33,-6.5 1.08,0 0.85,1.65 3.45,0 0.85,-1.65 1.07,0 -3.32,6.5 -0.65,0 z m 0.33,-1.5 1.27,-2.47 -2.55,0 1.28,2.47 z" fill="#fff" fill-rule="evenodd" transform="matrix(3.931,0,0,-3.931,6.8795511,612.29228)"/><path d="m 112.4,41.54 c -0.4,-0.59 -0.8,-1.03 -1.5,-1.34 -0.6,-0.31 -1.2,-0.46 -2,-0.46 -1.2,0 -2.1,0.32 -2.8,0.97 -0.8,0.65 -1.1,1.47 -1.1,2.47 0,1 0.3,1.82 1.1,2.48 0.7,0.65 1.6,0.98 2.8,0.98 0.7,0 1.3,-0.14 1.9,-0.41 0.6,-0.26 1.1,-0.64 1.4,-1.12 l -0.8,-0.57 c -0.2,0.37 -0.6,0.66 -1,0.86 -0.5,0.2 -1,0.3 -1.5,0.3 -0.8,0 -1.5,-0.24 -2.1,-0.72 -0.5,-0.47 -0.8,-1.07 -0.8,-1.78 0,-0.72 0.3,-1.32 0.8,-1.79 0.6,-0.48 1.3,-0.72 2.1,-0.72 0.6,0 1.1,0.11 1.5,0.34 0.5,0.24 0.9,0.59 1.2,1.07 l 0.8,-0.56 z" fill="#fff" fill-rule="evenodd" transform="matrix(3.931,0,0,-3.931,6.8795511,612.29228)"/><path d="m 119.8,39.95 0,6.51 6.1,0 0,-0.95 -5.1,0 0,-1.63 3.4,0 0,-0.93 -3.4,0 0,-2.07 5.4,0 0,-0.93 -6.4,0 z" fill="#fff" fill-rule="evenodd" transform="matrix(3.931,0,0,-3.931,6.8795511,612.29228)"/><path d="m 133.4,39.95 0,6.51 0.5,0 4.2,-4.58 0,4.58 1,0 0,-6.51 -0.6,0 -4.1,4.56 0,-4.56 -1,0 z" fill="#fff" fill-rule="evenodd" transform="matrix(3.931,0,0,-3.931,6.8795511,612.29228)"/><path d="m 148.6,39.95 0,5.61 -2.8,0 0,0.9 6.5,0 0,-0.9 -2.7,0 0,-5.61 -1,0 z" fill="#fff" fill-rule="evenodd" transform="matrix(3.931,0,0,-3.931,6.8795511,612.29228)"/><path d="m 159,39.95 0,6.51 6.1,0 0,-0.95 -5,0 0,-1.63 3.3,0 0,-0.93 -3.3,0 0,-2.07 5.3,0 0,-0.93 -6.4,0 z" fill="#fff" fill-rule="evenodd" transform="matrix(3.931,0,0,-3.931,6.8795511,612.29228)"/><path d="m 172.6,46.45 0,-6.5 1,0 0,2.85 2.9,0 1.8,-2.85 1.1,0 -1.8,2.85 c 0.5,0.1 0.9,0.29 1.2,0.63 0.3,0.33 0.4,0.73 0.4,1.19 0,0.57 -0.2,1.04 -0.6,1.36 -0.3,0.32 -0.8,0.47 -1.5,0.47 l -4.5,0 z m 1,-0.95 3.5,0 c 0.3,0 0.6,-0.1 0.8,-0.23 0.2,-0.14 0.3,-0.36 0.3,-0.64 0,-0.29 -0.1,-0.5 -0.3,-0.65 -0.2,-0.16 -0.5,-0.23 -0.8,-0.23 l -3.5,0 0,1.75 z" fill="#fff" fill-rule="evenodd" transform="matrix(3.931,0,0,-3.931,6.8795511,612.29228)"/><path d="m 96.75,20.84 -1.47,10.13 -8.87,0 c -5.39,0 -10.38,1.91 -14.97,5.72 -1.21,1 -2.29,2.04 -3.25,3.15 -0.54,-1.11 -1.21,-2.15 -2.03,-3.15 -3.14,-3.81 -7.43,-5.72 -12.82,-5.72 l -11.46,0 c -0.41,2.14 0,3.96 1.21,5.47 1.22,1.51 2.89,2.28 5.04,2.28 l 3.75,0 c 3.21,0 5.72,1.15 7.53,3.47 1.81,2.32 2.42,5.1 1.81,8.31 -0.61,3.22 -2.25,5.96 -4.94,8.25 -2.69,2.28 -5.67,3.44 -8.87,3.44 l -3.75,0 c -2.15,0 -4.11,0.74 -5.91,2.25 -1.8,1.51 -2.91,3.32 -3.31,5.47 l 11.5,0 c 5.39,0 10.35,-1.88 14.94,-5.66 1.2,-0.99 2.29,-2.05 3.24,-3.16 0.54,1.11 1.24,2.17 2.07,3.16 3.14,3.78 7.39,5.66 12.78,5.66 l 11.5,0 c 0.41,-2.15 0,-3.96 -1.22,-5.47 -1.22,-1.51 -2.92,-2.25 -5.06,-2.25 l -3.72,0 c -3.22,0 -5.74,-1.16 -7.56,-3.44 -1.83,-2.29 -2.44,-5.03 -1.82,-8.25 0.61,-3.21 2.27,-5.99 4.97,-8.31 2.7,-2.32 5.67,-3.47 8.88,-3.47 l 3.75,0 c 2.09,0 4.01,-0.75 5.78,-2.19 l -2.03,13.88 c -0.81,5.48 0.47,10.12 3.87,13.96 3.32,3.9 7.79,5.82 13.19,5.82 5.5,0 10.5,-1.92 15,-5.82 4.5,-3.84 7.2,-8.48 8,-13.96 0.8,-5.49 -0.5,-10.13 -3.8,-13.97 -3.4,-3.81 -7.9,-5.75 -13.4,-5.75 l -11.7,0 0.2,-1.53 c 0.4,-2.26 -0.1,-4.24 -1.6,-5.88 -1.3,-1.64 -3.17,-2.44 -5.45,-2.44 z m 5.65,17.72 11.8,0 c 3.2,0 5.8,1.12 7.8,3.44 1.8,2.31 2.5,5.16 2.1,8.41 -0.5,3.25 -2,6.03 -4.6,8.37 -2.6,2.36 -5.5,3.56 -8.8,3.56 -3.3,0 -5.9,-1.2 -7.8,-3.56 -1.9,-2.34 -2.6,-5.12 -2.2,-8.37 l 1.7,-11.85 z" transform="matrix(3.931,0,0,-3.931,6.8795511,612.29228) matrix(0.8,0,0,-0.8,0,108)" fill="#82c223"/><path d="m 154.6,30.69 c -5.5,0 -10.5,1.93 -14.9,5.78 -4.5,3.91 -7.2,8.54 -8,14.03 l -2.9,19.69 c 2.3,0 4.4,-0.77 6.2,-2.41 1.9,-1.61 3,-3.56 3.3,-5.87 L 140,50.5 c 0.5,-3.28 2,-6.09 4.6,-8.47 2.6,-2.32 5.6,-3.47 8.8,-3.47 3.3,0 5.9,1.15 7.8,3.47 1.9,2.38 2.6,5.19 2.1,8.47 l -1.6,11.41 c -0.4,2.27 0.2,4.17 1.6,5.81 1.4,1.63 3.2,2.47 5.5,2.47 l 2.9,-19.69 c 0.4,-3.28 2,-6.09 4.6,-8.47 2.6,-2.32 5.5,-3.47 8.8,-3.47 3.2,0 5.8,1.15 7.7,3.47 1.9,2.38 2.7,5.19 2.2,8.47 l -1.7,11.41 c -0.3,2.27 0.2,4.17 1.6,5.81 1.4,1.63 3.2,2.47 5.5,2.47 l 1.4,-9.22 c 0.6,1.21 1.3,2.36 2.3,3.44 3.4,3.85 7.8,5.78 13.2,5.78 l 11.7,0 c 0.3,-2.17 -0.2,-4.03 -1.5,-5.57 -1.3,-1.52 -3.1,-2.28 -5.2,-2.28 l -3.8,0 c -3.3,0 -5.9,-1.18 -7.8,-3.5 -2,-2.31 -2.7,-5.09 -2.3,-8.34 0.5,-3.28 2.1,-6.09 4.7,-8.47 2.6,-2.32 5.6,-3.47 8.8,-3.47 l 3.8,0 c 2.2,0 4.2,-0.81 6,-2.34 1.7,-1.53 2.7,-3.34 3,-5.53 l -11.6,0 c -5.5,0 -10.4,1.93 -14.9,5.78 -2.2,1.92 -4,4.02 -5.3,6.31 -0.6,-2.3 -1.8,-4.41 -3.4,-6.31 -3.4,-3.85 -7.8,-5.78 -13.3,-5.78 -3,0 -6,0.71 -9,2.09 -3,1.38 -5.7,3.23 -7.9,5.66 -1.6,-2.43 -3.7,-4.34 -6.2,-5.72 -2.6,-1.34 -5.4,-2.03 -8.5,-2.03 z" transform="matrix(3.931,0,0,-3.931,6.8795511,612.29228) matrix(0.8,0,0,-0.8,0,108)" fill="#bdd1e3"/></g></svg>