<svg xmlns="http://www.w3.org/2000/svg" width="128" height="128"><g><path fill="#fed" d="M0 0h128v128h-128z"/><g style="line-height:125%;-inkscape-font-specification:Open Sans" font-size="71.231" letter-spacing="0" word-spacing="0" font-family="Arial"><path d="M12.907 96.224l-.696-5.878c1.368.371 2.562.556 3.582.556 1.391 0 2.504-.232 3.339-.696.835-.464 1.519-1.113 2.052-1.948.394-.626 1.032-2.18 1.913-4.661.116-.348.301-.858.556-1.53l-14.017-37.007h6.747l7.687 21.39c.997 2.713 1.89 5.565 2.678 8.556.719-2.875 1.577-5.681 2.574-8.417l7.895-21.529h6.261l-14.051 37.563c-1.507 4.058-2.678 6.852-3.513 8.382-1.113 2.064-2.388 3.577-3.826 4.539-1.438.962-3.153 1.443-5.148 1.443-1.206 0-2.551-.255-4.035-.765z" style="-inkscape-font-specification:Arial"/><path d="M46.366 66.695v-6.295h19.234v6.295z" style="-inkscape-font-specification:Arial"/><path d="M96.555 81.999v-4.661c-2.342 3.664-5.785 5.495-10.33 5.495-2.945 0-5.652-.812-8.121-2.435-2.469-1.623-4.382-3.89-5.739-6.8-1.356-2.91-2.035-6.255-2.035-10.034 0-3.687.614-7.032 1.843-10.034 1.229-3.003 3.072-5.304 5.53-6.904 2.458-1.6 5.206-2.4 8.243-2.4 2.226 0 4.208.47 5.948 1.409 1.739.939 3.153 2.162 4.243 3.669v-18.295h6.226v50.989zm-19.79-18.434c0 4.73.997 8.266 2.991 10.608 1.994 2.342 4.348 3.513 7.061 3.513 2.736 0 5.061-1.119 6.974-3.356 1.913-2.238 2.869-5.652 2.869-10.243 0-5.055-.974-8.765-2.922-11.13-1.948-2.365-4.348-3.548-7.2-3.548-2.782 0-5.107 1.136-6.974 3.409-1.867 2.272-2.8 5.855-2.8 10.747z" style="-inkscape-font-specification:Arial"/><path d="M112.102 81.999v-50.989h6.261v50.989z" style="-inkscape-font-specification:Arial"/></g></g></svg>
