<?xml version="1.0" encoding="UTF-8" standalone="no"?>
<!-- Created with Inkscape (http://www.inkscape.org/) -->

<svg
   xmlns:dc="http://purl.org/dc/elements/1.1/"
   xmlns:cc="http://creativecommons.org/ns#"
   xmlns:rdf="http://www.w3.org/1999/02/22-rdf-syntax-ns#"
   xmlns:svg="http://www.w3.org/2000/svg"
   xmlns="http://www.w3.org/2000/svg"
   xmlns:sodipodi="http://sodipodi.sourceforge.net/DTD/sodipodi-0.dtd"
   xmlns:inkscape="http://www.inkscape.org/namespaces/inkscape"
   width="256"
   height="256"
   id="svg2"
   version="1.1"
   inkscape:version="0.48.4 r9939"
   sodipodi:docname="cameyo.svg">
  <defs
     id="defs4" />
  <sodipodi:namedview
     id="base"
     pagecolor="#ffffff"
     bordercolor="#666666"
     borderopacity="1.0"
     inkscape:pageopacity="0.0"
     inkscape:pageshadow="2"
     inkscape:zoom="1.979899"
     inkscape:cx="150.70027"
     inkscape:cy="126.07915"
     inkscape:document-units="px"
     inkscape:current-layer="layer1"
     showgrid="false"
     showguides="true"
     inkscape:guide-bbox="true"
     inkscape:snap-bbox="true"
     inkscape:bbox-paths="true"
     inkscape:bbox-nodes="true"
     inkscape:snap-bbox-edge-midpoints="true"
     inkscape:snap-bbox-midpoints="true"
     inkscape:object-paths="true"
     inkscape:snap-intersection-paths="true"
     inkscape:object-nodes="true"
     inkscape:snap-smooth-nodes="true"
     inkscape:snap-midpoints="true"
     inkscape:snap-object-midpoints="true"
     inkscape:snap-center="true"
     inkscape:snap-page="true"
     inkscape:window-width="944"
     inkscape:window-height="1001"
     inkscape:window-x="960"
     inkscape:window-y="0"
     inkscape:window-maximized="0"
     inkscape:snap-global="true"
     fit-margin-top="0"
     fit-margin-left="0"
     fit-margin-right="0"
     fit-margin-bottom="0" />
  <metadata
     id="metadata7">
    <rdf:RDF>
      <cc:Work
         rdf:about="">
        <dc:format>image/svg+xml</dc:format>
        <dc:type
           rdf:resource="http://purl.org/dc/dcmitype/StillImage" />
        <dc:title></dc:title>
      </cc:Work>
    </rdf:RDF>
  </metadata>
  <g
     inkscape:label="Ebene 1"
     inkscape:groupmode="layer"
     id="layer1"
     transform="translate(-86.872868,-722.0575)">
    <g
       id="g3889"
       transform="matrix(0.85683437,0,0,0.85683437,16.437209,88.001328)">
      <path
         style="fill:#000000;stroke:#00ffff;stroke-width:8;stroke-linecap:butt;stroke-linejoin:miter;stroke-miterlimit:4;stroke-opacity:1;stroke-dasharray:none"
         d="m 231.59645,935.67056 81.72147,-20.60724"
         id="path3788"
         inkscape:connector-curvature="0" />
      <path
         inkscape:connector-curvature="0"
         id="path3790"
         d="M 231.59645,935.67056 149.87498,915.06332"
         style="fill:#000000;stroke:#00ffff;stroke-width:8;stroke-linecap:butt;stroke-linejoin:miter;stroke-miterlimit:4;stroke-opacity:1;stroke-dasharray:none" />
      <path
         inkscape:connector-curvature="0"
         id="path3792"
         d="m 231.59645,935.67056 0,-71.96131"
         style="fill:#000000;stroke:#00ffff;stroke-width:8;stroke-linecap:butt;stroke-linejoin:miter;stroke-miterlimit:4;stroke-opacity:1;stroke-dasharray:none"
         sodipodi:nodetypes="cc" />
      <path
         inkscape:connector-curvature="0"
         id="path3002"
         d="m 231.59645,935.67056 81.72147,-20.60724"
         style="fill:#000000;stroke:#000000;stroke-width:8;stroke-linecap:butt;stroke-linejoin:miter;stroke-miterlimit:4;stroke-opacity:1;stroke-dasharray:none" />
      <path
         style="fill:#000000;stroke:#000000;stroke-width:8;stroke-linecap:butt;stroke-linejoin:miter;stroke-miterlimit:4;stroke-opacity:1;stroke-dasharray:none"
         d="M 231.59645,935.67056 149.87498,915.06332"
         id="path3774"
         inkscape:connector-curvature="0" />
      <path
         sodipodi:nodetypes="cc"
         style="fill:#000000;stroke:#000000;stroke-width:8;stroke-linecap:butt;stroke-linejoin:miter;stroke-miterlimit:4;stroke-opacity:1;stroke-dasharray:none"
         d="m 231.59645,935.67056 0,-71.96131"
         id="path3780"
         inkscape:connector-curvature="0" />
      <path
         transform="matrix(0.96888558,0,0,0.96888558,-255.8072,316.83878)"
         d="m 526.79455,638.70471 c 0,13.11048 -10.62814,23.73862 -23.73861,23.73862 -13.11048,0 -23.73861,-10.62814 -23.73861,-23.73862 0,-13.11047 10.62813,-23.73861 23.73861,-23.73861 13.11047,0 23.73861,10.62814 23.73861,23.73861 z"
         sodipodi:ry="23.738613"
         sodipodi:rx="23.738613"
         sodipodi:cy="638.70471"
         sodipodi:cx="503.05594"
         id="path2998"
         style="fill:#000000;fill-opacity:1;stroke:none"
         sodipodi:type="arc" />
      <path
         sodipodi:type="arc"
         style="fill:#000000;fill-opacity:1;stroke:none"
         id="path3000"
         sodipodi:cx="503.05594"
         sodipodi:cy="638.70471"
         sodipodi:rx="23.738613"
         sodipodi:ry="23.738613"
         d="m 526.79455,638.70471 c 0,13.11048 -10.62814,23.73862 -23.73861,23.73862 -13.11048,0 -23.73861,-10.62814 -23.73861,-23.73862 0,-13.11047 10.62813,-23.73861 23.73861,-23.73861 13.11047,0 23.73861,10.62814 23.73861,23.73861 z"
         transform="matrix(0.86357193,0,0,0.86357193,-121.10707,363.49586)" />
      <path
         transform="matrix(-0.86357193,0,0,0.86357193,584.29996,363.49586)"
         d="m 526.79455,638.70471 c 0,13.11048 -10.62814,23.73862 -23.73861,23.73862 -13.11048,0 -23.73861,-10.62814 -23.73861,-23.73862 0,-13.11047 10.62813,-23.73861 23.73861,-23.73861 13.11047,0 23.73861,10.62814 23.73861,23.73861 z"
         sodipodi:ry="23.738613"
         sodipodi:rx="23.738613"
         sodipodi:cy="638.70471"
         sodipodi:cx="503.05594"
         id="path3772"
         style="fill:#000000;fill-opacity:1;stroke:none"
         sodipodi:type="arc" />
      <path
         transform="matrix(0.86357193,0,0,0.86357193,-202.82854,312.14179)"
         d="m 526.79455,638.70471 c 0,13.11048 -10.62814,23.73862 -23.73861,23.73862 -13.11048,0 -23.73861,-10.62814 -23.73861,-23.73862 0,-13.11047 10.62813,-23.73861 23.73861,-23.73861 13.11047,0 23.73861,10.62814 23.73861,23.73861 z"
         sodipodi:ry="23.738613"
         sodipodi:rx="23.738613"
         sodipodi:cy="638.70471"
         sodipodi:cx="503.05594"
         id="path3776"
         style="fill:#000000;fill-opacity:1;stroke:none"
         sodipodi:type="arc" />
      <path
         sodipodi:type="arc"
         style="fill:#000000;fill-opacity:1;stroke:none"
         id="path3794"
         sodipodi:cx="503.05594"
         sodipodi:cy="638.70471"
         sodipodi:rx="23.738613"
         sodipodi:ry="23.738613"
         d="m 526.79455,638.70471 c 0,13.11048 -10.62814,23.73862 -23.73861,23.73862 -13.11048,0 -23.73861,-10.62814 -23.73861,-23.73862 0,-13.11047 10.62813,-23.73861 23.73861,-23.73861 13.11047,0 23.73861,10.62814 23.73861,23.73861 z"
         transform="matrix(0.96888558,0,0,0.96888558,-255.8072,316.83878)" />
      <path
         transform="matrix(0.86357193,0,0,0.86357193,-121.10707,363.49586)"
         d="m 526.79455,638.70471 c 0,13.11048 -10.62814,23.73862 -23.73861,23.73862 -13.11048,0 -23.73861,-10.62814 -23.73861,-23.73862 0,-13.11047 10.62813,-23.73861 23.73861,-23.73861 13.11047,0 23.73861,10.62814 23.73861,23.73861 z"
         sodipodi:ry="23.738613"
         sodipodi:rx="23.738613"
         sodipodi:cy="638.70471"
         sodipodi:cx="503.05594"
         id="path3796"
         style="fill:#000000;fill-opacity:1;stroke:none"
         sodipodi:type="arc" />
      <path
         sodipodi:type="arc"
         style="fill:#000000;fill-opacity:1;stroke:none"
         id="path3798"
         sodipodi:cx="503.05594"
         sodipodi:cy="638.70471"
         sodipodi:rx="23.738613"
         sodipodi:ry="23.738613"
         d="m 526.79455,638.70471 c 0,13.11048 -10.62814,23.73862 -23.73861,23.73862 -13.11048,0 -23.73861,-10.62814 -23.73861,-23.73862 0,-13.11047 10.62813,-23.73861 23.73861,-23.73861 13.11047,0 23.73861,10.62814 23.73861,23.73861 z"
         transform="matrix(-0.86357193,0,0,0.86357193,584.29996,363.49586)" />
      <path
         sodipodi:type="arc"
         style="fill:#000000;fill-opacity:1;stroke:none"
         id="path3800"
         sodipodi:cx="503.05594"
         sodipodi:cy="638.70471"
         sodipodi:rx="23.738613"
         sodipodi:ry="23.738613"
         d="m 526.79455,638.70471 c 0,13.11048 -10.62814,23.73862 -23.73861,23.73862 -13.11048,0 -23.73861,-10.62814 -23.73861,-23.73862 0,-13.11047 10.62813,-23.73861 23.73861,-23.73861 13.11047,0 23.73861,10.62814 23.73861,23.73861 z"
         transform="matrix(0.86357193,0,0,0.86357193,-202.82854,312.14179)" />
      <path
         inkscape:connector-curvature="0"
         id="path3802"
         d="m 231.59162,800.71375 c -31.87634,0 -58.21181,23.68136 -62.40625,54.40625 -6.0901,-1.96461 -12.56771,-3.0625 -19.3125,-3.0625 -34.79394,0 -63.000002,28.20606 -63.000002,63 0,34.79394 28.206062,63 63.000002,63 l 163.4375,0 c 34.79394,0 63,-28.20606 63,-63 0,-34.79394 -28.20606,-63 -63,-63 -6.7427,0 -13.22402,1.06813 -19.3125,3.03125 -4.20776,-30.71 -30.5405,-54.375 -62.40625,-54.375 z m 0,25 c 20.98862,0 38,17.01138 38,38 0,10.77429 -4.48508,20.49128 -11.6875,27.40625 l 19.25,12.25 c 4.92772,-15.27222 19.24329,-26.3125 36.15625,-26.3125 20.98862,0 38,17.01138 38,38 0,20.98862 -17.01138,38 -38,38 l -54.53125,0 c -5.73841,8.94559 -15.77044,14.90625 -27.1875,14.90625 -11.42309,0 -21.4506,-5.95274 -27.1875,-14.90625 l -54.53125,0 c -20.98862,0 -38,-17.01138 -38,-38 0,-20.98862 17.01138,-38 38,-38 16.91296,0 31.22853,11.04028 36.15625,26.3125 l 19.25,-12.25 c -7.20242,-6.91497 -11.6875,-16.63196 -11.6875,-27.40625 0,-20.98862 17.01138,-38 38,-38 z"
         style="fill:#000000;fill-opacity:1;stroke:none" />
    </g>
  </g>
</svg>
