<?xml version="1.0" encoding="UTF-8" standalone="no"?>
<!DOCTYPE svg PUBLIC "-//W3C//DTD SVG 1.0//EN"
 "http://www.w3.org/TR/2001/REC-SVG-20010904/DTD/svg10.dtd" [
 <!ATTLIST svg xmlns:xlink CDATA #FIXED "http://www.w3.org/1999/xlink">
]>
<!-- Generated by Graphviz version 2.21.0 (Wed Jul 23 15:20:11 UTC 2008)
     For user: (ellson) John Ellson -->
<!-- Title: G Pages: 1 -->
<svg width="224pt" height="433pt"
 viewBox="0.00 0.00 224.00 433.00" xmlns="http://www.w3.org/2000/svg" xmlns:xlink="http://www.w3.org/1999/xlink">
<g id="graph0" class="graph" transform="scale(1 1) rotate(0) translate(4 429)">
<title>G</title>
<polygon style="fill:white;stroke:white;" points="-4,4 -4,-429 220,-429 220,4 -4,4"/>
<g id="cluster2" class="cluster"><title>cluster_0</title>
<polygon style="fill:lightgrey;stroke:lightgrey;" points="8,-72 8,-365 98,-365 98,-72 8,-72"/>
<text text-anchor="middle" x="53" y="-348.9" style="font-family:Times New Roman;font-size:14.00;">process #1</text>
</g>
<g id="cluster3" class="cluster"><title>cluster_1</title>
<polygon style="fill:none;stroke:blue;" points="130,-72 130,-365 208,-365 208,-72 130,-72"/>
<text text-anchor="middle" x="169" y="-348.9" style="font-family:Times New Roman;font-size:14.00;">process #2</text>
</g>
<!-- a0 -->
<g id="node2" class="node"><title>a0</title>
<ellipse style="fill:white;stroke:white;" cx="63" cy="-314" rx="27" ry="18"/>
<text text-anchor="middle" x="63" y="-309.9" style="font-family:Times New Roman;font-size:14.00;">a0</text>
</g>
<!-- a1 -->
<g id="node4" class="node"><title>a1</title>
<ellipse style="fill:white;stroke:white;" cx="63" cy="-242" rx="27" ry="18"/>
<text text-anchor="middle" x="63" y="-237.9" style="font-family:Times New Roman;font-size:14.00;">a1</text>
</g>
<!-- a0&#45;&gt;a1 -->
<g id="edge3" class="edge"><title>a0&#45;&gt;a1</title>
<path style="fill:none;stroke:black;" d="M63,-296C63,-288 63,-279 63,-270"/>
<polygon style="fill:black;stroke:black;" points="66.5001,-270 63,-260 59.5001,-270 66.5001,-270"/>
</g>
<!-- a2 -->
<g id="node5" class="node"><title>a2</title>
<ellipse style="fill:white;stroke:white;" cx="63" cy="-170" rx="27" ry="18"/>
<text text-anchor="middle" x="63" y="-165.9" style="font-family:Times New Roman;font-size:14.00;">a2</text>
</g>
<!-- a1&#45;&gt;a2 -->
<g id="edge4" class="edge"><title>a1&#45;&gt;a2</title>
<path style="fill:none;stroke:black;" d="M63,-224C63,-216 63,-207 63,-198"/>
<polygon style="fill:black;stroke:black;" points="66.5001,-198 63,-188 59.5001,-198 66.5001,-198"/>
</g>
<!-- b3 -->
<g id="node12" class="node"><title>b3</title>
<ellipse style="fill:lightgrey;stroke:black;" cx="165" cy="-98" rx="27" ry="18"/>
<text text-anchor="middle" x="165" y="-93.9" style="font-family:Times New Roman;font-size:14.00;">b3</text>
</g>
<!-- a1&#45;&gt;b3 -->
<g id="edge16" class="edge"><title>a1&#45;&gt;b3</title>
<path style="fill:none;stroke:black;" d="M75,-225C92,-201 127,-152 147,-123"/>
<polygon style="fill:black;stroke:black;" points="150.365,-124.262 153,-114 144.541,-120.379 150.365,-124.262"/>
</g>
<!-- a3 -->
<g id="node6" class="node"><title>a3</title>
<ellipse style="fill:white;stroke:white;" cx="63" cy="-98" rx="27" ry="18"/>
<text text-anchor="middle" x="63" y="-93.9" style="font-family:Times New Roman;font-size:14.00;">a3</text>
</g>
<!-- a2&#45;&gt;a3 -->
<g id="edge5" class="edge"><title>a2&#45;&gt;a3</title>
<path style="fill:none;stroke:black;" d="M63,-152C63,-144 63,-135 63,-126"/>
<polygon style="fill:black;stroke:black;" points="66.5001,-126 63,-116 59.5001,-126 66.5001,-126"/>
</g>
<!-- a3&#45;&gt;a0 -->
<g id="edge20" class="edge"><title>a3&#45;&gt;a0</title>
<path style="fill:none;stroke:black;" d="M49,-114C41,-124 32,-138 27,-152 14,-197 14,-214 27,-260 31,-271 37,-281 43,-290"/>
<polygon style="fill:black;stroke:black;" points="40.2,-292.1 49,-298 45.8,-287.9 40.2,-292.1"/>
</g>
<!-- end -->
<g id="node20" class="node"><title>end</title>
<polygon style="fill:none;stroke:black;" points="132,-44 96,-44 96,-8 132,-8 132,-44"/>
<polyline style="fill:none;stroke:black;" points="108,-44 96,-32 "/>
<polyline style="fill:none;stroke:black;" points="96,-20 108,-8 "/>
<polyline style="fill:none;stroke:black;" points="120,-8 132,-20 "/>
<polyline style="fill:none;stroke:black;" points="132,-32 120,-44 "/>
<text text-anchor="middle" x="114" y="-21.9" style="font-family:Times New Roman;font-size:14.00;">end</text>
</g>
<!-- a3&#45;&gt;end -->
<g id="edge22" class="edge"><title>a3&#45;&gt;end</title>
<path style="fill:none;stroke:black;" d="M75,-82C81,-73 89,-62 95,-52"/>
<polygon style="fill:black;stroke:black;" points="97.8,-54.1 101,-44 92.2,-49.9 97.8,-54.1"/>
</g>
<!-- b0 -->
<g id="node8" class="node"><title>b0</title>
<ellipse style="fill:lightgrey;stroke:black;" cx="169" cy="-314" rx="27" ry="18"/>
<text text-anchor="middle" x="169" y="-309.9" style="font-family:Times New Roman;font-size:14.00;">b0</text>
</g>
<!-- b1 -->
<g id="node10" class="node"><title>b1</title>
<ellipse style="fill:lightgrey;stroke:black;" cx="171" cy="-242" rx="27" ry="18"/>
<text text-anchor="middle" x="171" y="-237.9" style="font-family:Times New Roman;font-size:14.00;">b1</text>
</g>
<!-- b0&#45;&gt;b1 -->
<g id="edge8" class="edge"><title>b0&#45;&gt;b1</title>
<path style="fill:none;stroke:black;" d="M170,-296C170,-288 170,-279 170,-270"/>
<polygon style="fill:black;stroke:black;" points="173.488,-270.299 171,-260 166.522,-269.602 173.488,-270.299"/>
</g>
<!-- b2 -->
<g id="node11" class="node"><title>b2</title>
<ellipse style="fill:lightgrey;stroke:black;" cx="173" cy="-170" rx="27" ry="18"/>
<text text-anchor="middle" x="173" y="-165.9" style="font-family:Times New Roman;font-size:14.00;">b2</text>
</g>
<!-- b1&#45;&gt;b2 -->
<g id="edge9" class="edge"><title>b1&#45;&gt;b2</title>
<path style="fill:none;stroke:black;" d="M172,-224C172,-216 172,-207 172,-198"/>
<polygon style="fill:black;stroke:black;" points="175.488,-198.299 173,-188 168.522,-197.602 175.488,-198.299"/>
</g>
<!-- b2&#45;&gt;a3 -->
<g id="edge18" class="edge"><title>b2&#45;&gt;a3</title>
<path style="fill:none;stroke:black;" d="M154,-157C137,-146 110,-129 91,-117"/>
<polygon style="fill:black;stroke:black;" points="92.262,-113.635 82,-111 88.3791,-119.459 92.262,-113.635"/>
</g>
<!-- b2&#45;&gt;b3 -->
<g id="edge10" class="edge"><title>b2&#45;&gt;b3</title>
<path style="fill:none;stroke:black;" d="M171,-152C170,-144 169,-135 168,-126"/>
<polygon style="fill:black;stroke:black;" points="171.478,-125.602 167,-116 164.512,-126.299 171.478,-125.602"/>
</g>
<!-- b3&#45;&gt;end -->
<g id="edge24" class="edge"><title>b3&#45;&gt;end</title>
<path style="fill:none;stroke:black;" d="M153,-82C147,-73 139,-62 133,-52"/>
<polygon style="fill:black;stroke:black;" points="135.8,-49.9 127,-44 130.2,-54.1 135.8,-49.9"/>
</g>
<!-- start -->
<g id="node13" class="node"><title>start</title>
<polygon style="fill:none;stroke:black;" points="116,-424.456 76.2062,-399 116,-373.544 155.794,-399 116,-424.456"/>
<polyline style="fill:none;stroke:black;" points="86.3149,-405.466 86.3149,-392.534 "/>
<polyline style="fill:none;stroke:black;" points="105.891,-380.011 126.109,-380.011 "/>
<polyline style="fill:none;stroke:black;" points="145.685,-392.534 145.685,-405.466 "/>
<polyline style="fill:none;stroke:black;" points="126.109,-417.989 105.891,-417.989 "/>
<text text-anchor="middle" x="116" y="-394.9" style="font-family:Times New Roman;font-size:14.00;">start</text>
</g>
<!-- start&#45;&gt;a0 -->
<g id="edge12" class="edge"><title>start&#45;&gt;a0</title>
<path style="fill:none;stroke:black;" d="M104,-381C97,-369 87,-353 78,-340"/>
<polygon style="fill:black;stroke:black;" points="80.916,-338.042 73,-331 74.7969,-341.441 80.916,-338.042"/>
</g>
<!-- start&#45;&gt;b0 -->
<g id="edge14" class="edge"><title>start&#45;&gt;b0</title>
<path style="fill:none;stroke:black;" d="M128,-381C135,-369 145,-353 154,-340"/>
<polygon style="fill:black;stroke:black;" points="157.203,-341.441 159,-331 151.084,-338.042 157.203,-341.441"/>
</g>
</g>
</svg>
